<?xml version="1.0" encoding="utf-8"?>
<!-- Generator: Adobe Illustrator 24.2.3, SVG Export Plug-In . SVG Version: 6.00 Build 0)  -->
<svg version="1.1" id="Layer_1" xmlns="http://www.w3.org/2000/svg" xmlns:xlink="http://www.w3.org/1999/xlink" x="0px" y="0px"
	 viewBox="0 0 1202 802" enable-background="new 0 0 1202 802" xml:space="preserve">
<circle fill="#5A7CBD" stroke="#5A7CBD" stroke-width="3" stroke-miterlimit="10" cx="601" cy="86.5" r="85"/>
<g>
	<path fill="#F3F4F6" d="M556.52,81.8c0,0.75-0.14,1.45-0.42,2.1c-0.28,0.65-0.68,1.21-1.2,1.68c-0.52,0.47-1.14,0.84-1.87,1.12
		c-0.73,0.27-1.53,0.41-2.4,0.41h-2.92v7.18h-3.41V76.5h6.31c0.88,0,1.68,0.14,2.41,0.42c0.73,0.28,1.35,0.66,1.87,1.14
		c0.52,0.48,0.92,1.04,1.2,1.68C556.38,80.38,556.52,81.07,556.52,81.8z M553.06,81.8c0-0.69-0.24-1.29-0.71-1.78
		c-0.47-0.49-1.15-0.74-2.04-0.74h-2.6v5.04h2.6c0.89,0,1.57-0.24,2.04-0.73C552.83,83.11,553.06,82.51,553.06,81.8z"/>
	<path fill="#F3F4F6" d="M566.28,94.28v-1.94c-0.32,0.69-0.8,1.23-1.45,1.62s-1.45,0.59-2.41,0.59c-0.61,0-1.17-0.1-1.68-0.3
		s-0.96-0.47-1.33-0.82c-0.38-0.34-0.67-0.74-0.89-1.2c-0.22-0.46-0.32-0.94-0.32-1.45c0-0.54,0.12-1.07,0.35-1.57
		s0.59-0.95,1.08-1.33c0.49-0.38,1.11-0.69,1.87-0.91c0.76-0.22,1.66-0.34,2.7-0.34h1.99c0-0.03,0-0.1,0-0.21c0-0.11,0-0.23,0-0.35
		s0-0.23-0.01-0.33c-0.01-0.1-0.03-0.16-0.06-0.18c-0.05-0.52-0.32-0.97-0.8-1.34c-0.49-0.37-1.09-0.56-1.81-0.56
		c-0.59,0-1.12,0.1-1.58,0.29c-0.46,0.19-0.88,0.45-1.25,0.77l-1.8-1.81c0.62-0.53,1.33-0.96,2.12-1.28
		c0.79-0.32,1.72-0.49,2.8-0.49c0.88,0,1.66,0.12,2.34,0.36c0.68,0.24,1.26,0.58,1.73,1.01c0.47,0.43,0.83,0.94,1.08,1.51
		c0.25,0.58,0.37,1.2,0.37,1.87v8.4H566.28z M566.19,88.64h-2.11c-0.48,0-0.89,0.06-1.22,0.17c-0.34,0.11-0.62,0.26-0.84,0.44
		c-0.22,0.18-0.39,0.39-0.49,0.61c-0.1,0.22-0.16,0.45-0.16,0.67c0,0.45,0.16,0.84,0.47,1.16s0.8,0.49,1.48,0.49
		c0.85,0,1.54-0.28,2.08-0.85c0.54-0.57,0.8-1.34,0.8-2.32V88.64z"/>
	<path fill="#F3F4F6" d="M578.12,94.45c-0.62,0-1.18-0.1-1.67-0.29c-0.49-0.19-0.9-0.45-1.25-0.77c-0.34-0.32-0.6-0.7-0.78-1.13
		c-0.18-0.43-0.26-0.89-0.26-1.37v-6.94h-2.42v-2.47h2.42v-3.65h3.12v3.65h2.98v2.47h-2.98v6.5c0,0.48,0.13,0.85,0.4,1.12
		s0.7,0.4,1.31,0.4c0.22,0,0.46-0.02,0.71-0.07c0.25-0.05,0.48-0.11,0.71-0.19v2.47C579.77,94.36,579.01,94.45,578.12,94.45z"/>
	<path fill="#F3F4F6" d="M582.96,79.52V76.5h3.19v3.02H582.96z M582.99,94.28V81.49h3.12v12.79H582.99z"/>
	<path fill="#F3F4F6" d="M592.37,88.74c0.14,0.98,0.52,1.78,1.13,2.38c0.61,0.6,1.39,0.91,2.35,0.91c1.09,0,1.94-0.33,2.57-0.98
		l1.82,1.81c-0.67,0.58-1.37,1.01-2.09,1.28c-0.72,0.27-1.54,0.41-2.47,0.41c-0.94,0-1.82-0.16-2.63-0.48
		c-0.81-0.32-1.51-0.77-2.1-1.36s-1.06-1.28-1.39-2.1c-0.34-0.82-0.5-1.73-0.5-2.74c0-0.99,0.15-1.9,0.44-2.71
		c0.3-0.82,0.71-1.52,1.25-2.1c0.54-0.58,1.18-1.04,1.92-1.36c0.74-0.32,1.56-0.48,2.44-0.48c0.83,0,1.61,0.14,2.33,0.43
		c0.72,0.29,1.34,0.72,1.87,1.3s0.94,1.3,1.25,2.16c0.3,0.86,0.46,1.86,0.46,3v0.62H592.37z M597.77,86.51
		c-0.13-0.86-0.42-1.56-0.86-2.09c-0.45-0.53-1.04-0.79-1.78-0.79c-0.7,0-1.3,0.26-1.79,0.78c-0.49,0.52-0.8,1.22-0.92,2.1H597.77z"
		/>
	<path fill="#F3F4F6" d="M612.34,94.28v-7.56c0-0.98-0.22-1.7-0.66-2.17c-0.44-0.47-1.05-0.71-1.84-0.71
		c-0.86,0-1.58,0.32-2.16,0.97c-0.58,0.65-0.86,1.67-0.86,3.06v6.41h-3.12V81.49h3.02v1.97c0.29-0.67,0.78-1.21,1.47-1.62
		c0.69-0.41,1.54-0.61,2.55-0.61c0.69,0,1.33,0.12,1.91,0.35c0.59,0.23,1.08,0.57,1.49,1.01c0.41,0.44,0.73,0.97,0.96,1.6
		s0.35,1.33,0.35,2.11v7.99H612.34z"/>
	<path fill="#F3F4F6" d="M624.24,94.45c-0.62,0-1.18-0.1-1.67-0.29c-0.49-0.19-0.9-0.45-1.25-0.77c-0.34-0.32-0.6-0.7-0.78-1.13
		c-0.18-0.43-0.26-0.89-0.26-1.37v-6.94h-2.42v-2.47h2.42v-3.65h3.12v3.65h2.98v2.47h-2.98v6.5c0,0.48,0.13,0.85,0.4,1.12
		s0.7,0.4,1.31,0.4c0.22,0,0.46-0.02,0.71-0.07c0.25-0.05,0.48-0.11,0.71-0.19v2.47C625.9,94.36,625.14,94.45,624.24,94.45z"/>
	<path fill="#F3F4F6" d="M633.58,81.35l1.87,2.59l-1.39,1.03l-1.9-2.59l-1.87,2.59l-1.42-1.03l1.9-2.59l-3.05-0.98l0.53-1.66
		l3.05,1.01V76.5h1.73v3.22l3.05-1.01l0.53,1.66L633.58,81.35z"/>
	<path fill="#F3F4F6" d="M639.08,79.52V76.5h3.19v3.02H639.08z M639.1,94.28V81.49h3.12v12.79H639.1z"/>
	<path fill="#F3F4F6" d="M654.77,94.28v-7.56c0-0.98-0.22-1.7-0.66-2.17c-0.44-0.47-1.05-0.71-1.84-0.71
		c-0.86,0-1.58,0.32-2.16,0.97c-0.58,0.65-0.86,1.67-0.86,3.06v6.41h-3.12V81.49h3.02v1.97c0.29-0.67,0.78-1.21,1.47-1.62
		c0.69-0.41,1.54-0.61,2.55-0.61c0.69,0,1.33,0.12,1.91,0.35c0.59,0.23,1.08,0.57,1.49,1.01c0.41,0.44,0.73,0.97,0.96,1.6
		s0.35,1.33,0.35,2.11v7.99H654.77z"/>
</g>
<circle fill="#F7F1A9" stroke="#5A7CBD" stroke-width="3" stroke-miterlimit="10" cx="1115.5" cy="510.5" r="85"/>
<g>
	<path fill="#5A7CBD" d="M1047.56,488.45c-0.61,0-1.04,0.13-1.31,0.39c-0.26,0.26-0.4,0.63-0.4,1.11v1.14h2.98v2.47h-2.98v10.32
		h-3.12v-10.32h-2.42v-2.47h2.42v-1.61c0-0.48,0.09-0.94,0.26-1.37c0.18-0.43,0.44-0.81,0.78-1.13c0.34-0.32,0.76-0.58,1.25-0.77
		c0.49-0.19,1.04-0.29,1.67-0.29c0.46,0,0.88,0.02,1.26,0.07s0.72,0.11,1.02,0.19v2.52
		C1048.53,488.54,1048.05,488.45,1047.56,488.45z"/>
	<path fill="#5A7CBD" d="M1058.86,503.88v-1.94c-0.32,0.69-0.8,1.23-1.45,1.62c-0.65,0.39-1.45,0.59-2.41,0.59
		c-0.61,0-1.17-0.1-1.68-0.3c-0.51-0.2-0.96-0.47-1.33-0.82s-0.67-0.74-0.89-1.2c-0.22-0.46-0.32-0.94-0.32-1.45
		c0-0.54,0.12-1.07,0.35-1.57c0.23-0.5,0.59-0.95,1.08-1.33c0.49-0.38,1.11-0.69,1.87-0.91c0.76-0.22,1.66-0.34,2.7-0.34h1.99
		c0-0.03,0-0.1,0-0.21c0-0.11,0-0.23,0-0.34s0-0.23-0.01-0.33c-0.01-0.1-0.03-0.16-0.06-0.18c-0.05-0.52-0.32-0.97-0.8-1.34
		c-0.49-0.37-1.09-0.56-1.81-0.56c-0.59,0-1.12,0.1-1.58,0.29s-0.88,0.45-1.25,0.77l-1.8-1.81c0.62-0.53,1.33-0.96,2.12-1.28
		s1.72-0.48,2.8-0.48c0.88,0,1.66,0.12,2.34,0.36s1.26,0.58,1.73,1.01c0.47,0.43,0.83,0.94,1.08,1.51c0.25,0.58,0.37,1.2,0.37,1.87
		v8.4H1058.86z M1058.77,498.24h-2.11c-0.48,0-0.89,0.06-1.22,0.17s-0.62,0.26-0.84,0.44c-0.22,0.18-0.39,0.39-0.49,0.61
		c-0.1,0.22-0.16,0.45-0.16,0.67c0,0.45,0.16,0.84,0.47,1.16c0.31,0.33,0.8,0.49,1.48,0.49c0.85,0,1.54-0.28,2.08-0.85
		c0.54-0.57,0.8-1.34,0.8-2.32V498.24z"/>
	<path fill="#5A7CBD" d="M1065.8,503.88V486.1h3.12v17.78H1065.8z"/>
	<path fill="#5A7CBD" d="M1072.83,503.88V486.1h3.12v17.78H1072.83z"/>
	<path fill="#5A7CBD" d="M1092.37,497.47c0,1.02-0.16,1.95-0.47,2.77c-0.31,0.82-0.72,1.52-1.24,2.1c-0.51,0.58-1.11,1.02-1.8,1.33
		c-0.69,0.31-1.4,0.47-2.14,0.47c-0.38,0-0.78-0.05-1.18-0.16c-0.4-0.1-0.78-0.25-1.13-0.44c-0.35-0.19-0.66-0.42-0.92-0.67
		c-0.26-0.26-0.47-0.54-0.61-0.84v1.85h-3.02V486.1h3.12v6.72c0.16-0.3,0.38-0.58,0.65-0.82c0.27-0.24,0.58-0.45,0.91-0.62
		c0.34-0.18,0.69-0.31,1.07-0.41c0.38-0.1,0.75-0.14,1.12-0.14c0.74,0,1.45,0.16,2.14,0.47c0.69,0.31,1.29,0.76,1.8,1.33
		c0.51,0.58,0.92,1.27,1.24,2.09C1092.21,495.53,1092.37,496.45,1092.37,497.47z M1089.12,497.47c0-1.3-0.3-2.29-0.89-2.99
		c-0.59-0.7-1.32-1.04-2.18-1.04c-0.42,0-0.81,0.09-1.19,0.26c-0.38,0.18-0.71,0.44-0.98,0.78c-0.28,0.34-0.5,0.77-0.66,1.27
		s-0.24,1.08-0.24,1.72c0,0.66,0.08,1.23,0.24,1.73s0.38,0.92,0.66,1.27c0.28,0.35,0.61,0.62,0.98,0.79
		c0.38,0.18,0.77,0.26,1.19,0.26s0.81-0.09,1.19-0.26c0.38-0.18,0.7-0.44,0.98-0.79c0.28-0.35,0.5-0.78,0.66-1.27
		S1089.12,498.13,1089.12,497.47z"/>
	<path fill="#5A7CBD" d="M1097.64,498.34c0.14,0.99,0.52,1.78,1.13,2.38c0.61,0.6,1.39,0.91,2.35,0.91c1.09,0,1.94-0.33,2.57-0.98
		l1.82,1.81c-0.67,0.58-1.37,1.01-2.09,1.28s-1.54,0.41-2.47,0.41c-0.94,0-1.82-0.16-2.63-0.48c-0.81-0.32-1.51-0.77-2.1-1.36
		s-1.06-1.28-1.39-2.1c-0.34-0.82-0.5-1.73-0.5-2.74c0-0.99,0.15-1.9,0.44-2.71c0.29-0.82,0.71-1.52,1.25-2.1s1.18-1.04,1.92-1.36
		c0.74-0.32,1.56-0.48,2.44-0.48c0.83,0,1.61,0.14,2.33,0.43s1.34,0.72,1.87,1.3c0.53,0.58,0.94,1.3,1.25,2.16
		c0.3,0.86,0.46,1.86,0.46,3v0.62H1097.64z M1103.04,496.11c-0.13-0.86-0.42-1.56-0.86-2.09c-0.45-0.53-1.04-0.79-1.78-0.79
		c-0.71,0-1.3,0.26-1.79,0.78c-0.49,0.52-0.8,1.22-0.92,2.1H1103.04z"/>
	<path fill="#5A7CBD" d="M1107.92,503.88v-2.28l5.59-8.04h-5.42v-2.47h9.17v2.31l-5.59,7.96h5.76v2.52H1107.92z"/>
	<path fill="#5A7CBD" d="M1131.72,497.47c0,1.02-0.16,1.95-0.47,2.77s-0.75,1.52-1.31,2.1c-0.56,0.58-1.22,1.02-1.98,1.33
		c-0.76,0.31-1.58,0.47-2.46,0.47c-0.9,0-1.72-0.16-2.47-0.47c-0.75-0.31-1.41-0.76-1.97-1.33c-0.56-0.58-1-1.28-1.31-2.1
		c-0.31-0.82-0.47-1.75-0.47-2.77c0-1.02,0.16-1.94,0.47-2.76c0.31-0.82,0.75-1.51,1.31-2.09c0.56-0.58,1.22-1.02,1.97-1.33
		c0.75-0.31,1.58-0.47,2.47-0.47c0.88,0,1.7,0.16,2.46,0.47c0.76,0.31,1.42,0.76,1.98,1.33c0.56,0.58,1,1.27,1.31,2.09
		C1131.57,495.53,1131.72,496.45,1131.72,497.47z M1128.48,497.47c0-1.3-0.28-2.29-0.84-2.99c-0.56-0.7-1.27-1.04-2.14-1.04
		c-0.85,0-1.56,0.35-2.12,1.04c-0.57,0.7-0.85,1.69-0.85,2.99c0,1.3,0.28,2.3,0.85,3c0.57,0.71,1.28,1.06,2.12,1.06
		c0.85,0,1.56-0.35,2.12-1.06C1128.2,499.77,1128.48,498.77,1128.48,497.47z"/>
	<path fill="#5A7CBD" d="M1146.17,502.73c0,0.82-0.16,1.58-0.47,2.29c-0.31,0.71-0.76,1.33-1.34,1.86
		c-0.58,0.53-1.29,0.94-2.12,1.25s-1.76,0.46-2.78,0.46c-1.23,0-2.26-0.19-3.1-0.56c-0.83-0.38-1.49-0.8-1.97-1.28l1.78-1.78
		c0.3,0.29,0.71,0.55,1.22,0.79s1.16,0.36,1.94,0.36c0.53,0,1.02-0.08,1.48-0.24s0.85-0.39,1.19-0.7s0.6-0.66,0.78-1.07
		c0.18-0.41,0.28-0.87,0.28-1.38v-0.98c-0.3,0.58-0.8,1.06-1.48,1.45c-0.68,0.39-1.43,0.59-2.24,0.59c-0.75,0-1.47-0.16-2.15-0.47
		c-0.68-0.31-1.28-0.75-1.79-1.31c-0.51-0.56-0.92-1.24-1.24-2.04c-0.31-0.8-0.47-1.69-0.47-2.66c0-0.98,0.16-1.86,0.47-2.66
		c0.31-0.8,0.72-1.48,1.24-2.04c0.51-0.56,1.11-1,1.79-1.31c0.68-0.31,1.4-0.47,2.15-0.47c0.43,0,0.85,0.06,1.25,0.18
		c0.4,0.12,0.77,0.28,1.1,0.47c0.34,0.19,0.63,0.42,0.89,0.68s0.45,0.54,0.58,0.83v-1.9h3.02V502.73z M1143.05,497.31
		c0-0.59-0.08-1.12-0.24-1.6c-0.16-0.47-0.38-0.88-0.66-1.21c-0.28-0.34-0.6-0.6-0.97-0.78c-0.37-0.18-0.76-0.28-1.18-0.28
		c-0.43,0-0.83,0.09-1.2,0.28c-0.37,0.18-0.69,0.44-0.97,0.78c-0.28,0.34-0.5,0.74-0.66,1.21c-0.16,0.47-0.24,1-0.24,1.6
		c0,1.2,0.29,2.14,0.88,2.83c0.58,0.69,1.32,1.03,2.2,1.03c0.42,0,0.81-0.09,1.18-0.26s0.69-0.43,0.97-0.77
		c0.28-0.34,0.5-0.74,0.66-1.21C1142.97,498.45,1143.05,497.91,1143.05,497.31z"/>
	<path fill="#5A7CBD" d="M1152.44,498.34c0.14,0.99,0.52,1.78,1.13,2.38c0.61,0.6,1.39,0.91,2.35,0.91c1.09,0,1.94-0.33,2.57-0.98
		l1.82,1.81c-0.67,0.58-1.37,1.01-2.09,1.28s-1.54,0.41-2.47,0.41c-0.94,0-1.82-0.16-2.63-0.48c-0.81-0.32-1.51-0.77-2.1-1.36
		s-1.06-1.28-1.39-2.1c-0.34-0.82-0.5-1.73-0.5-2.74c0-0.99,0.15-1.9,0.44-2.71c0.29-0.82,0.71-1.52,1.25-2.1s1.18-1.04,1.92-1.36
		c0.74-0.32,1.56-0.48,2.44-0.48c0.83,0,1.61,0.14,2.33,0.43s1.34,0.72,1.87,1.3c0.53,0.58,0.94,1.3,1.25,2.16
		c0.3,0.86,0.46,1.86,0.46,3v0.62H1152.44z M1157.84,496.11c-0.13-0.86-0.42-1.56-0.86-2.09c-0.45-0.53-1.04-0.79-1.78-0.79
		c-0.71,0-1.3,0.26-1.79,0.78c-0.49,0.52-0.8,1.22-0.92,2.1H1157.84z"/>
	<path fill="#5A7CBD" d="M1172.4,503.88v-7.56c0-0.98-0.22-1.7-0.66-2.17c-0.44-0.47-1.05-0.71-1.84-0.71
		c-0.86,0-1.58,0.32-2.16,0.97c-0.58,0.65-0.86,1.67-0.86,3.06v6.41h-3.12v-12.79h3.02v1.97c0.29-0.67,0.78-1.21,1.47-1.62
		c0.69-0.41,1.54-0.61,2.55-0.61c0.69,0,1.33,0.12,1.91,0.35c0.59,0.23,1.08,0.57,1.49,1.01c0.41,0.44,0.73,0.97,0.96,1.6
		s0.35,1.33,0.35,2.11v7.99H1172.4z"/>
	<path fill="#5A7CBD" d="M1181.76,498.34c0.14,0.99,0.52,1.78,1.13,2.38c0.61,0.6,1.39,0.91,2.35,0.91c1.09,0,1.94-0.33,2.57-0.98
		l1.82,1.81c-0.67,0.58-1.37,1.01-2.09,1.28s-1.54,0.41-2.47,0.41c-0.94,0-1.82-0.16-2.63-0.48c-0.81-0.32-1.51-0.77-2.1-1.36
		s-1.06-1.28-1.39-2.1c-0.34-0.82-0.5-1.73-0.5-2.74c0-0.99,0.15-1.9,0.44-2.71c0.29-0.82,0.71-1.52,1.25-2.1s1.18-1.04,1.92-1.36
		c0.74-0.32,1.56-0.48,2.44-0.48c0.83,0,1.61,0.14,2.33,0.43s1.34,0.72,1.87,1.3c0.53,0.58,0.94,1.3,1.25,2.16
		c0.3,0.86,0.46,1.86,0.46,3v0.62H1181.76z M1187.16,496.11c-0.13-0.86-0.42-1.56-0.86-2.09c-0.45-0.53-1.04-0.79-1.78-0.79
		c-0.71,0-1.3,0.26-1.79,0.78c-0.49,0.52-0.8,1.22-0.92,2.1H1187.16z"/>
	<path fill="#5A7CBD" d="M1064.2,532.68V514.9h9.67v2.78h-6.26v4.68h6.07v2.78h-6.07v4.75h6.43v2.78H1064.2z"/>
	<path fill="#5A7CBD" d="M1084.5,532.68l-2.57-4.22l-2.57,4.22h-3.65l4.39-6.58l-4.2-6.22h3.74l2.28,3.79l2.28-3.79h3.74l-4.2,6.22
		l4.39,6.58H1084.5z"/>
	<path fill="#5A7CBD" d="M1102.96,526.27c0,1.02-0.16,1.95-0.47,2.77c-0.31,0.82-0.72,1.52-1.24,2.1c-0.51,0.58-1.11,1.02-1.8,1.33
		c-0.69,0.31-1.4,0.47-2.14,0.47c-0.37,0-0.74-0.05-1.12-0.14s-0.73-0.23-1.07-0.4s-0.64-0.37-0.91-0.61
		c-0.27-0.24-0.49-0.5-0.65-0.79v6.12h-3.12v-17.23h3.02v1.9c0.14-0.3,0.35-0.59,0.61-0.85c0.26-0.26,0.57-0.49,0.92-0.68
		c0.35-0.19,0.73-0.34,1.13-0.46c0.4-0.11,0.79-0.17,1.18-0.17c0.74,0,1.45,0.16,2.14,0.47c0.69,0.31,1.29,0.76,1.8,1.33
		s0.92,1.27,1.24,2.09C1102.8,524.33,1102.96,525.25,1102.96,526.27z M1099.72,526.27c0-1.3-0.3-2.29-0.89-2.99
		c-0.59-0.7-1.32-1.04-2.18-1.04c-0.42,0-0.81,0.09-1.19,0.26c-0.38,0.18-0.7,0.44-0.98,0.78c-0.28,0.34-0.5,0.77-0.66,1.27
		c-0.16,0.5-0.24,1.08-0.24,1.72c0,0.66,0.08,1.23,0.24,1.73c0.16,0.5,0.38,0.92,0.66,1.27c0.28,0.35,0.61,0.62,0.98,0.79
		c0.38,0.18,0.77,0.26,1.19,0.26c0.42,0,0.81-0.09,1.19-0.26c0.38-0.18,0.7-0.44,0.98-0.79c0.28-0.35,0.5-0.78,0.66-1.27
		C1099.64,527.51,1099.72,526.93,1099.72,526.27z"/>
	<path fill="#5A7CBD" d="M1108.24,527.14c0.14,0.99,0.52,1.78,1.13,2.38c0.61,0.6,1.39,0.91,2.35,0.91c1.09,0,1.94-0.33,2.57-0.98
		l1.82,1.81c-0.67,0.58-1.37,1.01-2.09,1.28s-1.54,0.41-2.47,0.41c-0.94,0-1.82-0.16-2.63-0.48c-0.81-0.32-1.51-0.77-2.1-1.36
		s-1.06-1.28-1.39-2.1c-0.34-0.82-0.5-1.73-0.5-2.74c0-0.99,0.15-1.9,0.44-2.71c0.29-0.82,0.71-1.52,1.25-2.1s1.18-1.04,1.92-1.36
		c0.74-0.32,1.56-0.48,2.44-0.48c0.83,0,1.61,0.14,2.33,0.43s1.34,0.72,1.87,1.3c0.53,0.58,0.94,1.3,1.25,2.16
		c0.3,0.86,0.46,1.86,0.46,3v0.62H1108.24z M1113.64,524.91c-0.13-0.86-0.42-1.56-0.86-2.09c-0.45-0.53-1.04-0.79-1.78-0.79
		c-0.71,0-1.3,0.26-1.79,0.78c-0.49,0.52-0.8,1.22-0.92,2.1H1113.64z"/>
	<path fill="#5A7CBD" d="M1125.99,522.41c-0.36,0-0.68,0.04-0.97,0.12c-0.75,0.16-1.33,0.56-1.73,1.2c-0.4,0.64-0.6,1.5-0.6,2.59
		v6.36h-3.12v-12.79h3.02v1.94c0.34-0.7,0.85-1.25,1.54-1.63c0.69-0.38,1.65-0.58,2.88-0.58v2.83
		C1126.69,522.43,1126.35,522.41,1125.99,522.41z"/>
	<path fill="#5A7CBD" d="M1134.23,532.85c-0.62,0-1.18-0.1-1.67-0.29c-0.49-0.19-0.9-0.45-1.25-0.77c-0.34-0.32-0.6-0.7-0.78-1.13
		c-0.18-0.43-0.26-0.89-0.26-1.37v-6.94h-2.42v-2.47h2.42v-3.65h3.12v3.65h2.98v2.47h-2.98v6.5c0,0.48,0.13,0.85,0.4,1.12
		c0.26,0.26,0.7,0.4,1.31,0.4c0.22,0,0.46-0.02,0.71-0.07s0.48-0.11,0.71-0.19v2.47C1135.89,532.76,1135.13,532.85,1134.23,532.85z"
		/>
	<path fill="#5A7CBD" d="M1139.08,517.92v-3.02h3.19v3.02H1139.08z M1139.1,532.68v-12.79h3.12v12.79H1139.1z"/>
	<path fill="#5A7CBD" d="M1154.46,529.11c0,0.5-0.1,0.98-0.31,1.45s-0.52,0.89-0.94,1.26c-0.42,0.37-0.94,0.66-1.58,0.89
		c-0.64,0.22-1.4,0.33-2.28,0.33c-0.94,0-1.8-0.17-2.58-0.52c-0.78-0.35-1.41-0.77-1.91-1.27l1.8-1.81
		c0.27,0.27,0.64,0.52,1.12,0.74c0.47,0.22,1,0.34,1.57,0.34c0.67,0,1.18-0.13,1.54-0.39c0.35-0.26,0.53-0.59,0.53-0.97
		c0-0.42-0.15-0.74-0.46-0.97c-0.3-0.23-0.69-0.44-1.15-0.61c-0.46-0.17-0.96-0.35-1.49-0.53c-0.53-0.18-1.02-0.41-1.49-0.71
		c-0.46-0.29-0.85-0.68-1.15-1.15s-0.46-1.09-0.46-1.86c0-0.46,0.1-0.92,0.31-1.38c0.21-0.46,0.52-0.86,0.92-1.22
		c0.41-0.36,0.91-0.65,1.51-0.87s1.28-0.33,2.05-0.33c0.96,0,1.8,0.17,2.52,0.5c0.72,0.33,1.34,0.76,1.85,1.27l-1.8,1.83
		c-0.3-0.3-0.66-0.56-1.07-0.77s-0.88-0.31-1.43-0.31c-0.61,0-1.06,0.14-1.36,0.43s-0.44,0.58-0.44,0.89c0,0.33,0.15,0.6,0.46,0.8
		c0.3,0.2,0.68,0.38,1.14,0.55c0.46,0.17,0.95,0.34,1.49,0.53c0.54,0.18,1.03,0.43,1.49,0.74c0.46,0.31,0.84,0.71,1.14,1.21
		C1154.31,527.69,1154.46,528.33,1154.46,529.11z"/>
	<path fill="#5A7CBD" d="M1159.55,527.14c0.14,0.99,0.52,1.78,1.13,2.38c0.61,0.6,1.39,0.91,2.35,0.91c1.09,0,1.94-0.33,2.57-0.98
		l1.82,1.81c-0.67,0.58-1.37,1.01-2.09,1.28c-0.72,0.27-1.54,0.41-2.47,0.41c-0.94,0-1.82-0.16-2.63-0.48
		c-0.81-0.32-1.51-0.77-2.1-1.36s-1.06-1.28-1.39-2.1c-0.34-0.82-0.5-1.73-0.5-2.74c0-0.99,0.15-1.9,0.44-2.71
		c0.3-0.82,0.71-1.52,1.25-2.1s1.18-1.04,1.92-1.36c0.74-0.32,1.56-0.48,2.44-0.48c0.83,0,1.61,0.14,2.33,0.43
		c0.72,0.29,1.34,0.72,1.87,1.3c0.53,0.58,0.94,1.3,1.25,2.16s0.46,1.86,0.46,3v0.62H1159.55z M1164.95,524.91
		c-0.13-0.86-0.42-1.56-0.86-2.09c-0.45-0.53-1.04-0.79-1.78-0.79c-0.7,0-1.3,0.26-1.79,0.78c-0.49,0.52-0.8,1.22-0.92,2.1H1164.95z
		"/>
</g>
<circle fill="#F7F1A9" stroke="#5A7CBD" stroke-width="3" stroke-miterlimit="10" cx="86.5" cy="510.5" r="85"/>
<g>
	<path fill="#5A7CBD" d="M28.11,503.88l-6.38-8.5v8.5h-3.41V486.1h3.41v8.14l6.17-8.14h4.22l-7.03,8.71l7.3,9.07H28.11z"/>
	<path fill="#5A7CBD" d="M45.51,497.47c0,1.02-0.16,1.95-0.47,2.77c-0.31,0.82-0.75,1.52-1.31,2.1c-0.56,0.58-1.22,1.02-1.98,1.33
		c-0.76,0.31-1.58,0.47-2.46,0.47c-0.9,0-1.72-0.16-2.47-0.47c-0.75-0.31-1.41-0.76-1.97-1.33c-0.56-0.58-1-1.28-1.31-2.1
		s-0.47-1.75-0.47-2.77c0-1.02,0.16-1.94,0.47-2.76c0.31-0.82,0.75-1.51,1.31-2.09s1.22-1.02,1.97-1.33
		c0.75-0.31,1.58-0.47,2.47-0.47c0.88,0,1.7,0.16,2.46,0.47c0.76,0.31,1.42,0.76,1.98,1.33c0.56,0.58,1,1.27,1.31,2.09
		C45.35,495.53,45.51,496.45,45.51,497.47z M42.27,497.47c0-1.3-0.28-2.29-0.84-2.99c-0.56-0.7-1.27-1.04-2.14-1.04
		c-0.85,0-1.56,0.35-2.12,1.04c-0.57,0.7-0.85,1.69-0.85,2.99c0,1.3,0.28,2.3,0.85,3c0.57,0.71,1.28,1.06,2.12,1.06
		c0.85,0,1.56-0.35,2.12-1.06C41.98,499.77,42.27,498.77,42.27,497.47z"/>
	<path fill="#5A7CBD" d="M64.01,503.88v-7.56c0-1.92-0.71-2.88-2.12-2.88c-0.32,0-0.63,0.08-0.93,0.25
		c-0.3,0.17-0.57,0.42-0.81,0.74c-0.24,0.33-0.43,0.74-0.57,1.22c-0.14,0.49-0.22,1.05-0.22,1.69v6.53h-3.12v-7.56
		c0-1.92-0.71-2.88-2.14-2.88c-0.32,0-0.63,0.08-0.94,0.25c-0.3,0.17-0.58,0.42-0.82,0.74c-0.24,0.33-0.43,0.74-0.58,1.22
		c-0.14,0.49-0.22,1.05-0.22,1.69v6.53h-3.12v-12.79h3.02v1.99c0.32-0.72,0.77-1.28,1.35-1.67c0.58-0.39,1.31-0.59,2.19-0.59
		c0.53,0,1.01,0.08,1.43,0.23c0.43,0.15,0.8,0.35,1.12,0.59c0.32,0.24,0.59,0.51,0.81,0.82c0.22,0.3,0.4,0.62,0.54,0.94
		c0.38-0.8,0.9-1.43,1.54-1.88c0.64-0.46,1.42-0.68,2.35-0.68c0.66,0,1.25,0.12,1.79,0.36c0.54,0.24,0.99,0.58,1.37,1.01
		c0.38,0.43,0.67,0.96,0.88,1.57c0.21,0.62,0.31,1.31,0.31,2.08v8.04H64.01z"/>
	<path fill="#5A7CBD" d="M83.52,497.47c0,1.02-0.16,1.95-0.47,2.77s-0.72,1.52-1.24,2.1c-0.51,0.58-1.11,1.02-1.8,1.33
		c-0.69,0.31-1.4,0.47-2.14,0.47c-0.37,0-0.74-0.05-1.12-0.14s-0.73-0.23-1.07-0.4s-0.64-0.37-0.91-0.61s-0.49-0.5-0.65-0.79v6.12
		h-3.12v-17.23h3.02v1.9c0.14-0.3,0.35-0.59,0.61-0.85c0.26-0.26,0.57-0.49,0.92-0.68c0.35-0.19,0.73-0.34,1.13-0.46
		c0.4-0.11,0.79-0.17,1.18-0.17c0.74,0,1.45,0.16,2.14,0.47c0.69,0.31,1.29,0.76,1.8,1.33c0.51,0.58,0.92,1.27,1.24,2.09
		C83.37,495.53,83.52,496.45,83.52,497.47z M80.28,497.47c0-1.3-0.3-2.29-0.89-2.99c-0.59-0.7-1.32-1.04-2.18-1.04
		c-0.42,0-0.81,0.09-1.19,0.26c-0.38,0.18-0.7,0.44-0.98,0.78s-0.5,0.77-0.66,1.27c-0.16,0.5-0.24,1.08-0.24,1.72
		c0,0.66,0.08,1.23,0.24,1.73c0.16,0.5,0.38,0.92,0.66,1.27c0.28,0.35,0.61,0.62,0.98,0.79c0.38,0.18,0.77,0.26,1.19,0.26
		c0.42,0,0.81-0.09,1.19-0.26c0.38-0.18,0.7-0.44,0.98-0.79c0.28-0.35,0.5-0.78,0.66-1.27C80.2,498.71,80.28,498.13,80.28,497.47z"
		/>
	<path fill="#5A7CBD" d="M88.8,498.34c0.14,0.99,0.52,1.78,1.13,2.38s1.39,0.91,2.35,0.91c1.09,0,1.94-0.33,2.57-0.98l1.82,1.81
		c-0.67,0.58-1.37,1.01-2.09,1.28c-0.72,0.27-1.54,0.41-2.47,0.41c-0.94,0-1.82-0.16-2.63-0.48c-0.81-0.32-1.51-0.77-2.1-1.36
		s-1.06-1.28-1.39-2.1c-0.34-0.82-0.5-1.73-0.5-2.74c0-0.99,0.15-1.9,0.44-2.71c0.3-0.82,0.71-1.52,1.25-2.1s1.18-1.04,1.92-1.36
		c0.74-0.32,1.56-0.48,2.44-0.48c0.83,0,1.61,0.14,2.33,0.43c0.72,0.29,1.34,0.72,1.87,1.3c0.53,0.58,0.94,1.3,1.25,2.16
		c0.3,0.86,0.46,1.86,0.46,3v0.62H88.8z M94.2,496.11c-0.13-0.86-0.42-1.56-0.86-2.09c-0.45-0.53-1.04-0.79-1.78-0.79
		c-0.7,0-1.3,0.26-1.79,0.78c-0.49,0.52-0.8,1.22-0.92,2.1H94.2z"/>
	<path fill="#5A7CBD" d="M105.03,504.05c-0.62,0-1.18-0.1-1.67-0.29c-0.49-0.19-0.9-0.45-1.25-0.77s-0.6-0.7-0.78-1.13
		c-0.18-0.43-0.26-0.89-0.26-1.37v-6.94h-2.42v-2.47h2.42v-3.65h3.12v3.65h2.98v2.47h-2.98v6.5c0,0.48,0.13,0.85,0.4,1.12
		c0.26,0.26,0.7,0.4,1.31,0.4c0.22,0,0.46-0.02,0.71-0.07c0.25-0.05,0.48-0.11,0.71-0.19v2.47
		C106.68,503.96,105.92,504.05,105.03,504.05z"/>
	<path fill="#5A7CBD" d="M112.25,498.34c0.14,0.99,0.52,1.78,1.13,2.38s1.39,0.91,2.35,0.91c1.09,0,1.94-0.33,2.57-0.98l1.82,1.81
		c-0.67,0.58-1.37,1.01-2.09,1.28c-0.72,0.27-1.54,0.41-2.47,0.41c-0.94,0-1.82-0.16-2.63-0.48c-0.81-0.32-1.51-0.77-2.1-1.36
		s-1.06-1.28-1.39-2.1c-0.34-0.82-0.5-1.73-0.5-2.74c0-0.99,0.15-1.9,0.44-2.71c0.3-0.82,0.71-1.52,1.25-2.1s1.18-1.04,1.92-1.36
		c0.74-0.32,1.56-0.48,2.44-0.48c0.83,0,1.61,0.14,2.33,0.43c0.72,0.29,1.34,0.72,1.87,1.3c0.53,0.58,0.94,1.3,1.25,2.16
		c0.3,0.86,0.46,1.86,0.46,3v0.62H112.25z M117.65,496.11c-0.13-0.86-0.42-1.56-0.86-2.09c-0.45-0.53-1.04-0.79-1.78-0.79
		c-0.7,0-1.3,0.26-1.79,0.78c-0.49,0.52-0.8,1.22-0.92,2.1H117.65z"/>
	<path fill="#5A7CBD" d="M132.22,503.88v-7.56c0-0.98-0.22-1.7-0.66-2.17s-1.05-0.71-1.84-0.71c-0.86,0-1.58,0.32-2.16,0.97
		c-0.58,0.65-0.86,1.67-0.86,3.06v6.41h-3.12v-12.79h3.02v1.97c0.29-0.67,0.78-1.21,1.47-1.62c0.69-0.41,1.54-0.61,2.55-0.61
		c0.69,0,1.33,0.12,1.91,0.35c0.59,0.23,1.08,0.57,1.49,1.01c0.41,0.44,0.73,0.97,0.96,1.6s0.35,1.33,0.35,2.11v7.99H132.22z"/>
	<path fill="#5A7CBD" d="M138.17,503.88v-2.28l5.59-8.04h-5.42v-2.47h9.17v2.31l-5.59,7.96h5.76v2.52H138.17z"/>
	<path fill="#5A7CBD" d="M149.62,498.34v-2.23h6.14v2.23H149.62z"/>
	<path fill="#5A7CBD" d="M18.99,527.14c0.14,0.99,0.52,1.78,1.13,2.38s1.39,0.91,2.35,0.91c1.09,0,1.94-0.33,2.57-0.98l1.82,1.81
		c-0.67,0.58-1.37,1.01-2.09,1.28c-0.72,0.27-1.54,0.41-2.47,0.41c-0.94,0-1.82-0.16-2.63-0.48c-0.81-0.32-1.51-0.77-2.1-1.36
		s-1.06-1.28-1.39-2.1c-0.34-0.82-0.5-1.73-0.5-2.74c0-0.99,0.15-1.9,0.44-2.71c0.3-0.82,0.71-1.52,1.25-2.1s1.18-1.04,1.92-1.36
		c0.74-0.32,1.56-0.48,2.44-0.48c0.83,0,1.61,0.14,2.33,0.43c0.72,0.29,1.34,0.72,1.87,1.3c0.53,0.58,0.94,1.3,1.25,2.16
		c0.3,0.86,0.46,1.86,0.46,3v0.62H18.99z M24.39,524.91c-0.13-0.86-0.42-1.56-0.86-2.09c-0.45-0.53-1.04-0.79-1.78-0.79
		c-0.7,0-1.3,0.26-1.79,0.78c-0.49,0.52-0.8,1.22-0.92,2.1H24.39z"/>
	<path fill="#5A7CBD" d="M36.74,522.41c-0.36,0-0.68,0.04-0.97,0.12c-0.75,0.16-1.33,0.56-1.73,1.2c-0.4,0.64-0.6,1.5-0.6,2.59v6.36
		h-3.12v-12.79h3.02v1.94c0.34-0.7,0.85-1.25,1.54-1.63s1.65-0.58,2.88-0.58v2.83C37.44,522.43,37.1,522.41,36.74,522.41z"/>
	<path fill="#5A7CBD" d="M53.84,532.68h-3.77l-2.18-8.06l-2.16,8.06h-3.77l-3.65-12.79h3.46l2.21,9.38l2.54-9.38h2.81l2.5,9.38
		l2.18-9.38h3.48L53.84,532.68z"/>
	<path fill="#5A7CBD" d="M61.95,527.14c0.14,0.99,0.52,1.78,1.13,2.38s1.39,0.91,2.35,0.91c1.09,0,1.94-0.33,2.57-0.98l1.82,1.81
		c-0.67,0.58-1.37,1.01-2.09,1.28c-0.72,0.27-1.54,0.41-2.47,0.41c-0.94,0-1.82-0.16-2.63-0.48c-0.81-0.32-1.51-0.77-2.1-1.36
		s-1.06-1.28-1.39-2.1c-0.34-0.82-0.5-1.73-0.5-2.74c0-0.99,0.15-1.9,0.44-2.71c0.3-0.82,0.71-1.52,1.25-2.1s1.18-1.04,1.92-1.36
		c0.74-0.32,1.56-0.48,2.44-0.48c0.83,0,1.61,0.14,2.33,0.43c0.72,0.29,1.34,0.72,1.87,1.3c0.53,0.58,0.94,1.3,1.25,2.16
		c0.3,0.86,0.46,1.86,0.46,3v0.62H61.95z M67.35,524.91c-0.13-0.86-0.42-1.56-0.86-2.09c-0.45-0.53-1.04-0.79-1.78-0.79
		c-0.7,0-1.3,0.26-1.79,0.78c-0.49,0.52-0.8,1.22-0.92,2.1H67.35z"/>
	<path fill="#5A7CBD" d="M73.25,517.92v-3.02h3.19v3.02H73.25z M73.28,532.68v-12.79h3.12v12.79H73.28z"/>
	<path fill="#5A7CBD" d="M85.2,532.85c-0.62,0-1.18-0.1-1.67-0.29c-0.49-0.19-0.9-0.45-1.25-0.77s-0.6-0.7-0.78-1.13
		c-0.18-0.43-0.26-0.89-0.26-1.37v-6.94h-2.42v-2.47h2.42v-3.65h3.12v3.65h2.98v2.47h-2.98v6.5c0,0.48,0.13,0.85,0.4,1.12
		c0.26,0.26,0.7,0.4,1.31,0.4c0.22,0,0.46-0.02,0.71-0.07c0.25-0.05,0.48-0.11,0.71-0.19v2.47C86.86,532.76,86.1,532.85,85.2,532.85
		z"/>
	<path fill="#5A7CBD" d="M92.43,527.14c0.14,0.99,0.52,1.78,1.13,2.38s1.39,0.91,2.35,0.91c1.09,0,1.94-0.33,2.57-0.98l1.82,1.81
		c-0.67,0.58-1.37,1.01-2.09,1.28c-0.72,0.27-1.54,0.41-2.47,0.41c-0.94,0-1.82-0.16-2.63-0.48c-0.81-0.32-1.51-0.77-2.1-1.36
		s-1.06-1.28-1.39-2.1c-0.34-0.82-0.5-1.73-0.5-2.74c0-0.99,0.15-1.9,0.44-2.71c0.3-0.82,0.71-1.52,1.25-2.1s1.18-1.04,1.92-1.36
		c0.74-0.32,1.56-0.48,2.44-0.48c0.83,0,1.61,0.14,2.33,0.43c0.72,0.29,1.34,0.72,1.87,1.3c0.53,0.58,0.94,1.3,1.25,2.16
		c0.3,0.86,0.46,1.86,0.46,3v0.62H92.43z M97.83,524.91c-0.13-0.86-0.42-1.56-0.86-2.09c-0.45-0.53-1.04-0.79-1.78-0.79
		c-0.7,0-1.3,0.26-1.79,0.78c-0.49,0.52-0.8,1.22-0.92,2.1H97.83z"/>
	<path fill="#5A7CBD" d="M110.18,522.41c-0.36,0-0.68,0.04-0.97,0.12c-0.75,0.16-1.33,0.56-1.73,1.2c-0.4,0.64-0.6,1.5-0.6,2.59
		v6.36h-3.12v-12.79h3.02v1.94c0.34-0.7,0.85-1.25,1.54-1.63s1.65-0.58,2.88-0.58v2.83C110.88,522.43,110.54,522.41,110.18,522.41z"
		/>
	<path fill="#5A7CBD" d="M122.24,532.68l0-1.97c-0.27,0.66-0.76,1.19-1.45,1.61c-0.7,0.42-1.54,0.62-2.53,0.62
		c-0.7,0-1.34-0.12-1.92-0.35c-0.58-0.23-1.07-0.57-1.49-1.01c-0.42-0.44-0.74-0.97-0.97-1.6s-0.35-1.33-0.35-2.11v-7.99h3.12v7.54
		c0,0.99,0.22,1.72,0.66,2.2c0.44,0.47,1.05,0.71,1.84,0.71c0.86,0,1.58-0.33,2.16-0.98c0.58-0.66,0.86-1.68,0.86-3.07v-6.38h3.12
		v12.79H122.24z"/>
	<path fill="#5A7CBD" d="M137.81,532.68v-7.56c0-0.98-0.22-1.7-0.66-2.17s-1.05-0.71-1.84-0.71c-0.86,0-1.58,0.32-2.16,0.97
		c-0.58,0.65-0.86,1.67-0.86,3.06v6.41h-3.12v-12.79h3.02v1.97c0.29-0.67,0.78-1.21,1.47-1.62c0.69-0.41,1.54-0.61,2.55-0.61
		c0.69,0,1.33,0.12,1.91,0.35c0.59,0.23,1.08,0.57,1.49,1.01c0.41,0.44,0.73,0.97,0.96,1.6s0.35,1.33,0.35,2.11v7.99H137.81z"/>
	<path fill="#5A7CBD" d="M156.34,531.53c0,0.82-0.16,1.58-0.47,2.29c-0.31,0.71-0.76,1.33-1.34,1.86c-0.58,0.53-1.29,0.94-2.12,1.25
		s-1.76,0.46-2.78,0.46c-1.23,0-2.26-0.19-3.1-0.56c-0.83-0.38-1.49-0.8-1.97-1.28l1.78-1.78c0.3,0.29,0.71,0.55,1.22,0.79
		c0.51,0.24,1.16,0.36,1.94,0.36c0.53,0,1.02-0.08,1.48-0.24s0.85-0.39,1.19-0.7s0.6-0.66,0.78-1.07s0.28-0.87,0.28-1.38v-0.98
		c-0.3,0.58-0.8,1.06-1.48,1.45c-0.68,0.39-1.43,0.59-2.24,0.59c-0.75,0-1.47-0.16-2.15-0.47c-0.68-0.31-1.28-0.75-1.79-1.31
		c-0.51-0.56-0.92-1.24-1.24-2.04c-0.31-0.8-0.47-1.69-0.47-2.66c0-0.98,0.16-1.86,0.47-2.66c0.31-0.8,0.72-1.48,1.24-2.04
		c0.51-0.56,1.11-1,1.79-1.31c0.68-0.31,1.4-0.47,2.15-0.47c0.43,0,0.85,0.06,1.25,0.18c0.4,0.12,0.77,0.28,1.1,0.47
		c0.34,0.19,0.63,0.42,0.89,0.68s0.45,0.54,0.58,0.83v-1.9h3.02V531.53z M153.22,526.11c0-0.59-0.08-1.12-0.24-1.6
		c-0.16-0.47-0.38-0.88-0.66-1.21s-0.6-0.6-0.97-0.78c-0.37-0.18-0.76-0.28-1.18-0.28c-0.43,0-0.83,0.09-1.2,0.28
		c-0.37,0.18-0.69,0.44-0.97,0.78c-0.28,0.34-0.5,0.74-0.66,1.21c-0.16,0.47-0.24,1-0.24,1.6c0,1.2,0.29,2.14,0.88,2.83
		c0.58,0.69,1.32,1.03,2.2,1.03c0.42,0,0.81-0.09,1.18-0.26c0.37-0.18,0.69-0.43,0.97-0.77s0.5-0.74,0.66-1.21
		C153.14,527.25,153.22,526.71,153.22,526.11z"/>
</g>
<circle fill="#E5E7EB" stroke="#5A7CBD" stroke-width="3" stroke-miterlimit="10" cx="602" cy="715.5" r="85"/>
<g>
	<path fill="#5A7CBD" d="M592.16,682c0,0.75-0.14,1.45-0.42,2.1c-0.28,0.65-0.68,1.21-1.2,1.68c-0.52,0.47-1.14,0.84-1.87,1.12
		c-0.73,0.27-1.53,0.41-2.4,0.41h-2.92v7.18h-3.41V676.7h6.31c0.88,0,1.68,0.14,2.41,0.42s1.35,0.66,1.87,1.14s0.92,1.04,1.2,1.68
		C592.02,680.58,592.16,681.27,592.16,682z M588.7,682c0-0.69-0.24-1.29-0.71-1.78c-0.47-0.49-1.15-0.74-2.04-0.74h-2.6v5.04h2.6
		c0.89,0,1.57-0.24,2.04-0.73S588.7,682.71,588.7,682z"/>
	<path fill="#5A7CBD" d="M605.91,694.35c-1.06,0.26-2.19,0.39-3.39,0.39c-1.33,0-2.54-0.22-3.62-0.66c-1.08-0.44-2-1.06-2.76-1.86
		c-0.76-0.8-1.35-1.76-1.77-2.88c-0.42-1.12-0.62-2.37-0.62-3.74c0-1.38,0.21-2.63,0.62-3.76c0.42-1.13,1.01-2.09,1.77-2.89
		s1.68-1.42,2.76-1.86c1.08-0.44,2.29-0.66,3.62-0.66c1.2,0,2.31,0.19,3.33,0.56c1.02,0.37,1.86,0.89,2.54,1.56l-2.02,2.01
		c-0.9-0.9-2.13-1.34-3.7-1.34c-0.77,0-1.48,0.14-2.14,0.43c-0.66,0.29-1.23,0.71-1.71,1.25c-0.48,0.55-0.86,1.21-1.13,2
		s-0.41,1.68-0.41,2.69s0.14,1.91,0.41,2.69c0.27,0.79,0.65,1.45,1.13,1.98c0.48,0.54,1.05,0.95,1.7,1.23
		c0.66,0.28,1.37,0.42,2.14,0.42c0.42,0,0.85-0.05,1.3-0.14c0.45-0.1,0.82-0.21,1.13-0.34v-3.96h-3.26v-2.79h6.67v8.69
		C607.82,693.76,606.96,694.09,605.91,694.35z"/>
	<path fill="#5A7CBD" d="M619.76,694.48h-3.55l-6.41-17.79h3.6l4.58,13.71l4.56-13.71h3.6L619.76,694.48z"/>
	<path fill="#5A7CBD" d="M542.64,723.28v-2.62l7.46-12.38h-7.27v-2.78h11.28v2.64l-7.46,12.36h7.66v2.78H542.64z"/>
	<path fill="#5A7CBD" d="M559.39,717.74c0.14,0.98,0.52,1.78,1.13,2.38c0.61,0.6,1.39,0.9,2.35,0.9c1.09,0,1.94-0.33,2.57-0.98
		l1.82,1.81c-0.67,0.58-1.37,1.01-2.09,1.28c-0.72,0.27-1.54,0.41-2.47,0.41c-0.94,0-1.82-0.16-2.63-0.48
		c-0.81-0.32-1.51-0.77-2.1-1.36s-1.06-1.28-1.39-2.1c-0.34-0.82-0.5-1.73-0.5-2.74c0-0.99,0.15-1.9,0.44-2.71
		c0.3-0.82,0.71-1.52,1.25-2.1c0.54-0.58,1.18-1.04,1.92-1.36c0.74-0.32,1.56-0.48,2.44-0.48c0.83,0,1.61,0.14,2.33,0.43
		c0.72,0.29,1.34,0.72,1.87,1.29c0.53,0.58,0.94,1.3,1.25,2.16c0.3,0.86,0.46,1.87,0.46,3v0.62H559.39z M564.79,715.51
		c-0.13-0.86-0.42-1.56-0.86-2.09c-0.45-0.53-1.04-0.79-1.78-0.79c-0.7,0-1.3,0.26-1.79,0.78c-0.49,0.52-0.8,1.22-0.92,2.1H564.79z"
		/>
	<path fill="#5A7CBD" d="M577.14,713.01c-0.36,0-0.68,0.04-0.97,0.12c-0.75,0.16-1.33,0.56-1.73,1.2c-0.4,0.64-0.6,1.5-0.6,2.59
		v6.36h-3.12v-12.79h3.02v1.94c0.34-0.7,0.85-1.25,1.54-1.63s1.65-0.58,2.88-0.58v2.83C577.84,713.03,577.5,713.01,577.14,713.01z"
		/>
	<path fill="#5A7CBD" d="M585.38,723.45c-0.62,0-1.18-0.1-1.67-0.29c-0.49-0.19-0.9-0.45-1.25-0.77c-0.34-0.32-0.6-0.7-0.78-1.13
		c-0.18-0.43-0.26-0.89-0.26-1.37v-6.94H579v-2.47h2.42v-3.65h3.12v3.65h2.98v2.47h-2.98v6.5c0,0.48,0.13,0.85,0.4,1.12
		s0.7,0.4,1.31,0.4c0.22,0,0.46-0.02,0.71-0.07c0.25-0.05,0.48-0.11,0.71-0.19v2.47C587.04,723.36,586.28,723.45,585.38,723.45z"/>
	<path fill="#5A7CBD" d="M590.23,708.52v-3.02h3.19v3.02H590.23z M590.25,723.28v-12.79h3.12v12.79H590.25z"/>
	<path fill="#5A7CBD" d="M604.46,708.09c-0.45-0.16-0.92-0.24-1.42-0.24c-0.61,0-1.04,0.13-1.31,0.39s-0.4,0.63-0.4,1.11v1.14h2.98
		v2.47h-2.98v10.32h-3.12v-10.32h-2.42v-2.47h2.42v-1.61c0-0.48,0.09-0.94,0.26-1.37c0.18-0.43,0.44-0.81,0.78-1.13
		c0.34-0.32,0.76-0.58,1.25-0.77c0.49-0.19,1.04-0.29,1.67-0.29c0.46,0,0.88,0.02,1.26,0.07c0.38,0.05,0.72,0.11,1.02,0.19V708.09z
		 M607.03,708.52v-3.02h3.19v3.02H607.03z M607.08,723.28v-12.79h3.12v12.79H607.08z"/>
	<path fill="#5A7CBD" d="M613.03,723.28V721l5.59-8.04h-5.42v-2.47h9.17v2.31l-5.59,7.96h5.76v2.52H613.03z"/>
	<path fill="#5A7CBD" d="M625.34,708.52v-3.02h3.19v3.02H625.34z M625.36,723.28v-12.79h3.12v12.79H625.36z"/>
	<path fill="#5A7CBD" d="M634.75,717.74c0.14,0.98,0.52,1.78,1.13,2.38c0.61,0.6,1.39,0.9,2.35,0.9c1.09,0,1.94-0.33,2.57-0.98
		l1.82,1.81c-0.67,0.58-1.37,1.01-2.09,1.28s-1.54,0.41-2.47,0.41c-0.94,0-1.82-0.16-2.63-0.48c-0.81-0.32-1.51-0.77-2.1-1.36
		s-1.06-1.28-1.39-2.1c-0.34-0.82-0.5-1.73-0.5-2.74c0-0.99,0.15-1.9,0.44-2.71c0.29-0.82,0.71-1.52,1.25-2.1
		c0.54-0.58,1.18-1.04,1.92-1.36c0.74-0.32,1.56-0.48,2.44-0.48c0.83,0,1.61,0.14,2.33,0.43c0.72,0.29,1.34,0.72,1.87,1.29
		c0.53,0.58,0.94,1.3,1.25,2.16c0.3,0.86,0.46,1.87,0.46,3v0.62H634.75z M640.15,715.51c-0.13-0.86-0.42-1.56-0.86-2.09
		c-0.45-0.53-1.04-0.79-1.78-0.79c-0.71,0-1.3,0.26-1.79,0.78c-0.49,0.52-0.8,1.22-0.92,2.1H640.15z"/>
	<path fill="#5A7CBD" d="M652.5,713.01c-0.36,0-0.68,0.04-0.97,0.12c-0.75,0.16-1.33,0.56-1.73,1.2c-0.4,0.64-0.6,1.5-0.6,2.59v6.36
		h-3.12v-12.79h3.02v1.94c0.34-0.7,0.85-1.25,1.54-1.63c0.69-0.38,1.65-0.58,2.88-0.58v2.83
		C653.2,713.03,652.86,713.01,652.5,713.01z"/>
	<path fill="#5A7CBD" d="M654.96,717.74v-2.23h6.14v2.23H654.96z"/>
	<path fill="#5A7CBD" d="M589.29,752.08l0-1.97c-0.27,0.66-0.76,1.19-1.45,1.61c-0.7,0.42-1.54,0.62-2.53,0.62
		c-0.7,0-1.34-0.12-1.92-0.35s-1.07-0.57-1.49-1.01c-0.42-0.44-0.74-0.97-0.97-1.6c-0.23-0.62-0.35-1.33-0.35-2.11v-7.99h3.12v7.54
		c0,0.99,0.22,1.72,0.66,2.2c0.44,0.47,1.05,0.71,1.84,0.71c0.86,0,1.58-0.33,2.16-0.98c0.58-0.66,0.86-1.68,0.86-3.07v-6.38h3.12
		v12.79H589.29z"/>
	<path fill="#5A7CBD" d="M604.87,752.08v-7.56c0-0.97-0.22-1.7-0.66-2.17c-0.44-0.47-1.05-0.71-1.84-0.71
		c-0.86,0-1.58,0.32-2.16,0.97c-0.58,0.65-0.86,1.67-0.86,3.06v6.41h-3.12v-12.79h3.02v1.97c0.29-0.67,0.78-1.21,1.47-1.62
		c0.69-0.41,1.54-0.61,2.55-0.61c0.69,0,1.33,0.12,1.91,0.35c0.59,0.23,1.08,0.57,1.49,1.01c0.41,0.44,0.73,0.97,0.96,1.6
		c0.23,0.62,0.35,1.33,0.35,2.11v7.99H604.87z"/>
	<path fill="#5A7CBD" d="M623.4,750.93c0,0.82-0.16,1.58-0.47,2.29c-0.31,0.71-0.76,1.33-1.34,1.86s-1.29,0.94-2.12,1.25
		c-0.83,0.3-1.76,0.46-2.78,0.46c-1.23,0-2.26-0.19-3.1-0.56c-0.83-0.38-1.49-0.8-1.97-1.29l1.78-1.78c0.3,0.29,0.71,0.55,1.22,0.79
		c0.51,0.24,1.16,0.36,1.94,0.36c0.53,0,1.02-0.08,1.48-0.24s0.85-0.39,1.19-0.7s0.6-0.66,0.78-1.07c0.18-0.41,0.28-0.87,0.28-1.38
		v-0.98c-0.3,0.58-0.8,1.06-1.48,1.45c-0.68,0.39-1.43,0.59-2.24,0.59c-0.75,0-1.47-0.16-2.15-0.47c-0.68-0.31-1.28-0.75-1.79-1.31
		c-0.51-0.56-0.92-1.24-1.24-2.04c-0.31-0.8-0.47-1.69-0.47-2.66c0-0.98,0.16-1.86,0.47-2.66c0.31-0.8,0.72-1.48,1.24-2.04
		c0.51-0.56,1.11-1,1.79-1.31s1.4-0.47,2.15-0.47c0.43,0,0.85,0.06,1.25,0.18c0.4,0.12,0.77,0.28,1.1,0.47
		c0.34,0.19,0.63,0.42,0.89,0.68c0.26,0.26,0.45,0.54,0.58,0.83v-1.9h3.02V750.93z M620.28,745.51c0-0.59-0.08-1.12-0.24-1.6
		c-0.16-0.47-0.38-0.88-0.66-1.21c-0.28-0.34-0.6-0.6-0.97-0.78s-0.76-0.28-1.18-0.28c-0.43,0-0.83,0.09-1.2,0.28
		s-0.69,0.44-0.97,0.78c-0.28,0.34-0.5,0.74-0.66,1.21c-0.16,0.47-0.24,1-0.24,1.6c0,1.2,0.29,2.14,0.88,2.83
		c0.58,0.69,1.32,1.03,2.2,1.03c0.42,0,0.81-0.09,1.18-0.26c0.37-0.18,0.69-0.43,0.97-0.77c0.28-0.34,0.5-0.74,0.66-1.21
		S620.28,746.11,620.28,745.51z"/>
</g>
<circle fill="#93AFDB" stroke="#5A7CBD" stroke-width="3" stroke-miterlimit="10" cx="807" cy="510.5" r="85"/>
<g>
	<path fill="#5A7CBD" d="M755.59,503.88l-1.44-4.08h-6.84l-1.42,4.08h-3.6l6.62-17.79h3.65l6.62,17.79H755.59z M750.74,489.94
		l-2.47,7.08h4.95L750.74,489.94z"/>
	<path fill="#5A7CBD" d="M761.14,503.88V486.1h3.12v17.79H761.14z"/>
	<path fill="#5A7CBD" d="M773.06,504.05c-0.62,0-1.18-0.1-1.67-0.29c-0.49-0.19-0.9-0.45-1.25-0.77s-0.6-0.7-0.78-1.13
		c-0.18-0.43-0.26-0.89-0.26-1.37v-6.94h-2.42v-2.47h2.42v-3.65h3.12v3.65h2.97v2.47h-2.97v6.5c0,0.48,0.13,0.85,0.4,1.12
		c0.26,0.26,0.7,0.4,1.31,0.4c0.22,0,0.46-0.02,0.71-0.07c0.25-0.05,0.48-0.11,0.71-0.19v2.47
		C774.72,503.96,773.96,504.05,773.06,504.05z"/>
	<path fill="#5A7CBD" d="M780.29,498.34c0.14,0.99,0.52,1.78,1.13,2.38c0.61,0.6,1.39,0.91,2.35,0.91c1.09,0,1.94-0.33,2.57-0.98
		l1.82,1.81c-0.67,0.58-1.37,1.01-2.09,1.28c-0.72,0.27-1.54,0.41-2.47,0.41c-0.94,0-1.82-0.16-2.63-0.48
		c-0.81-0.32-1.51-0.77-2.1-1.36s-1.05-1.28-1.39-2.1c-0.34-0.82-0.5-1.73-0.5-2.74c0-0.99,0.15-1.9,0.44-2.71
		c0.29-0.82,0.71-1.52,1.25-2.1c0.54-0.58,1.18-1.04,1.92-1.36s1.56-0.48,2.44-0.48c0.83,0,1.61,0.14,2.33,0.43
		c0.72,0.29,1.34,0.72,1.87,1.3c0.53,0.58,0.94,1.29,1.25,2.16c0.3,0.86,0.46,1.86,0.46,3v0.62H780.29z M785.69,496.11
		c-0.13-0.86-0.42-1.56-0.86-2.09c-0.45-0.53-1.04-0.79-1.78-0.79c-0.7,0-1.3,0.26-1.79,0.78c-0.49,0.52-0.8,1.22-0.92,2.1H785.69z"
		/>
	<path fill="#5A7CBD" d="M798.04,493.61c-0.36,0-0.69,0.04-0.97,0.12c-0.75,0.16-1.33,0.56-1.73,1.2c-0.4,0.64-0.6,1.5-0.6,2.59
		v6.36h-3.12v-12.79h3.02v1.94c0.34-0.7,0.85-1.25,1.54-1.63s1.65-0.58,2.88-0.58v2.83C798.74,493.63,798.4,493.61,798.04,493.61z"
		/>
	<path fill="#5A7CBD" d="M809.71,500.31c0,0.5-0.11,0.98-0.31,1.45c-0.21,0.47-0.52,0.89-0.94,1.26c-0.42,0.37-0.95,0.66-1.58,0.89
		c-0.64,0.22-1.4,0.33-2.28,0.33c-0.94,0-1.8-0.17-2.58-0.52c-0.78-0.35-1.41-0.77-1.91-1.27l1.8-1.81
		c0.27,0.27,0.64,0.52,1.12,0.74c0.47,0.22,1,0.34,1.57,0.34c0.67,0,1.18-0.13,1.54-0.39c0.35-0.26,0.53-0.59,0.53-0.97
		c0-0.42-0.15-0.74-0.46-0.97c-0.3-0.23-0.69-0.43-1.15-0.61c-0.46-0.18-0.96-0.35-1.49-0.53c-0.53-0.18-1.03-0.41-1.49-0.71
		c-0.46-0.29-0.85-0.68-1.15-1.15c-0.3-0.47-0.46-1.09-0.46-1.86c0-0.46,0.1-0.92,0.31-1.38c0.21-0.46,0.52-0.86,0.92-1.22
		c0.41-0.36,0.91-0.65,1.51-0.87c0.6-0.22,1.28-0.33,2.05-0.33c0.96,0,1.8,0.17,2.52,0.5c0.72,0.33,1.34,0.76,1.85,1.27l-1.8,1.83
		c-0.3-0.3-0.66-0.56-1.07-0.77s-0.88-0.31-1.43-0.31c-0.61,0-1.06,0.14-1.36,0.43c-0.3,0.29-0.45,0.58-0.45,0.89
		c0,0.33,0.15,0.6,0.46,0.8c0.3,0.2,0.68,0.38,1.14,0.55c0.46,0.17,0.95,0.34,1.49,0.53c0.54,0.18,1.03,0.43,1.49,0.74
		c0.46,0.31,0.84,0.71,1.14,1.21C809.56,498.89,809.71,499.53,809.71,500.31z"/>
	<path fill="#5A7CBD" d="M811.56,498.34v-2.23h6.14v2.23H811.56z"/>
	<path fill="#5A7CBD" d="M835.63,503.88v-1.97c-0.27,0.66-0.76,1.19-1.45,1.61c-0.7,0.42-1.54,0.62-2.53,0.62
		c-0.71,0-1.35-0.12-1.92-0.35c-0.58-0.23-1.07-0.57-1.49-1.01c-0.42-0.44-0.74-0.97-0.97-1.6c-0.23-0.62-0.35-1.33-0.35-2.11v-7.99
		h3.12v7.54c0,0.99,0.22,1.72,0.66,2.2c0.44,0.47,1.05,0.71,1.84,0.71c0.86,0,1.58-0.33,2.16-0.98s0.86-1.68,0.86-3.07v-6.38h3.12
		v12.79H835.63z"/>
	<path fill="#5A7CBD" d="M851.21,503.88v-7.56c0-0.98-0.22-1.7-0.66-2.17c-0.44-0.47-1.05-0.71-1.84-0.71
		c-0.86,0-1.58,0.32-2.16,0.97s-0.86,1.67-0.86,3.06v6.41h-3.12v-12.79h3.02v1.97c0.29-0.67,0.78-1.21,1.47-1.62
		c0.69-0.41,1.54-0.61,2.55-0.61c0.69,0,1.33,0.12,1.91,0.35c0.59,0.23,1.08,0.57,1.49,1.01c0.41,0.44,0.73,0.97,0.96,1.6
		s0.35,1.33,0.35,2.11v7.99H851.21z"/>
	<path fill="#5A7CBD" d="M866.71,503.88v-1.85c-0.13,0.3-0.33,0.58-0.6,0.84c-0.27,0.26-0.58,0.48-0.94,0.67
		c-0.35,0.19-0.72,0.34-1.12,0.44s-0.78,0.16-1.16,0.16c-0.75,0-1.47-0.16-2.15-0.47c-0.68-0.31-1.28-0.76-1.79-1.33
		c-0.51-0.58-0.92-1.28-1.24-2.1s-0.47-1.75-0.47-2.77s0.15-1.94,0.47-2.76c0.31-0.82,0.72-1.51,1.24-2.09
		c0.51-0.58,1.11-1.02,1.79-1.33c0.68-0.31,1.4-0.47,2.15-0.47c0.35,0,0.72,0.05,1.09,0.14c0.38,0.1,0.73,0.23,1.07,0.41
		s0.64,0.38,0.92,0.62s0.49,0.51,0.64,0.82v-6.72h3.12v17.79H866.71z M866.62,497.47c0-0.64-0.08-1.21-0.24-1.72
		s-0.38-0.93-0.66-1.27s-0.6-0.6-0.97-0.78c-0.37-0.18-0.76-0.26-1.18-0.26c-0.88,0-1.61,0.35-2.2,1.04s-0.88,1.69-0.88,2.99
		c0,0.66,0.08,1.23,0.24,1.73c0.16,0.5,0.38,0.92,0.66,1.27s0.6,0.62,0.97,0.79c0.37,0.18,0.77,0.26,1.2,0.26
		c0.42,0,0.81-0.09,1.18-0.26c0.37-0.18,0.69-0.44,0.97-0.79s0.5-0.78,0.66-1.27C866.54,498.71,866.62,498.13,866.62,497.47z"/>
	<path fill="#5A7CBD" d="M747.8,520.2c0,0.75-0.14,1.45-0.42,2.1c-0.28,0.65-0.68,1.21-1.2,1.68c-0.52,0.47-1.14,0.84-1.87,1.12
		c-0.73,0.27-1.53,0.41-2.41,0.41H739v7.18h-3.41V514.9h6.31c0.88,0,1.68,0.14,2.41,0.42s1.35,0.66,1.87,1.14
		c0.52,0.48,0.92,1.04,1.2,1.68C747.66,518.78,747.8,519.47,747.8,520.2z M744.35,520.2c0-0.69-0.24-1.29-0.71-1.78
		c-0.47-0.49-1.15-0.74-2.04-0.74H739v5.04h2.61c0.89,0,1.57-0.24,2.04-0.73C744.11,521.51,744.35,520.91,744.35,520.2z"/>
	<path fill="#5A7CBD" d="M757.45,517.49c-0.45-0.16-0.92-0.24-1.42-0.24c-0.61,0-1.04,0.13-1.31,0.39s-0.4,0.63-0.4,1.11v1.14h2.98
		v2.47h-2.98v10.32h-3.12v-10.32h-2.42v-2.47h2.42v-1.61c0-0.48,0.09-0.94,0.26-1.37s0.44-0.81,0.78-1.13
		c0.34-0.32,0.76-0.58,1.25-0.77c0.49-0.19,1.04-0.29,1.67-0.29c0.46,0,0.88,0.02,1.26,0.07c0.38,0.05,0.72,0.11,1.02,0.19V517.49z
		 M760.07,532.68V514.9h3.12v17.78H760.07z"/>
	<path fill="#5A7CBD" d="M769.43,527.14c0.14,0.98,0.52,1.78,1.13,2.38c0.61,0.6,1.39,0.9,2.35,0.9c1.09,0,1.94-0.33,2.57-0.98
		l1.82,1.81c-0.67,0.58-1.37,1.01-2.09,1.28c-0.72,0.27-1.54,0.41-2.47,0.41c-0.94,0-1.82-0.16-2.63-0.48
		c-0.81-0.32-1.51-0.77-2.1-1.36s-1.05-1.28-1.39-2.1c-0.34-0.82-0.5-1.73-0.5-2.74c0-0.99,0.15-1.9,0.44-2.71
		c0.29-0.82,0.71-1.52,1.25-2.1c0.54-0.58,1.18-1.04,1.92-1.36c0.74-0.32,1.56-0.48,2.44-0.48c0.83,0,1.61,0.14,2.33,0.43
		c0.72,0.29,1.34,0.72,1.87,1.29c0.53,0.58,0.94,1.3,1.25,2.16c0.3,0.86,0.46,1.87,0.46,3v0.62H769.43z M774.83,524.91
		c-0.13-0.86-0.42-1.56-0.86-2.09c-0.45-0.53-1.04-0.79-1.78-0.79c-0.7,0-1.3,0.26-1.79,0.78s-0.8,1.22-0.92,2.1H774.83z"/>
	<path fill="#5A7CBD" d="M792.28,531.53c0,0.82-0.16,1.58-0.47,2.29c-0.31,0.71-0.76,1.33-1.34,1.86c-0.59,0.53-1.29,0.94-2.12,1.25
		c-0.83,0.3-1.76,0.46-2.78,0.46c-1.23,0-2.27-0.19-3.1-0.56c-0.83-0.38-1.49-0.8-1.97-1.28l1.78-1.78c0.3,0.29,0.71,0.55,1.22,0.79
		c0.51,0.24,1.16,0.36,1.94,0.36c0.53,0,1.02-0.08,1.48-0.24c0.46-0.16,0.85-0.39,1.19-0.7c0.34-0.3,0.6-0.66,0.78-1.07
		c0.18-0.41,0.28-0.87,0.28-1.38v-0.98c-0.3,0.58-0.8,1.06-1.48,1.45c-0.68,0.39-1.43,0.59-2.24,0.59c-0.75,0-1.47-0.16-2.15-0.47
		c-0.68-0.31-1.28-0.75-1.79-1.31s-0.92-1.24-1.24-2.04c-0.31-0.8-0.47-1.69-0.47-2.66c0-0.97,0.15-1.86,0.47-2.66
		c0.31-0.8,0.72-1.48,1.24-2.04s1.11-1,1.79-1.31c0.68-0.31,1.4-0.47,2.15-0.47c0.43,0,0.85,0.06,1.25,0.18
		c0.4,0.12,0.77,0.28,1.1,0.47c0.34,0.19,0.63,0.42,0.89,0.68c0.26,0.26,0.45,0.54,0.58,0.83v-1.9h3.02V531.53z M789.16,526.11
		c0-0.59-0.08-1.12-0.24-1.6c-0.16-0.47-0.38-0.88-0.66-1.21c-0.28-0.34-0.6-0.6-0.97-0.78c-0.37-0.18-0.76-0.28-1.18-0.28
		c-0.43,0-0.83,0.09-1.2,0.28c-0.37,0.18-0.69,0.44-0.97,0.78c-0.28,0.34-0.5,0.74-0.66,1.21c-0.16,0.47-0.24,1-0.24,1.6
		c0,1.2,0.29,2.14,0.88,2.83c0.58,0.69,1.32,1.03,2.2,1.03c0.42,0,0.81-0.09,1.18-0.26c0.37-0.18,0.69-0.43,0.97-0.77
		s0.5-0.74,0.66-1.21C789.08,527.25,789.16,526.71,789.16,526.11z"/>
	<path fill="#5A7CBD" d="M798.54,527.14c0.14,0.98,0.52,1.78,1.13,2.38c0.61,0.6,1.39,0.9,2.35,0.9c1.09,0,1.94-0.33,2.57-0.98
		l1.82,1.81c-0.67,0.58-1.37,1.01-2.09,1.28c-0.72,0.27-1.54,0.41-2.47,0.41c-0.94,0-1.82-0.16-2.63-0.48
		c-0.81-0.32-1.51-0.77-2.1-1.36s-1.05-1.28-1.39-2.1c-0.34-0.82-0.5-1.73-0.5-2.74c0-0.99,0.15-1.9,0.44-2.71
		c0.29-0.82,0.71-1.52,1.25-2.1c0.54-0.58,1.18-1.04,1.92-1.36c0.74-0.32,1.56-0.48,2.44-0.48c0.83,0,1.61,0.14,2.33,0.43
		c0.72,0.29,1.34,0.72,1.87,1.29c0.53,0.58,0.94,1.3,1.25,2.16c0.3,0.86,0.46,1.87,0.46,3v0.62H798.54z M803.94,524.91
		c-0.13-0.86-0.42-1.56-0.86-2.09c-0.45-0.53-1.04-0.79-1.78-0.79c-0.7,0-1.3,0.26-1.79,0.78s-0.8,1.22-0.92,2.1H803.94z"/>
	<path fill="#5A7CBD" d="M818.51,532.68v-7.56c0-0.98-0.22-1.7-0.66-2.17c-0.44-0.47-1.05-0.71-1.84-0.71
		c-0.87,0-1.58,0.32-2.16,0.97c-0.58,0.65-0.86,1.67-0.86,3.06v6.41h-3.12V514.9h3.12l0.01,6.82c0.29-0.61,0.77-1.11,1.44-1.5
		c0.67-0.39,1.5-0.59,2.48-0.59c0.69,0,1.33,0.12,1.91,0.35c0.58,0.23,1.08,0.57,1.49,1.01s0.73,0.97,0.96,1.6s0.35,1.33,0.35,2.11
		v7.99H818.51z"/>
	<path fill="#5A7CBD" d="M827.87,527.14c0.14,0.98,0.52,1.78,1.13,2.38c0.61,0.6,1.39,0.9,2.35,0.9c1.09,0,1.94-0.33,2.57-0.98
		l1.82,1.81c-0.67,0.58-1.37,1.01-2.09,1.28c-0.72,0.27-1.54,0.41-2.47,0.41c-0.94,0-1.82-0.16-2.63-0.48
		c-0.81-0.32-1.51-0.77-2.1-1.36s-1.05-1.28-1.39-2.1c-0.34-0.82-0.5-1.73-0.5-2.74c0-0.99,0.15-1.9,0.44-2.71
		c0.29-0.82,0.71-1.52,1.25-2.1c0.54-0.58,1.18-1.04,1.92-1.36c0.74-0.32,1.56-0.48,2.44-0.48c0.83,0,1.61,0.14,2.33,0.43
		c0.72,0.29,1.34,0.72,1.87,1.29c0.53,0.58,0.94,1.3,1.25,2.16c0.3,0.86,0.46,1.87,0.46,3v0.62H827.87z M833.27,524.91
		c-0.13-0.86-0.42-1.56-0.86-2.09c-0.45-0.53-1.04-0.79-1.78-0.79c-0.7,0-1.3,0.26-1.79,0.78s-0.8,1.22-0.92,2.1H833.27z"/>
	<path fill="#5A7CBD" d="M839.17,517.92v-3.02h3.19v3.02H839.17z M839.2,532.68v-12.79h3.12v12.79H839.2z"/>
	<path fill="#5A7CBD" d="M861.8,532.68v-7.56c0-1.92-0.71-2.88-2.12-2.88c-0.32,0-0.63,0.08-0.93,0.25
		c-0.3,0.17-0.57,0.42-0.81,0.74s-0.43,0.74-0.57,1.22c-0.14,0.49-0.21,1.05-0.21,1.69v6.53h-3.12v-7.56c0-1.92-0.71-2.88-2.13-2.88
		c-0.32,0-0.63,0.08-0.94,0.25c-0.3,0.17-0.58,0.42-0.81,0.74c-0.24,0.33-0.43,0.74-0.58,1.22c-0.14,0.49-0.22,1.05-0.22,1.69v6.53
		h-3.12v-12.79h3.02v1.99c0.32-0.72,0.77-1.28,1.35-1.67c0.58-0.39,1.31-0.59,2.19-0.59c0.53,0,1.01,0.08,1.43,0.23
		c0.43,0.15,0.8,0.35,1.12,0.59c0.32,0.24,0.59,0.51,0.81,0.82c0.22,0.3,0.4,0.62,0.54,0.94c0.38-0.8,0.9-1.43,1.54-1.88
		c0.64-0.46,1.42-0.68,2.35-0.68c0.66,0,1.25,0.12,1.79,0.36c0.54,0.24,0.99,0.58,1.37,1.01c0.38,0.43,0.67,0.96,0.88,1.57
		c0.21,0.62,0.31,1.31,0.31,2.08v8.04H861.8z"/>
	<path fill="#5A7CBD" d="M871.16,527.14c0.14,0.98,0.52,1.78,1.13,2.38c0.61,0.6,1.39,0.9,2.35,0.9c1.09,0,1.94-0.33,2.57-0.98
		l1.82,1.81c-0.67,0.58-1.37,1.01-2.09,1.28c-0.72,0.27-1.54,0.41-2.47,0.41c-0.95,0-1.82-0.16-2.63-0.48
		c-0.81-0.32-1.51-0.77-2.1-1.36s-1.06-1.28-1.39-2.1c-0.34-0.82-0.5-1.73-0.5-2.74c0-0.99,0.15-1.9,0.44-2.71
		c0.3-0.82,0.71-1.52,1.25-2.1c0.54-0.58,1.18-1.04,1.92-1.36c0.74-0.32,1.56-0.48,2.44-0.48c0.83,0,1.61,0.14,2.33,0.43
		c0.72,0.29,1.34,0.72,1.87,1.29c0.53,0.58,0.94,1.3,1.25,2.16c0.3,0.86,0.46,1.87,0.46,3v0.62H871.16z M876.56,524.91
		c-0.13-0.86-0.42-1.56-0.87-2.09c-0.45-0.53-1.04-0.79-1.78-0.79c-0.71,0-1.3,0.26-1.79,0.78s-0.79,1.22-0.92,2.1H876.56z"/>
</g>
<circle fill="#93AFDB" stroke="#5A7CBD" stroke-width="3" stroke-miterlimit="10" cx="601.5" cy="510" r="85"/>
<g>
	<path fill="#5A7CBD" d="M576.56,503.38l-1.44-4.08h-6.84l-1.42,4.08h-3.6l6.62-17.78h3.65l6.62,17.78H576.56z M571.72,489.44
		l-2.47,7.08h4.94L571.72,489.44z"/>
	<path fill="#5A7CBD" d="M582.11,503.38V485.6h3.12v17.78H582.11z"/>
	<path fill="#5A7CBD" d="M594.04,503.55c-0.62,0-1.18-0.1-1.67-0.29c-0.49-0.19-0.9-0.45-1.25-0.77c-0.34-0.32-0.6-0.7-0.78-1.13
		c-0.18-0.43-0.26-0.89-0.26-1.37v-6.94h-2.42v-2.47h2.42v-3.65h3.12v3.65h2.98v2.47h-2.98v6.5c0,0.48,0.13,0.85,0.4,1.12
		c0.26,0.26,0.7,0.4,1.31,0.4c0.22,0,0.46-0.02,0.71-0.07c0.25-0.05,0.48-0.11,0.71-0.19v2.47
		C595.69,503.46,594.93,503.55,594.04,503.55z"/>
	<path fill="#5A7CBD" d="M601.26,497.84c0.14,0.98,0.52,1.78,1.13,2.38c0.61,0.6,1.39,0.91,2.35,0.91c1.09,0,1.94-0.33,2.57-0.98
		l1.82,1.81c-0.67,0.58-1.37,1.01-2.09,1.28c-0.72,0.27-1.54,0.41-2.47,0.41c-0.94,0-1.82-0.16-2.63-0.48
		c-0.81-0.32-1.51-0.77-2.1-1.36c-0.59-0.58-1.06-1.28-1.39-2.1c-0.34-0.82-0.5-1.73-0.5-2.74c0-0.99,0.15-1.9,0.44-2.71
		c0.29-0.82,0.71-1.52,1.25-2.1s1.18-1.04,1.92-1.36c0.74-0.32,1.56-0.48,2.44-0.48c0.83,0,1.61,0.14,2.33,0.43s1.34,0.72,1.87,1.3
		c0.53,0.58,0.94,1.3,1.25,2.16c0.3,0.86,0.46,1.86,0.46,3v0.62H601.26z M606.66,495.61c-0.13-0.86-0.42-1.56-0.86-2.09
		c-0.45-0.53-1.04-0.79-1.78-0.79c-0.71,0-1.3,0.26-1.79,0.78c-0.49,0.52-0.8,1.22-0.92,2.1H606.66z"/>
	<path fill="#5A7CBD" d="M619.01,493.11c-0.36,0-0.68,0.04-0.97,0.12c-0.75,0.16-1.33,0.56-1.73,1.2c-0.4,0.64-0.6,1.5-0.6,2.59
		v6.36h-3.12v-12.79h3.02v1.94c0.34-0.7,0.85-1.25,1.54-1.63c0.69-0.38,1.65-0.58,2.88-0.58v2.83
		C619.71,493.13,619.37,493.11,619.01,493.11z"/>
	<path fill="#5A7CBD" d="M630.68,499.81c0,0.5-0.1,0.98-0.31,1.45c-0.21,0.47-0.52,0.89-0.94,1.26s-0.94,0.66-1.58,0.89
		s-1.4,0.34-2.28,0.34c-0.94,0-1.8-0.17-2.58-0.52c-0.78-0.35-1.41-0.77-1.91-1.27l1.8-1.81c0.27,0.27,0.64,0.52,1.12,0.74
		c0.47,0.22,1,0.34,1.57,0.34c0.67,0,1.18-0.13,1.54-0.39c0.35-0.26,0.53-0.59,0.53-0.97c0-0.41-0.15-0.74-0.46-0.97
		c-0.3-0.23-0.69-0.43-1.15-0.61c-0.46-0.17-0.96-0.35-1.49-0.53c-0.53-0.18-1.02-0.41-1.49-0.71c-0.46-0.29-0.85-0.68-1.15-1.15
		c-0.3-0.47-0.46-1.09-0.46-1.86c0-0.46,0.1-0.92,0.31-1.38c0.21-0.45,0.52-0.86,0.92-1.22s0.91-0.65,1.51-0.87
		c0.6-0.22,1.28-0.34,2.05-0.34c0.96,0,1.8,0.17,2.52,0.5s1.34,0.76,1.85,1.27l-1.8,1.83c-0.3-0.3-0.66-0.56-1.07-0.77
		c-0.41-0.21-0.88-0.31-1.43-0.31c-0.61,0-1.06,0.14-1.36,0.43c-0.3,0.29-0.44,0.58-0.44,0.89c0,0.34,0.15,0.6,0.46,0.8
		s0.68,0.38,1.14,0.55c0.46,0.17,0.95,0.34,1.49,0.53s1.03,0.43,1.49,0.74c0.46,0.31,0.84,0.71,1.14,1.21
		S630.68,499.03,630.68,499.81z"/>
	<path fill="#5A7CBD" d="M632.53,497.84v-2.23h6.14v2.23H632.53z"/>
	<path fill="#5A7CBD" d="M543.34,525.77c0,1.02-0.16,1.95-0.47,2.77c-0.31,0.82-0.72,1.52-1.24,2.1c-0.51,0.58-1.11,1.02-1.8,1.33
		c-0.69,0.31-1.4,0.47-2.14,0.47c-0.37,0-0.74-0.05-1.12-0.14s-0.73-0.23-1.07-0.4s-0.64-0.37-0.91-0.61
		c-0.27-0.24-0.49-0.5-0.65-0.79v6.12h-3.12v-17.23h3.02v1.9c0.14-0.3,0.35-0.59,0.61-0.85c0.26-0.26,0.57-0.49,0.92-0.68
		c0.35-0.19,0.73-0.34,1.13-0.46c0.4-0.11,0.79-0.17,1.18-0.17c0.74,0,1.45,0.16,2.14,0.47c0.69,0.31,1.29,0.76,1.8,1.33
		c0.51,0.58,0.92,1.27,1.24,2.09C543.18,523.83,543.34,524.75,543.34,525.77z M540.1,525.77c0-1.3-0.3-2.29-0.89-2.99
		c-0.59-0.7-1.32-1.04-2.18-1.04c-0.42,0-0.81,0.09-1.19,0.26c-0.38,0.18-0.71,0.44-0.98,0.78c-0.28,0.34-0.5,0.77-0.66,1.27
		s-0.24,1.08-0.24,1.72c0,0.66,0.08,1.23,0.24,1.73s0.38,0.92,0.66,1.27c0.28,0.35,0.61,0.62,0.98,0.79
		c0.38,0.18,0.77,0.26,1.19,0.26s0.81-0.09,1.19-0.26c0.38-0.18,0.7-0.44,0.98-0.79c0.28-0.35,0.5-0.78,0.66-1.27
		S540.1,526.43,540.1,525.77z"/>
	<path fill="#5A7CBD" d="M554.59,528.61c0,0.5-0.1,0.98-0.31,1.45c-0.21,0.47-0.52,0.89-0.94,1.26s-0.94,0.66-1.58,0.89
		s-1.4,0.34-2.28,0.34c-0.94,0-1.8-0.17-2.58-0.52c-0.78-0.35-1.41-0.77-1.91-1.27l1.8-1.81c0.27,0.27,0.64,0.52,1.12,0.74
		c0.47,0.22,1,0.34,1.57,0.34c0.67,0,1.18-0.13,1.54-0.39c0.35-0.26,0.53-0.59,0.53-0.97c0-0.41-0.15-0.74-0.46-0.97
		c-0.3-0.23-0.69-0.43-1.15-0.61c-0.46-0.17-0.96-0.35-1.49-0.53c-0.53-0.18-1.02-0.41-1.49-0.71c-0.46-0.29-0.85-0.68-1.15-1.15
		c-0.3-0.47-0.46-1.09-0.46-1.86c0-0.46,0.1-0.92,0.31-1.38c0.21-0.45,0.52-0.86,0.92-1.22s0.91-0.65,1.51-0.87
		c0.6-0.22,1.28-0.34,2.05-0.34c0.96,0,1.8,0.17,2.52,0.5s1.34,0.76,1.85,1.27l-1.8,1.83c-0.3-0.3-0.66-0.56-1.07-0.77
		c-0.41-0.21-0.88-0.31-1.43-0.31c-0.61,0-1.06,0.14-1.36,0.43c-0.3,0.29-0.44,0.58-0.44,0.89c0,0.34,0.15,0.6,0.46,0.8
		s0.68,0.38,1.14,0.55c0.46,0.17,0.95,0.34,1.49,0.53s1.03,0.43,1.49,0.74c0.46,0.31,0.84,0.71,1.14,1.21
		S554.59,527.83,554.59,528.61z"/>
	<path fill="#5A7CBD" d="M562.85,534.61c-0.08,0.21-0.21,0.44-0.4,0.7c-0.18,0.26-0.42,0.5-0.72,0.72c-0.3,0.22-0.66,0.41-1.08,0.56
		c-0.42,0.15-0.92,0.23-1.5,0.23c-0.45,0-0.86-0.03-1.25-0.08s-0.72-0.12-1.01-0.2v-2.47c0.21,0.07,0.44,0.13,0.68,0.17
		c0.25,0.04,0.48,0.07,0.71,0.07c0.51,0,0.88-0.07,1.09-0.22c0.22-0.14,0.36-0.31,0.44-0.5c0.03-0.02,0.08-0.08,0.14-0.2
		c0.06-0.12,0.13-0.25,0.19-0.4c0.06-0.14,0.12-0.29,0.18-0.43c0.06-0.14,0.09-0.24,0.11-0.29l-5.06-12.87h3.43l3.26,9.53l3.43-9.53
		h3.41L562.85,534.61z"/>
	<path fill="#5A7CBD" d="M576.34,532.45c-0.9,0-1.73-0.16-2.51-0.48c-0.78-0.32-1.46-0.77-2.04-1.36c-0.58-0.58-1.04-1.28-1.38-2.1
		c-0.34-0.82-0.5-1.73-0.5-2.74c0-0.99,0.17-1.9,0.5-2.71c0.34-0.82,0.8-1.52,1.38-2.1s1.26-1.04,2.04-1.36
		c0.78-0.32,1.61-0.48,2.51-0.48c1.6,0,3.05,0.55,4.34,1.66l-1.9,1.9c-0.29-0.29-0.63-0.52-1.03-0.68c-0.4-0.17-0.82-0.25-1.27-0.25
		c-0.46,0-0.9,0.1-1.31,0.29c-0.41,0.19-0.76,0.47-1.07,0.83c-0.3,0.36-0.54,0.79-0.71,1.28s-0.25,1.04-0.25,1.63
		c0,0.61,0.08,1.16,0.25,1.66s0.4,0.92,0.71,1.27c0.3,0.35,0.66,0.63,1.07,0.83c0.41,0.2,0.84,0.3,1.31,0.3
		c0.45,0,0.87-0.08,1.27-0.25c0.4-0.17,0.74-0.4,1.03-0.71l1.9,1.9C579.38,531.89,577.94,532.45,576.34,532.45z"/>
	<path fill="#5A7CBD" d="M591.89,532.18v-7.56c0-0.98-0.22-1.7-0.66-2.17c-0.44-0.47-1.05-0.71-1.84-0.71
		c-0.86,0-1.58,0.32-2.16,0.97c-0.58,0.65-0.86,1.67-0.86,3.06v6.41h-3.12V514.4h3.12l0.01,6.82c0.29-0.61,0.77-1.11,1.44-1.5
		c0.67-0.39,1.5-0.59,2.48-0.59c0.69,0,1.33,0.12,1.91,0.35c0.58,0.23,1.08,0.57,1.49,1.01c0.41,0.44,0.73,0.97,0.96,1.6
		c0.23,0.62,0.35,1.33,0.35,2.11v7.99H591.89z"/>
	<path fill="#5A7CBD" d="M598.87,517.42v-3.02h3.19v3.02H598.87z M598.9,532.18v-12.79h3.12v12.79H598.9z"/>
	<path fill="#5A7CBD" d="M613.22,532.18v-1.94c-0.32,0.69-0.8,1.23-1.45,1.62c-0.65,0.39-1.45,0.59-2.41,0.59
		c-0.61,0-1.17-0.1-1.68-0.3c-0.51-0.2-0.96-0.47-1.33-0.82c-0.38-0.34-0.67-0.74-0.89-1.2c-0.22-0.46-0.32-0.94-0.32-1.45
		c0-0.54,0.12-1.07,0.35-1.57c0.23-0.5,0.59-0.95,1.08-1.33s1.11-0.69,1.87-0.91c0.76-0.22,1.66-0.34,2.7-0.34h1.99
		c0-0.03,0-0.1,0-0.21s0-0.23,0-0.35c0-0.12,0-0.23-0.01-0.33c-0.01-0.1-0.03-0.16-0.06-0.18c-0.05-0.52-0.32-0.97-0.8-1.34
		c-0.49-0.37-1.09-0.56-1.81-0.56c-0.59,0-1.12,0.1-1.58,0.29c-0.46,0.19-0.88,0.45-1.25,0.77l-1.8-1.81
		c0.62-0.53,1.33-0.96,2.12-1.28s1.72-0.49,2.8-0.49c0.88,0,1.66,0.12,2.34,0.36s1.26,0.58,1.73,1.01c0.47,0.43,0.83,0.94,1.08,1.51
		c0.25,0.58,0.37,1.2,0.37,1.87v8.4H613.22z M613.13,526.54h-2.11c-0.48,0-0.89,0.06-1.22,0.17c-0.34,0.11-0.62,0.26-0.84,0.44
		c-0.22,0.18-0.39,0.39-0.49,0.61c-0.1,0.22-0.16,0.45-0.16,0.67c0,0.45,0.16,0.84,0.47,1.16c0.31,0.33,0.8,0.49,1.48,0.49
		c0.85,0,1.54-0.28,2.08-0.85c0.54-0.57,0.8-1.34,0.8-2.32V526.54z"/>
	<path fill="#5A7CBD" d="M625.06,532.35c-0.62,0-1.18-0.1-1.67-0.29c-0.49-0.19-0.9-0.45-1.25-0.77c-0.34-0.32-0.6-0.7-0.78-1.13
		c-0.18-0.43-0.26-0.89-0.26-1.37v-6.94h-2.42v-2.47h2.42v-3.65h3.12v3.65h2.98v2.47h-2.98v6.5c0,0.48,0.13,0.85,0.4,1.12
		c0.26,0.26,0.7,0.4,1.31,0.4c0.22,0,0.46-0.02,0.71-0.07c0.25-0.05,0.48-0.11,0.71-0.19v2.47
		C626.71,532.26,625.95,532.35,625.06,532.35z"/>
	<path fill="#5A7CBD" d="M636.35,521.91c-0.36,0-0.68,0.04-0.97,0.12c-0.75,0.16-1.33,0.56-1.73,1.2c-0.4,0.64-0.6,1.5-0.6,2.59
		v6.36h-3.12v-12.79h3.02v1.94c0.34-0.7,0.85-1.25,1.54-1.63c0.69-0.38,1.65-0.58,2.88-0.58v2.83
		C637.05,521.93,636.71,521.91,636.35,521.91z"/>
	<path fill="#5A7CBD" d="M639.67,517.42v-3.02h3.19v3.02H639.67z M639.7,532.18v-12.79h3.12v12.79H639.7z"/>
	<path fill="#5A7CBD" d="M649.08,526.64c0.14,0.98,0.52,1.78,1.13,2.38c0.61,0.6,1.39,0.91,2.35,0.91c1.09,0,1.94-0.33,2.57-0.98
		l1.82,1.81c-0.67,0.58-1.37,1.01-2.09,1.28c-0.72,0.27-1.54,0.41-2.47,0.41c-0.94,0-1.82-0.16-2.63-0.48
		c-0.81-0.32-1.51-0.77-2.1-1.36c-0.59-0.58-1.06-1.28-1.39-2.1c-0.34-0.82-0.5-1.73-0.5-2.74c0-0.99,0.15-1.9,0.44-2.71
		c0.3-0.82,0.71-1.52,1.25-2.1s1.18-1.04,1.92-1.36c0.74-0.32,1.56-0.48,2.44-0.48c0.83,0,1.61,0.14,2.33,0.43
		c0.72,0.29,1.34,0.72,1.87,1.3c0.53,0.58,0.94,1.3,1.25,2.16s0.46,1.86,0.46,3v0.62H649.08z M654.48,524.41
		c-0.13-0.86-0.42-1.56-0.86-2.09c-0.45-0.53-1.04-0.79-1.78-0.79c-0.7,0-1.3,0.26-1.79,0.78c-0.49,0.52-0.8,1.22-0.92,2.1H654.48z"
		/>
	<path fill="#5A7CBD" d="M669.05,532.18v-7.56c0-0.98-0.22-1.7-0.66-2.17c-0.44-0.47-1.05-0.71-1.84-0.71
		c-0.86,0-1.58,0.32-2.16,0.97c-0.58,0.65-0.86,1.67-0.86,3.06v6.41h-3.12v-12.79h3.02v1.97c0.29-0.67,0.78-1.21,1.47-1.62
		c0.69-0.41,1.54-0.61,2.55-0.61c0.69,0,1.33,0.12,1.91,0.35c0.59,0.23,1.08,0.57,1.49,1.01c0.41,0.44,0.73,0.97,0.96,1.6
		c0.23,0.62,0.35,1.33,0.35,2.11v7.99H669.05z"/>
</g>
<circle fill="#93AFDB" stroke="#5A7CBD" stroke-width="3" stroke-miterlimit="10" cx="396" cy="510" r="85"/>
<g>
	<path fill="#5A7CBD" d="M371.62,490.9c0,0.75-0.14,1.45-0.42,2.1c-0.28,0.65-0.68,1.21-1.2,1.68c-0.52,0.47-1.14,0.84-1.87,1.12
		c-0.73,0.27-1.53,0.41-2.4,0.41h-2.92v7.18h-3.41V485.6h6.31c0.88,0,1.68,0.14,2.41,0.42c0.73,0.28,1.35,0.66,1.87,1.14
		c0.52,0.48,0.92,1.04,1.2,1.68C371.48,489.48,371.62,490.17,371.62,490.9z M368.16,490.9c0-0.69-0.24-1.29-0.71-1.78
		c-0.47-0.49-1.15-0.74-2.04-0.74h-2.6v5.04h2.6c0.89,0,1.57-0.24,2.04-0.73S368.16,491.61,368.16,490.9z"/>
	<path fill="#5A7CBD" d="M380.51,493.11c-0.36,0-0.68,0.04-0.97,0.12c-0.75,0.16-1.33,0.56-1.73,1.2c-0.4,0.64-0.6,1.5-0.6,2.59
		v6.36h-3.12v-12.79h3.02v1.94c0.34-0.7,0.85-1.25,1.54-1.63c0.69-0.38,1.65-0.58,2.88-0.58v2.83
		C381.21,493.13,380.87,493.11,380.51,493.11z"/>
	<path fill="#5A7CBD" d="M383.83,488.62v-3.02h3.19v3.02H383.83z M383.86,503.38v-12.79h3.12v12.79H383.86z"/>
	<path fill="#5A7CBD" d="M397.37,503.38h-3.41l-5.02-12.79h3.43l3.26,9.53l3.43-9.53h3.41L397.37,503.38z"/>
	<path fill="#5A7CBD" d="M411.72,503.38v-1.94c-0.32,0.69-0.8,1.23-1.45,1.62c-0.65,0.39-1.45,0.59-2.41,0.59
		c-0.61,0-1.17-0.1-1.68-0.3s-0.96-0.47-1.33-0.82c-0.38-0.34-0.67-0.74-0.89-1.2c-0.22-0.46-0.32-0.94-0.32-1.45
		c0-0.54,0.12-1.07,0.35-1.57s0.59-0.95,1.08-1.33c0.49-0.38,1.11-0.69,1.87-0.91c0.76-0.22,1.66-0.34,2.7-0.34h1.99
		c0-0.03,0-0.1,0-0.21s0-0.23,0-0.35c0-0.12,0-0.23-0.01-0.33c-0.01-0.1-0.03-0.16-0.06-0.18c-0.05-0.52-0.32-0.97-0.8-1.34
		c-0.49-0.37-1.09-0.56-1.81-0.56c-0.59,0-1.12,0.1-1.58,0.29c-0.46,0.19-0.88,0.45-1.25,0.77l-1.8-1.81
		c0.62-0.53,1.33-0.96,2.12-1.28c0.79-0.32,1.72-0.49,2.8-0.49c0.88,0,1.66,0.12,2.34,0.36c0.68,0.24,1.26,0.58,1.73,1.01
		c0.47,0.43,0.83,0.94,1.08,1.51c0.25,0.58,0.37,1.2,0.37,1.87v8.4H411.72z M411.62,497.74h-2.11c-0.48,0-0.89,0.06-1.22,0.17
		c-0.34,0.11-0.62,0.26-0.84,0.44c-0.22,0.18-0.39,0.39-0.49,0.61c-0.1,0.22-0.16,0.45-0.16,0.67c0,0.45,0.16,0.84,0.47,1.16
		s0.8,0.49,1.48,0.49c0.85,0,1.54-0.28,2.08-0.85c0.54-0.57,0.8-1.34,0.8-2.32V497.74z"/>
	<path fill="#5A7CBD" d="M423.55,503.55c-0.62,0-1.18-0.1-1.67-0.29c-0.49-0.19-0.9-0.45-1.25-0.77s-0.6-0.7-0.78-1.13
		c-0.18-0.43-0.26-0.89-0.26-1.37v-6.94h-2.42v-2.47h2.42v-3.65h3.12v3.65h2.98v2.47h-2.98v6.5c0,0.48,0.13,0.85,0.4,1.12
		c0.26,0.26,0.7,0.4,1.31,0.4c0.22,0,0.46-0.02,0.71-0.07c0.25-0.05,0.48-0.11,0.71-0.19v2.47
		C425.21,503.46,424.45,503.55,423.55,503.55z"/>
	<path fill="#5A7CBD" d="M427.54,497.84v-2.23h6.14v2.23H427.54z"/>
	<path fill="#5A7CBD" d="M355.49,532.18v-7.54h-6.55v7.54h-3.41V514.4h3.41v7.46h6.55v-7.46h3.36v17.78H355.49z"/>
	<path fill="#5A7CBD" d="M370.22,532.18v-1.94c-0.32,0.69-0.8,1.23-1.45,1.62c-0.65,0.39-1.45,0.59-2.41,0.59
		c-0.61,0-1.17-0.1-1.68-0.3s-0.96-0.47-1.33-0.82c-0.38-0.34-0.67-0.74-0.89-1.2c-0.22-0.46-0.32-0.94-0.32-1.45
		c0-0.54,0.12-1.07,0.35-1.57s0.59-0.95,1.08-1.33c0.49-0.38,1.11-0.69,1.87-0.91c0.76-0.22,1.66-0.34,2.7-0.34h1.99
		c0-0.03,0-0.1,0-0.21s0-0.23,0-0.35c0-0.12,0-0.23-0.01-0.33c-0.01-0.1-0.03-0.16-0.06-0.18c-0.05-0.52-0.32-0.97-0.8-1.34
		c-0.49-0.37-1.09-0.56-1.81-0.56c-0.59,0-1.12,0.1-1.58,0.29c-0.46,0.19-0.88,0.45-1.25,0.77l-1.8-1.81
		c0.62-0.53,1.33-0.96,2.12-1.28c0.79-0.32,1.72-0.49,2.8-0.49c0.88,0,1.66,0.12,2.34,0.36c0.68,0.24,1.26,0.58,1.73,1.01
		c0.47,0.43,0.83,0.94,1.08,1.51c0.25,0.58,0.37,1.2,0.37,1.87v8.4H370.22z M370.13,526.54h-2.11c-0.48,0-0.89,0.06-1.22,0.17
		c-0.34,0.11-0.62,0.26-0.84,0.44c-0.22,0.18-0.39,0.39-0.49,0.61c-0.1,0.22-0.16,0.45-0.16,0.67c0,0.45,0.16,0.84,0.47,1.16
		s0.8,0.49,1.48,0.49c0.85,0,1.54-0.28,2.08-0.85c0.54-0.57,0.8-1.34,0.8-2.32V526.54z"/>
	<path fill="#5A7CBD" d="M385.87,532.18l0-1.97c-0.27,0.66-0.76,1.19-1.45,1.61c-0.7,0.42-1.54,0.62-2.53,0.62
		c-0.7,0-1.34-0.12-1.92-0.35s-1.07-0.57-1.49-1.01c-0.42-0.44-0.74-0.97-0.97-1.6c-0.23-0.62-0.35-1.33-0.35-2.11v-7.99h3.12v7.54
		c0,0.99,0.22,1.72,0.66,2.2c0.44,0.47,1.05,0.71,1.84,0.71c0.86,0,1.58-0.33,2.16-0.98c0.58-0.66,0.86-1.68,0.86-3.07v-6.38h3.12
		v12.79H385.87z"/>
	<path fill="#5A7CBD" d="M401.14,528.61c0,0.5-0.1,0.98-0.31,1.45c-0.21,0.47-0.52,0.89-0.94,1.26s-0.94,0.66-1.58,0.89
		c-0.64,0.22-1.4,0.34-2.28,0.34c-0.94,0-1.8-0.17-2.58-0.52c-0.78-0.35-1.41-0.77-1.91-1.27l1.8-1.81
		c0.27,0.27,0.64,0.52,1.12,0.74c0.47,0.22,1,0.34,1.57,0.34c0.67,0,1.18-0.13,1.54-0.39c0.35-0.26,0.53-0.59,0.53-0.97
		c0-0.41-0.15-0.74-0.46-0.97c-0.3-0.23-0.69-0.43-1.15-0.61c-0.46-0.17-0.96-0.35-1.49-0.53c-0.53-0.18-1.02-0.41-1.49-0.71
		c-0.46-0.29-0.85-0.68-1.15-1.15c-0.3-0.47-0.46-1.09-0.46-1.86c0-0.46,0.1-0.92,0.31-1.38c0.21-0.45,0.52-0.86,0.92-1.22
		c0.41-0.36,0.91-0.65,1.51-0.87c0.6-0.22,1.28-0.34,2.05-0.34c0.96,0,1.8,0.17,2.52,0.5c0.72,0.33,1.34,0.76,1.85,1.27l-1.8,1.83
		c-0.3-0.3-0.66-0.56-1.07-0.77c-0.41-0.21-0.88-0.31-1.43-0.31c-0.61,0-1.06,0.14-1.36,0.43c-0.3,0.29-0.44,0.58-0.44,0.89
		c0,0.34,0.15,0.6,0.46,0.8c0.3,0.2,0.68,0.38,1.14,0.55c0.46,0.17,0.95,0.34,1.49,0.53c0.54,0.18,1.03,0.43,1.49,0.74
		c0.46,0.31,0.84,0.71,1.14,1.21C400.98,527.19,401.14,527.83,401.14,528.61z"/>
	<path fill="#5A7CBD" d="M412.51,532.18v-7.56c0-0.98-0.22-1.7-0.66-2.17c-0.44-0.47-1.05-0.71-1.84-0.71
		c-0.86,0-1.58,0.32-2.16,0.97c-0.58,0.65-0.86,1.67-0.86,3.06v6.41h-3.12V514.4h3.12l0.01,6.82c0.29-0.61,0.77-1.11,1.44-1.5
		c0.67-0.39,1.5-0.59,2.48-0.59c0.69,0,1.33,0.12,1.91,0.35c0.58,0.23,1.08,0.57,1.49,1.01c0.41,0.44,0.73,0.97,0.96,1.6
		c0.23,0.62,0.35,1.33,0.35,2.11v7.99H412.51z"/>
	<path fill="#5A7CBD" d="M426.82,532.18v-1.94c-0.32,0.69-0.8,1.23-1.45,1.62c-0.65,0.39-1.45,0.59-2.41,0.59
		c-0.61,0-1.17-0.1-1.68-0.3s-0.96-0.47-1.33-0.82c-0.38-0.34-0.67-0.74-0.89-1.2c-0.22-0.46-0.32-0.94-0.32-1.45
		c0-0.54,0.12-1.07,0.35-1.57s0.59-0.95,1.08-1.33c0.49-0.38,1.11-0.69,1.87-0.91c0.76-0.22,1.66-0.34,2.7-0.34h1.99
		c0-0.03,0-0.1,0-0.21s0-0.23,0-0.35c0-0.12,0-0.23-0.01-0.33c-0.01-0.1-0.03-0.16-0.06-0.18c-0.05-0.52-0.32-0.97-0.8-1.34
		c-0.49-0.37-1.09-0.56-1.81-0.56c-0.59,0-1.12,0.1-1.58,0.29c-0.46,0.19-0.88,0.45-1.25,0.77l-1.8-1.81
		c0.62-0.53,1.33-0.96,2.12-1.28c0.79-0.32,1.72-0.49,2.8-0.49c0.88,0,1.66,0.12,2.34,0.36c0.68,0.24,1.26,0.58,1.73,1.01
		c0.47,0.43,0.83,0.94,1.08,1.51c0.25,0.58,0.37,1.2,0.37,1.87v8.4H426.82z M426.72,526.54h-2.11c-0.48,0-0.89,0.06-1.22,0.17
		c-0.34,0.11-0.62,0.26-0.84,0.44c-0.22,0.18-0.39,0.39-0.49,0.61c-0.1,0.22-0.16,0.45-0.16,0.67c0,0.45,0.16,0.84,0.47,1.16
		s0.8,0.49,1.48,0.49c0.85,0,1.54-0.28,2.08-0.85c0.54-0.57,0.8-1.34,0.8-2.32V526.54z"/>
	<path fill="#5A7CBD" d="M433.75,532.18V514.4h3.12v17.78H433.75z"/>
	<path fill="#5A7CBD" d="M445.68,532.35c-0.62,0-1.18-0.1-1.67-0.29c-0.49-0.19-0.9-0.45-1.25-0.77s-0.6-0.7-0.78-1.13
		c-0.18-0.43-0.26-0.89-0.26-1.37v-6.94h-2.42v-2.47h2.42v-3.65h3.12v3.65h2.98v2.47h-2.98v6.5c0,0.48,0.13,0.85,0.4,1.12
		c0.26,0.26,0.7,0.4,1.31,0.4c0.22,0,0.46-0.02,0.71-0.07c0.25-0.05,0.48-0.11,0.71-0.19v2.47
		C447.34,532.26,446.58,532.35,445.68,532.35z"/>
</g>
<polyline fill="none" stroke="#5A7CBD" stroke-width="3" stroke-miterlimit="10" points="687,715.5 925,715.5 925,391.5 277,391.5 
	277,715.5 517,715.5 "/>
<g>
	<g>
		<line fill="none" stroke="#5A7CBD" stroke-width="3" stroke-miterlimit="10" x1="601.5" y1="171.5" x2="601.5" y2="369.97"/>
		<g>
			<polygon fill="#5A7CBD" points="586.54,365.6 601.5,391.5 616.46,365.6 			"/>
		</g>
	</g>
</g>
<g>
	<g>
		<line fill="none" stroke="#5A7CBD" stroke-width="3" stroke-miterlimit="10" x1="171.5" y1="510.5" x2="255.97" y2="510.5"/>
		<g>
			<polygon fill="#5A7CBD" points="251.6,525.46 277.5,510.5 251.6,495.54 			"/>
		</g>
	</g>
</g>
<g>
	<g>
		<line fill="none" stroke="#5A7CBD" stroke-width="3" stroke-miterlimit="10" x1="1030.5" y1="510.5" x2="947.03" y2="510.5"/>
		<g>
			<polygon fill="#5A7CBD" points="951.4,495.54 925.5,510.5 951.4,525.46 			"/>
		</g>
	</g>
</g>
</svg>
