<?xml version="1.0" encoding="utf-8"?>
<!-- Generator: Adobe Illustrator 24.2.3, SVG Export Plug-In . SVG Version: 6.00 Build 0)  -->
<svg version="1.1" id="Layer_1" xmlns="http://www.w3.org/2000/svg" xmlns:xlink="http://www.w3.org/1999/xlink" x="0px" y="0px"
	 viewBox="0 0 1200 801" enable-background="new 0 0 1200 801" xml:space="preserve">
<g>
	<circle fill="#5A7CBD" stroke="#5A7CBD" stroke-width="3" stroke-miterlimit="10" cx="600.5" cy="401.5" r="85"/>
	<g>
		<path fill="#F3F4F6" d="M557.5,380.48v-13.82l-3.88,13.82h-3.98l-3.86-13.82v13.82h-3.41V362.7h5.35l3.89,14.04l3.89-14.04h5.35
			v17.78H557.5z"/>
		<path fill="#F3F4F6" d="M567.3,374.94c0.14,0.98,0.52,1.78,1.13,2.38c0.61,0.6,1.39,0.91,2.35,0.91c1.09,0,1.94-0.33,2.57-0.98
			l1.82,1.81c-0.67,0.58-1.37,1.01-2.09,1.28s-1.54,0.41-2.47,0.41c-0.94,0-1.82-0.16-2.63-0.48c-0.81-0.32-1.51-0.77-2.1-1.36
			s-1.06-1.28-1.39-2.1c-0.34-0.82-0.5-1.73-0.5-2.74c0-0.99,0.15-1.9,0.44-2.71c0.29-0.82,0.71-1.52,1.25-2.1
			c0.54-0.58,1.18-1.04,1.92-1.36c0.74-0.32,1.56-0.48,2.44-0.48c0.83,0,1.61,0.14,2.33,0.43s1.34,0.72,1.87,1.3
			c0.53,0.58,0.94,1.3,1.25,2.16c0.3,0.86,0.46,1.86,0.46,3v0.62H567.3z M572.7,372.71c-0.13-0.86-0.42-1.56-0.86-2.09
			s-1.04-0.79-1.78-0.79c-0.71,0-1.3,0.26-1.79,0.78c-0.49,0.52-0.8,1.22-0.92,2.1H572.7z"/>
		<path fill="#F3F4F6" d="M587.26,380.48v-7.56c0-0.98-0.22-1.7-0.66-2.17c-0.44-0.47-1.05-0.71-1.84-0.71
			c-0.86,0-1.58,0.32-2.16,0.97c-0.58,0.65-0.86,1.67-0.86,3.06v6.41h-3.12v-12.79h3.02v1.97c0.29-0.67,0.78-1.21,1.47-1.62
			c0.69-0.41,1.54-0.61,2.55-0.61c0.69,0,1.33,0.12,1.91,0.35c0.59,0.23,1.08,0.57,1.49,1.01c0.41,0.44,0.73,0.97,0.96,1.6
			s0.35,1.33,0.35,2.11v7.99H587.26z"/>
		<path fill="#F3F4F6" d="M602.6,376.92c0,0.5-0.1,0.98-0.31,1.45c-0.21,0.47-0.52,0.89-0.94,1.26s-0.94,0.66-1.58,0.89
			s-1.4,0.33-2.28,0.33c-0.94,0-1.8-0.17-2.58-0.52c-0.78-0.35-1.41-0.77-1.91-1.27l1.8-1.81c0.27,0.27,0.64,0.52,1.12,0.74
			c0.47,0.22,1,0.34,1.57,0.34c0.67,0,1.18-0.13,1.54-0.39c0.35-0.26,0.53-0.59,0.53-0.97c0-0.42-0.15-0.74-0.46-0.97
			s-0.69-0.43-1.15-0.61c-0.46-0.18-0.96-0.35-1.49-0.53c-0.53-0.17-1.02-0.41-1.49-0.71s-0.85-0.68-1.15-1.15
			c-0.3-0.47-0.46-1.09-0.46-1.86c0-0.46,0.1-0.92,0.31-1.38s0.52-0.86,0.92-1.22c0.41-0.36,0.91-0.65,1.51-0.88
			c0.6-0.22,1.28-0.33,2.05-0.33c0.96,0,1.8,0.17,2.52,0.5s1.34,0.75,1.85,1.27l-1.8,1.83c-0.3-0.3-0.66-0.56-1.07-0.77
			s-0.88-0.31-1.43-0.31c-0.61,0-1.06,0.14-1.36,0.43s-0.44,0.58-0.44,0.89c0,0.33,0.15,0.6,0.46,0.8s0.68,0.38,1.14,0.55
			c0.46,0.17,0.95,0.34,1.49,0.53c0.54,0.18,1.03,0.43,1.49,0.74c0.46,0.31,0.84,0.71,1.14,1.21S602.6,376.13,602.6,376.92z"/>
		<path fill="#F3F4F6" d="M610.81,380.75c-0.9,0-1.73-0.16-2.51-0.48c-0.78-0.32-1.46-0.77-2.04-1.36s-1.04-1.28-1.38-2.1
			c-0.34-0.82-0.5-1.73-0.5-2.74c0-0.99,0.17-1.9,0.5-2.71c0.34-0.82,0.8-1.52,1.38-2.1c0.58-0.58,1.26-1.04,2.04-1.36
			s1.61-0.48,2.51-0.48c1.6,0,3.05,0.55,4.34,1.66l-1.9,1.9c-0.29-0.29-0.63-0.52-1.03-0.68s-0.82-0.25-1.27-0.25
			c-0.46,0-0.9,0.1-1.31,0.29c-0.41,0.19-0.76,0.47-1.07,0.83c-0.3,0.36-0.54,0.79-0.71,1.28s-0.25,1.04-0.25,1.63
			c0,0.61,0.08,1.16,0.25,1.66s0.4,0.92,0.71,1.27c0.3,0.35,0.66,0.63,1.07,0.83c0.41,0.2,0.84,0.3,1.31,0.3
			c0.45,0,0.87-0.08,1.27-0.25s0.74-0.4,1.03-0.71l1.9,1.9C613.86,380.19,612.41,380.75,610.81,380.75z"/>
		<path fill="#F3F4F6" d="M626.36,380.48v-7.56c0-0.98-0.22-1.7-0.66-2.17c-0.44-0.47-1.05-0.71-1.84-0.71
			c-0.86,0-1.58,0.32-2.16,0.97c-0.58,0.65-0.86,1.67-0.86,3.06v6.41h-3.12V362.7h3.12l0.01,6.82c0.29-0.61,0.77-1.11,1.44-1.5
			c0.67-0.39,1.5-0.59,2.48-0.59c0.69,0,1.33,0.12,1.91,0.35c0.58,0.23,1.08,0.57,1.49,1.01c0.41,0.44,0.73,0.97,0.96,1.6
			s0.35,1.33,0.35,2.11v7.99H626.36z"/>
		<path fill="#F3F4F6" d="M635.72,374.94c0.14,0.98,0.52,1.78,1.13,2.38c0.61,0.6,1.39,0.91,2.35,0.91c1.09,0,1.94-0.33,2.57-0.98
			l1.82,1.81c-0.67,0.58-1.37,1.01-2.09,1.28c-0.72,0.27-1.54,0.41-2.47,0.41c-0.94,0-1.82-0.16-2.63-0.48
			c-0.81-0.32-1.51-0.77-2.1-1.36s-1.06-1.28-1.39-2.1c-0.34-0.82-0.5-1.73-0.5-2.74c0-0.99,0.15-1.9,0.44-2.71
			c0.3-0.82,0.71-1.52,1.25-2.1c0.54-0.58,1.18-1.04,1.92-1.36s1.56-0.48,2.44-0.48c0.83,0,1.61,0.14,2.33,0.43
			c0.72,0.29,1.34,0.72,1.87,1.3c0.53,0.58,0.94,1.3,1.25,2.16c0.3,0.86,0.46,1.86,0.46,3v0.62H635.72z M641.12,372.71
			c-0.13-0.86-0.42-1.56-0.86-2.09c-0.45-0.53-1.04-0.79-1.78-0.79c-0.7,0-1.3,0.26-1.79,0.78s-0.8,1.22-0.92,2.1H641.12z"/>
		<path fill="#F3F4F6" d="M655.69,380.48v-7.56c0-0.98-0.22-1.7-0.66-2.17c-0.44-0.47-1.05-0.71-1.84-0.71
			c-0.86,0-1.58,0.32-2.16,0.97c-0.58,0.65-0.86,1.67-0.86,3.06v6.41h-3.12v-12.79h3.02v1.97c0.29-0.67,0.78-1.21,1.47-1.62
			s1.54-0.61,2.55-0.61c0.69,0,1.33,0.12,1.91,0.35c0.59,0.23,1.08,0.57,1.49,1.01c0.41,0.44,0.73,0.97,0.96,1.6
			s0.35,1.33,0.35,2.11v7.99H655.69z"/>
		<path fill="#F3F4F6" d="M595.22,409.28v-7.56c0-1.92-0.71-2.88-2.12-2.88c-0.32,0-0.63,0.08-0.93,0.25
			c-0.3,0.17-0.57,0.42-0.81,0.74s-0.43,0.74-0.57,1.22c-0.14,0.49-0.22,1.05-0.22,1.69v6.53h-3.12v-7.56
			c0-1.92-0.71-2.88-2.14-2.88c-0.32,0-0.63,0.08-0.94,0.25c-0.3,0.17-0.58,0.42-0.82,0.74c-0.24,0.33-0.43,0.74-0.58,1.22
			c-0.14,0.49-0.22,1.05-0.22,1.69v6.53h-3.12v-12.79h3.02v1.99c0.32-0.72,0.77-1.28,1.35-1.67c0.58-0.39,1.31-0.59,2.19-0.59
			c0.53,0,1.01,0.08,1.43,0.23c0.42,0.15,0.8,0.35,1.12,0.59s0.59,0.51,0.81,0.82c0.22,0.3,0.4,0.62,0.54,0.94
			c0.38-0.8,0.9-1.43,1.54-1.88c0.64-0.46,1.42-0.68,2.35-0.68c0.66,0,1.25,0.12,1.79,0.36c0.54,0.24,0.99,0.58,1.37,1.01
			c0.38,0.43,0.67,0.96,0.88,1.57s0.31,1.31,0.31,2.08v8.04H595.22z"/>
		<path fill="#F3F4F6" d="M602.2,394.52v-3.02h3.19v3.02H602.2z M602.23,409.28v-12.79h3.12v12.79H602.23z"/>
		<path fill="#F3F4F6" d="M614.16,409.45c-0.62,0-1.18-0.1-1.67-0.29c-0.49-0.19-0.9-0.45-1.25-0.77c-0.34-0.32-0.6-0.7-0.78-1.13
			c-0.18-0.43-0.26-0.89-0.26-1.37v-6.94h-2.42v-2.47h2.42v-3.65h3.12v3.65h2.98v2.47h-2.98v6.5c0,0.48,0.13,0.85,0.4,1.12
			c0.26,0.26,0.7,0.4,1.31,0.4c0.22,0,0.46-0.02,0.71-0.07s0.48-0.11,0.71-0.19v2.47C615.81,409.36,615.05,409.45,614.16,409.45z"/>
		<path fill="#F3F4F6" d="M569.83,429.2c0,1.47-0.24,2.76-0.71,3.86c-0.47,1.1-1.12,2.03-1.94,2.77c-0.82,0.74-1.79,1.3-2.9,1.68
			c-1.11,0.38-2.32,0.56-3.61,0.56h-5.28V420.3h5.28c1.31,0,2.53,0.19,3.65,0.56c1.12,0.38,2.09,0.94,2.9,1.68
			c0.82,0.74,1.46,1.67,1.92,2.78C569.6,426.44,569.83,427.73,569.83,429.2z M566.3,429.2c0-1.01-0.14-1.9-0.43-2.66
			c-0.29-0.76-0.68-1.4-1.18-1.92c-0.5-0.51-1.1-0.9-1.81-1.16c-0.7-0.26-1.46-0.39-2.27-0.39h-1.82v12.22h1.82
			c0.81,0,1.57-0.13,2.27-0.38c0.7-0.26,1.3-0.64,1.81-1.16c0.5-0.51,0.9-1.15,1.18-1.92C566.16,431.08,566.3,430.2,566.3,429.2z"/>
		<path fill="#F3F4F6" d="M575.18,432.54c0.14,0.99,0.52,1.78,1.13,2.38c0.61,0.6,1.39,0.91,2.35,0.91c1.09,0,1.94-0.33,2.57-0.98
			l1.82,1.81c-0.67,0.58-1.37,1.01-2.09,1.28s-1.54,0.41-2.47,0.41c-0.94,0-1.82-0.16-2.63-0.48c-0.81-0.32-1.51-0.77-2.1-1.36
			s-1.06-1.28-1.39-2.1c-0.34-0.82-0.5-1.73-0.5-2.74c0-0.99,0.15-1.9,0.44-2.71c0.29-0.82,0.71-1.52,1.25-2.1s1.18-1.04,1.92-1.36
			c0.74-0.32,1.56-0.48,2.44-0.48c0.83,0,1.61,0.14,2.33,0.43s1.34,0.72,1.87,1.3c0.53,0.58,0.94,1.3,1.25,2.16
			c0.3,0.86,0.46,1.86,0.46,3v0.62H575.18z M580.58,430.31c-0.13-0.86-0.42-1.56-0.86-2.09c-0.45-0.53-1.04-0.79-1.78-0.79
			c-0.71,0-1.3,0.26-1.79,0.78c-0.49,0.52-0.8,1.22-0.92,2.1H580.58z"/>
		<path fill="#F3F4F6" d="M602.08,438.08v-7.56c0-1.92-0.71-2.88-2.12-2.88c-0.32,0-0.63,0.08-0.93,0.25s-0.57,0.42-0.81,0.74
			c-0.24,0.33-0.43,0.74-0.57,1.22s-0.21,1.05-0.21,1.69v6.53h-3.12v-7.56c0-1.92-0.71-2.88-2.14-2.88c-0.32,0-0.63,0.08-0.94,0.25
			s-0.58,0.42-0.82,0.74s-0.43,0.74-0.58,1.22s-0.22,1.05-0.22,1.69v6.53h-3.12v-12.79h3.02v1.99c0.32-0.72,0.77-1.28,1.35-1.67
			c0.58-0.39,1.31-0.59,2.19-0.59c0.53,0,1.01,0.08,1.43,0.23c0.43,0.15,0.8,0.35,1.12,0.59c0.32,0.24,0.59,0.51,0.81,0.82
			s0.4,0.62,0.54,0.94c0.38-0.8,0.9-1.43,1.54-1.88s1.42-0.68,2.35-0.68c0.66,0,1.25,0.12,1.79,0.36c0.54,0.24,0.99,0.58,1.37,1.01
			c0.38,0.43,0.67,0.96,0.88,1.57c0.21,0.62,0.31,1.31,0.31,2.08v8.04H602.08z"/>
		<path fill="#F3F4F6" d="M611.44,432.54c0.14,0.99,0.52,1.78,1.13,2.38c0.61,0.6,1.39,0.91,2.35,0.91c1.09,0,1.94-0.33,2.57-0.98
			l1.82,1.81c-0.67,0.58-1.37,1.01-2.09,1.28s-1.54,0.41-2.47,0.41c-0.94,0-1.82-0.16-2.63-0.48c-0.81-0.32-1.51-0.77-2.1-1.36
			s-1.06-1.28-1.39-2.1c-0.34-0.82-0.5-1.73-0.5-2.74c0-0.99,0.15-1.9,0.44-2.71c0.29-0.82,0.71-1.52,1.25-2.1s1.18-1.04,1.92-1.36
			c0.74-0.32,1.56-0.48,2.44-0.48c0.83,0,1.61,0.14,2.33,0.43s1.34,0.72,1.87,1.3c0.53,0.58,0.94,1.3,1.25,2.16
			c0.3,0.86,0.46,1.86,0.46,3v0.62H611.44z M616.84,430.31c-0.13-0.86-0.42-1.56-0.86-2.09c-0.45-0.53-1.04-0.79-1.78-0.79
			c-0.71,0-1.3,0.26-1.79,0.78c-0.49,0.52-0.8,1.22-0.92,2.1H616.84z"/>
		<path fill="#F3F4F6" d="M631.41,438.08v-7.56c0-0.98-0.22-1.7-0.66-2.17c-0.44-0.47-1.05-0.71-1.84-0.71
			c-0.86,0-1.58,0.32-2.16,0.97c-0.58,0.65-0.86,1.67-0.86,3.06v6.41h-3.12v-12.79h3.02v1.97c0.29-0.67,0.78-1.21,1.47-1.62
			c0.69-0.41,1.54-0.61,2.55-0.61c0.69,0,1.33,0.12,1.91,0.35c0.59,0.23,1.08,0.57,1.49,1.01c0.41,0.44,0.73,0.97,0.96,1.6
			s0.35,1.33,0.35,2.11v7.99H631.41z"/>
		<path fill="#F3F4F6" d="M637.36,438.08v-2.28l5.59-8.04h-5.42v-2.47h9.17v2.31l-5.59,7.96h5.76v2.52H637.36z"/>
	</g>
</g>
<g>
	<circle fill="#F7F1A9" stroke="#5A7CBD" stroke-width="3" stroke-miterlimit="10" cx="1113.5" cy="401" r="85"/>
	<g>
		<path fill="#5A7CBD" d="M1045.56,378.95c-0.61,0-1.04,0.13-1.31,0.39c-0.26,0.26-0.4,0.63-0.4,1.11v1.14h2.98v2.47h-2.98v10.32
			h-3.12v-10.32h-2.42v-2.47h2.42v-1.61c0-0.48,0.09-0.94,0.26-1.37s0.44-0.81,0.78-1.13c0.34-0.32,0.76-0.58,1.25-0.77
			c0.49-0.19,1.04-0.29,1.67-0.29c0.46,0,0.88,0.02,1.26,0.07c0.38,0.05,0.72,0.11,1.02,0.19v2.52
			C1046.53,379.04,1046.05,378.95,1045.56,378.95z"/>
		<path fill="#5A7CBD" d="M1056.86,394.38v-1.94c-0.32,0.69-0.8,1.23-1.45,1.62c-0.65,0.39-1.45,0.59-2.41,0.59
			c-0.61,0-1.17-0.1-1.68-0.3c-0.51-0.2-0.96-0.47-1.33-0.82c-0.38-0.34-0.67-0.74-0.89-1.2c-0.22-0.46-0.32-0.94-0.32-1.45
			c0-0.54,0.12-1.07,0.35-1.57c0.23-0.5,0.59-0.95,1.08-1.33c0.49-0.38,1.11-0.69,1.87-0.91s1.66-0.34,2.7-0.34h1.99
			c0-0.03,0-0.1,0-0.21s0-0.23,0-0.35s0-0.23-0.01-0.33c-0.01-0.1-0.03-0.16-0.06-0.18c-0.05-0.52-0.32-0.97-0.8-1.34
			c-0.49-0.37-1.09-0.56-1.81-0.56c-0.59,0-1.12,0.1-1.58,0.29c-0.46,0.19-0.88,0.45-1.25,0.77l-1.8-1.81
			c0.62-0.53,1.33-0.96,2.12-1.28s1.72-0.48,2.8-0.48c0.88,0,1.66,0.12,2.34,0.36s1.26,0.58,1.73,1.01
			c0.47,0.43,0.83,0.94,1.08,1.51c0.25,0.58,0.37,1.2,0.37,1.87v8.4H1056.86z M1056.77,388.74h-2.11c-0.48,0-0.89,0.06-1.22,0.17
			c-0.34,0.11-0.62,0.26-0.84,0.44c-0.22,0.18-0.39,0.39-0.49,0.61c-0.1,0.22-0.16,0.45-0.16,0.67c0,0.45,0.16,0.84,0.47,1.16
			c0.31,0.33,0.8,0.49,1.48,0.49c0.85,0,1.54-0.28,2.08-0.85s0.8-1.34,0.8-2.32V388.74z"/>
		<path fill="#5A7CBD" d="M1063.8,394.38V376.6h3.12v17.78H1063.8z"/>
		<path fill="#5A7CBD" d="M1070.83,394.38V376.6h3.12v17.78H1070.83z"/>
		<path fill="#5A7CBD" d="M1090.37,387.97c0,1.02-0.16,1.95-0.47,2.77c-0.31,0.82-0.72,1.52-1.24,2.1c-0.51,0.58-1.11,1.02-1.8,1.33
			c-0.69,0.31-1.4,0.47-2.14,0.47c-0.38,0-0.78-0.05-1.18-0.16c-0.4-0.1-0.78-0.25-1.13-0.44c-0.35-0.19-0.66-0.42-0.92-0.67
			c-0.26-0.26-0.47-0.54-0.61-0.84v1.85h-3.02V376.6h3.12v6.72c0.16-0.3,0.38-0.58,0.65-0.82c0.27-0.24,0.58-0.45,0.91-0.62
			c0.34-0.18,0.69-0.31,1.07-0.41c0.38-0.1,0.75-0.14,1.12-0.14c0.74,0,1.45,0.16,2.14,0.47c0.69,0.31,1.29,0.76,1.8,1.33
			c0.51,0.58,0.92,1.27,1.24,2.09C1090.21,386.03,1090.37,386.95,1090.37,387.97z M1087.12,387.97c0-1.3-0.3-2.29-0.89-2.99
			s-1.32-1.04-2.18-1.04c-0.42,0-0.81,0.09-1.19,0.26c-0.38,0.18-0.71,0.44-0.98,0.78c-0.28,0.34-0.5,0.77-0.66,1.27
			s-0.24,1.08-0.24,1.72c0,0.66,0.08,1.23,0.24,1.73c0.16,0.5,0.38,0.92,0.66,1.27c0.28,0.35,0.61,0.62,0.98,0.79
			c0.38,0.18,0.77,0.26,1.19,0.26s0.81-0.09,1.19-0.26c0.38-0.18,0.7-0.44,0.98-0.79c0.28-0.35,0.5-0.78,0.66-1.27
			C1087.04,389.21,1087.12,388.63,1087.12,387.97z"/>
		<path fill="#5A7CBD" d="M1095.64,388.84c0.14,0.98,0.52,1.78,1.13,2.38c0.61,0.6,1.39,0.91,2.35,0.91c1.09,0,1.94-0.33,2.57-0.98
			l1.82,1.81c-0.67,0.58-1.37,1.01-2.09,1.28s-1.54,0.41-2.47,0.41c-0.94,0-1.82-0.16-2.63-0.48c-0.81-0.32-1.51-0.77-2.1-1.36
			s-1.06-1.28-1.39-2.1s-0.5-1.73-0.5-2.74c0-0.99,0.15-1.9,0.44-2.71c0.29-0.82,0.71-1.52,1.25-2.1c0.54-0.58,1.18-1.04,1.92-1.36
			c0.74-0.32,1.56-0.48,2.44-0.48c0.83,0,1.61,0.14,2.33,0.43s1.34,0.72,1.87,1.3c0.53,0.58,0.94,1.3,1.25,2.16
			c0.3,0.86,0.46,1.86,0.46,3v0.62H1095.64z M1101.04,386.61c-0.13-0.86-0.42-1.56-0.86-2.09c-0.45-0.53-1.04-0.79-1.78-0.79
			c-0.71,0-1.3,0.26-1.79,0.78c-0.49,0.52-0.8,1.22-0.92,2.1H1101.04z"/>
		<path fill="#5A7CBD" d="M1105.92,394.38v-2.28l5.59-8.04h-5.42v-2.47h9.17v2.31l-5.59,7.96h5.76v2.52H1105.92z"/>
		<path fill="#5A7CBD" d="M1129.72,387.97c0,1.02-0.16,1.95-0.47,2.77c-0.31,0.82-0.75,1.52-1.31,2.1
			c-0.56,0.58-1.22,1.02-1.98,1.33s-1.58,0.47-2.46,0.47c-0.9,0-1.72-0.16-2.47-0.47c-0.75-0.31-1.41-0.76-1.97-1.33
			c-0.56-0.58-1-1.28-1.31-2.1c-0.31-0.82-0.47-1.75-0.47-2.77c0-1.02,0.16-1.94,0.47-2.76c0.31-0.82,0.75-1.51,1.31-2.09
			c0.56-0.58,1.22-1.02,1.97-1.33c0.75-0.31,1.58-0.47,2.47-0.47c0.88,0,1.7,0.16,2.46,0.47s1.42,0.76,1.98,1.33
			c0.56,0.58,1,1.27,1.31,2.09S1129.72,386.95,1129.72,387.97z M1126.48,387.97c0-1.3-0.28-2.29-0.84-2.99
			c-0.56-0.7-1.27-1.04-2.14-1.04c-0.85,0-1.56,0.35-2.12,1.04c-0.57,0.7-0.85,1.69-0.85,2.99c0,1.3,0.28,2.3,0.85,3
			c0.57,0.7,1.28,1.06,2.12,1.06c0.85,0,1.56-0.35,2.12-1.06C1126.2,390.27,1126.48,389.27,1126.48,387.97z"/>
		<path fill="#5A7CBD" d="M1144.17,393.23c0,0.82-0.16,1.58-0.47,2.29c-0.31,0.71-0.76,1.33-1.34,1.86s-1.29,0.94-2.12,1.25
			c-0.83,0.3-1.76,0.46-2.78,0.46c-1.23,0-2.26-0.19-3.1-0.56c-0.83-0.38-1.49-0.8-1.97-1.28l1.78-1.78
			c0.3,0.29,0.71,0.55,1.22,0.79c0.51,0.24,1.16,0.36,1.94,0.36c0.53,0,1.02-0.08,1.48-0.24c0.46-0.16,0.85-0.39,1.19-0.7
			c0.34-0.3,0.6-0.66,0.78-1.07c0.18-0.41,0.28-0.87,0.28-1.38v-0.98c-0.3,0.58-0.8,1.06-1.48,1.45c-0.68,0.39-1.43,0.59-2.24,0.59
			c-0.75,0-1.47-0.16-2.15-0.47s-1.28-0.75-1.79-1.31c-0.51-0.56-0.92-1.24-1.24-2.04c-0.31-0.8-0.47-1.69-0.47-2.66
			c0-0.98,0.16-1.86,0.47-2.66c0.31-0.8,0.72-1.48,1.24-2.04s1.11-1,1.79-1.31s1.4-0.47,2.15-0.47c0.43,0,0.85,0.06,1.25,0.18
			c0.4,0.12,0.77,0.28,1.1,0.47c0.34,0.19,0.63,0.42,0.89,0.68c0.26,0.26,0.45,0.54,0.58,0.83v-1.9h3.02V393.23z M1141.05,387.81
			c0-0.59-0.08-1.12-0.24-1.6c-0.16-0.47-0.38-0.88-0.66-1.21c-0.28-0.34-0.6-0.6-0.97-0.78c-0.37-0.18-0.76-0.28-1.18-0.28
			c-0.43,0-0.83,0.09-1.2,0.28c-0.37,0.18-0.69,0.44-0.97,0.78c-0.28,0.34-0.5,0.74-0.66,1.21c-0.16,0.47-0.24,1-0.24,1.6
			c0,1.2,0.29,2.14,0.88,2.83c0.58,0.69,1.32,1.03,2.2,1.03c0.42,0,0.81-0.09,1.18-0.26c0.37-0.18,0.69-0.43,0.97-0.77
			c0.28-0.34,0.5-0.74,0.66-1.21C1140.97,388.95,1141.05,388.41,1141.05,387.81z"/>
		<path fill="#5A7CBD" d="M1150.44,388.84c0.14,0.98,0.52,1.78,1.13,2.38c0.61,0.6,1.39,0.91,2.35,0.91c1.09,0,1.94-0.33,2.57-0.98
			l1.82,1.81c-0.67,0.58-1.37,1.01-2.09,1.28s-1.54,0.41-2.47,0.41c-0.94,0-1.82-0.16-2.63-0.48c-0.81-0.32-1.51-0.77-2.1-1.36
			s-1.06-1.28-1.39-2.1s-0.5-1.73-0.5-2.74c0-0.99,0.15-1.9,0.44-2.71c0.29-0.82,0.71-1.52,1.25-2.1c0.54-0.58,1.18-1.04,1.92-1.36
			c0.74-0.32,1.56-0.48,2.44-0.48c0.83,0,1.61,0.14,2.33,0.43s1.34,0.72,1.87,1.3c0.53,0.58,0.94,1.3,1.25,2.16
			c0.3,0.86,0.46,1.86,0.46,3v0.62H1150.44z M1155.84,386.61c-0.13-0.86-0.42-1.56-0.86-2.09c-0.45-0.53-1.04-0.79-1.78-0.79
			c-0.71,0-1.3,0.26-1.79,0.78c-0.49,0.52-0.8,1.22-0.92,2.1H1155.84z"/>
		<path fill="#5A7CBD" d="M1170.4,394.38v-7.56c0-0.98-0.22-1.7-0.66-2.17c-0.44-0.47-1.05-0.71-1.84-0.71
			c-0.86,0-1.58,0.32-2.16,0.97c-0.58,0.65-0.86,1.67-0.86,3.06v6.41h-3.12v-12.79h3.02v1.97c0.29-0.67,0.78-1.21,1.47-1.62
			c0.69-0.41,1.54-0.61,2.55-0.61c0.69,0,1.33,0.12,1.91,0.35s1.08,0.57,1.49,1.01c0.41,0.44,0.73,0.97,0.96,1.6
			s0.35,1.33,0.35,2.11v7.99H1170.4z"/>
		<path fill="#5A7CBD" d="M1179.76,388.84c0.14,0.98,0.52,1.78,1.13,2.38c0.61,0.6,1.39,0.91,2.35,0.91c1.09,0,1.94-0.33,2.57-0.98
			l1.82,1.81c-0.67,0.58-1.37,1.01-2.09,1.28s-1.54,0.41-2.47,0.41c-0.94,0-1.82-0.16-2.63-0.48c-0.81-0.32-1.51-0.77-2.1-1.36
			s-1.06-1.28-1.39-2.1s-0.5-1.73-0.5-2.74c0-0.99,0.15-1.9,0.44-2.71c0.29-0.82,0.71-1.52,1.25-2.1c0.54-0.58,1.18-1.04,1.92-1.36
			c0.74-0.32,1.56-0.48,2.44-0.48c0.83,0,1.61,0.14,2.33,0.43s1.34,0.72,1.87,1.3c0.53,0.58,0.94,1.3,1.25,2.16
			c0.3,0.86,0.46,1.86,0.46,3v0.62H1179.76z M1185.16,386.61c-0.13-0.86-0.42-1.56-0.86-2.09c-0.45-0.53-1.04-0.79-1.78-0.79
			c-0.71,0-1.3,0.26-1.79,0.78c-0.49,0.52-0.8,1.22-0.92,2.1H1185.16z"/>
		<path fill="#5A7CBD" d="M1062.2,423.18V405.4h9.67v2.78h-6.26v4.68h6.07v2.78h-6.07v4.75h6.43v2.78H1062.2z"/>
		<path fill="#5A7CBD" d="M1082.5,423.18l-2.57-4.22l-2.57,4.22h-3.65l4.39-6.58l-4.2-6.22h3.74l2.28,3.79l2.28-3.79h3.74l-4.2,6.22
			l4.39,6.58H1082.5z"/>
		<path fill="#5A7CBD" d="M1100.96,416.77c0,1.02-0.16,1.95-0.47,2.77c-0.31,0.82-0.72,1.52-1.24,2.1c-0.51,0.58-1.11,1.02-1.8,1.33
			c-0.69,0.31-1.4,0.47-2.14,0.47c-0.37,0-0.74-0.05-1.12-0.14s-0.73-0.23-1.07-0.4s-0.64-0.37-0.91-0.61
			c-0.27-0.24-0.49-0.5-0.65-0.79v6.12h-3.12v-17.23h3.02v1.9c0.14-0.3,0.35-0.59,0.61-0.85c0.26-0.26,0.57-0.49,0.92-0.68
			c0.35-0.19,0.73-0.34,1.13-0.46c0.4-0.11,0.79-0.17,1.18-0.17c0.74,0,1.45,0.16,2.14,0.47c0.69,0.31,1.29,0.76,1.8,1.33
			s0.92,1.27,1.24,2.09C1100.8,414.83,1100.96,415.75,1100.96,416.77z M1097.72,416.77c0-1.3-0.3-2.29-0.89-2.99
			c-0.59-0.7-1.32-1.04-2.18-1.04c-0.42,0-0.81,0.09-1.19,0.26c-0.38,0.18-0.7,0.44-0.98,0.78c-0.28,0.34-0.5,0.77-0.66,1.27
			c-0.16,0.5-0.24,1.08-0.24,1.72c0,0.66,0.08,1.23,0.24,1.73c0.16,0.5,0.38,0.92,0.66,1.27c0.28,0.35,0.61,0.62,0.98,0.79
			c0.38,0.18,0.77,0.26,1.19,0.26c0.42,0,0.81-0.09,1.19-0.26c0.38-0.18,0.7-0.44,0.98-0.79c0.28-0.35,0.5-0.78,0.66-1.27
			C1097.64,418.01,1097.72,417.43,1097.72,416.77z"/>
		<path fill="#5A7CBD" d="M1106.24,417.64c0.14,0.99,0.52,1.78,1.13,2.38c0.61,0.6,1.39,0.91,2.35,0.91c1.09,0,1.94-0.33,2.57-0.98
			l1.82,1.81c-0.67,0.58-1.37,1.01-2.09,1.28s-1.54,0.41-2.47,0.41c-0.94,0-1.82-0.16-2.63-0.48c-0.81-0.32-1.51-0.77-2.1-1.36
			s-1.06-1.28-1.39-2.1c-0.34-0.82-0.5-1.73-0.5-2.74c0-0.99,0.15-1.9,0.44-2.71c0.29-0.82,0.71-1.52,1.25-2.1s1.18-1.04,1.92-1.36
			c0.74-0.32,1.56-0.48,2.44-0.48c0.83,0,1.61,0.14,2.33,0.43s1.34,0.72,1.87,1.3c0.53,0.58,0.94,1.3,1.25,2.16
			c0.3,0.86,0.46,1.86,0.46,3v0.62H1106.24z M1111.64,415.41c-0.13-0.86-0.42-1.56-0.86-2.09c-0.45-0.53-1.04-0.79-1.78-0.79
			c-0.71,0-1.3,0.26-1.79,0.78c-0.49,0.52-0.8,1.22-0.92,2.1H1111.64z"/>
		<path fill="#5A7CBD" d="M1123.99,412.91c-0.36,0-0.68,0.04-0.97,0.12c-0.75,0.16-1.33,0.56-1.73,1.2c-0.4,0.64-0.6,1.5-0.6,2.59
			v6.36h-3.12v-12.79h3.02v1.94c0.34-0.7,0.85-1.25,1.54-1.63c0.69-0.38,1.65-0.58,2.88-0.58v2.83
			C1124.69,412.93,1124.35,412.91,1123.99,412.91z"/>
		<path fill="#5A7CBD" d="M1132.23,423.35c-0.62,0-1.18-0.1-1.67-0.29c-0.49-0.19-0.9-0.45-1.25-0.77c-0.34-0.32-0.6-0.7-0.78-1.13
			c-0.18-0.43-0.26-0.89-0.26-1.37v-6.94h-2.42v-2.47h2.42v-3.65h3.12v3.65h2.98v2.47h-2.98v6.5c0,0.48,0.13,0.85,0.4,1.12
			c0.26,0.26,0.7,0.4,1.31,0.4c0.22,0,0.46-0.02,0.71-0.07s0.48-0.11,0.71-0.19v2.47C1133.89,423.26,1133.13,423.35,1132.23,423.35z
			"/>
		<path fill="#5A7CBD" d="M1137.08,408.42v-3.02h3.19v3.02H1137.08z M1137.1,423.18v-12.79h3.12v12.79H1137.1z"/>
		<path fill="#5A7CBD" d="M1152.46,419.61c0,0.5-0.1,0.98-0.31,1.45s-0.52,0.89-0.94,1.26c-0.42,0.37-0.94,0.66-1.58,0.89
			c-0.64,0.22-1.4,0.33-2.28,0.33c-0.94,0-1.8-0.17-2.58-0.52c-0.78-0.35-1.41-0.77-1.91-1.27l1.8-1.81
			c0.27,0.27,0.64,0.52,1.12,0.74c0.47,0.22,1,0.34,1.57,0.34c0.67,0,1.18-0.13,1.54-0.39c0.35-0.26,0.53-0.59,0.53-0.97
			c0-0.42-0.15-0.74-0.46-0.97c-0.3-0.23-0.69-0.44-1.15-0.61c-0.46-0.17-0.96-0.35-1.49-0.53c-0.53-0.18-1.02-0.41-1.49-0.71
			c-0.46-0.29-0.85-0.68-1.15-1.15s-0.46-1.09-0.46-1.86c0-0.46,0.1-0.92,0.31-1.38c0.21-0.46,0.52-0.86,0.92-1.22
			c0.41-0.36,0.91-0.65,1.51-0.87s1.28-0.33,2.05-0.33c0.96,0,1.8,0.17,2.52,0.5c0.72,0.33,1.34,0.76,1.85,1.27l-1.8,1.83
			c-0.3-0.3-0.66-0.56-1.07-0.77s-0.88-0.31-1.43-0.31c-0.61,0-1.06,0.14-1.36,0.43s-0.44,0.58-0.44,0.89c0,0.33,0.15,0.6,0.46,0.8
			c0.3,0.2,0.68,0.38,1.14,0.55c0.46,0.17,0.95,0.34,1.49,0.53c0.54,0.18,1.03,0.43,1.49,0.74c0.46,0.31,0.84,0.71,1.14,1.21
			C1152.31,418.19,1152.46,418.83,1152.46,419.61z"/>
		<path fill="#5A7CBD" d="M1157.55,417.64c0.14,0.99,0.52,1.78,1.13,2.38c0.61,0.6,1.39,0.91,2.35,0.91c1.09,0,1.94-0.33,2.57-0.98
			l1.82,1.81c-0.67,0.58-1.37,1.01-2.09,1.28c-0.72,0.27-1.54,0.41-2.47,0.41c-0.94,0-1.82-0.16-2.63-0.48
			c-0.81-0.32-1.51-0.77-2.1-1.36s-1.06-1.28-1.39-2.1c-0.34-0.82-0.5-1.73-0.5-2.74c0-0.99,0.15-1.9,0.44-2.71
			c0.3-0.82,0.71-1.52,1.25-2.1s1.18-1.04,1.92-1.36c0.74-0.32,1.56-0.48,2.44-0.48c0.83,0,1.61,0.14,2.33,0.43
			c0.72,0.29,1.34,0.72,1.87,1.3c0.53,0.58,0.94,1.3,1.25,2.16s0.46,1.86,0.46,3v0.62H1157.55z M1162.95,415.41
			c-0.13-0.86-0.42-1.56-0.86-2.09c-0.45-0.53-1.04-0.79-1.78-0.79c-0.7,0-1.3,0.26-1.79,0.78c-0.49,0.52-0.8,1.22-0.92,2.1H1162.95
			z"/>
	</g>
</g>
<g>
	<circle fill="#F7F1A9" stroke="#5A7CBD" stroke-width="3" stroke-miterlimit="10" cx="86.5" cy="401" r="85"/>
	<g>
		<path fill="#5A7CBD" d="M28.11,394.38l-6.38-8.5v8.5h-3.41V376.6h3.41v8.14l6.17-8.14h4.22l-7.03,8.71l7.3,9.07H28.11z"/>
		<path fill="#5A7CBD" d="M45.51,387.97c0,1.02-0.16,1.95-0.47,2.77c-0.31,0.82-0.75,1.52-1.31,2.1c-0.56,0.58-1.22,1.02-1.98,1.33
			c-0.76,0.31-1.58,0.47-2.46,0.47c-0.9,0-1.72-0.16-2.47-0.47c-0.75-0.31-1.41-0.76-1.97-1.33c-0.56-0.58-1-1.28-1.31-2.1
			c-0.31-0.82-0.47-1.75-0.47-2.77c0-1.02,0.16-1.94,0.47-2.76s0.75-1.51,1.31-2.09c0.56-0.58,1.22-1.02,1.97-1.33
			c0.75-0.31,1.58-0.47,2.47-0.47c0.88,0,1.7,0.16,2.46,0.47c0.76,0.31,1.42,0.76,1.98,1.33c0.56,0.58,1,1.27,1.31,2.09
			C45.35,386.03,45.51,386.95,45.51,387.97z M42.27,387.97c0-1.3-0.28-2.29-0.84-2.99s-1.27-1.04-2.14-1.04
			c-0.85,0-1.56,0.35-2.12,1.04c-0.57,0.7-0.85,1.69-0.85,2.99c0,1.3,0.28,2.3,0.85,3c0.57,0.7,1.28,1.06,2.12,1.06
			c0.85,0,1.56-0.35,2.12-1.06C41.98,390.27,42.27,389.27,42.27,387.97z"/>
		<path fill="#5A7CBD" d="M64.01,394.38v-7.56c0-1.92-0.71-2.88-2.12-2.88c-0.32,0-0.63,0.08-0.93,0.25
			c-0.3,0.17-0.57,0.42-0.81,0.74c-0.24,0.33-0.43,0.74-0.57,1.22c-0.14,0.49-0.22,1.05-0.22,1.69v6.53h-3.12v-7.56
			c0-1.92-0.71-2.88-2.14-2.88c-0.32,0-0.63,0.08-0.94,0.25c-0.3,0.17-0.58,0.42-0.82,0.74c-0.24,0.33-0.43,0.74-0.58,1.22
			c-0.14,0.49-0.22,1.05-0.22,1.69v6.53h-3.12v-12.79h3.02v1.99c0.32-0.72,0.77-1.28,1.35-1.67c0.58-0.39,1.31-0.59,2.19-0.59
			c0.53,0,1.01,0.08,1.43,0.23c0.43,0.15,0.8,0.35,1.12,0.59c0.32,0.24,0.59,0.51,0.81,0.82c0.22,0.3,0.4,0.62,0.54,0.94
			c0.38-0.8,0.9-1.43,1.54-1.88c0.64-0.46,1.42-0.68,2.35-0.68c0.66,0,1.25,0.12,1.79,0.36c0.54,0.24,0.99,0.58,1.37,1.01
			s0.67,0.96,0.88,1.57c0.21,0.62,0.31,1.31,0.31,2.08v8.04H64.01z"/>
		<path fill="#5A7CBD" d="M83.52,387.97c0,1.02-0.16,1.95-0.47,2.77c-0.31,0.82-0.72,1.52-1.24,2.1c-0.51,0.58-1.11,1.02-1.8,1.33
			s-1.4,0.47-2.14,0.47c-0.37,0-0.74-0.05-1.12-0.14c-0.38-0.1-0.73-0.23-1.07-0.4s-0.64-0.37-0.91-0.61
			c-0.27-0.24-0.49-0.5-0.65-0.79v6.12h-3.12v-17.23h3.02v1.9c0.14-0.3,0.35-0.59,0.61-0.85s0.57-0.49,0.92-0.68
			s0.73-0.34,1.13-0.46c0.4-0.11,0.79-0.17,1.18-0.17c0.74,0,1.45,0.16,2.14,0.47s1.29,0.76,1.8,1.33c0.51,0.58,0.92,1.27,1.24,2.09
			S83.52,386.95,83.52,387.97z M80.28,387.97c0-1.3-0.3-2.29-0.89-2.99s-1.32-1.04-2.18-1.04c-0.42,0-0.81,0.09-1.19,0.26
			c-0.38,0.18-0.7,0.44-0.98,0.78c-0.28,0.34-0.5,0.77-0.66,1.27c-0.16,0.5-0.24,1.08-0.24,1.72c0,0.66,0.08,1.23,0.24,1.73
			c0.16,0.5,0.38,0.92,0.66,1.27c0.28,0.35,0.61,0.62,0.98,0.79c0.38,0.18,0.77,0.26,1.19,0.26c0.42,0,0.81-0.09,1.19-0.26
			c0.38-0.18,0.7-0.44,0.98-0.79c0.28-0.35,0.5-0.78,0.66-1.27C80.2,389.21,80.28,388.63,80.28,387.97z"/>
		<path fill="#5A7CBD" d="M88.8,388.84c0.14,0.98,0.52,1.78,1.13,2.38c0.61,0.6,1.39,0.91,2.35,0.91c1.09,0,1.94-0.33,2.57-0.98
			l1.82,1.81c-0.67,0.58-1.37,1.01-2.09,1.28c-0.72,0.27-1.54,0.41-2.47,0.41c-0.94,0-1.82-0.16-2.63-0.48
			c-0.81-0.32-1.51-0.77-2.1-1.36s-1.06-1.28-1.39-2.1c-0.34-0.82-0.5-1.73-0.5-2.74c0-0.99,0.15-1.9,0.44-2.71
			c0.3-0.82,0.71-1.52,1.25-2.1c0.54-0.58,1.18-1.04,1.92-1.36c0.74-0.32,1.56-0.48,2.44-0.48c0.83,0,1.61,0.14,2.33,0.43
			c0.72,0.29,1.34,0.72,1.87,1.3c0.53,0.58,0.94,1.3,1.25,2.16c0.3,0.86,0.46,1.86,0.46,3v0.62H88.8z M94.2,386.61
			c-0.13-0.86-0.42-1.56-0.86-2.09c-0.45-0.53-1.04-0.79-1.78-0.79c-0.7,0-1.3,0.26-1.79,0.78c-0.49,0.52-0.8,1.22-0.92,2.1H94.2z"
			/>
		<path fill="#5A7CBD" d="M105.03,394.55c-0.62,0-1.18-0.1-1.67-0.29c-0.49-0.19-0.9-0.45-1.25-0.77c-0.34-0.32-0.6-0.7-0.78-1.13
			c-0.18-0.43-0.26-0.89-0.26-1.37v-6.94h-2.42v-2.47h2.42v-3.65h3.12v3.65h2.98v2.47h-2.98v6.5c0,0.48,0.13,0.85,0.4,1.12
			c0.26,0.26,0.7,0.4,1.31,0.4c0.22,0,0.46-0.02,0.71-0.07c0.25-0.05,0.48-0.11,0.71-0.19v2.47
			C106.68,394.46,105.92,394.55,105.03,394.55z"/>
		<path fill="#5A7CBD" d="M112.25,388.84c0.14,0.98,0.52,1.78,1.13,2.38c0.61,0.6,1.39,0.91,2.35,0.91c1.09,0,1.94-0.33,2.57-0.98
			l1.82,1.81c-0.67,0.58-1.37,1.01-2.09,1.28c-0.72,0.27-1.54,0.41-2.47,0.41c-0.94,0-1.82-0.16-2.63-0.48
			c-0.81-0.32-1.51-0.77-2.1-1.36s-1.06-1.28-1.39-2.1c-0.34-0.82-0.5-1.73-0.5-2.74c0-0.99,0.15-1.9,0.44-2.71
			c0.3-0.82,0.71-1.52,1.25-2.1c0.54-0.58,1.18-1.04,1.92-1.36c0.74-0.32,1.56-0.48,2.44-0.48c0.83,0,1.61,0.14,2.33,0.43
			c0.72,0.29,1.34,0.72,1.87,1.3c0.53,0.58,0.94,1.3,1.25,2.16c0.3,0.86,0.46,1.86,0.46,3v0.62H112.25z M117.65,386.61
			c-0.13-0.86-0.42-1.56-0.86-2.09c-0.45-0.53-1.04-0.79-1.78-0.79c-0.7,0-1.3,0.26-1.79,0.78c-0.49,0.52-0.8,1.22-0.92,2.1H117.65z
			"/>
		<path fill="#5A7CBD" d="M132.22,394.38v-7.56c0-0.98-0.22-1.7-0.66-2.17c-0.44-0.47-1.05-0.71-1.84-0.71
			c-0.86,0-1.58,0.32-2.16,0.97c-0.58,0.65-0.86,1.67-0.86,3.06v6.41h-3.12v-12.79h3.02v1.97c0.29-0.67,0.78-1.21,1.47-1.62
			c0.69-0.41,1.54-0.61,2.55-0.61c0.69,0,1.33,0.12,1.91,0.35c0.59,0.23,1.08,0.57,1.49,1.01c0.41,0.44,0.73,0.97,0.96,1.6
			s0.35,1.33,0.35,2.11v7.99H132.22z"/>
		<path fill="#5A7CBD" d="M138.17,394.38v-2.28l5.59-8.04h-5.42v-2.47h9.17v2.31l-5.59,7.96h5.76v2.52H138.17z"/>
		<path fill="#5A7CBD" d="M149.62,388.84v-2.23h6.14v2.23H149.62z"/>
		<path fill="#5A7CBD" d="M18.99,417.64c0.14,0.99,0.52,1.78,1.13,2.38s1.39,0.91,2.35,0.91c1.09,0,1.94-0.33,2.57-0.98l1.82,1.81
			c-0.67,0.58-1.37,1.01-2.09,1.28c-0.72,0.27-1.54,0.41-2.47,0.41c-0.94,0-1.82-0.16-2.63-0.48c-0.81-0.32-1.51-0.77-2.1-1.36
			s-1.06-1.28-1.39-2.1c-0.34-0.82-0.5-1.73-0.5-2.74c0-0.99,0.15-1.9,0.44-2.71c0.3-0.82,0.71-1.52,1.25-2.1s1.18-1.04,1.92-1.36
			c0.74-0.32,1.56-0.48,2.44-0.48c0.83,0,1.61,0.14,2.33,0.43c0.72,0.29,1.34,0.72,1.87,1.3c0.53,0.58,0.94,1.3,1.25,2.16
			c0.3,0.86,0.46,1.86,0.46,3v0.62H18.99z M24.39,415.41c-0.13-0.86-0.42-1.56-0.86-2.09c-0.45-0.53-1.04-0.79-1.78-0.79
			c-0.7,0-1.3,0.26-1.79,0.78c-0.49,0.52-0.8,1.22-0.92,2.1H24.39z"/>
		<path fill="#5A7CBD" d="M36.74,412.91c-0.36,0-0.68,0.04-0.97,0.12c-0.75,0.16-1.33,0.56-1.73,1.2c-0.4,0.64-0.6,1.5-0.6,2.59
			v6.36h-3.12v-12.79h3.02v1.94c0.34-0.7,0.85-1.25,1.54-1.63s1.65-0.58,2.88-0.58v2.83C37.44,412.93,37.1,412.91,36.74,412.91z"/>
		<path fill="#5A7CBD" d="M53.84,423.18h-3.77l-2.18-8.06l-2.16,8.06h-3.77l-3.65-12.79h3.46l2.21,9.38l2.54-9.38h2.81l2.5,9.38
			l2.18-9.38h3.48L53.84,423.18z"/>
		<path fill="#5A7CBD" d="M61.95,417.64c0.14,0.99,0.52,1.78,1.13,2.38s1.39,0.91,2.35,0.91c1.09,0,1.94-0.33,2.57-0.98l1.82,1.81
			c-0.67,0.58-1.37,1.01-2.09,1.28c-0.72,0.27-1.54,0.41-2.47,0.41c-0.94,0-1.82-0.16-2.63-0.48c-0.81-0.32-1.51-0.77-2.1-1.36
			s-1.06-1.28-1.39-2.1c-0.34-0.82-0.5-1.73-0.5-2.74c0-0.99,0.15-1.9,0.44-2.71c0.3-0.82,0.71-1.52,1.25-2.1s1.18-1.04,1.92-1.36
			c0.74-0.32,1.56-0.48,2.44-0.48c0.83,0,1.61,0.14,2.33,0.43c0.72,0.29,1.34,0.72,1.87,1.3c0.53,0.58,0.94,1.3,1.25,2.16
			c0.3,0.86,0.46,1.86,0.46,3v0.62H61.95z M67.35,415.41c-0.13-0.86-0.42-1.56-0.86-2.09c-0.45-0.53-1.04-0.79-1.78-0.79
			c-0.7,0-1.3,0.26-1.79,0.78c-0.49,0.52-0.8,1.22-0.92,2.1H67.35z"/>
		<path fill="#5A7CBD" d="M73.25,408.42v-3.02h3.19v3.02H73.25z M73.28,423.18v-12.79h3.12v12.79H73.28z"/>
		<path fill="#5A7CBD" d="M85.2,423.35c-0.62,0-1.18-0.1-1.67-0.29c-0.49-0.19-0.9-0.45-1.25-0.77s-0.6-0.7-0.78-1.13
			c-0.18-0.43-0.26-0.89-0.26-1.37v-6.94h-2.42v-2.47h2.42v-3.65h3.12v3.65h2.98v2.47h-2.98v6.5c0,0.48,0.13,0.85,0.4,1.12
			c0.26,0.26,0.7,0.4,1.31,0.4c0.22,0,0.46-0.02,0.71-0.07c0.25-0.05,0.48-0.11,0.71-0.19v2.47
			C86.86,423.26,86.1,423.35,85.2,423.35z"/>
		<path fill="#5A7CBD" d="M92.43,417.64c0.14,0.99,0.52,1.78,1.13,2.38s1.39,0.91,2.35,0.91c1.09,0,1.94-0.33,2.57-0.98l1.82,1.81
			c-0.67,0.58-1.37,1.01-2.09,1.28c-0.72,0.27-1.54,0.41-2.47,0.41c-0.94,0-1.82-0.16-2.63-0.48c-0.81-0.32-1.51-0.77-2.1-1.36
			s-1.06-1.28-1.39-2.1c-0.34-0.82-0.5-1.73-0.5-2.74c0-0.99,0.15-1.9,0.44-2.71c0.3-0.82,0.71-1.52,1.25-2.1s1.18-1.04,1.92-1.36
			c0.74-0.32,1.56-0.48,2.44-0.48c0.83,0,1.61,0.14,2.33,0.43c0.72,0.29,1.34,0.72,1.87,1.3c0.53,0.58,0.94,1.3,1.25,2.16
			c0.3,0.86,0.46,1.86,0.46,3v0.62H92.43z M97.83,415.41c-0.13-0.86-0.42-1.56-0.86-2.09c-0.45-0.53-1.04-0.79-1.78-0.79
			c-0.7,0-1.3,0.26-1.79,0.78c-0.49,0.52-0.8,1.22-0.92,2.1H97.83z"/>
		<path fill="#5A7CBD" d="M110.18,412.91c-0.36,0-0.68,0.04-0.97,0.12c-0.75,0.16-1.33,0.56-1.73,1.2c-0.4,0.64-0.6,1.5-0.6,2.59
			v6.36h-3.12v-12.79h3.02v1.94c0.34-0.7,0.85-1.25,1.54-1.63s1.65-0.58,2.88-0.58v2.83C110.88,412.93,110.54,412.91,110.18,412.91z
			"/>
		<path fill="#5A7CBD" d="M122.24,423.18l0-1.97c-0.27,0.66-0.76,1.19-1.45,1.61c-0.7,0.42-1.54,0.62-2.53,0.62
			c-0.7,0-1.34-0.12-1.92-0.35c-0.58-0.23-1.07-0.57-1.49-1.01c-0.42-0.44-0.74-0.97-0.97-1.6s-0.35-1.33-0.35-2.11v-7.99h3.12v7.54
			c0,0.99,0.22,1.72,0.66,2.2c0.44,0.47,1.05,0.71,1.84,0.71c0.86,0,1.58-0.33,2.16-0.98c0.58-0.66,0.86-1.68,0.86-3.07v-6.38h3.12
			v12.79H122.24z"/>
		<path fill="#5A7CBD" d="M137.81,423.18v-7.56c0-0.98-0.22-1.7-0.66-2.17s-1.05-0.71-1.84-0.71c-0.86,0-1.58,0.32-2.16,0.97
			c-0.58,0.65-0.86,1.67-0.86,3.06v6.41h-3.12v-12.79h3.02v1.97c0.29-0.67,0.78-1.21,1.47-1.62c0.69-0.41,1.54-0.61,2.55-0.61
			c0.69,0,1.33,0.12,1.91,0.35c0.59,0.23,1.08,0.57,1.49,1.01c0.41,0.44,0.73,0.97,0.96,1.6s0.35,1.33,0.35,2.11v7.99H137.81z"/>
		<path fill="#5A7CBD" d="M156.34,422.03c0,0.82-0.16,1.58-0.47,2.29c-0.31,0.71-0.76,1.33-1.34,1.86
			c-0.58,0.53-1.29,0.94-2.12,1.25s-1.76,0.46-2.78,0.46c-1.23,0-2.26-0.19-3.1-0.56c-0.83-0.38-1.49-0.8-1.97-1.28l1.78-1.78
			c0.3,0.29,0.71,0.55,1.22,0.79c0.51,0.24,1.16,0.36,1.94,0.36c0.53,0,1.02-0.08,1.48-0.24s0.85-0.39,1.19-0.7s0.6-0.66,0.78-1.07
			s0.28-0.87,0.28-1.38v-0.98c-0.3,0.58-0.8,1.06-1.48,1.45c-0.68,0.39-1.43,0.59-2.24,0.59c-0.75,0-1.47-0.16-2.15-0.47
			c-0.68-0.31-1.28-0.75-1.79-1.31c-0.51-0.56-0.92-1.24-1.24-2.04c-0.31-0.8-0.47-1.69-0.47-2.66c0-0.98,0.16-1.86,0.47-2.66
			c0.31-0.8,0.72-1.48,1.24-2.04c0.51-0.56,1.11-1,1.79-1.31c0.68-0.31,1.4-0.47,2.15-0.47c0.43,0,0.85,0.06,1.25,0.18
			c0.4,0.12,0.77,0.28,1.1,0.47c0.34,0.19,0.63,0.42,0.89,0.68s0.45,0.54,0.58,0.83v-1.9h3.02V422.03z M153.22,416.61
			c0-0.59-0.08-1.12-0.24-1.6c-0.16-0.47-0.38-0.88-0.66-1.21s-0.6-0.6-0.97-0.78c-0.37-0.18-0.76-0.28-1.18-0.28
			c-0.43,0-0.83,0.09-1.2,0.28c-0.37,0.18-0.69,0.44-0.97,0.78c-0.28,0.34-0.5,0.74-0.66,1.21c-0.16,0.47-0.24,1-0.24,1.6
			c0,1.2,0.29,2.14,0.88,2.83c0.58,0.69,1.32,1.03,2.2,1.03c0.42,0,0.81-0.09,1.18-0.26c0.37-0.18,0.69-0.43,0.97-0.77
			s0.5-0.74,0.66-1.21C153.14,417.75,153.22,417.21,153.22,416.61z"/>
	</g>
</g>
<g>
	<circle fill="#E5E7EB" stroke="#5A7CBD" stroke-width="3" stroke-miterlimit="10" cx="600" cy="714.5" r="85"/>
	<g>
		<path fill="#5A7CBD" d="M540.64,707.88v-2.62l7.46-12.38h-7.27v-2.79h11.28v2.64l-7.46,12.36h7.66v2.79H540.64z"/>
		<path fill="#5A7CBD" d="M557.39,702.34c0.14,0.99,0.52,1.78,1.13,2.38s1.39,0.91,2.35,0.91c1.09,0,1.94-0.33,2.57-0.98l1.82,1.81
			c-0.67,0.58-1.37,1.01-2.09,1.28c-0.72,0.27-1.54,0.41-2.47,0.41c-0.94,0-1.82-0.16-2.63-0.48c-0.81-0.32-1.51-0.77-2.1-1.36
			s-1.06-1.28-1.39-2.1c-0.34-0.82-0.5-1.73-0.5-2.74c0-0.99,0.15-1.9,0.44-2.71c0.3-0.82,0.71-1.52,1.25-2.1s1.18-1.04,1.92-1.36
			c0.74-0.32,1.56-0.48,2.44-0.48c0.83,0,1.61,0.14,2.33,0.43c0.72,0.29,1.34,0.72,1.87,1.3s0.94,1.29,1.25,2.16
			c0.3,0.86,0.46,1.86,0.46,3v0.62H557.39z M562.79,700.11c-0.13-0.86-0.42-1.56-0.86-2.09c-0.45-0.53-1.04-0.79-1.78-0.79
			c-0.7,0-1.3,0.26-1.79,0.78c-0.49,0.52-0.8,1.22-0.92,2.1H562.79z"/>
		<path fill="#5A7CBD" d="M575.14,697.61c-0.36,0-0.68,0.04-0.97,0.12c-0.75,0.16-1.33,0.56-1.73,1.2c-0.4,0.64-0.6,1.5-0.6,2.59
			v6.36h-3.12v-12.79h3.02v1.94c0.34-0.7,0.85-1.25,1.54-1.63s1.65-0.58,2.88-0.58v2.83C575.84,697.63,575.5,697.61,575.14,697.61z"
			/>
		<path fill="#5A7CBD" d="M583.38,708.05c-0.62,0-1.18-0.1-1.67-0.29c-0.49-0.19-0.9-0.45-1.25-0.77s-0.6-0.7-0.78-1.13
			c-0.18-0.43-0.26-0.89-0.26-1.37v-6.94H577v-2.47h2.42v-3.65h3.12v3.65h2.98v2.47h-2.98v6.5c0,0.48,0.13,0.85,0.4,1.12
			c0.26,0.26,0.7,0.4,1.31,0.4c0.22,0,0.46-0.02,0.71-0.07c0.25-0.05,0.48-0.11,0.71-0.19v2.47
			C585.04,707.96,584.28,708.05,583.38,708.05z"/>
		<path fill="#5A7CBD" d="M588.23,693.12v-3.03h3.19v3.03H588.23z M588.25,707.88v-12.79h3.12v12.79H588.25z"/>
		<path fill="#5A7CBD" d="M602.46,692.69c-0.45-0.16-0.92-0.24-1.42-0.24c-0.61,0-1.04,0.13-1.31,0.39s-0.4,0.63-0.4,1.11v1.14h2.98
			v2.47h-2.98v10.32h-3.12v-10.32h-2.42v-2.47h2.42v-1.61c0-0.48,0.09-0.94,0.26-1.37c0.18-0.43,0.44-0.81,0.78-1.13
			s0.76-0.58,1.25-0.77c0.49-0.19,1.04-0.29,1.67-0.29c0.46,0,0.88,0.02,1.26,0.07c0.38,0.05,0.72,0.11,1.02,0.19V692.69z
			 M605.03,693.12v-3.03h3.19v3.03H605.03z M605.08,707.88v-12.79h3.12v12.79H605.08z"/>
		<path fill="#5A7CBD" d="M611.03,707.88v-2.28l5.59-8.04h-5.42v-2.47h9.17v2.31l-5.59,7.96h5.76v2.52H611.03z"/>
		<path fill="#5A7CBD" d="M623.34,693.12v-3.03h3.19v3.03H623.34z M623.36,707.88v-12.79h3.12v12.79H623.36z"/>
		<path fill="#5A7CBD" d="M632.75,702.34c0.14,0.99,0.52,1.78,1.13,2.38c0.61,0.6,1.39,0.91,2.35,0.91c1.09,0,1.94-0.33,2.57-0.98
			l1.82,1.81c-0.67,0.58-1.37,1.01-2.09,1.28c-0.72,0.27-1.54,0.41-2.47,0.41c-0.94,0-1.82-0.16-2.63-0.48
			c-0.81-0.32-1.51-0.77-2.1-1.36s-1.06-1.28-1.39-2.1c-0.34-0.82-0.5-1.73-0.5-2.74c0-0.99,0.15-1.9,0.44-2.71
			c0.3-0.82,0.71-1.52,1.25-2.1c0.54-0.58,1.18-1.04,1.92-1.36c0.74-0.32,1.56-0.48,2.44-0.48c0.83,0,1.61,0.14,2.33,0.43
			c0.72,0.29,1.34,0.72,1.87,1.3s0.94,1.29,1.25,2.16c0.3,0.86,0.46,1.86,0.46,3v0.62H632.75z M638.15,700.11
			c-0.13-0.86-0.42-1.56-0.86-2.09c-0.45-0.53-1.04-0.79-1.78-0.79c-0.71,0-1.3,0.26-1.79,0.78c-0.49,0.52-0.8,1.22-0.92,2.1H638.15
			z"/>
		<path fill="#5A7CBD" d="M650.5,697.61c-0.36,0-0.68,0.04-0.97,0.12c-0.75,0.16-1.33,0.56-1.73,1.2c-0.4,0.64-0.6,1.5-0.6,2.59
			v6.36h-3.12v-12.79h3.02v1.94c0.34-0.7,0.85-1.25,1.54-1.63c0.69-0.38,1.65-0.58,2.88-0.58v2.83
			C651.2,697.63,650.86,697.61,650.5,697.61z"/>
		<path fill="#5A7CBD" d="M652.96,702.34v-2.23h6.14v2.23H652.96z"/>
		<path fill="#5A7CBD" d="M587.29,736.68l0-1.97c-0.27,0.66-0.76,1.19-1.45,1.61c-0.7,0.42-1.54,0.62-2.53,0.62
			c-0.7,0-1.34-0.12-1.92-0.35c-0.58-0.23-1.07-0.57-1.49-1.01c-0.42-0.44-0.74-0.97-0.97-1.6s-0.35-1.33-0.35-2.11v-7.99h3.12v7.54
			c0,0.99,0.22,1.72,0.66,2.2c0.44,0.47,1.05,0.71,1.84,0.71c0.86,0,1.58-0.33,2.16-0.98c0.58-0.66,0.86-1.68,0.86-3.07v-6.38h3.12
			v12.79H587.29z"/>
		<path fill="#5A7CBD" d="M602.87,736.68v-7.56c0-0.98-0.22-1.7-0.66-2.17s-1.05-0.71-1.84-0.71c-0.86,0-1.58,0.32-2.16,0.97
			c-0.58,0.65-0.86,1.67-0.86,3.06v6.41h-3.12v-12.79h3.02v1.97c0.29-0.67,0.78-1.21,1.47-1.62c0.69-0.41,1.54-0.61,2.55-0.61
			c0.69,0,1.33,0.12,1.91,0.35c0.59,0.23,1.08,0.57,1.49,1.01c0.41,0.44,0.73,0.97,0.96,1.6s0.35,1.33,0.35,2.11v7.99H602.87z"/>
		<path fill="#5A7CBD" d="M621.4,735.53c0,0.82-0.16,1.58-0.47,2.29c-0.31,0.71-0.76,1.33-1.34,1.86c-0.58,0.53-1.29,0.94-2.12,1.25
			c-0.83,0.3-1.76,0.46-2.78,0.46c-1.23,0-2.26-0.19-3.1-0.56c-0.83-0.38-1.49-0.8-1.97-1.28l1.78-1.78
			c0.3,0.29,0.71,0.55,1.22,0.79c0.51,0.24,1.16,0.36,1.94,0.36c0.53,0,1.02-0.08,1.48-0.24c0.46-0.16,0.85-0.39,1.19-0.7
			c0.34-0.3,0.6-0.66,0.78-1.07c0.18-0.41,0.28-0.87,0.28-1.38v-0.98c-0.3,0.58-0.8,1.06-1.48,1.45c-0.68,0.39-1.43,0.59-2.24,0.59
			c-0.75,0-1.47-0.16-2.15-0.47c-0.68-0.31-1.28-0.75-1.79-1.31s-0.92-1.24-1.24-2.04c-0.31-0.8-0.47-1.69-0.47-2.66
			c0-0.97,0.16-1.86,0.47-2.66c0.31-0.8,0.72-1.48,1.24-2.04s1.11-1,1.79-1.31c0.68-0.31,1.39-0.47,2.15-0.47
			c0.43,0,0.85,0.06,1.25,0.18c0.4,0.12,0.77,0.28,1.1,0.47c0.34,0.19,0.63,0.42,0.89,0.68c0.26,0.26,0.45,0.54,0.58,0.83v-1.9h3.02
			V735.53z M618.28,730.11c0-0.59-0.08-1.12-0.24-1.6c-0.16-0.47-0.38-0.88-0.66-1.21c-0.28-0.34-0.6-0.6-0.97-0.78
			c-0.37-0.18-0.76-0.28-1.18-0.28c-0.43,0-0.83,0.09-1.2,0.28c-0.37,0.18-0.69,0.44-0.97,0.78c-0.28,0.34-0.5,0.74-0.66,1.21
			c-0.16,0.47-0.24,1-0.24,1.6c0,1.2,0.29,2.14,0.88,2.83c0.58,0.69,1.32,1.03,2.2,1.03c0.42,0,0.81-0.09,1.18-0.26
			c0.37-0.18,0.69-0.43,0.97-0.77c0.28-0.34,0.5-0.74,0.66-1.21C618.2,731.25,618.28,730.71,618.28,730.11z"/>
	</g>
</g>
<g>
	<circle fill="#93AFDB" stroke="#5A7CBD" stroke-width="3" stroke-miterlimit="10" cx="415.5" cy="563.5" r="85"/>
	<g>
		<path fill="#5A7CBD" d="M364.09,556.88l-1.44-4.08h-6.84l-1.42,4.08h-3.6l6.62-17.79h3.65l6.62,17.79H364.09z M359.24,542.94
			l-2.47,7.08h4.94L359.24,542.94z"/>
		<path fill="#5A7CBD" d="M369.64,556.88V539.1h3.12v17.79H369.64z"/>
		<path fill="#5A7CBD" d="M381.56,557.05c-0.62,0-1.18-0.1-1.67-0.29c-0.49-0.19-0.9-0.45-1.25-0.77s-0.6-0.7-0.78-1.13
			c-0.18-0.43-0.26-0.89-0.26-1.37v-6.94h-2.42v-2.47h2.42v-3.65h3.12v3.65h2.98v2.47h-2.98v6.5c0,0.48,0.13,0.85,0.4,1.12
			c0.26,0.26,0.7,0.4,1.31,0.4c0.22,0,0.46-0.02,0.71-0.07c0.25-0.05,0.48-0.11,0.71-0.19v2.47
			C383.22,556.96,382.46,557.05,381.56,557.05z"/>
		<path fill="#5A7CBD" d="M388.79,551.34c0.14,0.99,0.52,1.78,1.13,2.38s1.39,0.91,2.35,0.91c1.09,0,1.94-0.33,2.57-0.98l1.82,1.81
			c-0.67,0.58-1.37,1.01-2.09,1.28s-1.54,0.41-2.47,0.41c-0.94,0-1.82-0.16-2.63-0.48c-0.81-0.32-1.51-0.77-2.1-1.36
			s-1.06-1.28-1.39-2.1c-0.34-0.82-0.5-1.73-0.5-2.74c0-0.99,0.15-1.9,0.44-2.71c0.3-0.82,0.71-1.52,1.25-2.1s1.18-1.04,1.92-1.36
			s1.56-0.48,2.44-0.48c0.83,0,1.61,0.14,2.33,0.43c0.72,0.29,1.34,0.72,1.87,1.3c0.53,0.58,0.94,1.29,1.25,2.16
			c0.3,0.86,0.46,1.86,0.46,3v0.62H388.79z M394.19,549.11c-0.13-0.86-0.42-1.56-0.86-2.09c-0.45-0.53-1.04-0.79-1.78-0.79
			c-0.7,0-1.3,0.26-1.79,0.78c-0.49,0.52-0.8,1.22-0.92,2.1H394.19z"/>
		<path fill="#5A7CBD" d="M406.54,546.61c-0.36,0-0.68,0.04-0.97,0.12c-0.75,0.16-1.33,0.56-1.73,1.2c-0.4,0.64-0.6,1.5-0.6,2.59
			v6.36h-3.12v-12.79h3.02v1.94c0.34-0.7,0.85-1.25,1.54-1.63c0.69-0.38,1.65-0.58,2.88-0.58v2.83
			C407.24,546.63,406.9,546.61,406.54,546.61z"/>
		<path fill="#5A7CBD" d="M418.21,553.31c0,0.5-0.1,0.98-0.31,1.45s-0.52,0.89-0.94,1.26c-0.42,0.37-0.94,0.66-1.58,0.89
			c-0.64,0.22-1.4,0.33-2.28,0.33c-0.94,0-1.8-0.17-2.58-0.52c-0.78-0.35-1.41-0.77-1.91-1.27l1.8-1.81
			c0.27,0.27,0.64,0.52,1.12,0.74c0.47,0.22,1,0.34,1.57,0.34c0.67,0,1.18-0.13,1.54-0.39c0.35-0.26,0.53-0.59,0.53-0.97
			c0-0.42-0.15-0.74-0.46-0.97s-0.69-0.43-1.15-0.61c-0.46-0.18-0.96-0.35-1.49-0.53s-1.02-0.41-1.49-0.71
			c-0.46-0.29-0.85-0.68-1.15-1.15c-0.3-0.47-0.46-1.09-0.46-1.86c0-0.46,0.1-0.92,0.31-1.38s0.52-0.86,0.92-1.22
			c0.41-0.36,0.91-0.65,1.51-0.87c0.6-0.22,1.28-0.33,2.05-0.33c0.96,0,1.8,0.17,2.52,0.5c0.72,0.33,1.34,0.76,1.85,1.27l-1.8,1.83
			c-0.3-0.3-0.66-0.56-1.07-0.77s-0.88-0.31-1.43-0.31c-0.61,0-1.06,0.14-1.36,0.43s-0.44,0.58-0.44,0.89c0,0.33,0.15,0.6,0.46,0.8
			c0.3,0.2,0.68,0.38,1.14,0.55c0.46,0.17,0.95,0.34,1.49,0.53c0.54,0.18,1.03,0.43,1.49,0.74c0.46,0.31,0.84,0.71,1.14,1.21
			C418.06,551.89,418.21,552.53,418.21,553.31z"/>
		<path fill="#5A7CBD" d="M420.06,551.34v-2.23h6.14v2.23H420.06z"/>
		<path fill="#5A7CBD" d="M444.13,556.88v-1.97c-0.27,0.66-0.76,1.19-1.45,1.61c-0.7,0.42-1.54,0.62-2.53,0.62
			c-0.71,0-1.34-0.12-1.92-0.35c-0.58-0.23-1.07-0.57-1.49-1.01c-0.42-0.44-0.74-0.97-0.97-1.6c-0.23-0.62-0.35-1.33-0.35-2.11
			v-7.99h3.12v7.54c0,0.99,0.22,1.72,0.66,2.2c0.44,0.47,1.05,0.71,1.84,0.71c0.86,0,1.58-0.33,2.16-0.98s0.86-1.68,0.86-3.07v-6.38
			h3.12v12.79H444.13z"/>
		<path fill="#5A7CBD" d="M459.71,556.88v-7.56c0-0.98-0.22-1.7-0.66-2.17c-0.44-0.47-1.05-0.71-1.84-0.71
			c-0.86,0-1.58,0.32-2.16,0.97s-0.86,1.67-0.86,3.06v6.41h-3.12v-12.79h3.02v1.97c0.29-0.67,0.78-1.21,1.47-1.62
			c0.69-0.41,1.54-0.61,2.55-0.61c0.69,0,1.33,0.12,1.91,0.35c0.59,0.23,1.08,0.57,1.49,1.01c0.41,0.44,0.73,0.97,0.96,1.6
			s0.35,1.33,0.35,2.11v7.99H459.71z"/>
		<path fill="#5A7CBD" d="M475.21,556.88v-1.85c-0.13,0.3-0.33,0.58-0.6,0.84s-0.58,0.48-0.94,0.67c-0.35,0.19-0.72,0.34-1.12,0.44
			c-0.39,0.1-0.78,0.16-1.16,0.16c-0.75,0-1.47-0.16-2.15-0.47c-0.68-0.31-1.28-0.76-1.79-1.33c-0.51-0.58-0.92-1.28-1.24-2.1
			c-0.31-0.82-0.47-1.75-0.47-2.77s0.16-1.94,0.47-2.76c0.31-0.82,0.72-1.51,1.24-2.09c0.51-0.58,1.11-1.02,1.79-1.33
			c0.68-0.31,1.4-0.47,2.15-0.47c0.35,0,0.72,0.05,1.09,0.14s0.73,0.23,1.07,0.41s0.64,0.38,0.92,0.62
			c0.28,0.24,0.49,0.51,0.64,0.82v-6.72h3.12v17.79H475.21z M475.11,550.47c0-0.64-0.08-1.21-0.24-1.72
			c-0.16-0.5-0.38-0.93-0.66-1.27c-0.28-0.34-0.6-0.6-0.97-0.78c-0.37-0.18-0.76-0.26-1.18-0.26c-0.88,0-1.61,0.35-2.2,1.04
			s-0.88,1.69-0.88,2.99c0,0.66,0.08,1.23,0.24,1.73c0.16,0.5,0.38,0.92,0.66,1.27c0.28,0.35,0.6,0.62,0.97,0.79
			c0.37,0.18,0.77,0.26,1.2,0.26c0.42,0,0.81-0.09,1.18-0.26c0.37-0.18,0.69-0.44,0.97-0.79c0.28-0.35,0.5-0.78,0.66-1.27
			C475.03,551.71,475.11,551.13,475.11,550.47z"/>
		<path fill="#5A7CBD" d="M356.3,573.2c0,0.75-0.14,1.45-0.42,2.1c-0.28,0.65-0.68,1.21-1.2,1.68c-0.52,0.47-1.14,0.84-1.87,1.12
			c-0.73,0.27-1.53,0.41-2.41,0.41h-2.92v7.18h-3.41V567.9h6.31c0.88,0,1.68,0.14,2.41,0.42c0.73,0.28,1.35,0.66,1.87,1.14
			c0.52,0.48,0.92,1.04,1.2,1.68C356.16,571.78,356.3,572.47,356.3,573.2z M352.85,573.2c0-0.69-0.24-1.29-0.71-1.78
			c-0.47-0.49-1.15-0.74-2.04-0.74h-2.6v5.04h2.6c0.89,0,1.57-0.24,2.04-0.73C352.61,574.51,352.85,573.91,352.85,573.2z"/>
		<path fill="#5A7CBD" d="M365.95,570.49c-0.45-0.16-0.92-0.24-1.42-0.24c-0.61,0-1.04,0.13-1.31,0.39c-0.26,0.26-0.4,0.63-0.4,1.11
			v1.14h2.98v2.47h-2.98v10.32h-3.12v-10.32h-2.42v-2.47h2.42v-1.61c0-0.48,0.09-0.94,0.26-1.37c0.18-0.43,0.44-0.81,0.78-1.13
			c0.34-0.32,0.76-0.58,1.25-0.77c0.49-0.19,1.04-0.29,1.67-0.29c0.46,0,0.88,0.02,1.26,0.07c0.38,0.05,0.72,0.11,1.02,0.19V570.49z
			 M368.57,585.68V567.9h3.12v17.78H368.57z"/>
		<path fill="#5A7CBD" d="M377.93,580.14c0.14,0.98,0.52,1.78,1.13,2.38c0.61,0.6,1.39,0.9,2.35,0.9c1.09,0,1.94-0.33,2.57-0.98
			l1.82,1.81c-0.67,0.58-1.37,1.01-2.09,1.28s-1.54,0.41-2.47,0.41c-0.94,0-1.82-0.16-2.63-0.48c-0.81-0.32-1.51-0.77-2.1-1.36
			s-1.06-1.28-1.39-2.1c-0.34-0.82-0.5-1.73-0.5-2.74c0-0.99,0.15-1.9,0.44-2.71c0.3-0.82,0.71-1.52,1.25-2.1
			c0.54-0.58,1.18-1.04,1.92-1.36c0.74-0.32,1.56-0.48,2.44-0.48c0.83,0,1.61,0.14,2.33,0.43c0.72,0.29,1.34,0.72,1.87,1.29
			c0.53,0.58,0.94,1.3,1.25,2.16c0.3,0.86,0.46,1.87,0.46,3v0.62H377.93z M383.33,577.91c-0.13-0.86-0.42-1.56-0.86-2.09
			c-0.45-0.53-1.04-0.79-1.78-0.79c-0.7,0-1.3,0.26-1.79,0.78s-0.8,1.22-0.92,2.1H383.33z"/>
		<path fill="#5A7CBD" d="M400.78,584.53c0,0.82-0.16,1.58-0.47,2.29c-0.31,0.71-0.76,1.33-1.34,1.86
			c-0.58,0.53-1.29,0.94-2.12,1.25c-0.83,0.3-1.76,0.46-2.78,0.46c-1.23,0-2.26-0.19-3.1-0.56c-0.83-0.38-1.49-0.8-1.97-1.28
			l1.78-1.78c0.3,0.29,0.71,0.55,1.22,0.79c0.51,0.24,1.16,0.36,1.94,0.36c0.53,0,1.02-0.08,1.48-0.24s0.85-0.39,1.19-0.7
			c0.34-0.3,0.6-0.66,0.78-1.07c0.18-0.41,0.28-0.87,0.28-1.38v-0.98c-0.3,0.58-0.8,1.06-1.48,1.45c-0.68,0.39-1.43,0.59-2.24,0.59
			c-0.75,0-1.47-0.16-2.15-0.47c-0.68-0.31-1.28-0.75-1.79-1.31c-0.51-0.56-0.92-1.24-1.24-2.04c-0.31-0.8-0.47-1.69-0.47-2.66
			c0-0.97,0.16-1.86,0.47-2.66c0.31-0.8,0.72-1.48,1.24-2.04c0.51-0.56,1.11-1,1.79-1.31c0.68-0.31,1.4-0.47,2.15-0.47
			c0.43,0,0.85,0.06,1.25,0.18c0.4,0.12,0.77,0.28,1.1,0.47c0.34,0.19,0.63,0.42,0.89,0.68c0.26,0.26,0.45,0.54,0.58,0.83v-1.9h3.02
			V584.53z M397.66,579.11c0-0.59-0.08-1.12-0.24-1.6c-0.16-0.47-0.38-0.88-0.66-1.21c-0.28-0.34-0.6-0.6-0.97-0.78
			c-0.37-0.18-0.76-0.28-1.18-0.28c-0.43,0-0.83,0.09-1.2,0.28c-0.37,0.18-0.69,0.44-0.97,0.78c-0.28,0.34-0.5,0.74-0.66,1.21
			c-0.16,0.47-0.24,1-0.24,1.6c0,1.2,0.29,2.14,0.88,2.83c0.58,0.69,1.32,1.03,2.2,1.03c0.42,0,0.81-0.09,1.18-0.26
			c0.37-0.18,0.69-0.43,0.97-0.77c0.28-0.34,0.5-0.74,0.66-1.21C397.58,580.25,397.66,579.71,397.66,579.11z"/>
		<path fill="#5A7CBD" d="M407.04,580.14c0.14,0.98,0.52,1.78,1.13,2.38c0.61,0.6,1.39,0.9,2.35,0.9c1.09,0,1.94-0.33,2.57-0.98
			l1.82,1.81c-0.67,0.58-1.37,1.01-2.09,1.28s-1.54,0.41-2.47,0.41c-0.94,0-1.82-0.16-2.63-0.48c-0.81-0.32-1.51-0.77-2.1-1.36
			s-1.06-1.28-1.39-2.1c-0.34-0.82-0.5-1.73-0.5-2.74c0-0.99,0.15-1.9,0.44-2.71c0.3-0.82,0.71-1.52,1.25-2.1
			c0.54-0.58,1.18-1.04,1.92-1.36c0.74-0.32,1.56-0.48,2.44-0.48c0.83,0,1.61,0.14,2.33,0.43c0.72,0.29,1.34,0.72,1.87,1.29
			c0.53,0.58,0.94,1.3,1.25,2.16c0.3,0.86,0.46,1.87,0.46,3v0.62H407.04z M412.44,577.91c-0.13-0.86-0.42-1.56-0.86-2.09
			c-0.45-0.53-1.04-0.79-1.78-0.79c-0.7,0-1.3,0.26-1.79,0.78s-0.8,1.22-0.92,2.1H412.44z"/>
		<path fill="#5A7CBD" d="M427.01,585.68v-7.56c0-0.98-0.22-1.7-0.66-2.17s-1.05-0.71-1.84-0.71c-0.86,0-1.58,0.32-2.16,0.97
			c-0.58,0.65-0.86,1.67-0.86,3.06v6.41h-3.12V567.9h3.12l0.01,6.82c0.29-0.61,0.77-1.11,1.44-1.5c0.67-0.39,1.5-0.59,2.48-0.59
			c0.69,0,1.33,0.12,1.91,0.35c0.58,0.23,1.08,0.57,1.49,1.01c0.41,0.44,0.73,0.97,0.96,1.6s0.35,1.33,0.35,2.11v7.99H427.01z"/>
		<path fill="#5A7CBD" d="M436.37,580.14c0.14,0.98,0.52,1.78,1.13,2.38c0.61,0.6,1.39,0.9,2.35,0.9c1.09,0,1.94-0.33,2.57-0.98
			l1.82,1.81c-0.67,0.58-1.37,1.01-2.09,1.28s-1.54,0.41-2.47,0.41c-0.94,0-1.82-0.16-2.63-0.48c-0.81-0.32-1.51-0.77-2.1-1.36
			s-1.06-1.28-1.39-2.1c-0.34-0.82-0.5-1.73-0.5-2.74c0-0.99,0.15-1.9,0.44-2.71c0.3-0.82,0.71-1.52,1.25-2.1
			c0.54-0.58,1.18-1.04,1.92-1.36c0.74-0.32,1.56-0.48,2.44-0.48c0.83,0,1.61,0.14,2.33,0.43c0.72,0.29,1.34,0.72,1.87,1.29
			c0.53,0.58,0.94,1.3,1.25,2.16c0.3,0.86,0.46,1.87,0.46,3v0.62H436.37z M441.77,577.91c-0.13-0.86-0.42-1.56-0.86-2.09
			c-0.45-0.53-1.04-0.79-1.78-0.79c-0.7,0-1.3,0.26-1.79,0.78s-0.8,1.22-0.92,2.1H441.77z"/>
		<path fill="#5A7CBD" d="M447.67,570.92v-3.02h3.19v3.02H447.67z M447.7,585.68v-12.79h3.12v12.79H447.7z"/>
		<path fill="#5A7CBD" d="M470.3,585.68v-7.56c0-1.92-0.71-2.88-2.12-2.88c-0.32,0-0.63,0.08-0.93,0.25
			c-0.3,0.17-0.57,0.42-0.81,0.74c-0.24,0.33-0.43,0.74-0.57,1.22c-0.14,0.49-0.21,1.05-0.21,1.69v6.53h-3.12v-7.56
			c0-1.92-0.71-2.88-2.14-2.88c-0.32,0-0.63,0.08-0.94,0.25s-0.58,0.42-0.82,0.74c-0.24,0.33-0.43,0.74-0.58,1.22
			c-0.14,0.49-0.22,1.05-0.22,1.69v6.53h-3.12v-12.79h3.02v1.99c0.32-0.72,0.77-1.28,1.35-1.67c0.58-0.39,1.31-0.59,2.19-0.59
			c0.53,0,1.01,0.08,1.43,0.23c0.42,0.15,0.8,0.35,1.12,0.59c0.32,0.24,0.59,0.51,0.81,0.82c0.22,0.3,0.4,0.62,0.54,0.94
			c0.38-0.8,0.9-1.43,1.54-1.88c0.64-0.46,1.42-0.68,2.35-0.68c0.66,0,1.25,0.12,1.79,0.36s0.99,0.58,1.37,1.01s0.67,0.96,0.88,1.57
			c0.21,0.62,0.31,1.31,0.31,2.08v8.04H470.3z"/>
		<path fill="#5A7CBD" d="M479.66,580.14c0.14,0.98,0.52,1.78,1.13,2.38c0.61,0.6,1.39,0.9,2.35,0.9c1.09,0,1.94-0.33,2.57-0.98
			l1.82,1.81c-0.67,0.58-1.37,1.01-2.09,1.28s-1.54,0.41-2.47,0.41c-0.94,0-1.82-0.16-2.63-0.48c-0.81-0.32-1.51-0.77-2.1-1.36
			s-1.06-1.28-1.39-2.1c-0.34-0.82-0.5-1.73-0.5-2.74c0-0.99,0.15-1.9,0.44-2.71c0.3-0.82,0.71-1.52,1.25-2.1
			c0.54-0.58,1.18-1.04,1.92-1.36c0.74-0.32,1.56-0.48,2.44-0.48c0.83,0,1.61,0.14,2.33,0.43c0.72,0.29,1.34,0.72,1.87,1.29
			c0.53,0.58,0.94,1.3,1.25,2.16c0.3,0.86,0.46,1.87,0.46,3v0.62H479.66z M485.06,577.91c-0.13-0.86-0.42-1.56-0.86-2.09
			c-0.45-0.53-1.04-0.79-1.78-0.79c-0.7,0-1.3,0.26-1.79,0.78s-0.8,1.22-0.92,2.1H485.06z"/>
	</g>
</g>
<g>
	<circle fill="#93AFDB" stroke="#5A7CBD" stroke-width="3" stroke-miterlimit="10" cx="785.5" cy="563.5" r="85"/>
	<g>
		<path fill="#5A7CBD" d="M760.56,556.88l-1.44-4.08h-6.84l-1.42,4.08h-3.6l6.62-17.78h3.65l6.62,17.78H760.56z M755.72,542.94
			l-2.47,7.08h4.94L755.72,542.94z"/>
		<path fill="#5A7CBD" d="M766.11,556.88V539.1h3.12v17.78H766.11z"/>
		<path fill="#5A7CBD" d="M778.04,557.05c-0.62,0-1.18-0.1-1.67-0.29c-0.49-0.19-0.9-0.45-1.25-0.77c-0.34-0.32-0.6-0.7-0.78-1.13
			c-0.18-0.43-0.26-0.89-0.26-1.37v-6.94h-2.42v-2.47h2.42v-3.65h3.12v3.65h2.98v2.47h-2.98v6.5c0,0.48,0.13,0.85,0.4,1.12
			c0.26,0.26,0.7,0.4,1.31,0.4c0.22,0,0.46-0.02,0.71-0.07c0.25-0.05,0.48-0.11,0.71-0.19v2.47
			C779.69,556.96,778.93,557.05,778.04,557.05z"/>
		<path fill="#5A7CBD" d="M785.26,551.34c0.14,0.98,0.52,1.78,1.13,2.38c0.61,0.6,1.39,0.91,2.35,0.91c1.09,0,1.94-0.33,2.57-0.98
			l1.82,1.81c-0.67,0.58-1.37,1.01-2.09,1.28c-0.72,0.27-1.54,0.41-2.47,0.41c-0.94,0-1.82-0.16-2.63-0.48
			c-0.81-0.32-1.51-0.77-2.1-1.36c-0.59-0.58-1.06-1.28-1.39-2.1c-0.34-0.82-0.5-1.73-0.5-2.74c0-0.99,0.15-1.9,0.44-2.71
			c0.29-0.82,0.71-1.52,1.25-2.1s1.18-1.04,1.92-1.36c0.74-0.32,1.56-0.48,2.44-0.48c0.83,0,1.61,0.14,2.33,0.43s1.34,0.72,1.87,1.3
			c0.53,0.58,0.94,1.3,1.25,2.16c0.3,0.86,0.46,1.86,0.46,3v0.62H785.26z M790.66,549.11c-0.13-0.86-0.42-1.56-0.86-2.09
			c-0.45-0.53-1.04-0.79-1.78-0.79c-0.71,0-1.3,0.26-1.79,0.78c-0.49,0.52-0.8,1.22-0.92,2.1H790.66z"/>
		<path fill="#5A7CBD" d="M803.01,546.61c-0.36,0-0.68,0.04-0.97,0.12c-0.75,0.16-1.33,0.56-1.73,1.2c-0.4,0.64-0.6,1.5-0.6,2.59
			v6.36h-3.12v-12.79h3.02v1.94c0.34-0.7,0.85-1.25,1.54-1.63c0.69-0.38,1.65-0.58,2.88-0.58v2.83
			C803.71,546.63,803.37,546.61,803.01,546.61z"/>
		<path fill="#5A7CBD" d="M814.68,553.31c0,0.5-0.1,0.98-0.31,1.45c-0.21,0.47-0.52,0.89-0.94,1.26s-0.94,0.66-1.58,0.89
			s-1.4,0.34-2.28,0.34c-0.94,0-1.8-0.17-2.58-0.52c-0.78-0.35-1.41-0.77-1.91-1.27l1.8-1.81c0.27,0.27,0.64,0.52,1.12,0.74
			c0.47,0.22,1,0.34,1.57,0.34c0.67,0,1.18-0.13,1.54-0.39c0.35-0.26,0.53-0.59,0.53-0.97c0-0.41-0.15-0.74-0.46-0.97
			c-0.3-0.23-0.69-0.43-1.15-0.61c-0.46-0.17-0.96-0.35-1.49-0.53c-0.53-0.18-1.02-0.41-1.49-0.71c-0.46-0.29-0.85-0.68-1.15-1.15
			c-0.3-0.47-0.46-1.09-0.46-1.86c0-0.46,0.1-0.92,0.31-1.38c0.21-0.45,0.52-0.86,0.92-1.22s0.91-0.65,1.51-0.87
			c0.6-0.22,1.28-0.34,2.05-0.34c0.96,0,1.8,0.17,2.52,0.5s1.34,0.76,1.85,1.27l-1.8,1.83c-0.3-0.3-0.66-0.56-1.07-0.77
			c-0.41-0.21-0.88-0.31-1.43-0.31c-0.61,0-1.06,0.14-1.36,0.43c-0.3,0.29-0.44,0.58-0.44,0.89c0,0.34,0.15,0.6,0.46,0.8
			s0.68,0.38,1.14,0.55c0.46,0.17,0.95,0.34,1.49,0.53s1.03,0.43,1.49,0.74c0.46,0.31,0.84,0.71,1.14,1.21
			S814.68,552.53,814.68,553.31z"/>
		<path fill="#5A7CBD" d="M816.53,551.34v-2.23h6.14v2.23H816.53z"/>
		<path fill="#5A7CBD" d="M727.34,579.27c0,1.02-0.16,1.95-0.47,2.77c-0.31,0.82-0.72,1.52-1.24,2.1c-0.51,0.58-1.11,1.02-1.8,1.33
			c-0.69,0.31-1.4,0.47-2.14,0.47c-0.37,0-0.74-0.05-1.12-0.14s-0.73-0.23-1.07-0.4s-0.64-0.37-0.91-0.61
			c-0.27-0.24-0.49-0.5-0.65-0.79v6.12h-3.12v-17.23h3.02v1.9c0.14-0.3,0.35-0.59,0.61-0.85c0.26-0.26,0.57-0.49,0.92-0.68
			c0.35-0.19,0.73-0.34,1.13-0.46c0.4-0.11,0.79-0.17,1.18-0.17c0.74,0,1.45,0.16,2.14,0.47c0.69,0.31,1.29,0.76,1.8,1.33
			c0.51,0.58,0.92,1.27,1.24,2.09C727.18,577.33,727.34,578.25,727.34,579.27z M724.1,579.27c0-1.3-0.3-2.29-0.89-2.99
			c-0.59-0.7-1.32-1.04-2.18-1.04c-0.42,0-0.81,0.09-1.19,0.26c-0.38,0.18-0.71,0.44-0.98,0.78c-0.28,0.34-0.5,0.77-0.66,1.27
			s-0.24,1.08-0.24,1.72c0,0.66,0.08,1.23,0.24,1.73s0.38,0.92,0.66,1.27c0.28,0.35,0.61,0.62,0.98,0.79
			c0.38,0.18,0.77,0.26,1.19,0.26s0.81-0.09,1.19-0.26c0.38-0.18,0.7-0.44,0.98-0.79c0.28-0.35,0.5-0.78,0.66-1.27
			S724.1,579.93,724.1,579.27z"/>
		<path fill="#5A7CBD" d="M738.59,582.11c0,0.5-0.1,0.98-0.31,1.45c-0.21,0.47-0.52,0.89-0.94,1.26s-0.94,0.66-1.58,0.89
			s-1.4,0.34-2.28,0.34c-0.94,0-1.8-0.17-2.58-0.52c-0.78-0.35-1.41-0.77-1.91-1.27l1.8-1.81c0.27,0.27,0.64,0.52,1.12,0.74
			c0.47,0.22,1,0.34,1.57,0.34c0.67,0,1.18-0.13,1.54-0.39c0.35-0.26,0.53-0.59,0.53-0.97c0-0.41-0.15-0.74-0.46-0.97
			c-0.3-0.23-0.69-0.43-1.15-0.61c-0.46-0.17-0.96-0.35-1.49-0.53c-0.53-0.18-1.02-0.41-1.49-0.71c-0.46-0.29-0.85-0.68-1.15-1.15
			c-0.3-0.47-0.46-1.09-0.46-1.86c0-0.46,0.1-0.92,0.31-1.38c0.21-0.45,0.52-0.86,0.92-1.22s0.91-0.65,1.51-0.87
			c0.6-0.22,1.28-0.34,2.05-0.34c0.96,0,1.8,0.17,2.52,0.5s1.34,0.76,1.85,1.27l-1.8,1.83c-0.3-0.3-0.66-0.56-1.07-0.77
			c-0.41-0.21-0.88-0.31-1.43-0.31c-0.61,0-1.06,0.14-1.36,0.43c-0.3,0.29-0.44,0.58-0.44,0.89c0,0.34,0.15,0.6,0.46,0.8
			s0.68,0.38,1.14,0.55c0.46,0.17,0.95,0.34,1.49,0.53s1.03,0.43,1.49,0.74c0.46,0.31,0.84,0.71,1.14,1.21
			S738.59,581.33,738.59,582.11z"/>
		<path fill="#5A7CBD" d="M746.85,588.11c-0.08,0.21-0.21,0.44-0.4,0.7c-0.18,0.26-0.42,0.5-0.72,0.72
			c-0.3,0.22-0.66,0.41-1.08,0.56c-0.42,0.15-0.92,0.23-1.5,0.23c-0.45,0-0.86-0.03-1.25-0.08s-0.72-0.12-1.01-0.2v-2.47
			c0.21,0.07,0.44,0.13,0.68,0.17c0.25,0.04,0.48,0.07,0.71,0.07c0.51,0,0.88-0.07,1.09-0.22c0.22-0.14,0.36-0.31,0.44-0.5
			c0.03-0.02,0.08-0.08,0.14-0.2c0.06-0.12,0.13-0.25,0.19-0.4c0.06-0.14,0.12-0.29,0.18-0.43c0.06-0.14,0.09-0.24,0.11-0.29
			l-5.06-12.87h3.43l3.26,9.53l3.43-9.53h3.41L746.85,588.11z"/>
		<path fill="#5A7CBD" d="M760.34,585.95c-0.9,0-1.73-0.16-2.51-0.48c-0.78-0.32-1.46-0.77-2.04-1.36c-0.58-0.58-1.04-1.28-1.38-2.1
			c-0.34-0.82-0.5-1.73-0.5-2.74c0-0.99,0.17-1.9,0.5-2.71c0.34-0.82,0.8-1.52,1.38-2.1s1.26-1.04,2.04-1.36
			c0.78-0.32,1.61-0.48,2.51-0.48c1.6,0,3.05,0.55,4.34,1.66l-1.9,1.9c-0.29-0.29-0.63-0.52-1.03-0.68
			c-0.4-0.17-0.82-0.25-1.27-0.25c-0.46,0-0.9,0.1-1.31,0.29c-0.41,0.19-0.76,0.47-1.07,0.83c-0.3,0.36-0.54,0.79-0.71,1.28
			s-0.25,1.04-0.25,1.63c0,0.61,0.08,1.16,0.25,1.66s0.4,0.92,0.71,1.27c0.3,0.35,0.66,0.63,1.07,0.83c0.41,0.2,0.84,0.3,1.31,0.3
			c0.45,0,0.87-0.08,1.27-0.25c0.4-0.17,0.74-0.4,1.03-0.71l1.9,1.9C763.38,585.39,761.94,585.95,760.34,585.95z"/>
		<path fill="#5A7CBD" d="M775.89,585.68v-7.56c0-0.98-0.22-1.7-0.66-2.17c-0.44-0.47-1.05-0.71-1.84-0.71
			c-0.86,0-1.58,0.32-2.16,0.97c-0.58,0.65-0.86,1.67-0.86,3.06v6.41h-3.12V567.9h3.12l0.01,6.82c0.29-0.61,0.77-1.11,1.44-1.5
			c0.67-0.39,1.5-0.59,2.48-0.59c0.69,0,1.33,0.12,1.91,0.35c0.58,0.23,1.08,0.57,1.49,1.01c0.41,0.44,0.73,0.97,0.96,1.6
			c0.23,0.62,0.35,1.33,0.35,2.11v7.99H775.89z"/>
		<path fill="#5A7CBD" d="M782.87,570.92v-3.02h3.19v3.02H782.87z M782.9,585.68v-12.79h3.12v12.79H782.9z"/>
		<path fill="#5A7CBD" d="M797.22,585.68v-1.94c-0.32,0.69-0.8,1.23-1.45,1.62c-0.65,0.39-1.45,0.59-2.41,0.59
			c-0.61,0-1.17-0.1-1.68-0.3c-0.51-0.2-0.96-0.47-1.33-0.82c-0.38-0.34-0.67-0.74-0.89-1.2c-0.22-0.46-0.32-0.94-0.32-1.45
			c0-0.54,0.12-1.07,0.35-1.57c0.23-0.5,0.59-0.95,1.08-1.33s1.11-0.69,1.87-0.91c0.76-0.22,1.66-0.34,2.7-0.34h1.99
			c0-0.03,0-0.1,0-0.21s0-0.23,0-0.35c0-0.12,0-0.23-0.01-0.33c-0.01-0.1-0.03-0.16-0.06-0.18c-0.05-0.52-0.32-0.97-0.8-1.34
			c-0.49-0.37-1.09-0.56-1.81-0.56c-0.59,0-1.12,0.1-1.58,0.29c-0.46,0.19-0.88,0.45-1.25,0.77l-1.8-1.81
			c0.62-0.53,1.33-0.96,2.12-1.28s1.72-0.49,2.8-0.49c0.88,0,1.66,0.12,2.34,0.36s1.26,0.58,1.73,1.01
			c0.47,0.43,0.83,0.94,1.08,1.51c0.25,0.58,0.37,1.2,0.37,1.87v8.4H797.22z M797.13,580.04h-2.11c-0.48,0-0.89,0.06-1.22,0.17
			c-0.34,0.11-0.62,0.26-0.84,0.44c-0.22,0.18-0.39,0.39-0.49,0.61c-0.1,0.22-0.16,0.45-0.16,0.67c0,0.45,0.16,0.84,0.47,1.16
			c0.31,0.33,0.8,0.49,1.48,0.49c0.85,0,1.54-0.28,2.08-0.85c0.54-0.57,0.8-1.34,0.8-2.32V580.04z"/>
		<path fill="#5A7CBD" d="M809.06,585.85c-0.62,0-1.18-0.1-1.67-0.29c-0.49-0.19-0.9-0.45-1.25-0.77c-0.34-0.32-0.6-0.7-0.78-1.13
			c-0.18-0.43-0.26-0.89-0.26-1.37v-6.94h-2.42v-2.47h2.42v-3.65h3.12v3.65h2.98v2.47h-2.98v6.5c0,0.48,0.13,0.85,0.4,1.12
			c0.26,0.26,0.7,0.4,1.31,0.4c0.22,0,0.46-0.02,0.71-0.07c0.25-0.05,0.48-0.11,0.71-0.19v2.47
			C810.71,585.76,809.95,585.85,809.06,585.85z"/>
		<path fill="#5A7CBD" d="M820.35,575.41c-0.36,0-0.68,0.04-0.97,0.12c-0.75,0.16-1.33,0.56-1.73,1.2c-0.4,0.64-0.6,1.5-0.6,2.59
			v6.36h-3.12v-12.79h3.02v1.94c0.34-0.7,0.85-1.25,1.54-1.63c0.69-0.38,1.65-0.58,2.88-0.58v2.83
			C821.05,575.43,820.71,575.41,820.35,575.41z"/>
		<path fill="#5A7CBD" d="M823.67,570.92v-3.02h3.19v3.02H823.67z M823.7,585.68v-12.79h3.12v12.79H823.7z"/>
		<path fill="#5A7CBD" d="M833.08,580.14c0.14,0.98,0.52,1.78,1.13,2.38c0.61,0.6,1.39,0.91,2.35,0.91c1.09,0,1.94-0.33,2.57-0.98
			l1.82,1.81c-0.67,0.58-1.37,1.01-2.09,1.28c-0.72,0.27-1.54,0.41-2.47,0.41c-0.94,0-1.82-0.16-2.63-0.48
			c-0.81-0.32-1.51-0.77-2.1-1.36c-0.59-0.58-1.06-1.28-1.39-2.1c-0.34-0.82-0.5-1.73-0.5-2.74c0-0.99,0.15-1.9,0.44-2.71
			c0.3-0.82,0.71-1.52,1.25-2.1s1.18-1.04,1.92-1.36c0.74-0.32,1.56-0.48,2.44-0.48c0.83,0,1.61,0.14,2.33,0.43
			c0.72,0.29,1.34,0.72,1.87,1.3c0.53,0.58,0.94,1.3,1.25,2.16s0.46,1.86,0.46,3v0.62H833.08z M838.48,577.91
			c-0.13-0.86-0.42-1.56-0.86-2.09c-0.45-0.53-1.04-0.79-1.78-0.79c-0.7,0-1.3,0.26-1.79,0.78c-0.49,0.52-0.8,1.22-0.92,2.1H838.48z
			"/>
		<path fill="#5A7CBD" d="M853.05,585.68v-7.56c0-0.98-0.22-1.7-0.66-2.17c-0.44-0.47-1.05-0.71-1.84-0.71
			c-0.86,0-1.58,0.32-2.16,0.97c-0.58,0.65-0.86,1.67-0.86,3.06v6.41h-3.12v-12.79h3.02v1.97c0.29-0.67,0.78-1.21,1.47-1.62
			c0.69-0.41,1.54-0.61,2.55-0.61c0.69,0,1.33,0.12,1.91,0.35c0.59,0.23,1.08,0.57,1.49,1.01c0.41,0.44,0.73,0.97,0.96,1.6
			c0.23,0.62,0.35,1.33,0.35,2.11v7.99H853.05z"/>
	</g>
</g>
<g>
	<circle fill="#93AFDB" stroke="#5A7CBD" stroke-width="3" stroke-miterlimit="10" cx="600.5" cy="158.5" r="85"/>
	<g>
		<path fill="#5A7CBD" d="M576.12,139.4c0,0.75-0.14,1.45-0.42,2.1c-0.28,0.65-0.68,1.21-1.2,1.68c-0.52,0.47-1.14,0.84-1.87,1.12
			c-0.73,0.27-1.53,0.41-2.4,0.41h-2.92v7.18h-3.41V134.1h6.31c0.88,0,1.68,0.14,2.41,0.42c0.73,0.28,1.35,0.66,1.87,1.14
			c0.52,0.48,0.92,1.04,1.2,1.68C575.98,137.98,576.12,138.67,576.12,139.4z M572.66,139.4c0-0.69-0.24-1.29-0.71-1.78
			c-0.47-0.49-1.15-0.74-2.04-0.74h-2.6v5.04h2.6c0.89,0,1.57-0.24,2.04-0.73S572.66,140.11,572.66,139.4z"/>
		<path fill="#5A7CBD" d="M585.01,141.61c-0.36,0-0.68,0.04-0.97,0.12c-0.75,0.16-1.33,0.56-1.73,1.2c-0.4,0.64-0.6,1.5-0.6,2.59
			v6.36h-3.12v-12.79h3.02v1.94c0.34-0.7,0.85-1.25,1.54-1.63c0.69-0.38,1.65-0.58,2.88-0.58v2.83
			C585.71,141.63,585.37,141.61,585.01,141.61z"/>
		<path fill="#5A7CBD" d="M588.33,137.12v-3.02h3.19v3.02H588.33z M588.36,151.88v-12.79h3.12v12.79H588.36z"/>
		<path fill="#5A7CBD" d="M601.87,151.88h-3.41l-5.02-12.79h3.43l3.26,9.53l3.43-9.53h3.41L601.87,151.88z"/>
		<path fill="#5A7CBD" d="M616.22,151.88v-1.94c-0.32,0.69-0.8,1.23-1.45,1.62c-0.65,0.39-1.45,0.59-2.41,0.59
			c-0.61,0-1.17-0.1-1.68-0.3c-0.51-0.2-0.96-0.47-1.33-0.82c-0.38-0.34-0.67-0.74-0.89-1.2s-0.32-0.94-0.32-1.45
			c0-0.54,0.12-1.07,0.35-1.57c0.23-0.5,0.59-0.95,1.08-1.33c0.49-0.38,1.11-0.69,1.87-0.91c0.76-0.22,1.66-0.34,2.7-0.34h1.99
			c0-0.03,0-0.1,0-0.21s0-0.23,0-0.35c0-0.12,0-0.23-0.01-0.33c-0.01-0.1-0.03-0.16-0.06-0.18c-0.05-0.52-0.32-0.97-0.8-1.34
			s-1.09-0.56-1.81-0.56c-0.59,0-1.12,0.1-1.58,0.29c-0.46,0.19-0.88,0.45-1.25,0.77l-1.8-1.81c0.62-0.53,1.33-0.96,2.12-1.28
			c0.79-0.32,1.72-0.49,2.8-0.49c0.88,0,1.66,0.12,2.34,0.36c0.68,0.24,1.26,0.58,1.73,1.01c0.47,0.43,0.83,0.94,1.08,1.51
			c0.25,0.58,0.37,1.2,0.37,1.87v8.4H616.22z M616.12,146.24h-2.11c-0.48,0-0.89,0.06-1.22,0.17c-0.34,0.11-0.62,0.26-0.84,0.44
			c-0.22,0.18-0.39,0.39-0.49,0.61c-0.1,0.22-0.16,0.45-0.16,0.67c0,0.45,0.16,0.84,0.47,1.16c0.31,0.33,0.8,0.49,1.48,0.49
			c0.85,0,1.54-0.28,2.08-0.85c0.54-0.57,0.8-1.34,0.8-2.32V146.24z"/>
		<path fill="#5A7CBD" d="M628.05,152.05c-0.62,0-1.18-0.1-1.67-0.29c-0.49-0.19-0.9-0.45-1.25-0.77c-0.34-0.32-0.6-0.7-0.78-1.13
			c-0.18-0.43-0.26-0.89-0.26-1.37v-6.94h-2.42v-2.47h2.42v-3.65h3.12v3.65h2.98v2.47h-2.98v6.5c0,0.48,0.13,0.85,0.4,1.12
			c0.26,0.26,0.7,0.4,1.31,0.4c0.22,0,0.46-0.02,0.71-0.07c0.25-0.05,0.48-0.11,0.71-0.19v2.47
			C629.71,151.96,628.95,152.05,628.05,152.05z"/>
		<path fill="#5A7CBD" d="M632.04,146.34v-2.23h6.14v2.23H632.04z"/>
		<path fill="#5A7CBD" d="M559.99,180.68v-7.54h-6.55v7.54h-3.41V162.9h3.41v7.46h6.55v-7.46h3.36v17.78H559.99z"/>
		<path fill="#5A7CBD" d="M574.72,180.68v-1.94c-0.32,0.69-0.8,1.23-1.45,1.62c-0.65,0.39-1.45,0.59-2.41,0.59
			c-0.61,0-1.17-0.1-1.68-0.3s-0.96-0.47-1.33-0.82c-0.38-0.34-0.67-0.74-0.89-1.2c-0.22-0.46-0.32-0.94-0.32-1.45
			c0-0.54,0.12-1.07,0.35-1.57s0.59-0.95,1.08-1.33c0.49-0.38,1.11-0.69,1.87-0.91c0.76-0.22,1.66-0.34,2.7-0.34h1.99
			c0-0.03,0-0.1,0-0.21s0-0.23,0-0.35c0-0.12,0-0.23-0.01-0.33c-0.01-0.1-0.03-0.16-0.06-0.18c-0.05-0.52-0.32-0.97-0.8-1.34
			c-0.49-0.37-1.09-0.56-1.81-0.56c-0.59,0-1.12,0.1-1.58,0.29c-0.46,0.19-0.88,0.45-1.25,0.77l-1.8-1.81
			c0.62-0.53,1.33-0.96,2.12-1.28c0.79-0.32,1.72-0.49,2.8-0.49c0.88,0,1.66,0.12,2.34,0.36c0.68,0.24,1.26,0.58,1.73,1.01
			c0.47,0.43,0.83,0.94,1.08,1.51c0.25,0.58,0.37,1.2,0.37,1.87v8.4H574.72z M574.63,175.04h-2.11c-0.48,0-0.89,0.06-1.22,0.17
			c-0.34,0.11-0.62,0.26-0.84,0.44c-0.22,0.18-0.39,0.39-0.49,0.61c-0.1,0.22-0.16,0.45-0.16,0.67c0,0.45,0.16,0.84,0.47,1.16
			s0.8,0.49,1.48,0.49c0.85,0,1.54-0.28,2.08-0.85c0.54-0.57,0.8-1.34,0.8-2.32V175.04z"/>
		<path fill="#5A7CBD" d="M590.37,180.68l0-1.97c-0.27,0.66-0.76,1.19-1.45,1.61c-0.7,0.42-1.54,0.62-2.53,0.62
			c-0.7,0-1.34-0.12-1.92-0.35s-1.07-0.57-1.49-1.01c-0.42-0.44-0.74-0.97-0.97-1.6c-0.23-0.62-0.35-1.33-0.35-2.11v-7.99h3.12v7.54
			c0,0.99,0.22,1.72,0.66,2.2c0.44,0.47,1.05,0.71,1.84,0.71c0.86,0,1.58-0.33,2.16-0.98c0.58-0.66,0.86-1.68,0.86-3.07v-6.38h3.12
			v12.79H590.37z"/>
		<path fill="#5A7CBD" d="M605.64,177.11c0,0.5-0.1,0.98-0.31,1.45c-0.21,0.47-0.52,0.89-0.94,1.26s-0.94,0.66-1.58,0.89
			s-1.4,0.34-2.28,0.34c-0.94,0-1.8-0.17-2.58-0.52c-0.78-0.35-1.41-0.77-1.91-1.27l1.8-1.81c0.27,0.27,0.64,0.52,1.12,0.74
			c0.47,0.22,1,0.34,1.57,0.34c0.67,0,1.18-0.13,1.54-0.39c0.35-0.26,0.53-0.59,0.53-0.97c0-0.41-0.15-0.74-0.46-0.97
			c-0.3-0.23-0.69-0.43-1.15-0.61c-0.46-0.17-0.96-0.35-1.49-0.53c-0.53-0.18-1.02-0.41-1.49-0.71c-0.46-0.29-0.85-0.68-1.15-1.15
			c-0.3-0.47-0.46-1.09-0.46-1.86c0-0.46,0.1-0.92,0.31-1.38c0.21-0.45,0.52-0.86,0.92-1.22c0.41-0.36,0.91-0.65,1.51-0.87
			c0.6-0.22,1.28-0.34,2.05-0.34c0.96,0,1.8,0.17,2.52,0.5s1.34,0.76,1.85,1.27l-1.8,1.83c-0.3-0.3-0.66-0.56-1.07-0.77
			c-0.41-0.21-0.88-0.31-1.43-0.31c-0.61,0-1.06,0.14-1.36,0.43c-0.3,0.29-0.44,0.58-0.44,0.89c0,0.34,0.15,0.6,0.46,0.8
			c0.3,0.2,0.68,0.38,1.14,0.55c0.46,0.17,0.95,0.34,1.49,0.53s1.03,0.43,1.49,0.74c0.46,0.31,0.84,0.71,1.14,1.21
			S605.64,176.33,605.64,177.11z"/>
		<path fill="#5A7CBD" d="M617.01,180.68v-7.56c0-0.98-0.22-1.7-0.66-2.17c-0.44-0.47-1.05-0.71-1.84-0.71
			c-0.86,0-1.58,0.32-2.16,0.97c-0.58,0.65-0.86,1.67-0.86,3.06v6.41h-3.12V162.9h3.12l0.01,6.82c0.29-0.61,0.77-1.11,1.44-1.5
			c0.67-0.39,1.5-0.59,2.48-0.59c0.69,0,1.33,0.12,1.91,0.35c0.58,0.23,1.08,0.57,1.49,1.01c0.41,0.44,0.73,0.97,0.96,1.6
			c0.23,0.62,0.35,1.33,0.35,2.11v7.99H617.01z"/>
		<path fill="#5A7CBD" d="M631.32,180.68v-1.94c-0.32,0.69-0.8,1.23-1.45,1.62c-0.65,0.39-1.45,0.59-2.41,0.59
			c-0.61,0-1.17-0.1-1.68-0.3c-0.51-0.2-0.96-0.47-1.33-0.82c-0.38-0.34-0.67-0.74-0.89-1.2s-0.32-0.94-0.32-1.45
			c0-0.54,0.12-1.07,0.35-1.57c0.23-0.5,0.59-0.95,1.08-1.33c0.49-0.38,1.11-0.69,1.87-0.91c0.76-0.22,1.66-0.34,2.7-0.34h1.99
			c0-0.03,0-0.1,0-0.21s0-0.23,0-0.35c0-0.12,0-0.23-0.01-0.33c-0.01-0.1-0.03-0.16-0.06-0.18c-0.05-0.52-0.32-0.97-0.8-1.34
			s-1.09-0.56-1.81-0.56c-0.59,0-1.12,0.1-1.58,0.29c-0.46,0.19-0.88,0.45-1.25,0.77l-1.8-1.81c0.62-0.53,1.33-0.96,2.12-1.28
			c0.79-0.32,1.72-0.49,2.8-0.49c0.88,0,1.66,0.12,2.34,0.36c0.68,0.24,1.26,0.58,1.73,1.01c0.47,0.43,0.83,0.94,1.08,1.51
			c0.25,0.58,0.37,1.2,0.37,1.87v8.4H631.32z M631.22,175.04h-2.11c-0.48,0-0.89,0.06-1.22,0.17c-0.34,0.11-0.62,0.26-0.84,0.44
			c-0.22,0.18-0.39,0.39-0.49,0.61c-0.1,0.22-0.16,0.45-0.16,0.67c0,0.45,0.16,0.84,0.47,1.16c0.31,0.33,0.8,0.49,1.48,0.49
			c0.85,0,1.54-0.28,2.08-0.85c0.54-0.57,0.8-1.34,0.8-2.32V175.04z"/>
		<path fill="#5A7CBD" d="M638.25,180.68V162.9h3.12v17.78H638.25z"/>
		<path fill="#5A7CBD" d="M650.18,180.85c-0.62,0-1.18-0.1-1.67-0.29c-0.49-0.19-0.9-0.45-1.25-0.77c-0.34-0.32-0.6-0.7-0.78-1.13
			c-0.18-0.43-0.26-0.89-0.26-1.37v-6.94h-2.42v-2.47h2.42v-3.65h3.12v3.65h2.98v2.47h-2.98v6.5c0,0.48,0.13,0.85,0.4,1.12
			c0.26,0.26,0.7,0.4,1.31,0.4c0.22,0,0.46-0.02,0.71-0.07c0.25-0.05,0.48-0.11,0.71-0.19v2.47
			C651.84,180.76,651.08,180.85,650.18,180.85z"/>
	</g>
</g>
<polyline fill="none" stroke="#5A7CBD" stroke-width="3" stroke-miterlimit="10" points="515,714.5 259.5,714.5 259.5,1.5 
	940.5,1.5 940.5,714.5 685,714.5 "/>
<g>
	<g>
		<line fill="none" stroke="#5A7CBD" stroke-width="3" stroke-miterlimit="10" x1="600.5" y1="316.5" x2="600.5" y2="265.03"/>
		<g>
			<polygon fill="#5A7CBD" points="615.46,269.4 600.5,243.5 585.54,269.4 			"/>
		</g>
	</g>
</g>
<g>
	<g>
		<line fill="none" stroke="#5A7CBD" stroke-width="3" stroke-miterlimit="10" x1="536.52" y1="457.44" x2="495.57" y2="493.25"/>
		<g>
			<polygon fill="#5A7CBD" points="489.02,479.11 479.36,507.42 508.71,501.63 			"/>
		</g>
	</g>
</g>
<g>
	<g>
		<line fill="none" stroke="#5A7CBD" stroke-width="3" stroke-miterlimit="10" x1="705.31" y1="493.39" x2="664.41" y2="457.53"/>
		<g>
			<polygon fill="#5A7CBD" points="711.88,479.26 721.5,507.58 692.16,501.75 			"/>
		</g>
	</g>
</g>
<g>
	<g>
		<line fill="none" stroke="#5A7CBD" stroke-width="3" stroke-miterlimit="10" x1="171.5" y1="400.5" x2="237.97" y2="400.5"/>
		<g>
			<polygon fill="#5A7CBD" points="233.6,415.46 259.5,400.5 233.6,385.54 			"/>
		</g>
	</g>
</g>
<g>
	<g>
		<line fill="none" stroke="#5A7CBD" stroke-width="3" stroke-miterlimit="10" x1="1028.5" y1="401.5" x2="962.03" y2="401.5"/>
		<g>
			<polygon fill="#5A7CBD" points="966.4,386.54 940.5,401.5 966.4,416.46 			"/>
		</g>
	</g>
</g>
</svg>
