<?xml version="1.0" encoding="utf-8"?>
<!-- Generator: Adobe Illustrator 24.2.3, SVG Export Plug-In . SVG Version: 6.00 Build 0)  -->
<svg version="1.1" id="Blume" xmlns="http://www.w3.org/2000/svg" xmlns:xlink="http://www.w3.org/1999/xlink" x="0px" y="0px"
	 viewBox="0 0 1202.5 802.5" enable-background="new 0 0 1202.5 802.5" xml:space="preserve">
<g>
	<circle fill="#93AFDB" stroke="#5A7CBD" stroke-width="2.5" stroke-miterlimit="10" cx="601.75" cy="752.75" r="48.5"/>
	<g>
		<path fill="#5A7CBD" d="M586.4,756.4c0,0.81-0.14,1.56-0.43,2.25c-0.29,0.69-0.72,1.29-1.29,1.8c-0.57,0.51-1.28,0.91-2.12,1.21
			c-0.85,0.3-1.83,0.45-2.95,0.45h-8.29v-21.4h8.29c0.96,0,1.84,0.14,2.63,0.42c0.79,0.28,1.46,0.66,2.01,1.14
			c0.55,0.48,0.97,1.05,1.27,1.69c0.3,0.65,0.45,1.33,0.45,2.07c0,0.66-0.1,1.28-0.3,1.87s-0.49,1.12-0.87,1.59
			c-0.38,0.47-0.84,0.87-1.39,1.2c-0.55,0.33-1.17,0.55-1.86,0.67c0.71,0.08,1.37,0.25,1.96,0.52c0.6,0.27,1.11,0.62,1.53,1.07
			s0.76,0.96,1,1.54C586.28,755.07,586.4,755.71,586.4,756.4z M581.84,746.81c0-0.78-0.24-1.43-0.72-1.95s-1.26-0.79-2.34-0.79
			h-3.35v5.63h2.97c1.04,0,1.87-0.26,2.5-0.79C581.53,748.38,581.84,747.68,581.84,746.81z M582.24,755.8
			c0-0.81-0.31-1.48-0.92-1.99c-0.61-0.51-1.49-0.77-2.62-0.77h-3.28v5.72h3.28c1.15,0,2.03-0.27,2.63-0.8
			S582.24,756.71,582.24,755.8z"/>
		<path fill="#5A7CBD" d="M592.87,755.44c0.17,1.19,0.62,2.14,1.36,2.87s1.68,1.09,2.83,1.09c1.31,0,2.34-0.39,3.09-1.18l2.19,2.18
			c-0.81,0.7-1.65,1.21-2.51,1.54s-1.86,0.5-2.97,0.5c-1.14,0-2.19-0.19-3.16-0.58c-0.97-0.38-1.81-0.93-2.53-1.63
			c-0.71-0.7-1.27-1.54-1.67-2.53c-0.4-0.98-0.61-2.08-0.61-3.29c0-1.19,0.18-2.28,0.53-3.26c0.36-0.98,0.86-1.82,1.5-2.53
			c0.65-0.7,1.42-1.25,2.31-1.63s1.87-0.58,2.93-0.58c1,0,1.93,0.17,2.8,0.52c0.87,0.35,1.62,0.87,2.25,1.56
			c0.63,0.69,1.14,1.56,1.5,2.6c0.37,1.04,0.55,2.24,0.55,3.61v0.75H592.87z M599.37,752.76c-0.15-1.04-0.5-1.88-1.04-2.51
			c-0.54-0.63-1.25-0.95-2.14-0.95c-0.85,0-1.56,0.31-2.15,0.94c-0.59,0.62-0.96,1.47-1.11,2.53H599.37z"/>
		<path fill="#5A7CBD" d="M614.22,749.75c-0.43,0-0.82,0.05-1.17,0.14c-0.91,0.19-1.6,0.67-2.08,1.44
			c-0.48,0.77-0.72,1.81-0.72,3.12v7.65h-3.75v-15.39h3.64v2.34c0.4-0.85,1.02-1.5,1.85-1.96c0.83-0.46,1.98-0.69,3.46-0.69v3.41
			C615.07,749.77,614.66,749.75,614.22,749.75z"/>
		<path fill="#5A7CBD" d="M628.65,762.11v-9.1c0-1.17-0.26-2.04-0.79-2.61c-0.53-0.57-1.27-0.85-2.21-0.85
			c-1.04,0-1.91,0.39-2.6,1.17c-0.69,0.78-1.04,2.01-1.04,3.68v7.71h-3.75v-15.39h3.64v2.37c0.35-0.81,0.94-1.46,1.77-1.95
			c0.83-0.49,1.85-0.74,3.07-0.74c0.83,0,1.6,0.14,2.3,0.42c0.71,0.28,1.3,0.68,1.8,1.21c0.49,0.53,0.88,1.17,1.16,1.92
			c0.28,0.75,0.42,1.6,0.42,2.54v9.62H628.65z"/>
	</g>
</g>
<g>
	<circle fill="#93AFDB" stroke="#5A7CBD" stroke-width="2.5" stroke-miterlimit="10" cx="967.11" cy="201.59" r="60"/>
	<g>
		<path fill="#5A7CBD" d="M923.7,210.95v-3.15l8.98-14.9h-8.75v-3.35h13.57v3.18l-8.98,14.87h9.21v3.35H923.7z"/>
		<path fill="#5A7CBD" d="M951.51,210.95v-2.37c-0.33,0.79-0.91,1.43-1.75,1.93c-0.84,0.5-1.85,0.75-3.05,0.75
			c-0.85,0-1.62-0.14-2.31-0.42c-0.69-0.28-1.29-0.68-1.79-1.21c-0.5-0.53-0.89-1.17-1.17-1.92s-0.42-1.6-0.42-2.54v-9.62h3.75v9.07
			c0,1.19,0.26,2.07,0.79,2.64c0.53,0.57,1.27,0.85,2.21,0.85c1.04,0,1.91-0.39,2.6-1.18c0.69-0.79,1.04-2.02,1.04-3.7v-7.68h3.75
			v15.39H951.51z M943.71,193.13v-3.52h3.26v3.52H943.71z M949.12,193.13v-3.52h3.26v3.52H949.12z"/>
		<path fill="#5A7CBD" d="M967.58,198.59c-0.43,0-0.82,0.05-1.17,0.14c-0.91,0.19-1.6,0.67-2.08,1.44
			c-0.48,0.77-0.72,1.81-0.72,3.12v7.65h-3.75v-15.39h3.64v2.34c0.4-0.85,1.02-1.5,1.85-1.96c0.83-0.46,1.98-0.69,3.46-0.69v3.41
			C968.43,198.61,968.02,198.59,967.58,198.59z"/>
		<path fill="#5A7CBD" d="M971.58,193.19v-3.64h3.84v3.64H971.58z M971.61,210.95v-15.39h3.75v15.39H971.61z"/>
		<path fill="#5A7CBD" d="M986.66,211.27c-1.08,0-2.08-0.19-3.02-0.58s-1.75-0.93-2.45-1.63c-0.7-0.7-1.26-1.54-1.66-2.53
			c-0.4-0.98-0.61-2.08-0.61-3.29c0-1.19,0.2-2.28,0.61-3.26c0.4-0.98,0.96-1.82,1.66-2.53c0.7-0.7,1.52-1.25,2.45-1.63
			c0.93-0.38,1.94-0.58,3.02-0.58c1.92,0,3.67,0.66,5.23,1.99l-2.28,2.28c-0.35-0.35-0.76-0.62-1.24-0.82s-0.99-0.3-1.53-0.3
			c-0.56,0-1.08,0.12-1.57,0.35c-0.49,0.23-0.92,0.56-1.29,1c-0.37,0.43-0.65,0.95-0.85,1.55s-0.3,1.25-0.3,1.96
			c0,0.73,0.1,1.4,0.3,1.99s0.49,1.11,0.85,1.53c0.37,0.42,0.79,0.76,1.29,1c0.49,0.24,1.02,0.36,1.57,0.36
			c0.54,0,1.05-0.1,1.53-0.3s0.9-0.49,1.24-0.85l2.28,2.28C990.33,210.59,988.58,211.27,986.66,211.27z"/>
		<path fill="#5A7CBD" d="M1005.37,210.95v-9.1c0-1.17-0.26-2.05-0.79-2.61c-0.53-0.57-1.27-0.85-2.21-0.85
			c-1.04,0-1.91,0.39-2.6,1.17s-1.04,2.01-1.04,3.68v7.71h-3.75v-21.4h3.75l0.01,8.2c0.35-0.73,0.93-1.33,1.74-1.8
			s1.8-0.71,2.98-0.71c0.83,0,1.6,0.14,2.3,0.42s1.3,0.68,1.79,1.21c0.49,0.53,0.88,1.17,1.16,1.92c0.28,0.75,0.42,1.6,0.42,2.54
			v9.62H1005.37z"/>
	</g>
</g>
<g>
	<circle fill="#93AFDB" stroke="#5A7CBD" stroke-width="2.5" stroke-miterlimit="10" cx="1094.75" cy="569.58" r="106.5"/>
	<g>
		<path fill="#5A7CBD" d="M1064.75,561.62l-1.73-4.91h-8.23l-1.7,4.91h-4.33l7.97-21.4h4.39l7.97,21.4H1064.75z M1058.91,544.84
			l-2.97,8.52h5.95L1058.91,544.84z"/>
		<path fill="#5A7CBD" d="M1071.42,561.62v-21.4h3.75v21.4H1071.42z"/>
		<path fill="#5A7CBD" d="M1085.77,561.82c-0.75,0-1.42-0.12-2.01-0.35c-0.59-0.23-1.09-0.54-1.5-0.92s-0.73-0.84-0.94-1.36
			s-0.32-1.07-0.32-1.65v-8.35h-2.92v-2.97h2.92v-4.39h3.75v4.39h3.58v2.97h-3.58v7.83c0,0.58,0.16,1.03,0.48,1.34
			s0.84,0.48,1.57,0.48c0.27,0,0.55-0.03,0.85-0.09c0.3-0.06,0.58-0.13,0.85-0.23v2.97
			C1087.76,561.72,1086.85,561.82,1085.77,561.82z"/>
		<path fill="#5A7CBD" d="M1094.46,554.95c0.17,1.18,0.62,2.14,1.36,2.87c0.73,0.73,1.67,1.09,2.83,1.09c1.31,0,2.34-0.39,3.09-1.18
			l2.2,2.17c-0.81,0.7-1.65,1.22-2.51,1.55s-1.86,0.5-2.97,0.5c-1.14,0-2.19-0.19-3.16-0.58c-0.97-0.38-1.82-0.93-2.53-1.63
			c-0.71-0.7-1.27-1.54-1.67-2.53c-0.4-0.98-0.61-2.08-0.61-3.29c0-1.19,0.18-2.28,0.53-3.26c0.36-0.98,0.86-1.82,1.5-2.53
			c0.64-0.7,1.42-1.25,2.31-1.63c0.89-0.38,1.87-0.58,2.93-0.58c1,0,1.94,0.17,2.8,0.52s1.62,0.87,2.25,1.56
			c0.64,0.69,1.14,1.56,1.5,2.6c0.37,1.04,0.55,2.24,0.55,3.61v0.75H1094.46z M1100.96,552.26c-0.15-1.04-0.5-1.88-1.04-2.51
			c-0.54-0.63-1.25-0.95-2.14-0.95c-0.85,0-1.56,0.31-2.15,0.94c-0.59,0.63-0.96,1.47-1.11,2.53H1100.96z"/>
		<path fill="#5A7CBD" d="M1115.82,549.26c-0.43,0-0.82,0.05-1.17,0.14c-0.91,0.19-1.6,0.67-2.08,1.44
			c-0.48,0.77-0.72,1.81-0.72,3.12v7.65h-3.75v-15.39h3.64v2.34c0.4-0.85,1.02-1.5,1.85-1.96c0.83-0.46,1.98-0.69,3.46-0.69v3.41
			C1116.66,549.28,1116.25,549.26,1115.82,549.26z"/>
		<path fill="#5A7CBD" d="M1129.87,557.33c0,0.6-0.13,1.18-0.38,1.74s-0.62,1.07-1.13,1.51c-0.5,0.44-1.14,0.8-1.91,1.07
			c-0.77,0.27-1.68,0.4-2.74,0.4c-1.14,0-2.17-0.21-3.1-0.63s-1.7-0.93-2.3-1.53l2.17-2.17c0.33,0.33,0.77,0.63,1.34,0.9
			c0.57,0.27,1.2,0.4,1.89,0.4c0.81,0,1.42-0.16,1.85-0.48c0.42-0.32,0.63-0.71,0.63-1.17c0-0.5-0.18-0.89-0.55-1.17
			c-0.37-0.28-0.83-0.52-1.39-0.73c-0.56-0.21-1.16-0.42-1.79-0.63c-0.64-0.21-1.23-0.49-1.79-0.85s-1.02-0.82-1.39-1.38
			c-0.37-0.57-0.55-1.31-0.55-2.23c0-0.56,0.12-1.11,0.38-1.66s0.62-1.04,1.11-1.47c0.49-0.43,1.1-0.78,1.82-1.05
			c0.72-0.27,1.54-0.4,2.47-0.4c1.16,0,2.17,0.2,3.03,0.6s1.61,0.91,2.22,1.53l-2.17,2.2c-0.37-0.37-0.79-0.67-1.29-0.92
			c-0.49-0.25-1.06-0.38-1.72-0.38c-0.73,0-1.28,0.17-1.63,0.52s-0.53,0.7-0.53,1.07c0,0.4,0.18,0.73,0.55,0.96
			c0.37,0.24,0.82,0.46,1.37,0.66c0.55,0.2,1.14,0.41,1.79,0.63c0.64,0.22,1.24,0.52,1.79,0.89c0.55,0.37,1.01,0.86,1.37,1.46
			C1129.68,555.62,1129.87,556.39,1129.87,557.33z"/>
		<path fill="#5A7CBD" d="M1132.09,554.95v-2.69h7.39v2.69H1132.09z"/>
		<path fill="#5A7CBD" d="M1024.76,588.56c0,1.23-0.19,2.34-0.56,3.34c-0.38,0.99-0.87,1.83-1.49,2.53
			c-0.62,0.69-1.34,1.23-2.17,1.6c-0.83,0.38-1.68,0.56-2.57,0.56c-0.44,0-0.89-0.06-1.34-0.17s-0.88-0.27-1.28-0.48
			s-0.77-0.45-1.1-0.74c-0.33-0.29-0.59-0.61-0.78-0.95v7.36h-3.75v-20.74h3.64v2.28c0.17-0.37,0.42-0.71,0.74-1.03
			c0.32-0.32,0.69-0.59,1.11-0.82c0.42-0.23,0.88-0.41,1.36-0.55c0.48-0.13,0.95-0.2,1.42-0.2c0.88,0,1.74,0.19,2.57,0.56
			c0.83,0.38,1.55,0.91,2.17,1.6s1.11,1.53,1.49,2.51C1024.58,586.22,1024.76,587.33,1024.76,588.56z M1020.87,588.56
			c0-1.56-0.36-2.76-1.07-3.59c-0.71-0.84-1.59-1.26-2.63-1.26c-0.5,0-0.98,0.11-1.43,0.32c-0.45,0.21-0.85,0.52-1.18,0.94
			s-0.6,0.92-0.79,1.53s-0.29,1.29-0.29,2.06c0,0.79,0.1,1.48,0.29,2.08s0.46,1.11,0.79,1.53s0.73,0.74,1.18,0.95
			c0.45,0.21,0.93,0.32,1.43,0.32c0.5,0,0.98-0.11,1.43-0.32s0.85-0.53,1.18-0.95c0.34-0.42,0.6-0.93,0.79-1.53
			S1020.87,589.35,1020.87,588.56z"/>
		<path fill="#5A7CBD" d="M1038.31,591.98c0,0.6-0.12,1.18-0.38,1.74s-0.63,1.07-1.13,1.51c-0.5,0.44-1.14,0.8-1.91,1.07
			c-0.77,0.27-1.68,0.4-2.74,0.4c-1.14,0-2.17-0.21-3.1-0.63c-0.93-0.42-1.7-0.93-2.3-1.53l2.17-2.17c0.33,0.33,0.77,0.63,1.34,0.9
			c0.57,0.27,1.2,0.4,1.89,0.4c0.81,0,1.42-0.16,1.85-0.48s0.64-0.71,0.64-1.17c0-0.5-0.18-0.89-0.55-1.17
			c-0.37-0.28-0.83-0.52-1.39-0.73c-0.56-0.21-1.16-0.42-1.79-0.63c-0.64-0.21-1.23-0.49-1.79-0.85c-0.56-0.36-1.02-0.82-1.39-1.38
			c-0.37-0.57-0.55-1.31-0.55-2.23c0-0.56,0.12-1.11,0.38-1.66c0.25-0.55,0.62-1.04,1.11-1.47c0.49-0.43,1.1-0.78,1.82-1.05
			c0.72-0.27,1.54-0.4,2.47-0.4c1.16,0,2.17,0.2,3.03,0.6s1.61,0.91,2.22,1.53l-2.17,2.2c-0.37-0.37-0.79-0.67-1.29-0.92
			c-0.49-0.25-1.06-0.38-1.72-0.38c-0.73,0-1.28,0.17-1.63,0.52c-0.36,0.35-0.54,0.7-0.54,1.07c0,0.4,0.18,0.73,0.55,0.96
			c0.37,0.24,0.82,0.46,1.37,0.66c0.55,0.2,1.15,0.41,1.79,0.63c0.65,0.22,1.24,0.52,1.79,0.89c0.55,0.37,1.01,0.86,1.37,1.46
			C1038.12,590.27,1038.31,591.04,1038.31,591.98z"/>
		<path fill="#5A7CBD" d="M1048.24,599.19c-0.1,0.25-0.26,0.53-0.48,0.84c-0.22,0.31-0.51,0.6-0.87,0.87
			c-0.36,0.27-0.79,0.5-1.3,0.68c-0.51,0.18-1.11,0.27-1.8,0.27c-0.54,0-1.04-0.03-1.5-0.1s-0.87-0.15-1.21-0.25v-2.97
			c0.25,0.09,0.52,0.16,0.82,0.21c0.3,0.05,0.58,0.08,0.85,0.08c0.62,0,1.05-0.09,1.31-0.26c0.26-0.17,0.44-0.38,0.53-0.61
			c0.04-0.02,0.1-0.1,0.17-0.25c0.08-0.14,0.15-0.3,0.23-0.48c0.08-0.17,0.15-0.35,0.22-0.52c0.07-0.17,0.11-0.29,0.13-0.35
			l-6.09-15.48h4.13l3.93,11.46l4.13-11.46h4.1L1048.24,599.19z"/>
		<path fill="#5A7CBD" d="M1064.47,596.59c-1.08,0-2.08-0.19-3.02-0.58s-1.75-0.93-2.45-1.63c-0.7-0.7-1.26-1.54-1.66-2.53
			c-0.4-0.98-0.61-2.08-0.61-3.29c0-1.19,0.2-2.28,0.61-3.26c0.4-0.98,0.96-1.82,1.66-2.53c0.7-0.7,1.52-1.25,2.45-1.63
			c0.93-0.38,1.94-0.58,3.02-0.58c1.93,0,3.67,0.66,5.23,1.99l-2.28,2.28c-0.35-0.35-0.76-0.62-1.24-0.82s-0.99-0.3-1.53-0.3
			c-0.56,0-1.08,0.12-1.57,0.35c-0.49,0.23-0.92,0.56-1.29,1c-0.37,0.43-0.65,0.95-0.85,1.55s-0.3,1.25-0.3,1.96
			c0,0.73,0.1,1.4,0.3,1.99s0.49,1.11,0.85,1.53c0.37,0.42,0.79,0.76,1.29,1c0.49,0.24,1.02,0.36,1.57,0.36
			c0.54,0,1.05-0.1,1.53-0.3s0.9-0.49,1.24-0.85l2.28,2.28C1068.14,595.92,1066.4,596.59,1064.47,596.59z"/>
		<path fill="#5A7CBD" d="M1083.18,596.27v-9.1c0-1.17-0.26-2.05-0.79-2.61c-0.53-0.57-1.27-0.85-2.21-0.85
			c-1.04,0-1.91,0.39-2.6,1.17c-0.69,0.78-1.04,2.01-1.04,3.68v7.71h-3.75v-21.4h3.75l0.01,8.2c0.35-0.73,0.92-1.33,1.74-1.8
			s1.8-0.71,2.98-0.71c0.83,0,1.6,0.14,2.3,0.42c0.7,0.28,1.3,0.68,1.79,1.21c0.49,0.53,0.88,1.17,1.16,1.92
			c0.28,0.75,0.42,1.6,0.42,2.54v9.62H1083.18z"/>
		<path fill="#5A7CBD" d="M1091.59,578.51v-3.64h3.84v3.64H1091.59z M1091.62,596.27v-15.39h3.75v15.39H1091.62z"/>
		<path fill="#5A7CBD" d="M1108.86,596.27v-2.34c-0.38,0.83-0.97,1.48-1.75,1.95c-0.78,0.47-1.75,0.71-2.9,0.71
			c-0.73,0-1.41-0.12-2.02-0.36c-0.62-0.24-1.15-0.57-1.6-0.98c-0.45-0.41-0.81-0.9-1.07-1.44c-0.26-0.55-0.39-1.13-0.39-1.75
			c0-0.65,0.14-1.29,0.42-1.89s0.71-1.14,1.3-1.6c0.59-0.46,1.34-0.83,2.25-1.1c0.91-0.27,2-0.4,3.25-0.4h2.4c0-0.04,0-0.12,0-0.26
			s0-0.27,0-0.42c0-0.14,0-0.28-0.01-0.4s-0.03-0.2-0.07-0.21c-0.06-0.63-0.38-1.17-0.97-1.62c-0.59-0.45-1.31-0.67-2.18-0.67
			c-0.71,0-1.35,0.12-1.91,0.35c-0.56,0.23-1.06,0.54-1.5,0.92l-2.17-2.17c0.75-0.64,1.6-1.16,2.56-1.54
			c0.95-0.39,2.07-0.58,3.36-0.58c1.06,0,2,0.14,2.82,0.43c0.82,0.29,1.51,0.69,2.08,1.21c0.57,0.52,1,1.13,1.3,1.82
			c0.3,0.69,0.45,1.44,0.45,2.25v10.11H1108.86z M1108.74,589.49h-2.54c-0.58,0-1.07,0.07-1.47,0.2s-0.74,0.31-1.01,0.53
			c-0.27,0.22-0.47,0.47-0.59,0.74s-0.19,0.54-0.19,0.81c0,0.54,0.19,1.01,0.56,1.4c0.38,0.39,0.97,0.59,1.78,0.59
			c1.02,0,1.85-0.34,2.5-1.03c0.65-0.68,0.97-1.61,0.97-2.79V589.49z"/>
		<path fill="#5A7CBD" d="M1123.09,596.48c-0.75,0-1.42-0.12-2.01-0.35c-0.59-0.23-1.09-0.54-1.5-0.92
			c-0.41-0.38-0.73-0.84-0.94-1.36c-0.21-0.52-0.32-1.07-0.32-1.65v-8.35h-2.92v-2.97h2.92v-4.39h3.75v4.39h3.58v2.97h-3.58v7.83
			c0,0.58,0.16,1.03,0.48,1.34c0.32,0.32,0.84,0.48,1.57,0.48c0.27,0,0.55-0.03,0.85-0.09c0.3-0.06,0.58-0.13,0.85-0.23v2.97
			C1125.09,596.37,1124.17,596.48,1123.09,596.48z"/>
		<path fill="#5A7CBD" d="M1136.68,583.91c-0.43,0-0.82,0.05-1.17,0.14c-0.91,0.19-1.6,0.67-2.08,1.44
			c-0.48,0.77-0.72,1.81-0.72,3.12v7.65h-3.75v-15.39h3.64v2.34c0.4-0.85,1.02-1.5,1.85-1.96s1.98-0.69,3.47-0.69v3.41
			C1137.52,583.93,1137.12,583.91,1136.68,583.91z"/>
		<path fill="#5A7CBD" d="M1140.68,578.51v-3.64h3.84v3.64H1140.68z M1140.71,596.27v-15.39h3.75v15.39H1140.71z"/>
		<path fill="#5A7CBD" d="M1152,589.6c0.17,1.18,0.62,2.14,1.36,2.87s1.68,1.09,2.83,1.09c1.31,0,2.34-0.39,3.09-1.18l2.19,2.17
			c-0.81,0.7-1.65,1.22-2.51,1.55s-1.86,0.5-2.97,0.5c-1.14,0-2.19-0.19-3.16-0.58c-0.97-0.38-1.81-0.93-2.53-1.63
			c-0.71-0.7-1.27-1.54-1.67-2.53c-0.4-0.98-0.61-2.08-0.61-3.29c0-1.19,0.18-2.28,0.53-3.26c0.36-0.98,0.86-1.82,1.5-2.53
			c0.65-0.7,1.42-1.25,2.31-1.63c0.9-0.38,1.87-0.58,2.93-0.58c1,0,1.93,0.17,2.8,0.52s1.62,0.87,2.25,1.56
			c0.63,0.69,1.14,1.56,1.5,2.6c0.37,1.04,0.55,2.24,0.55,3.61v0.75H1152z M1158.5,586.92c-0.15-1.04-0.5-1.88-1.04-2.51
			c-0.54-0.63-1.25-0.95-2.14-0.95c-0.85,0-1.56,0.31-2.15,0.94c-0.59,0.63-0.96,1.47-1.11,2.53H1158.5z"/>
		<path fill="#5A7CBD" d="M1176.03,596.27v-9.1c0-1.17-0.26-2.05-0.79-2.61c-0.53-0.57-1.27-0.85-2.21-0.85
			c-1.04,0-1.91,0.39-2.6,1.17s-1.04,2.01-1.04,3.68v7.71h-3.75v-15.39h3.64v2.37c0.35-0.81,0.94-1.46,1.77-1.95
			c0.83-0.49,1.85-0.74,3.07-0.74c0.83,0,1.6,0.14,2.3,0.42c0.71,0.28,1.3,0.68,1.8,1.21s0.88,1.17,1.16,1.92
			c0.28,0.75,0.42,1.6,0.42,2.54v9.62H1176.03z"/>
	</g>
</g>
<g>
	<circle fill="#93AFDB" stroke="#5A7CBD" stroke-width="2.5" stroke-miterlimit="10" cx="601.75" cy="345.92" r="109"/>
	<g>
		<path fill="#5A7CBD" d="M520,319.38c-0.73,0-1.26,0.16-1.57,0.47c-0.32,0.32-0.48,0.76-0.48,1.33v1.37h3.58v2.97h-3.58v12.42
			h-3.75v-12.42h-2.92v-2.97h2.92v-1.94c0-0.58,0.11-1.13,0.32-1.65c0.21-0.52,0.52-0.97,0.94-1.36c0.41-0.38,0.91-0.69,1.5-0.92
			c0.59-0.23,1.26-0.35,2.01-0.35c0.56,0,1.06,0.03,1.52,0.09c0.45,0.06,0.86,0.14,1.23,0.23v3.03
			C521.16,319.49,520.59,319.38,520,319.38z"/>
		<path fill="#5A7CBD" d="M533.6,337.95v-2.34c-0.39,0.83-0.97,1.48-1.75,1.95c-0.78,0.47-1.75,0.71-2.9,0.71
			c-0.73,0-1.41-0.12-2.02-0.36c-0.62-0.24-1.15-0.57-1.6-0.98c-0.45-0.41-0.81-0.9-1.07-1.44c-0.26-0.55-0.39-1.13-0.39-1.75
			c0-0.65,0.14-1.29,0.42-1.89s0.71-1.14,1.3-1.6c0.59-0.46,1.34-0.83,2.25-1.1c0.91-0.27,2-0.4,3.25-0.4h2.4c0-0.04,0-0.12,0-0.26
			c0-0.13,0-0.27,0-0.42s-0.01-0.28-0.01-0.4c-0.01-0.12-0.03-0.2-0.07-0.22c-0.06-0.63-0.38-1.17-0.97-1.62
			c-0.59-0.45-1.31-0.67-2.18-0.67c-0.71,0-1.35,0.12-1.91,0.35c-0.56,0.23-1.06,0.54-1.5,0.92l-2.17-2.17
			c0.75-0.64,1.6-1.16,2.56-1.55c0.95-0.39,2.07-0.58,3.36-0.58c1.06,0,2,0.14,2.82,0.43c0.82,0.29,1.51,0.69,2.08,1.21
			c0.57,0.52,1,1.13,1.3,1.82c0.3,0.69,0.45,1.44,0.45,2.25v10.11H533.6z M533.48,331.17h-2.54c-0.58,0-1.07,0.07-1.47,0.2
			c-0.4,0.14-0.74,0.31-1.01,0.53c-0.27,0.22-0.47,0.47-0.59,0.74c-0.13,0.27-0.19,0.54-0.19,0.81c0,0.54,0.19,1.01,0.56,1.4
			c0.38,0.4,0.97,0.59,1.78,0.59c1.02,0,1.85-0.34,2.5-1.03c0.65-0.68,0.97-1.61,0.97-2.79V331.17z"/>
		<path fill="#5A7CBD" d="M541.94,337.95v-21.4h3.75v21.4H541.94z"/>
		<path fill="#5A7CBD" d="M550.4,337.95v-21.4h3.75v21.4H550.4z"/>
		<path fill="#5A7CBD" d="M573.91,330.24c0,1.23-0.19,2.34-0.56,3.34c-0.38,0.99-0.87,1.83-1.49,2.53c-0.62,0.69-1.34,1.23-2.17,1.6
			s-1.68,0.56-2.57,0.56c-0.46,0-0.93-0.06-1.42-0.19c-0.48-0.13-0.93-0.3-1.36-0.53c-0.42-0.23-0.79-0.5-1.11-0.81
			c-0.32-0.31-0.56-0.65-0.74-1.01v2.22h-3.64v-21.4h3.75v8.09c0.19-0.37,0.45-0.69,0.78-0.98c0.33-0.29,0.69-0.54,1.1-0.75
			c0.4-0.21,0.83-0.38,1.28-0.49s0.9-0.17,1.34-0.17c0.89,0,1.74,0.19,2.57,0.56c0.83,0.38,1.55,0.91,2.17,1.6
			c0.62,0.69,1.11,1.53,1.49,2.51S573.91,329.01,573.91,330.24z M570.01,330.24c0-1.56-0.36-2.76-1.07-3.6
			c-0.71-0.84-1.59-1.26-2.63-1.26c-0.5,0-0.98,0.11-1.43,0.32c-0.45,0.21-0.85,0.52-1.18,0.94c-0.34,0.41-0.6,0.92-0.79,1.53
			c-0.19,0.61-0.29,1.29-0.29,2.06c0,0.79,0.1,1.48,0.29,2.08c0.19,0.6,0.46,1.11,0.79,1.53c0.34,0.42,0.73,0.74,1.18,0.95
			c0.45,0.21,0.93,0.32,1.43,0.32c0.5,0,0.98-0.11,1.43-0.32c0.45-0.21,0.85-0.53,1.18-0.95c0.34-0.42,0.6-0.93,0.79-1.53
			C569.92,331.73,570.01,331.03,570.01,330.24z"/>
		<path fill="#5A7CBD" d="M580.26,331.28c0.17,1.19,0.62,2.14,1.36,2.87c0.73,0.73,1.68,1.09,2.83,1.09c1.31,0,2.34-0.39,3.09-1.18
			l2.19,2.18c-0.81,0.7-1.65,1.21-2.51,1.55c-0.87,0.33-1.86,0.5-2.97,0.5c-1.14,0-2.19-0.19-3.16-0.58
			c-0.97-0.39-1.81-0.93-2.53-1.63c-0.71-0.7-1.27-1.54-1.67-2.53s-0.61-2.08-0.61-3.29c0-1.19,0.18-2.28,0.53-3.26
			c0.36-0.98,0.86-1.82,1.5-2.53s1.42-1.25,2.31-1.63c0.9-0.38,1.87-0.58,2.93-0.58c1,0,1.94,0.17,2.8,0.52
			c0.87,0.35,1.62,0.87,2.25,1.56c0.64,0.69,1.14,1.56,1.5,2.6s0.55,2.24,0.55,3.61v0.75H580.26z M586.76,328.6
			c-0.15-1.04-0.5-1.88-1.04-2.51c-0.54-0.64-1.25-0.95-2.14-0.95c-0.85,0-1.56,0.31-2.15,0.94c-0.59,0.63-0.96,1.47-1.11,2.53
			H586.76z"/>
		<path fill="#5A7CBD" d="M592.62,337.95v-2.74l6.73-9.67h-6.53v-2.97h11.03v2.78l-6.73,9.58h6.93v3.03H592.62z"/>
		<path fill="#5A7CBD" d="M621.27,330.24c0,1.23-0.19,2.34-0.56,3.34c-0.38,0.99-0.9,1.83-1.57,2.53c-0.67,0.69-1.47,1.23-2.38,1.6
			s-1.9,0.56-2.96,0.56c-1.08,0-2.07-0.19-2.97-0.56s-1.69-0.91-2.37-1.6c-0.67-0.69-1.2-1.54-1.57-2.53
			c-0.38-0.99-0.56-2.1-0.56-3.34c0-1.23,0.19-2.34,0.56-3.32c0.38-0.98,0.9-1.82,1.57-2.51c0.67-0.69,1.46-1.23,2.37-1.6
			c0.91-0.38,1.9-0.56,2.97-0.56c1.06,0,2.05,0.19,2.96,0.56c0.91,0.38,1.71,0.91,2.38,1.6c0.67,0.69,1.2,1.53,1.57,2.51
			C621.08,327.9,621.27,329.01,621.27,330.24z M617.37,330.24c0-1.56-0.34-2.76-1.01-3.6c-0.67-0.84-1.53-1.26-2.57-1.26
			c-1.02,0-1.87,0.42-2.56,1.26c-0.68,0.84-1.03,2.04-1.03,3.6s0.34,2.76,1.03,3.61s1.54,1.27,2.56,1.27s1.87-0.42,2.56-1.27
			S617.37,331.8,617.37,330.24z"/>
		<path fill="#5A7CBD" d="M638.66,336.57c0,0.98-0.19,1.9-0.56,2.76c-0.38,0.86-0.91,1.6-1.62,2.24s-1.55,1.14-2.56,1.5
			s-2.12,0.55-3.35,0.55c-1.48,0-2.72-0.23-3.73-0.68c-1-0.45-1.79-0.97-2.37-1.54l2.14-2.14c0.37,0.35,0.86,0.66,1.47,0.95
			c0.62,0.29,1.4,0.43,2.34,0.43c0.64,0,1.23-0.1,1.78-0.29c0.55-0.19,1.02-0.47,1.43-0.84c0.4-0.37,0.72-0.79,0.94-1.29
			c0.22-0.49,0.33-1.04,0.33-1.66v-1.18c-0.37,0.69-0.96,1.28-1.78,1.75c-0.82,0.47-1.72,0.71-2.7,0.71c-0.91,0-1.77-0.19-2.58-0.56
			s-1.54-0.9-2.15-1.57s-1.11-1.49-1.49-2.45c-0.38-0.96-0.56-2.03-0.56-3.21s0.19-2.24,0.56-3.21c0.38-0.96,0.87-1.78,1.49-2.45
			s1.33-1.2,2.15-1.57c0.82-0.38,1.68-0.56,2.58-0.56c0.52,0,1.02,0.07,1.5,0.22c0.48,0.14,0.92,0.33,1.33,0.56s0.76,0.51,1.07,0.82
			c0.31,0.32,0.54,0.65,0.69,1v-2.28h3.64V336.57z M634.9,330.04c0-0.71-0.1-1.35-0.29-1.92s-0.46-1.05-0.79-1.46
			c-0.34-0.4-0.73-0.72-1.17-0.94c-0.44-0.22-0.92-0.33-1.42-0.33c-0.52,0-1,0.11-1.44,0.33c-0.44,0.22-0.83,0.53-1.17,0.94
			c-0.34,0.4-0.6,0.89-0.79,1.46c-0.19,0.57-0.29,1.21-0.29,1.92c0,1.44,0.35,2.58,1.05,3.41s1.58,1.24,2.64,1.24
			c0.5,0,0.97-0.11,1.42-0.32c0.44-0.21,0.83-0.52,1.17-0.92c0.34-0.4,0.6-0.89,0.79-1.46S634.9,330.77,634.9,330.04z"/>
		<path fill="#5A7CBD" d="M646.19,331.28c0.17,1.19,0.62,2.14,1.36,2.87c0.73,0.73,1.67,1.09,2.83,1.09c1.31,0,2.34-0.39,3.09-1.18
			l2.2,2.18c-0.81,0.7-1.65,1.21-2.51,1.55c-0.87,0.33-1.86,0.5-2.97,0.5c-1.14,0-2.19-0.19-3.16-0.58
			c-0.97-0.39-1.82-0.93-2.53-1.63c-0.71-0.7-1.27-1.54-1.67-2.53s-0.61-2.08-0.61-3.29c0-1.19,0.18-2.28,0.53-3.26
			c0.36-0.98,0.86-1.82,1.5-2.53c0.64-0.7,1.42-1.25,2.31-1.63c0.89-0.38,1.87-0.58,2.93-0.58c1,0,1.94,0.17,2.8,0.52
			c0.87,0.35,1.62,0.87,2.25,1.56c0.64,0.69,1.14,1.56,1.5,2.6c0.37,1.04,0.55,2.24,0.55,3.61v0.75H646.19z M652.69,328.6
			c-0.15-1.04-0.5-1.88-1.04-2.51s-1.25-0.95-2.14-0.95c-0.85,0-1.56,0.31-2.15,0.94c-0.59,0.63-0.96,1.47-1.11,2.53H652.69z"/>
		<path fill="#5A7CBD" d="M670.22,337.95v-9.1c0-1.17-0.26-2.05-0.79-2.61c-0.53-0.57-1.27-0.85-2.21-0.85
			c-1.04,0-1.91,0.39-2.6,1.17c-0.69,0.78-1.04,2.01-1.04,3.68v7.71h-3.75v-15.39h3.64v2.37c0.35-0.81,0.94-1.46,1.77-1.95
			c0.83-0.49,1.85-0.74,3.07-0.74c0.83,0,1.6,0.14,2.3,0.42c0.71,0.28,1.3,0.68,1.79,1.21c0.49,0.53,0.88,1.17,1.16,1.92
			c0.28,0.75,0.42,1.6,0.42,2.54v9.62H670.22z"/>
		<path fill="#5A7CBD" d="M681.48,331.28c0.17,1.19,0.62,2.14,1.36,2.87c0.73,0.73,1.67,1.09,2.83,1.09c1.31,0,2.34-0.39,3.09-1.18
			l2.2,2.18c-0.81,0.7-1.65,1.21-2.51,1.55c-0.87,0.33-1.86,0.5-2.97,0.5c-1.14,0-2.19-0.19-3.16-0.58
			c-0.97-0.39-1.82-0.93-2.53-1.63c-0.71-0.7-1.27-1.54-1.67-2.53s-0.61-2.08-0.61-3.29c0-1.19,0.18-2.28,0.53-3.26
			c0.36-0.98,0.86-1.82,1.5-2.53c0.64-0.7,1.42-1.25,2.31-1.63c0.89-0.38,1.87-0.58,2.93-0.58c1,0,1.94,0.17,2.8,0.52
			c0.87,0.35,1.62,0.87,2.25,1.56c0.64,0.69,1.14,1.56,1.5,2.6c0.37,1.04,0.55,2.24,0.55,3.61v0.75H681.48z M687.98,328.6
			c-0.15-1.04-0.5-1.88-1.04-2.51s-1.25-0.95-2.14-0.95c-0.85,0-1.56,0.31-2.15,0.94c-0.59,0.63-0.96,1.47-1.11,2.53H687.98z"/>
		<path fill="#5A7CBD" d="M540.02,372.61v-21.4h11.64v3.35h-7.54v5.63h7.31v3.35h-7.31v5.72h7.74v3.35H540.02z"/>
		<path fill="#5A7CBD" d="M564.45,372.61l-3.09-5.08l-3.09,5.08h-4.39l5.28-7.91l-5.05-7.48h4.51l2.74,4.56l2.74-4.56h4.5
			l-5.05,7.48l5.28,7.91H564.45z"/>
		<path fill="#5A7CBD" d="M586.66,364.9c0,1.23-0.19,2.34-0.56,3.34c-0.38,0.99-0.87,1.83-1.49,2.53c-0.62,0.69-1.34,1.23-2.17,1.6
			s-1.68,0.56-2.57,0.56c-0.44,0-0.89-0.06-1.34-0.17c-0.45-0.12-0.88-0.27-1.28-0.48s-0.77-0.45-1.1-0.74
			c-0.33-0.29-0.59-0.61-0.78-0.95v7.36h-3.75v-20.73h3.64v2.28c0.17-0.37,0.42-0.71,0.74-1.03c0.32-0.32,0.69-0.59,1.11-0.82
			c0.42-0.23,0.88-0.41,1.36-0.55c0.48-0.13,0.95-0.2,1.42-0.2c0.89,0,1.74,0.19,2.57,0.56c0.83,0.38,1.55,0.91,2.17,1.6
			c0.62,0.69,1.11,1.53,1.49,2.51S586.66,363.67,586.66,364.9z M582.76,364.9c0-1.56-0.36-2.76-1.07-3.6
			c-0.71-0.84-1.59-1.26-2.63-1.26c-0.5,0-0.98,0.11-1.43,0.32c-0.45,0.21-0.85,0.52-1.18,0.94c-0.34,0.41-0.6,0.92-0.79,1.53
			c-0.19,0.61-0.29,1.29-0.29,2.06c0,0.79,0.1,1.48,0.29,2.08c0.19,0.6,0.46,1.11,0.79,1.53c0.34,0.42,0.73,0.74,1.18,0.95
			c0.45,0.21,0.93,0.32,1.43,0.32c0.5,0,0.98-0.11,1.43-0.32c0.45-0.21,0.85-0.53,1.18-0.95c0.34-0.42,0.6-0.93,0.79-1.53
			C582.67,366.38,582.76,365.69,582.76,364.9z"/>
		<path fill="#5A7CBD" d="M593.01,365.94c0.17,1.19,0.62,2.14,1.36,2.87c0.73,0.73,1.68,1.09,2.83,1.09c1.31,0,2.34-0.39,3.09-1.18
			l2.19,2.18c-0.81,0.7-1.65,1.21-2.51,1.55c-0.87,0.33-1.86,0.5-2.97,0.5c-1.14,0-2.19-0.19-3.16-0.58
			c-0.97-0.39-1.81-0.93-2.53-1.63c-0.71-0.7-1.27-1.54-1.67-2.53s-0.61-2.08-0.61-3.29c0-1.19,0.18-2.28,0.53-3.26
			c0.36-0.98,0.86-1.82,1.5-2.53s1.42-1.25,2.31-1.63c0.9-0.38,1.87-0.58,2.93-0.58c1,0,1.94,0.17,2.8,0.52
			c0.87,0.35,1.62,0.87,2.25,1.56c0.64,0.69,1.14,1.56,1.5,2.6c0.37,1.04,0.55,2.24,0.55,3.61v0.75H593.01z M599.51,363.25
			c-0.15-1.04-0.5-1.88-1.04-2.51c-0.54-0.64-1.25-0.95-2.14-0.95c-0.85,0-1.56,0.31-2.15,0.94c-0.59,0.63-0.96,1.47-1.11,2.53
			H599.51z"/>
		<path fill="#5A7CBD" d="M614.37,360.25c-0.43,0-0.82,0.05-1.17,0.14c-0.91,0.19-1.6,0.67-2.08,1.44
			c-0.48,0.77-0.72,1.81-0.72,3.12v7.65h-3.75v-15.39h3.64v2.34c0.4-0.85,1.02-1.5,1.85-1.96c0.83-0.46,1.98-0.69,3.46-0.69v3.41
			C615.21,360.27,614.8,360.25,614.37,360.25z"/>
		<path fill="#5A7CBD" d="M624.29,372.81c-0.75,0-1.42-0.12-2.01-0.35c-0.59-0.23-1.09-0.54-1.5-0.92s-0.73-0.84-0.94-1.36
			s-0.32-1.07-0.32-1.65v-8.35h-2.92v-2.97h2.92v-4.39h3.75v4.39h3.58v2.97h-3.58v7.83c0,0.58,0.16,1.03,0.48,1.34
			c0.32,0.32,0.84,0.48,1.57,0.48c0.27,0,0.55-0.03,0.85-0.09s0.58-0.13,0.85-0.23v2.97C626.28,372.7,625.37,372.81,624.29,372.81z"
			/>
		<path fill="#5A7CBD" d="M630.12,354.85v-3.64h3.84v3.64H630.12z M630.15,372.61v-15.39h3.75v15.39H630.15z"/>
		<path fill="#5A7CBD" d="M648.63,368.31c0,0.6-0.13,1.18-0.38,1.74c-0.25,0.57-0.62,1.07-1.13,1.51c-0.5,0.44-1.14,0.8-1.91,1.07
			c-0.77,0.27-1.68,0.4-2.74,0.4c-1.14,0-2.17-0.21-3.1-0.63c-0.93-0.42-1.7-0.93-2.3-1.53l2.17-2.17c0.33,0.33,0.77,0.63,1.34,0.9
			c0.57,0.27,1.2,0.4,1.89,0.4c0.81,0,1.42-0.16,1.85-0.48c0.42-0.32,0.63-0.71,0.63-1.17c0-0.5-0.18-0.89-0.55-1.17
			c-0.37-0.28-0.83-0.52-1.39-0.73c-0.56-0.21-1.16-0.42-1.79-0.63c-0.64-0.21-1.23-0.49-1.79-0.85s-1.02-0.82-1.39-1.38
			c-0.37-0.57-0.55-1.31-0.55-2.23c0-0.56,0.12-1.11,0.38-1.66c0.25-0.55,0.62-1.04,1.11-1.47c0.49-0.43,1.1-0.78,1.82-1.05
			c0.72-0.27,1.54-0.4,2.47-0.4c1.16,0,2.17,0.2,3.03,0.6s1.61,0.91,2.22,1.53l-2.17,2.2c-0.37-0.37-0.79-0.67-1.29-0.92
			c-0.49-0.25-1.06-0.38-1.72-0.38c-0.73,0-1.28,0.17-1.63,0.52s-0.53,0.7-0.53,1.07c0,0.4,0.18,0.73,0.55,0.97
			c0.37,0.24,0.82,0.46,1.37,0.66c0.55,0.2,1.14,0.41,1.79,0.63c0.64,0.22,1.24,0.52,1.79,0.89c0.55,0.37,1.01,0.86,1.37,1.46
			C648.45,366.6,648.63,367.37,648.63,368.31z"/>
		<path fill="#5A7CBD" d="M654.76,365.94c0.17,1.19,0.62,2.14,1.36,2.87c0.73,0.73,1.67,1.09,2.83,1.09c1.31,0,2.34-0.39,3.09-1.18
			l2.2,2.18c-0.81,0.7-1.65,1.21-2.51,1.55c-0.87,0.33-1.86,0.5-2.97,0.5c-1.14,0-2.19-0.19-3.16-0.58
			c-0.97-0.39-1.82-0.93-2.53-1.63c-0.71-0.7-1.27-1.54-1.67-2.53s-0.61-2.08-0.61-3.29c0-1.19,0.18-2.28,0.53-3.26
			c0.36-0.98,0.86-1.82,1.5-2.53c0.64-0.7,1.42-1.25,2.31-1.63c0.89-0.38,1.87-0.58,2.93-0.58c1,0,1.94,0.17,2.8,0.52
			c0.87,0.35,1.62,0.87,2.25,1.56c0.64,0.69,1.14,1.56,1.5,2.6c0.37,1.04,0.55,2.24,0.55,3.61v0.75H654.76z M661.25,363.25
			c-0.15-1.04-0.5-1.88-1.04-2.51s-1.25-0.95-2.14-0.95c-0.85,0-1.56,0.31-2.15,0.94c-0.59,0.63-0.96,1.47-1.11,2.53H661.25z"/>
	</g>
</g>
<g>
	<circle fill="#93AFDB" stroke="#5A7CBD" stroke-width="2.5" stroke-miterlimit="10" cx="213.25" cy="195.47" r="84.5"/>
	<g>
		<path fill="#5A7CBD" d="M201.41,155.16c0,0.9-0.17,1.75-0.5,2.53c-0.34,0.78-0.82,1.45-1.44,2.02s-1.37,1.02-2.25,1.34
			c-0.87,0.33-1.84,0.49-2.89,0.49h-3.51v8.63h-4.1v-21.4h7.59c1.06,0,2.03,0.17,2.9,0.51c0.88,0.34,1.63,0.79,2.25,1.37
			s1.11,1.25,1.44,2.02C201.24,153.45,201.41,154.27,201.41,155.16z M197.25,155.16c0-0.84-0.28-1.55-0.85-2.14
			s-1.38-0.89-2.46-0.89h-3.13v6.06h3.13c1.07,0,1.89-0.29,2.46-0.87S197.25,156.02,197.25,155.16z"/>
		<path fill="#5A7CBD" d="M217.95,170.02c-1.27,0.32-2.63,0.48-4.08,0.48c-1.6,0-3.05-0.27-4.35-0.79c-1.3-0.53-2.41-1.27-3.33-2.24
			s-1.62-2.12-2.13-3.47c-0.5-1.35-0.75-2.85-0.75-4.5c0-1.66,0.25-3.16,0.75-4.52s1.21-2.52,2.13-3.48
			c0.92-0.96,2.02-1.71,3.33-2.24c1.3-0.53,2.75-0.79,4.35-0.79c1.45,0,2.78,0.22,4.01,0.67c1.22,0.45,2.24,1.07,3.05,1.88
			l-2.43,2.42c-1.08-1.08-2.57-1.62-4.46-1.62c-0.93,0-1.79,0.17-2.58,0.52c-0.79,0.35-1.48,0.85-2.05,1.5
			c-0.58,0.66-1.03,1.46-1.36,2.4c-0.33,0.94-0.49,2.03-0.49,3.24c0,1.22,0.16,2.3,0.49,3.24c0.33,0.95,0.78,1.74,1.36,2.39
			c0.58,0.65,1.26,1.14,2.05,1.48c0.79,0.34,1.65,0.51,2.57,0.51c0.5,0,1.02-0.06,1.56-0.17c0.54-0.12,0.99-0.25,1.36-0.4v-4.77
			h-3.93v-3.35h8.03v10.46C220.26,169.31,219.22,169.7,217.95,170.02z"/>
		<path fill="#5A7CBD" d="M234.62,170.18h-4.27l-7.71-21.4h4.33l5.52,16.49l5.49-16.49h4.33L234.62,170.18z"/>
		<path fill="#5A7CBD" d="M163.22,205.78l-3.64-1.81c-0.67,0.38-1.41,0.67-2.19,0.87c-0.79,0.2-1.63,0.3-2.51,0.3
			c-1.46,0-2.8-0.27-4-0.79c-1.2-0.53-2.24-1.27-3.1-2.24s-1.54-2.12-2.02-3.47c-0.48-1.35-0.72-2.85-0.72-4.5
			c0-1.66,0.24-3.16,0.72-4.52c0.48-1.36,1.16-2.52,2.02-3.48c0.87-0.96,1.9-1.71,3.1-2.24c1.2-0.53,2.54-0.79,4-0.79
			c1.46,0,2.8,0.27,4,0.8s2.24,1.28,3.1,2.24c0.87,0.96,1.54,2.12,2.02,3.48c0.48,1.36,0.72,2.87,0.72,4.52
			c0,1.45-0.2,2.78-0.59,4.02c-0.4,1.23-0.94,2.29-1.63,3.18l3.44,1.73L163.22,205.78z M160.5,194.15c0-1.22-0.15-2.3-0.45-3.25
			c-0.3-0.95-0.7-1.75-1.2-2.41c-0.5-0.66-1.1-1.16-1.79-1.51c-0.69-0.35-1.42-0.52-2.19-0.52c-0.81,0-1.55,0.17-2.24,0.52
			c-0.68,0.35-1.28,0.85-1.78,1.51c-0.5,0.66-0.89,1.46-1.17,2.41c-0.28,0.95-0.42,2.03-0.42,3.25c0,1.2,0.14,2.27,0.42,3.22
			c0.28,0.95,0.67,1.75,1.17,2.41c0.5,0.66,1.09,1.16,1.78,1.51c0.68,0.35,1.43,0.52,2.24,0.52c0.77,0,1.5-0.17,2.19-0.52
			c0.69-0.35,1.29-0.85,1.79-1.51c0.5-0.66,0.9-1.46,1.2-2.41C160.35,196.42,160.5,195.34,160.5,194.15z"/>
		<path fill="#5A7CBD" d="M178.81,204.83v-2.37c-0.33,0.79-0.91,1.43-1.75,1.94s-1.85,0.75-3.05,0.75c-0.85,0-1.62-0.14-2.31-0.42
			c-0.69-0.28-1.29-0.68-1.79-1.21c-0.5-0.53-0.89-1.17-1.17-1.92c-0.28-0.75-0.42-1.6-0.42-2.54v-9.62h3.75v9.07
			c0,1.19,0.26,2.07,0.79,2.64c0.53,0.57,1.27,0.85,2.21,0.85c1.04,0,1.91-0.39,2.6-1.18c0.69-0.79,1.04-2.02,1.04-3.7v-7.68h3.75
			v15.39H178.81z"/>
		<path fill="#5A7CBD" d="M195.94,204.83v-2.34c-0.39,0.83-0.97,1.48-1.75,1.95c-0.78,0.47-1.75,0.71-2.9,0.71
			c-0.73,0-1.41-0.12-2.02-0.36c-0.62-0.24-1.15-0.57-1.6-0.98c-0.45-0.41-0.81-0.9-1.07-1.44c-0.26-0.55-0.39-1.13-0.39-1.75
			c0-0.65,0.14-1.29,0.42-1.89s0.71-1.14,1.3-1.6c0.59-0.46,1.34-0.83,2.25-1.1c0.91-0.27,2-0.4,3.25-0.4h2.4c0-0.04,0-0.12,0-0.26
			c0-0.13,0-0.27,0-0.42s-0.01-0.28-0.01-0.4c-0.01-0.12-0.03-0.2-0.07-0.22c-0.06-0.63-0.38-1.17-0.97-1.62
			c-0.59-0.45-1.31-0.67-2.18-0.67c-0.71,0-1.35,0.12-1.91,0.35c-0.56,0.23-1.06,0.54-1.5,0.92l-2.17-2.17
			c0.75-0.64,1.6-1.16,2.56-1.55c0.95-0.39,2.07-0.58,3.36-0.58c1.06,0,2,0.14,2.82,0.43c0.82,0.29,1.51,0.69,2.08,1.21
			c0.57,0.52,1,1.13,1.3,1.82c0.3,0.69,0.45,1.44,0.45,2.25v10.11H195.94z M195.82,198.04h-2.54c-0.58,0-1.07,0.07-1.47,0.2
			c-0.4,0.14-0.74,0.31-1.01,0.53c-0.27,0.22-0.47,0.47-0.59,0.74c-0.13,0.27-0.19,0.54-0.19,0.81c0,0.54,0.19,1.01,0.56,1.4
			c0.38,0.4,0.97,0.59,1.78,0.59c1.02,0,1.85-0.34,2.5-1.03c0.65-0.68,0.97-1.61,0.97-2.79V198.04z"/>
		<path fill="#5A7CBD" d="M204.28,204.83v-21.4h3.75v21.4H204.28z"/>
		<path fill="#5A7CBD" d="M212.72,187.07v-3.64h3.84v3.64H212.72z M212.74,204.83v-15.39h3.75v15.39H212.74z"/>
		<path fill="#5A7CBD" d="M227.1,205.03c-0.75,0-1.42-0.12-2.01-0.35s-1.09-0.54-1.5-0.92c-0.41-0.39-0.73-0.84-0.94-1.36
			c-0.21-0.52-0.32-1.07-0.32-1.65v-8.35h-2.92v-2.97h2.92v-4.39h3.75v4.39h3.58v2.97h-3.58v7.83c0,0.58,0.16,1.03,0.48,1.34
			c0.32,0.32,0.84,0.48,1.57,0.48c0.27,0,0.55-0.03,0.85-0.09c0.3-0.06,0.58-0.13,0.85-0.23v2.97
			C229.09,204.93,228.18,205.03,227.1,205.03z"/>
		<path fill="#5A7CBD" d="M241.74,204.83v-2.34c-0.39,0.83-0.97,1.48-1.75,1.95c-0.78,0.47-1.75,0.71-2.9,0.71
			c-0.73,0-1.41-0.12-2.02-0.36c-0.62-0.24-1.15-0.57-1.6-0.98c-0.45-0.41-0.81-0.9-1.07-1.44c-0.26-0.55-0.39-1.13-0.39-1.75
			c0-0.65,0.14-1.29,0.42-1.89s0.71-1.14,1.3-1.6c0.59-0.46,1.34-0.83,2.25-1.1c0.91-0.27,2-0.4,3.25-0.4h2.4c0-0.04,0-0.12,0-0.26
			c0-0.13,0-0.27,0-0.42s-0.01-0.28-0.01-0.4c-0.01-0.12-0.03-0.2-0.07-0.22c-0.06-0.63-0.38-1.17-0.97-1.62
			c-0.59-0.45-1.31-0.67-2.18-0.67c-0.71,0-1.35,0.12-1.91,0.35c-0.56,0.23-1.06,0.54-1.5,0.92l-2.17-2.17
			c0.75-0.64,1.6-1.16,2.56-1.55c0.95-0.39,2.07-0.58,3.36-0.58c1.06,0,2,0.14,2.82,0.43c0.82,0.29,1.51,0.69,2.08,1.21
			c0.57,0.52,1,1.13,1.3,1.82c0.3,0.69,0.45,1.44,0.45,2.25v10.11H241.74z M234.46,187.01v-3.52h3.26v3.52H234.46z M241.62,198.04
			h-2.54c-0.58,0-1.07,0.07-1.47,0.2c-0.4,0.14-0.74,0.31-1.01,0.53c-0.27,0.22-0.47,0.47-0.59,0.74c-0.13,0.27-0.19,0.54-0.19,0.81
			c0,0.54,0.19,1.01,0.56,1.4c0.38,0.4,0.97,0.59,1.78,0.59c1.02,0,1.85-0.34,2.5-1.03c0.65-0.68,0.97-1.61,0.97-2.79V198.04z
			 M239.86,187.01v-3.52h3.26v3.52H239.86z"/>
		<path fill="#5A7CBD" d="M255.98,205.03c-0.75,0-1.42-0.12-2.01-0.35s-1.09-0.54-1.5-0.92c-0.41-0.39-0.73-0.84-0.94-1.36
			c-0.21-0.52-0.32-1.07-0.32-1.65v-8.35h-2.92v-2.97h2.92v-4.39h3.75v4.39h3.58v2.97h-3.58v7.83c0,0.58,0.16,1.03,0.48,1.34
			c0.32,0.32,0.84,0.48,1.57,0.48c0.27,0,0.55-0.03,0.85-0.09c0.3-0.06,0.58-0.13,0.85-0.23v2.97
			C257.97,204.93,257.05,205.03,255.98,205.03z"/>
		<path fill="#5A7CBD" d="M271.86,200.54c0,0.6-0.13,1.18-0.38,1.74c-0.25,0.57-0.63,1.07-1.13,1.51c-0.5,0.44-1.14,0.8-1.91,1.07
			s-1.68,0.4-2.74,0.4c-1.14,0-2.17-0.21-3.1-0.63c-0.93-0.42-1.7-0.93-2.3-1.53l2.17-2.17c0.33,0.33,0.77,0.63,1.34,0.9
			c0.57,0.27,1.2,0.4,1.89,0.4c0.81,0,1.42-0.16,1.85-0.48c0.42-0.32,0.64-0.71,0.64-1.17c0-0.5-0.18-0.89-0.55-1.17
			s-0.83-0.52-1.39-0.73c-0.56-0.21-1.16-0.42-1.79-0.63c-0.64-0.21-1.23-0.49-1.79-0.85c-0.56-0.36-1.02-0.82-1.39-1.38
			c-0.37-0.57-0.55-1.31-0.55-2.23c0-0.56,0.12-1.11,0.38-1.66c0.25-0.55,0.62-1.04,1.11-1.47s1.1-0.78,1.82-1.05
			c0.72-0.27,1.54-0.4,2.47-0.4c1.16,0,2.17,0.2,3.03,0.6s1.61,0.91,2.22,1.53l-2.17,2.2c-0.37-0.37-0.79-0.67-1.29-0.92
			c-0.49-0.25-1.06-0.38-1.72-0.38c-0.73,0-1.28,0.17-1.63,0.52c-0.36,0.35-0.53,0.7-0.53,1.07c0,0.4,0.18,0.73,0.55,0.97
			c0.37,0.24,0.82,0.46,1.37,0.66c0.55,0.2,1.15,0.41,1.79,0.63c0.65,0.22,1.24,0.52,1.79,0.89c0.55,0.37,1.01,0.86,1.37,1.46
			C271.68,198.83,271.86,199.6,271.86,200.54z"/>
		<path fill="#5A7CBD" d="M274.08,198.16v-2.69h7.39v2.69H274.08z"/>
		<path fill="#5A7CBD" d="M181.05,239.48v-21.4h3.75v21.4H181.05z"/>
		<path fill="#5A7CBD" d="M198.29,239.48v-2.34c-0.39,0.83-0.97,1.48-1.75,1.95c-0.78,0.47-1.75,0.71-2.9,0.71
			c-0.73,0-1.41-0.12-2.02-0.36c-0.62-0.24-1.15-0.57-1.6-0.98c-0.45-0.41-0.81-0.9-1.07-1.44c-0.26-0.55-0.39-1.13-0.39-1.75
			c0-0.65,0.14-1.29,0.42-1.89s0.71-1.14,1.3-1.6c0.59-0.46,1.34-0.83,2.25-1.1c0.91-0.27,2-0.4,3.25-0.4h2.4c0-0.04,0-0.12,0-0.26
			c0-0.13,0-0.27,0-0.42s-0.01-0.28-0.01-0.4c-0.01-0.12-0.03-0.2-0.07-0.22c-0.06-0.63-0.38-1.17-0.97-1.62
			c-0.59-0.45-1.31-0.67-2.18-0.67c-0.71,0-1.35,0.12-1.91,0.35c-0.56,0.23-1.06,0.54-1.5,0.92l-2.17-2.17
			c0.75-0.64,1.6-1.16,2.56-1.55c0.95-0.39,2.07-0.58,3.36-0.58c1.06,0,2,0.14,2.82,0.43c0.82,0.29,1.51,0.69,2.08,1.21
			c0.57,0.52,1,1.13,1.3,1.82c0.3,0.69,0.45,1.44,0.45,2.25v10.11H198.29z M198.18,232.7h-2.54c-0.58,0-1.07,0.07-1.47,0.2
			c-0.4,0.14-0.74,0.31-1.01,0.53c-0.27,0.22-0.47,0.47-0.59,0.74c-0.13,0.27-0.19,0.54-0.19,0.81c0,0.54,0.19,1.01,0.56,1.4
			c0.38,0.4,0.97,0.59,1.78,0.59c1.02,0,1.85-0.34,2.5-1.03c0.65-0.68,0.97-1.61,0.97-2.79V232.7z"/>
		<path fill="#5A7CBD" d="M221.68,231.77c0,1.23-0.19,2.34-0.56,3.34c-0.38,0.99-0.87,1.83-1.49,2.53c-0.62,0.69-1.34,1.23-2.17,1.6
			s-1.68,0.56-2.57,0.56c-0.46,0-0.93-0.06-1.42-0.19c-0.48-0.13-0.93-0.3-1.36-0.53c-0.42-0.23-0.79-0.5-1.11-0.81
			c-0.32-0.31-0.56-0.65-0.74-1.01v2.22h-3.64v-21.4h3.75v8.09c0.19-0.37,0.45-0.69,0.78-0.98c0.33-0.29,0.69-0.54,1.1-0.75
			c0.4-0.21,0.83-0.38,1.28-0.49s0.9-0.17,1.34-0.17c0.89,0,1.74,0.19,2.57,0.56c0.83,0.38,1.55,0.91,2.17,1.6
			c0.62,0.69,1.11,1.53,1.49,2.51S221.68,230.54,221.68,231.77z M217.78,231.77c0-1.56-0.36-2.76-1.07-3.6
			c-0.71-0.84-1.59-1.26-2.63-1.26c-0.5,0-0.98,0.11-1.43,0.32c-0.45,0.21-0.85,0.52-1.18,0.94c-0.34,0.41-0.6,0.92-0.79,1.53
			c-0.19,0.61-0.29,1.29-0.29,2.06c0,0.79,0.1,1.48,0.29,2.08c0.19,0.6,0.46,1.11,0.79,1.53c0.34,0.42,0.73,0.74,1.18,0.95
			c0.45,0.21,0.93,0.32,1.43,0.32c0.5,0,0.98-0.11,1.43-0.32c0.45-0.21,0.85-0.53,1.18-0.95c0.34-0.42,0.6-0.93,0.79-1.53
			C217.69,233.26,217.78,232.56,217.78,231.77z"/>
		<path fill="#5A7CBD" d="M228.04,232.81c0.17,1.19,0.62,2.14,1.36,2.87c0.73,0.73,1.68,1.09,2.83,1.09c1.31,0,2.34-0.39,3.09-1.18
			l2.19,2.18c-0.81,0.7-1.65,1.21-2.51,1.55c-0.87,0.33-1.86,0.5-2.97,0.5c-1.14,0-2.19-0.19-3.16-0.58
			c-0.97-0.39-1.81-0.93-2.53-1.63c-0.71-0.7-1.27-1.54-1.67-2.53s-0.61-2.08-0.61-3.29c0-1.19,0.18-2.28,0.53-3.26
			c0.36-0.98,0.86-1.82,1.5-2.53s1.42-1.25,2.31-1.63c0.9-0.38,1.87-0.58,2.93-0.58c1,0,1.94,0.17,2.8,0.52
			c0.87,0.35,1.62,0.87,2.25,1.56c0.64,0.69,1.14,1.56,1.5,2.6s0.55,2.24,0.55,3.61v0.75H228.04z M234.53,230.13
			c-0.15-1.04-0.5-1.88-1.04-2.51c-0.54-0.64-1.25-0.95-2.14-0.95c-0.85,0-1.56,0.31-2.15,0.94c-0.59,0.63-0.96,1.47-1.11,2.53
			H234.53z"/>
		<path fill="#5A7CBD" d="M241.67,239.48v-21.4h3.75v21.4H241.67z"/>
	</g>
</g>
<g>
	<circle fill="#93AFDB" stroke="#5A7CBD" stroke-width="2.5" stroke-miterlimit="10" cx="107.25" cy="569.58" r="106"/>
	<g>
		<path fill="#5A7CBD" d="M45.39,561.62l-1.73-4.91h-8.23l-1.7,4.91h-4.33l7.97-21.4h4.39l7.97,21.4H45.39z M39.56,544.84
			l-2.97,8.52h5.95L39.56,544.84z"/>
		<path fill="#5A7CBD" d="M52.06,561.62v-21.4h3.75v21.4H52.06z"/>
		<path fill="#5A7CBD" d="M66.42,561.82c-0.75,0-1.42-0.12-2.01-0.35c-0.59-0.23-1.09-0.54-1.5-0.92c-0.41-0.39-0.73-0.84-0.94-1.36
			c-0.21-0.52-0.32-1.07-0.32-1.65v-8.35h-2.92v-2.97h2.92v-4.39h3.75v4.39h3.58v2.97h-3.58v7.83c0,0.58,0.16,1.03,0.48,1.34
			s0.84,0.48,1.57,0.48c0.27,0,0.55-0.03,0.85-0.09c0.3-0.06,0.58-0.13,0.85-0.23v2.97C68.41,561.72,67.5,561.82,66.42,561.82z"/>
		<path fill="#5A7CBD" d="M75.11,554.95c0.17,1.18,0.63,2.14,1.36,2.87s1.67,1.09,2.83,1.09c1.31,0,2.34-0.39,3.09-1.18l2.2,2.17
			c-0.81,0.7-1.65,1.21-2.51,1.55c-0.87,0.33-1.86,0.5-2.97,0.5c-1.14,0-2.19-0.19-3.16-0.58c-0.97-0.39-1.81-0.93-2.53-1.63
			c-0.71-0.7-1.27-1.54-1.68-2.53c-0.4-0.98-0.61-2.08-0.61-3.29c0-1.19,0.18-2.28,0.54-3.26c0.36-0.98,0.86-1.82,1.5-2.53
			c0.65-0.7,1.42-1.25,2.31-1.63c0.9-0.38,1.87-0.58,2.93-0.58c1,0,1.94,0.17,2.8,0.52s1.62,0.87,2.25,1.56
			c0.63,0.69,1.13,1.56,1.5,2.6c0.37,1.04,0.55,2.24,0.55,3.61v0.75H75.11z M81.61,552.26c-0.15-1.04-0.5-1.88-1.04-2.51
			c-0.54-0.64-1.25-0.95-2.14-0.95c-0.85,0-1.56,0.31-2.15,0.94c-0.59,0.63-0.96,1.47-1.11,2.53H81.61z"/>
		<path fill="#5A7CBD" d="M96.46,549.26c-0.43,0-0.82,0.05-1.17,0.14c-0.91,0.19-1.6,0.67-2.08,1.44c-0.48,0.77-0.72,1.81-0.72,3.12
			v7.65h-3.75v-15.39h3.64v2.34c0.4-0.85,1.02-1.5,1.85-1.96c0.83-0.46,1.98-0.69,3.46-0.69v3.41
			C97.31,549.28,96.9,549.26,96.46,549.26z"/>
		<path fill="#5A7CBD" d="M110.51,557.33c0,0.6-0.13,1.18-0.38,1.74c-0.25,0.57-0.63,1.07-1.13,1.51c-0.5,0.44-1.14,0.8-1.91,1.07
			c-0.77,0.27-1.68,0.4-2.74,0.4c-1.14,0-2.17-0.21-3.1-0.63c-0.93-0.42-1.7-0.93-2.3-1.53l2.17-2.17c0.33,0.33,0.77,0.62,1.34,0.89
			c0.57,0.27,1.2,0.4,1.89,0.4c0.81,0,1.42-0.16,1.85-0.47c0.42-0.32,0.64-0.71,0.64-1.17c0-0.5-0.18-0.89-0.55-1.17
			c-0.37-0.28-0.83-0.52-1.39-0.74c-0.56-0.21-1.16-0.42-1.79-0.63c-0.63-0.21-1.23-0.49-1.79-0.85c-0.56-0.36-1.02-0.82-1.39-1.38
			c-0.37-0.57-0.55-1.31-0.55-2.23c0-0.56,0.12-1.11,0.38-1.66s0.62-1.04,1.11-1.47c0.49-0.43,1.1-0.78,1.82-1.05
			c0.72-0.27,1.54-0.4,2.47-0.4c1.16,0,2.17,0.2,3.03,0.6s1.61,0.91,2.22,1.53l-2.17,2.2c-0.37-0.37-0.79-0.67-1.29-0.92
			s-1.06-0.38-1.72-0.38c-0.73,0-1.28,0.17-1.63,0.52c-0.36,0.35-0.53,0.7-0.53,1.07c0,0.4,0.18,0.73,0.55,0.97
			c0.37,0.24,0.82,0.46,1.37,0.66c0.55,0.2,1.15,0.41,1.79,0.63c0.64,0.22,1.24,0.52,1.79,0.89c0.55,0.38,1.01,0.86,1.37,1.46
			C110.33,555.62,110.51,556.39,110.51,557.33z"/>
		<path fill="#5A7CBD" d="M112.74,554.95v-2.69h7.39v2.69H112.74z"/>
		<path fill="#5A7CBD" d="M141.7,561.62v-2.37c-0.33,0.79-0.91,1.43-1.75,1.93c-0.84,0.5-1.85,0.75-3.05,0.75
			c-0.85,0-1.62-0.14-2.31-0.42c-0.69-0.28-1.29-0.68-1.79-1.21c-0.5-0.53-0.89-1.17-1.17-1.92s-0.42-1.6-0.42-2.54v-9.62h3.75v9.07
			c0,1.19,0.26,2.07,0.79,2.64c0.53,0.57,1.27,0.85,2.21,0.85c1.04,0,1.91-0.39,2.6-1.18c0.69-0.79,1.04-2.02,1.04-3.7v-7.68h3.75
			v15.39H141.7z"/>
		<path fill="#5A7CBD" d="M160.44,561.62v-9.1c0-1.17-0.26-2.05-0.79-2.61c-0.53-0.57-1.27-0.85-2.21-0.85
			c-1.04,0-1.91,0.39-2.6,1.17c-0.69,0.78-1.04,2.01-1.04,3.68v7.71h-3.75v-15.39h3.64v2.37c0.35-0.81,0.94-1.46,1.77-1.95
			s1.85-0.74,3.07-0.74c0.83,0,1.6,0.14,2.3,0.42c0.7,0.28,1.3,0.68,1.79,1.21s0.88,1.17,1.16,1.92c0.28,0.75,0.42,1.6,0.42,2.54
			v9.62H160.44z"/>
		<path fill="#5A7CBD" d="M179.1,561.62v-2.22c-0.15,0.37-0.4,0.7-0.72,1.01s-0.7,0.58-1.13,0.81c-0.42,0.23-0.87,0.41-1.34,0.53
			c-0.47,0.12-0.94,0.19-1.4,0.19c-0.91,0-1.77-0.19-2.58-0.56c-0.82-0.38-1.54-0.91-2.15-1.6s-1.11-1.54-1.49-2.53
			c-0.38-0.99-0.56-2.1-0.56-3.34c0-1.23,0.19-2.34,0.56-3.32c0.38-0.98,0.87-1.82,1.49-2.51c0.62-0.69,1.33-1.23,2.15-1.6
			c0.82-0.38,1.68-0.56,2.58-0.56c0.42,0,0.86,0.06,1.31,0.17c0.45,0.12,0.88,0.28,1.29,0.49s0.78,0.46,1.11,0.75
			c0.34,0.29,0.59,0.62,0.76,0.98v-8.09h3.75v21.4H179.1z M178.98,553.91c0-0.77-0.1-1.46-0.29-2.06c-0.19-0.61-0.46-1.12-0.79-1.53
			c-0.34-0.41-0.73-0.73-1.17-0.94c-0.44-0.21-0.92-0.32-1.42-0.32c-1.06,0-1.94,0.42-2.64,1.26c-0.7,0.84-1.05,2.04-1.05,3.6
			c0,0.79,0.1,1.48,0.29,2.08c0.19,0.6,0.46,1.11,0.79,1.53c0.34,0.42,0.73,0.74,1.17,0.95c0.44,0.21,0.92,0.32,1.44,0.32
			c0.5,0,0.97-0.11,1.42-0.32c0.44-0.21,0.83-0.53,1.17-0.95c0.34-0.42,0.6-0.93,0.79-1.53
			C178.89,555.39,178.98,554.7,178.98,553.91z"/>
		<path fill="#5A7CBD" d="M36.02,581.26c0,0.9-0.17,1.75-0.5,2.53c-0.34,0.78-0.82,1.45-1.44,2.02c-0.62,0.57-1.37,1.02-2.25,1.34
			c-0.87,0.33-1.84,0.49-2.89,0.49h-3.51v8.63h-4.1v-21.4h7.59c1.06,0,2.03,0.17,2.9,0.51s1.63,0.79,2.25,1.37
			c0.62,0.58,1.11,1.25,1.44,2.02C35.85,579.54,36.02,580.37,36.02,581.26z M31.86,581.26c0-0.84-0.28-1.55-0.85-2.14
			s-1.38-0.89-2.46-0.89h-3.13v6.06h3.13c1.07,0,1.89-0.29,2.46-0.88S31.86,582.11,31.86,581.26z"/>
		<path fill="#5A7CBD" d="M47.63,577.99c-0.54-0.19-1.11-0.29-1.7-0.29c-0.73,0-1.26,0.16-1.57,0.47s-0.48,0.76-0.48,1.33v1.37h3.58
			v2.97h-3.58v12.42h-3.75v-12.42h-2.92v-2.97h2.92v-1.93c0-0.58,0.11-1.13,0.32-1.65c0.21-0.52,0.52-0.97,0.94-1.36
			c0.41-0.38,0.91-0.69,1.5-0.92c0.59-0.23,1.26-0.35,2.01-0.35c0.56,0,1.06,0.03,1.52,0.09s0.86,0.13,1.23,0.23V577.99z
			 M50.78,596.27v-21.4h3.75v21.4H50.78z"/>
		<path fill="#5A7CBD" d="M62.04,589.6c0.17,1.18,0.63,2.14,1.36,2.87s1.67,1.09,2.83,1.09c1.31,0,2.34-0.39,3.09-1.18l2.2,2.17
			c-0.81,0.7-1.65,1.21-2.51,1.55c-0.87,0.33-1.86,0.5-2.97,0.5c-1.14,0-2.19-0.19-3.16-0.58c-0.97-0.39-1.81-0.93-2.53-1.63
			c-0.71-0.7-1.27-1.54-1.68-2.53c-0.4-0.98-0.61-2.08-0.61-3.29c0-1.19,0.18-2.28,0.54-3.26c0.36-0.98,0.86-1.82,1.5-2.53
			c0.65-0.7,1.42-1.25,2.31-1.63c0.9-0.38,1.87-0.58,2.93-0.58c1,0,1.94,0.17,2.8,0.52s1.62,0.87,2.25,1.56
			c0.63,0.69,1.13,1.56,1.5,2.6c0.37,1.04,0.55,2.24,0.55,3.61v0.75H62.04z M68.54,586.92c-0.15-1.04-0.5-1.88-1.04-2.51
			c-0.54-0.64-1.25-0.95-2.14-0.95c-0.85,0-1.56,0.31-2.15,0.94c-0.59,0.63-0.96,1.47-1.11,2.53H68.54z"/>
		<path fill="#5A7CBD" d="M89.53,594.89c0,0.98-0.19,1.9-0.56,2.76s-0.92,1.6-1.62,2.24c-0.7,0.64-1.55,1.14-2.56,1.5
			c-1,0.37-2.12,0.55-3.35,0.55c-1.48,0-2.72-0.23-3.73-0.68c-1-0.45-1.79-0.97-2.37-1.54l2.14-2.14c0.37,0.35,0.86,0.67,1.47,0.95
			c0.62,0.29,1.4,0.43,2.34,0.43c0.63,0,1.23-0.1,1.78-0.29c0.55-0.19,1.03-0.47,1.43-0.84c0.4-0.37,0.72-0.79,0.94-1.29
			c0.22-0.49,0.33-1.04,0.33-1.66v-1.18c-0.37,0.69-0.96,1.28-1.78,1.75c-0.82,0.47-1.72,0.71-2.7,0.71c-0.91,0-1.77-0.19-2.58-0.56
			c-0.82-0.38-1.54-0.9-2.15-1.57s-1.11-1.49-1.49-2.45c-0.38-0.96-0.56-2.03-0.56-3.21c0-1.17,0.19-2.24,0.56-3.21
			c0.38-0.96,0.87-1.78,1.49-2.46s1.33-1.2,2.15-1.57c0.82-0.38,1.68-0.56,2.58-0.56c0.52,0,1.02,0.07,1.5,0.22
			c0.48,0.14,0.92,0.33,1.33,0.56c0.4,0.23,0.76,0.51,1.07,0.82c0.31,0.32,0.54,0.65,0.69,1v-2.28h3.64V594.89z M85.78,588.36
			c0-0.71-0.1-1.35-0.29-1.92c-0.19-0.57-0.46-1.05-0.79-1.46s-0.73-0.72-1.17-0.94c-0.44-0.22-0.92-0.33-1.42-0.33
			c-0.52,0-1,0.11-1.44,0.33c-0.44,0.22-0.83,0.53-1.17,0.94c-0.34,0.4-0.6,0.89-0.79,1.46c-0.19,0.57-0.29,1.21-0.29,1.92
			c0,1.44,0.35,2.58,1.05,3.41c0.7,0.83,1.58,1.24,2.64,1.24c0.5,0,0.97-0.11,1.42-0.32c0.44-0.21,0.83-0.52,1.17-0.92
			s0.6-0.89,0.79-1.46C85.68,589.74,85.78,589.09,85.78,588.36z"/>
		<path fill="#5A7CBD" d="M97.07,589.6c0.17,1.18,0.63,2.14,1.36,2.87s1.67,1.09,2.83,1.09c1.31,0,2.34-0.39,3.09-1.18l2.2,2.17
			c-0.81,0.7-1.65,1.21-2.51,1.55c-0.87,0.33-1.86,0.5-2.97,0.5c-1.14,0-2.19-0.19-3.16-0.58c-0.97-0.39-1.81-0.93-2.53-1.63
			c-0.71-0.7-1.27-1.54-1.68-2.53c-0.4-0.98-0.61-2.08-0.61-3.29c0-1.19,0.18-2.28,0.54-3.26c0.36-0.98,0.86-1.82,1.5-2.53
			c0.65-0.7,1.42-1.25,2.31-1.63c0.9-0.38,1.87-0.58,2.93-0.58c1,0,1.94,0.17,2.8,0.52s1.62,0.87,2.25,1.56
			c0.63,0.69,1.13,1.56,1.5,2.6c0.37,1.04,0.55,2.24,0.55,3.61v0.75H97.07z M103.57,586.92c-0.15-1.04-0.5-1.88-1.04-2.51
			c-0.54-0.64-1.25-0.95-2.14-0.95c-0.85,0-1.56,0.31-2.15,0.94c-0.59,0.63-0.96,1.47-1.11,2.53H103.57z"/>
		<path fill="#5A7CBD" d="M121.1,596.27v-9.1c0-1.17-0.26-2.05-0.79-2.61c-0.53-0.57-1.27-0.85-2.21-0.85
			c-1.04,0-1.91,0.39-2.6,1.17c-0.69,0.78-1.04,2.01-1.04,3.68v7.71h-3.75v-21.4h3.75l0.01,8.2c0.35-0.73,0.93-1.33,1.74-1.81
			c0.81-0.47,1.8-0.71,2.98-0.71c0.83,0,1.6,0.14,2.3,0.42s1.3,0.68,1.79,1.21c0.49,0.53,0.88,1.17,1.16,1.92
			c0.28,0.75,0.42,1.6,0.42,2.54v9.62H121.1z"/>
		<path fill="#5A7CBD" d="M132.36,589.6c0.17,1.18,0.63,2.14,1.36,2.87s1.67,1.09,2.83,1.09c1.31,0,2.34-0.39,3.09-1.18l2.2,2.17
			c-0.81,0.7-1.65,1.21-2.51,1.55c-0.87,0.33-1.86,0.5-2.97,0.5c-1.14,0-2.19-0.19-3.16-0.58c-0.97-0.39-1.81-0.93-2.53-1.63
			c-0.71-0.7-1.27-1.54-1.68-2.53c-0.4-0.98-0.61-2.08-0.61-3.29c0-1.19,0.18-2.28,0.54-3.26c0.36-0.98,0.86-1.82,1.5-2.53
			c0.65-0.7,1.42-1.25,2.31-1.63c0.9-0.38,1.87-0.58,2.93-0.58c1,0,1.94,0.17,2.8,0.52s1.62,0.87,2.25,1.56
			c0.63,0.69,1.13,1.56,1.5,2.6c0.37,1.04,0.55,2.24,0.55,3.61v0.75H132.36z M138.86,586.92c-0.15-1.04-0.5-1.88-1.04-2.51
			c-0.54-0.64-1.25-0.95-2.14-0.95c-0.85,0-1.56,0.31-2.15,0.94c-0.59,0.63-0.96,1.47-1.11,2.53H138.86z"/>
		<path fill="#5A7CBD" d="M145.96,578.51v-3.64h3.84v3.64H145.96z M145.99,596.27v-15.39h3.75v15.39H145.99z"/>
		<path fill="#5A7CBD" d="M173.19,596.27v-9.1c0-2.31-0.85-3.47-2.56-3.47c-0.38,0-0.76,0.1-1.12,0.3c-0.36,0.2-0.69,0.5-0.98,0.89
			c-0.29,0.4-0.52,0.89-0.69,1.47c-0.17,0.59-0.26,1.27-0.26,2.04v7.86h-3.75v-9.1c0-2.31-0.86-3.47-2.57-3.47
			c-0.38,0-0.76,0.1-1.13,0.3c-0.37,0.2-0.69,0.5-0.98,0.89c-0.29,0.4-0.52,0.89-0.69,1.47c-0.17,0.59-0.26,1.27-0.26,2.04v7.86
			h-3.75v-15.39h3.64v2.4c0.39-0.87,0.93-1.54,1.62-2.01c0.7-0.47,1.57-0.71,2.63-0.71c0.64,0,1.21,0.09,1.72,0.27
			c0.51,0.18,0.96,0.42,1.35,0.71c0.39,0.29,0.71,0.62,0.97,0.98c0.26,0.37,0.48,0.74,0.65,1.13c0.46-0.96,1.08-1.72,1.85-2.27
			c0.77-0.55,1.71-0.82,2.83-0.82c0.79,0,1.51,0.14,2.15,0.43c0.65,0.29,1.19,0.69,1.65,1.21c0.45,0.52,0.8,1.15,1.05,1.89
			c0.25,0.74,0.38,1.57,0.38,2.5v9.67H173.19z"/>
		<path fill="#5A7CBD" d="M184.46,589.6c0.17,1.18,0.63,2.14,1.36,2.87s1.67,1.09,2.83,1.09c1.31,0,2.34-0.39,3.09-1.18l2.2,2.17
			c-0.81,0.7-1.65,1.21-2.51,1.55c-0.87,0.33-1.86,0.5-2.97,0.5c-1.14,0-2.19-0.19-3.16-0.58c-0.97-0.39-1.81-0.93-2.53-1.63
			c-0.71-0.7-1.27-1.54-1.68-2.53c-0.4-0.98-0.61-2.08-0.61-3.29c0-1.19,0.18-2.28,0.54-3.26c0.36-0.98,0.86-1.82,1.5-2.53
			c0.65-0.7,1.42-1.25,2.31-1.63c0.9-0.38,1.87-0.58,2.93-0.58c1,0,1.94,0.17,2.8,0.52s1.62,0.87,2.25,1.56
			c0.63,0.69,1.13,1.56,1.5,2.6c0.37,1.04,0.55,2.24,0.55,3.61v0.75H184.46z M190.95,586.92c-0.15-1.04-0.5-1.88-1.04-2.51
			c-0.54-0.64-1.25-0.95-2.14-0.95c-0.85,0-1.56,0.31-2.15,0.94c-0.59,0.63-0.96,1.47-1.11,2.53H190.95z"/>
	</g>
</g>
<g>
	<circle fill="#93AFDB" stroke="#5A7CBD" stroke-width="2.5" stroke-miterlimit="10" cx="601.25" cy="83.75" r="82.5"/>
	<g>
		<path fill="#5A7CBD" d="M571.91,60.77c0,0.91-0.17,1.75-0.5,2.53c-0.34,0.78-0.82,1.45-1.44,2.02c-0.62,0.57-1.37,1.02-2.25,1.34
			c-0.87,0.33-1.84,0.49-2.89,0.49h-3.51v8.63h-4.1v-21.4h7.59c1.06,0,2.03,0.17,2.9,0.51s1.63,0.79,2.25,1.37
			c0.63,0.58,1.11,1.25,1.44,2.02C571.74,59.06,571.91,59.88,571.91,60.77z M567.75,60.77c0-0.84-0.28-1.55-0.85-2.14
			c-0.57-0.59-1.38-0.89-2.46-0.89h-3.13v6.06h3.13c1.07,0,1.89-0.29,2.46-0.88S567.75,61.63,567.75,60.77z"/>
		<path fill="#5A7CBD" d="M582.61,63.43c-0.43,0-0.82,0.05-1.17,0.14c-0.91,0.19-1.6,0.67-2.08,1.44c-0.48,0.77-0.72,1.81-0.72,3.12
			v7.65h-3.75V60.39h3.64v2.34c0.4-0.85,1.02-1.5,1.85-1.96c0.83-0.46,1.98-0.69,3.47-0.69v3.41
			C583.45,63.45,583.04,63.43,582.61,63.43z"/>
		<path fill="#5A7CBD" d="M586.61,58.03v-3.64h3.84v3.64H586.61z M586.64,75.79V60.39h3.75v15.39H586.64z"/>
		<path fill="#5A7CBD" d="M602.9,75.79h-4.1l-6.04-15.39h4.13l3.93,11.46l4.13-11.46h4.1L602.9,75.79z"/>
		<path fill="#5A7CBD" d="M620.17,75.79v-2.34c-0.38,0.83-0.97,1.48-1.75,1.95c-0.78,0.47-1.75,0.71-2.9,0.71
			c-0.73,0-1.41-0.12-2.02-0.36c-0.62-0.24-1.15-0.57-1.6-0.98c-0.45-0.41-0.81-0.9-1.07-1.44c-0.26-0.55-0.39-1.13-0.39-1.75
			c0-0.65,0.14-1.29,0.42-1.89s0.71-1.14,1.3-1.6c0.59-0.46,1.34-0.83,2.25-1.1c0.91-0.27,2-0.4,3.25-0.4h2.4c0-0.04,0-0.12,0-0.26
			s0-0.27,0-0.42c0-0.14,0-0.28-0.01-0.4s-0.03-0.2-0.07-0.21c-0.06-0.63-0.38-1.17-0.97-1.62c-0.59-0.45-1.31-0.67-2.18-0.67
			c-0.71,0-1.35,0.12-1.91,0.35c-0.56,0.23-1.06,0.54-1.5,0.92l-2.17-2.17c0.75-0.64,1.6-1.16,2.56-1.54
			c0.95-0.39,2.07-0.58,3.36-0.58c1.06,0,2,0.14,2.82,0.43c0.82,0.29,1.51,0.69,2.08,1.21c0.57,0.52,1,1.13,1.3,1.82
			c0.3,0.69,0.45,1.44,0.45,2.25v10.11H620.17z M620.05,69h-2.54c-0.58,0-1.07,0.07-1.47,0.2s-0.74,0.31-1.01,0.53
			c-0.27,0.22-0.47,0.47-0.59,0.74s-0.19,0.54-0.19,0.81c0,0.54,0.19,1.01,0.56,1.4c0.38,0.39,0.97,0.59,1.78,0.59
			c1.02,0,1.85-0.34,2.5-1.03c0.65-0.68,0.97-1.61,0.97-2.79V69z"/>
		<path fill="#5A7CBD" d="M634.4,75.99c-0.75,0-1.42-0.12-2.01-0.35c-0.59-0.23-1.09-0.54-1.5-0.92c-0.41-0.38-0.73-0.84-0.94-1.36
			c-0.21-0.52-0.32-1.07-0.32-1.65v-8.35h-2.92v-2.97h2.92V56h3.75v4.39h3.58v2.97h-3.58v7.83c0,0.58,0.16,1.03,0.48,1.34
			c0.32,0.32,0.84,0.48,1.57,0.48c0.27,0,0.55-0.03,0.85-0.09c0.3-0.06,0.58-0.13,0.85-0.23v2.97
			C636.4,75.88,635.48,75.99,634.4,75.99z"/>
		<path fill="#5A7CBD" d="M639.2,69.12v-2.69h7.39v2.69H639.2z"/>
		<path fill="#5A7CBD" d="M552.5,110.44v-9.07h-7.88v9.07h-4.1v-21.4h4.1v8.98h7.88v-8.98h4.04v21.4H552.5z"/>
		<path fill="#5A7CBD" d="M570.24,110.44v-2.34c-0.39,0.83-0.97,1.48-1.75,1.95s-1.75,0.71-2.9,0.71c-0.73,0-1.41-0.12-2.02-0.36
			c-0.62-0.24-1.15-0.57-1.6-0.98c-0.45-0.41-0.81-0.9-1.07-1.44c-0.26-0.55-0.39-1.13-0.39-1.75c0-0.65,0.14-1.29,0.42-1.89
			s0.71-1.14,1.3-1.6c0.59-0.46,1.34-0.83,2.25-1.1c0.91-0.27,2-0.4,3.25-0.4h2.4c0-0.04,0-0.12,0-0.26s0-0.27,0-0.42
			c0-0.14-0.01-0.28-0.01-0.4c-0.01-0.12-0.03-0.2-0.07-0.21c-0.06-0.63-0.38-1.17-0.97-1.62c-0.59-0.45-1.31-0.67-2.18-0.67
			c-0.71,0-1.35,0.12-1.91,0.35c-0.56,0.23-1.06,0.54-1.5,0.92l-2.17-2.17c0.75-0.64,1.6-1.16,2.56-1.54
			c0.95-0.39,2.07-0.58,3.36-0.58c1.06,0,2,0.14,2.82,0.43c0.82,0.29,1.51,0.69,2.08,1.21c0.57,0.52,1,1.13,1.3,1.82
			c0.3,0.69,0.45,1.44,0.45,2.25v10.11H570.24z M570.12,103.65h-2.54c-0.58,0-1.07,0.07-1.47,0.2s-0.74,0.31-1.01,0.53
			c-0.27,0.22-0.47,0.47-0.59,0.74c-0.13,0.27-0.19,0.54-0.19,0.81c0,0.54,0.19,1.01,0.56,1.4s0.97,0.59,1.78,0.59
			c1.02,0,1.85-0.34,2.5-1.03c0.65-0.68,0.97-1.61,0.97-2.79V103.65z"/>
		<path fill="#5A7CBD" d="M589.06,110.44v-2.37c-0.33,0.79-0.91,1.43-1.75,1.93c-0.84,0.5-1.85,0.75-3.05,0.75
			c-0.85,0-1.62-0.14-2.31-0.42c-0.69-0.28-1.29-0.68-1.79-1.21c-0.5-0.53-0.89-1.17-1.17-1.92c-0.28-0.75-0.42-1.6-0.42-2.54v-9.62
			h3.75v9.07c0,1.19,0.26,2.07,0.79,2.64c0.53,0.57,1.27,0.85,2.21,0.85c1.04,0,1.91-0.39,2.6-1.18c0.69-0.79,1.04-2.02,1.04-3.7
			v-7.68h3.75v15.39H589.06z"/>
		<path fill="#5A7CBD" d="M607.43,106.15c0,0.6-0.13,1.18-0.38,1.74s-0.62,1.07-1.13,1.51c-0.5,0.44-1.14,0.8-1.91,1.07
			c-0.77,0.27-1.68,0.4-2.74,0.4c-1.14,0-2.17-0.21-3.1-0.63c-0.93-0.42-1.7-0.93-2.3-1.53l2.17-2.17c0.33,0.33,0.77,0.63,1.34,0.9
			c0.57,0.27,1.2,0.4,1.89,0.4c0.81,0,1.42-0.16,1.85-0.48c0.42-0.32,0.63-0.71,0.63-1.17c0-0.5-0.18-0.89-0.55-1.17
			c-0.37-0.28-0.83-0.52-1.39-0.73c-0.56-0.21-1.16-0.42-1.79-0.63c-0.64-0.21-1.23-0.49-1.79-0.85c-0.56-0.36-1.02-0.82-1.39-1.38
			c-0.37-0.57-0.55-1.31-0.55-2.23c0-0.56,0.12-1.11,0.38-1.66c0.25-0.55,0.62-1.04,1.11-1.47s1.1-0.78,1.82-1.05
			c0.72-0.27,1.54-0.4,2.47-0.4c1.16,0,2.17,0.2,3.03,0.6s1.61,0.91,2.22,1.53l-2.17,2.2c-0.37-0.37-0.79-0.67-1.29-0.92
			c-0.49-0.25-1.06-0.38-1.72-0.38c-0.73,0-1.28,0.17-1.63,0.52c-0.36,0.35-0.53,0.7-0.53,1.07c0,0.4,0.18,0.73,0.55,0.96
			c0.37,0.24,0.82,0.46,1.37,0.66c0.55,0.2,1.15,0.41,1.79,0.63c0.64,0.22,1.24,0.52,1.79,0.89c0.55,0.37,1.01,0.86,1.37,1.46
			C607.25,104.44,607.43,105.21,607.43,106.15z"/>
		<path fill="#5A7CBD" d="M621.12,110.44v-9.1c0-1.17-0.26-2.05-0.79-2.61c-0.53-0.57-1.27-0.85-2.21-0.85
			c-1.04,0-1.91,0.39-2.6,1.17s-1.04,2.01-1.04,3.68v7.71h-3.75v-21.4h3.75l0.01,8.2c0.35-0.73,0.93-1.33,1.74-1.8
			s1.8-0.71,2.98-0.71c0.83,0,1.6,0.14,2.3,0.42s1.3,0.68,1.79,1.21c0.49,0.53,0.88,1.17,1.16,1.92c0.28,0.75,0.42,1.6,0.42,2.54
			v9.62H621.12z"/>
		<path fill="#5A7CBD" d="M638.33,110.44v-2.34c-0.38,0.83-0.97,1.48-1.75,1.95c-0.78,0.47-1.75,0.71-2.9,0.71
			c-0.73,0-1.41-0.12-2.02-0.36c-0.62-0.24-1.15-0.57-1.6-0.98c-0.45-0.41-0.81-0.9-1.07-1.44c-0.26-0.55-0.39-1.13-0.39-1.75
			c0-0.65,0.14-1.29,0.42-1.89s0.71-1.14,1.3-1.6c0.59-0.46,1.34-0.83,2.25-1.1c0.91-0.27,2-0.4,3.25-0.4h2.4c0-0.04,0-0.12,0-0.26
			s0-0.27,0-0.42c0-0.14,0-0.28-0.01-0.4s-0.03-0.2-0.07-0.21c-0.06-0.63-0.38-1.17-0.97-1.62c-0.59-0.45-1.31-0.67-2.18-0.67
			c-0.71,0-1.35,0.12-1.91,0.35c-0.56,0.23-1.06,0.54-1.5,0.92l-2.17-2.17c0.75-0.64,1.6-1.16,2.56-1.54
			c0.95-0.39,2.07-0.58,3.36-0.58c1.06,0,2,0.14,2.82,0.43c0.82,0.29,1.51,0.69,2.08,1.21c0.57,0.52,1,1.13,1.3,1.82
			c0.3,0.69,0.45,1.44,0.45,2.25v10.11H638.33z M638.21,103.65h-2.54c-0.58,0-1.07,0.07-1.47,0.2s-0.74,0.31-1.01,0.53
			c-0.27,0.22-0.47,0.47-0.59,0.74s-0.19,0.54-0.19,0.81c0,0.54,0.19,1.01,0.56,1.4c0.38,0.39,0.97,0.59,1.78,0.59
			c1.02,0,1.85-0.34,2.5-1.03c0.65-0.68,0.97-1.61,0.97-2.79V103.65z"/>
		<path fill="#5A7CBD" d="M646.68,110.44v-21.4h3.75v21.4H646.68z"/>
		<path fill="#5A7CBD" d="M661.03,110.64c-0.75,0-1.42-0.12-2.01-0.35c-0.59-0.23-1.09-0.54-1.5-0.92s-0.73-0.84-0.94-1.36
			s-0.32-1.07-0.32-1.65v-8.35h-2.92v-2.97h2.92v-4.39h3.75v4.39h3.58v2.97h-3.58v7.83c0,0.58,0.16,1.03,0.48,1.34
			s0.84,0.48,1.57,0.48c0.27,0,0.55-0.03,0.85-0.09c0.3-0.06,0.58-0.13,0.85-0.23v2.97C663.02,110.54,662.11,110.64,661.03,110.64z"
			/>
	</g>
</g>
<g>
	<circle fill="#93AFDB" stroke="#5A7CBD" stroke-width="2.5" stroke-miterlimit="10" cx="601.75" cy="569.58" r="84"/>
	<g>
		<path fill="#5A7CBD" d="M549.52,563.93c0,0.9-0.17,1.75-0.5,2.53s-0.82,1.45-1.44,2.02c-0.62,0.57-1.37,1.02-2.25,1.34
			c-0.87,0.33-1.84,0.49-2.89,0.49h-3.51v8.63h-4.1v-21.4h7.59c1.06,0,2.03,0.17,2.9,0.51s1.63,0.79,2.25,1.37
			c0.63,0.58,1.11,1.25,1.44,2.02C549.36,562.22,549.52,563.04,549.52,563.93z M545.37,563.93c0-0.84-0.28-1.55-0.85-2.14
			s-1.38-0.89-2.46-0.89h-3.13v6.06h3.13c1.07,0,1.89-0.29,2.46-0.88S545.37,564.79,545.37,563.93z"/>
		<path fill="#5A7CBD" d="M561.28,578.95v-2.34c-0.39,0.83-0.97,1.48-1.75,1.95c-0.78,0.47-1.75,0.71-2.9,0.71
			c-0.73,0-1.41-0.12-2.02-0.36c-0.62-0.24-1.15-0.57-1.6-0.98c-0.45-0.41-0.81-0.9-1.07-1.44c-0.26-0.55-0.39-1.13-0.39-1.75
			c0-0.65,0.14-1.29,0.42-1.89s0.71-1.14,1.3-1.6c0.59-0.46,1.34-0.83,2.25-1.1c0.91-0.27,2-0.4,3.25-0.4h2.4c0-0.04,0-0.12,0-0.26
			c0-0.13,0-0.27,0-0.42c0-0.14-0.01-0.28-0.01-0.4c-0.01-0.12-0.03-0.2-0.07-0.22c-0.06-0.63-0.38-1.17-0.97-1.62
			c-0.59-0.45-1.31-0.67-2.18-0.67c-0.71,0-1.35,0.12-1.91,0.35c-0.56,0.23-1.06,0.54-1.5,0.92l-2.17-2.17
			c0.75-0.64,1.6-1.16,2.56-1.54s2.07-0.58,3.36-0.58c1.06,0,2,0.14,2.82,0.43c0.82,0.29,1.51,0.69,2.08,1.21
			c0.57,0.52,1,1.13,1.3,1.82c0.3,0.69,0.45,1.44,0.45,2.25v10.11H561.28z M561.16,572.16h-2.54c-0.58,0-1.07,0.07-1.47,0.2
			c-0.4,0.14-0.74,0.31-1.01,0.54c-0.27,0.22-0.47,0.47-0.59,0.74c-0.13,0.27-0.19,0.54-0.19,0.81c0,0.54,0.19,1.01,0.56,1.4
			c0.38,0.39,0.97,0.59,1.78,0.59c1.02,0,1.85-0.34,2.5-1.03c0.64-0.68,0.97-1.61,0.97-2.79V572.16z"/>
		<path fill="#5A7CBD" d="M575.51,579.15c-0.75,0-1.42-0.12-2.01-0.35c-0.59-0.23-1.09-0.54-1.5-0.92
			c-0.41-0.39-0.73-0.84-0.94-1.36c-0.21-0.52-0.32-1.07-0.32-1.65v-8.35h-2.92v-2.97h2.92v-4.39h3.75v4.39h3.58v2.97h-3.58v7.83
			c0,0.58,0.16,1.03,0.48,1.34c0.32,0.32,0.84,0.48,1.57,0.48c0.27,0,0.55-0.03,0.85-0.09c0.3-0.06,0.58-0.13,0.85-0.23v2.97
			C577.51,579.04,576.59,579.15,575.51,579.15z"/>
		<path fill="#5A7CBD" d="M581.35,561.19v-3.64h3.84v3.64H581.35z M581.38,578.95v-15.39h3.75v15.39H581.38z"/>
		<path fill="#5A7CBD" d="M592.67,572.28c0.17,1.18,0.62,2.14,1.36,2.87c0.73,0.73,1.67,1.09,2.83,1.09c1.31,0,2.34-0.39,3.09-1.18
			l2.2,2.17c-0.81,0.7-1.65,1.21-2.51,1.55c-0.87,0.33-1.86,0.5-2.97,0.5c-1.14,0-2.19-0.19-3.16-0.58
			c-0.97-0.39-1.82-0.93-2.53-1.63s-1.27-1.54-1.67-2.53c-0.4-0.98-0.61-2.08-0.61-3.29c0-1.19,0.18-2.28,0.53-3.26
			c0.36-0.98,0.86-1.82,1.5-2.53c0.64-0.7,1.42-1.25,2.31-1.63c0.89-0.38,1.87-0.58,2.93-0.58c1,0,1.94,0.17,2.8,0.52
			s1.62,0.87,2.25,1.56c0.64,0.69,1.14,1.56,1.5,2.6c0.37,1.04,0.55,2.24,0.55,3.61v0.75H592.67z M599.17,569.59
			c-0.15-1.04-0.5-1.88-1.04-2.51c-0.54-0.64-1.25-0.95-2.14-0.95c-0.85,0-1.56,0.31-2.15,0.94c-0.59,0.63-0.96,1.47-1.11,2.53
			H599.17z"/>
		<path fill="#5A7CBD" d="M616.69,578.95v-9.1c0-1.17-0.26-2.05-0.79-2.61c-0.53-0.57-1.27-0.85-2.21-0.85
			c-1.04,0-1.91,0.39-2.6,1.17c-0.69,0.78-1.04,2.01-1.04,3.68v7.71h-3.75v-15.39h3.64v2.37c0.35-0.81,0.94-1.46,1.77-1.95
			s1.85-0.74,3.07-0.74c0.83,0,1.6,0.14,2.3,0.42s1.3,0.68,1.79,1.21s0.88,1.17,1.16,1.92c0.28,0.75,0.42,1.6,0.42,2.54v9.62H616.69
			z"/>
		<path fill="#5A7CBD" d="M631.02,579.15c-0.75,0-1.42-0.12-2.01-0.35c-0.59-0.23-1.09-0.54-1.5-0.92
			c-0.41-0.39-0.73-0.84-0.94-1.36c-0.21-0.52-0.32-1.07-0.32-1.65v-8.35h-2.92v-2.97h2.92v-4.39h3.75v4.39h3.58v2.97h-3.58v7.83
			c0,0.58,0.16,1.03,0.48,1.34c0.32,0.32,0.84,0.48,1.57,0.48c0.27,0,0.55-0.03,0.85-0.09c0.3-0.06,0.58-0.13,0.85-0.23v2.97
			C633.01,579.04,632.1,579.15,631.02,579.15z"/>
		<path fill="#5A7CBD" d="M637.54,580.02h-2.46l5.86-23.54h2.46L637.54,580.02z"/>
		<path fill="#5A7CBD" d="M646.27,561.19v-3.64h3.84v3.64H646.27z M646.29,578.95v-15.39h3.75v15.39H646.29z"/>
		<path fill="#5A7CBD" d="M665.15,578.95v-9.1c0-1.17-0.26-2.05-0.79-2.61c-0.53-0.57-1.27-0.85-2.21-0.85
			c-1.04,0-1.91,0.39-2.6,1.17c-0.69,0.78-1.04,2.01-1.04,3.68v7.71h-3.75v-15.39h3.64v2.37c0.35-0.81,0.94-1.46,1.77-1.95
			c0.83-0.49,1.85-0.74,3.07-0.74c0.83,0,1.6,0.14,2.3,0.42c0.71,0.28,1.3,0.68,1.8,1.21s0.88,1.17,1.16,1.92
			c0.28,0.75,0.42,1.6,0.42,2.54v9.62H665.15z"/>
	</g>
</g>
<g>
	<circle fill="#93AFDB" stroke="#5A7CBD" stroke-width="2.5" stroke-miterlimit="10" cx="359.98" cy="321.04" r="84"/>
	<g>
		<path fill="#5A7CBD" d="M307.75,315.39c0,0.9-0.17,1.75-0.5,2.53c-0.34,0.78-0.82,1.45-1.44,2.02s-1.37,1.02-2.25,1.34
			c-0.87,0.33-1.84,0.49-2.89,0.49h-3.51v8.63h-4.1V309h7.59c1.06,0,2.03,0.17,2.9,0.51c0.88,0.34,1.63,0.79,2.25,1.37
			s1.11,1.25,1.44,2.02C307.58,313.67,307.75,314.5,307.75,315.39z M303.59,315.39c0-0.84-0.28-1.55-0.85-2.14s-1.38-0.89-2.46-0.89
			h-3.13v6.06h3.13c1.07,0,1.89-0.29,2.46-0.87S303.59,316.24,303.59,315.39z"/>
		<path fill="#5A7CBD" d="M319.5,330.4v-2.34c-0.39,0.83-0.97,1.48-1.75,1.95c-0.78,0.47-1.75,0.71-2.9,0.71
			c-0.73,0-1.41-0.12-2.02-0.36c-0.62-0.24-1.15-0.57-1.6-0.98c-0.45-0.41-0.81-0.9-1.07-1.44c-0.26-0.55-0.39-1.13-0.39-1.75
			c0-0.65,0.14-1.29,0.42-1.89s0.71-1.14,1.3-1.6c0.59-0.46,1.34-0.83,2.25-1.1c0.91-0.27,2-0.4,3.25-0.4h2.4c0-0.04,0-0.12,0-0.26
			c0-0.13,0-0.27,0-0.42s-0.01-0.28-0.01-0.4c-0.01-0.12-0.03-0.2-0.07-0.22c-0.06-0.63-0.38-1.17-0.97-1.62
			c-0.59-0.45-1.31-0.67-2.18-0.67c-0.71,0-1.35,0.12-1.91,0.35c-0.56,0.23-1.06,0.54-1.5,0.92l-2.17-2.17
			c0.75-0.64,1.6-1.16,2.56-1.55c0.95-0.39,2.07-0.58,3.36-0.58c1.06,0,2,0.14,2.82,0.43c0.82,0.29,1.51,0.69,2.08,1.21
			c0.57,0.52,1,1.13,1.3,1.82c0.3,0.69,0.45,1.44,0.45,2.25v10.11H319.5z M319.39,323.62h-2.54c-0.58,0-1.07,0.07-1.47,0.2
			c-0.4,0.14-0.74,0.31-1.01,0.53c-0.27,0.22-0.47,0.47-0.59,0.74c-0.13,0.27-0.19,0.54-0.19,0.81c0,0.54,0.19,1.01,0.56,1.4
			c0.38,0.4,0.97,0.59,1.78,0.59c1.02,0,1.85-0.34,2.5-1.03c0.65-0.68,0.97-1.61,0.97-2.79V323.62z"/>
		<path fill="#5A7CBD" d="M333.74,330.6c-0.75,0-1.42-0.12-2.01-0.35s-1.09-0.54-1.5-0.92c-0.41-0.39-0.73-0.84-0.94-1.36
			c-0.21-0.52-0.32-1.07-0.32-1.65v-8.35h-2.92v-2.97h2.92v-4.39h3.75v4.39h3.58v2.97h-3.58v7.83c0,0.58,0.16,1.03,0.48,1.34
			c0.32,0.32,0.84,0.48,1.57,0.48c0.27,0,0.55-0.03,0.85-0.09c0.3-0.06,0.58-0.13,0.85-0.23v2.97
			C335.73,330.5,334.82,330.6,333.74,330.6z"/>
		<path fill="#5A7CBD" d="M339.57,312.64V309h3.84v3.64H339.57z M339.6,330.4v-15.39h3.75v15.39H339.6z"/>
		<path fill="#5A7CBD" d="M350.89,323.73c0.17,1.19,0.62,2.14,1.36,2.87c0.73,0.73,1.68,1.09,2.83,1.09c1.31,0,2.34-0.39,3.09-1.18
			l2.19,2.18c-0.81,0.7-1.65,1.21-2.51,1.55c-0.87,0.33-1.86,0.5-2.97,0.5c-1.14,0-2.19-0.19-3.16-0.58
			c-0.97-0.39-1.81-0.93-2.53-1.63c-0.71-0.7-1.27-1.54-1.67-2.53s-0.61-2.08-0.61-3.29c0-1.19,0.18-2.28,0.53-3.26
			c0.36-0.98,0.86-1.82,1.5-2.53s1.42-1.25,2.31-1.63c0.9-0.38,1.87-0.58,2.93-0.58c1,0,1.94,0.17,2.8,0.52
			c0.87,0.35,1.62,0.87,2.25,1.56c0.64,0.69,1.14,1.56,1.5,2.6s0.55,2.24,0.55,3.61v0.75H350.89z M357.39,321.05
			c-0.15-1.04-0.5-1.88-1.04-2.51c-0.54-0.64-1.25-0.95-2.14-0.95c-0.85,0-1.56,0.31-2.15,0.94c-0.59,0.63-0.96,1.47-1.11,2.53
			H357.39z"/>
		<path fill="#5A7CBD" d="M374.92,330.4v-9.1c0-1.17-0.26-2.05-0.79-2.61c-0.53-0.57-1.27-0.85-2.21-0.85
			c-1.04,0-1.91,0.39-2.6,1.17c-0.69,0.78-1.04,2.01-1.04,3.68v7.71h-3.75v-15.39h3.64v2.37c0.35-0.81,0.94-1.46,1.77-1.95
			c0.83-0.49,1.85-0.74,3.07-0.74c0.83,0,1.6,0.14,2.3,0.42c0.71,0.28,1.3,0.68,1.8,1.21c0.49,0.53,0.88,1.17,1.16,1.92
			c0.28,0.75,0.42,1.6,0.42,2.54v9.62H374.92z"/>
		<path fill="#5A7CBD" d="M389.24,330.6c-0.75,0-1.42-0.12-2.01-0.35s-1.09-0.54-1.5-0.92c-0.41-0.39-0.73-0.84-0.94-1.36
			c-0.21-0.52-0.32-1.07-0.32-1.65v-8.35h-2.92v-2.97h2.92v-4.39h3.75v4.39h3.58v2.97h-3.58v7.83c0,0.58,0.16,1.03,0.48,1.34
			c0.32,0.32,0.84,0.48,1.57,0.48c0.27,0,0.55-0.03,0.85-0.09c0.3-0.06,0.58-0.13,0.85-0.23v2.97
			C391.24,330.5,390.32,330.6,389.24,330.6z"/>
		<path fill="#5A7CBD" d="M395.77,331.47h-2.45l5.86-23.54h2.45L395.77,331.47z"/>
		<path fill="#5A7CBD" d="M404.49,312.64V309h3.84v3.64H404.49z M404.52,330.4v-15.39h3.75v15.39H404.52z"/>
		<path fill="#5A7CBD" d="M423.38,330.4v-9.1c0-1.17-0.26-2.05-0.79-2.61c-0.53-0.57-1.27-0.85-2.21-0.85
			c-1.04,0-1.91,0.39-2.6,1.17c-0.69,0.78-1.04,2.01-1.04,3.68v7.71h-3.75v-15.39h3.64v2.37c0.35-0.81,0.94-1.46,1.77-1.95
			c0.83-0.49,1.85-0.74,3.07-0.74c0.83,0,1.6,0.14,2.3,0.42c0.71,0.28,1.3,0.68,1.8,1.21c0.49,0.53,0.88,1.17,1.16,1.92
			c0.28,0.75,0.42,1.6,0.42,2.54v9.62H423.38z"/>
	</g>
</g>
<g>
	<circle fill="#93AFDB" stroke="#5A7CBD" stroke-width="2.5" stroke-miterlimit="10" cx="842.02" cy="321.04" r="84"/>
	<g>
		<path fill="#5A7CBD" d="M789.8,315.39c0,0.9-0.17,1.75-0.5,2.53c-0.34,0.78-0.82,1.45-1.44,2.02s-1.37,1.02-2.25,1.34
			c-0.87,0.33-1.84,0.49-2.89,0.49h-3.51v8.63h-4.1V309h7.59c1.06,0,2.03,0.17,2.9,0.51c0.88,0.34,1.63,0.79,2.25,1.37
			c0.63,0.58,1.11,1.25,1.44,2.02C789.63,313.67,789.8,314.5,789.8,315.39z M785.64,315.39c0-0.84-0.28-1.55-0.85-2.14
			s-1.38-0.89-2.46-0.89h-3.13v6.06h3.13c1.07,0,1.89-0.29,2.46-0.87S785.64,316.24,785.64,315.39z"/>
		<path fill="#5A7CBD" d="M801.55,330.4v-2.34c-0.39,0.83-0.97,1.48-1.75,1.95c-0.78,0.47-1.75,0.71-2.9,0.71
			c-0.73,0-1.41-0.12-2.02-0.36c-0.62-0.24-1.15-0.57-1.6-0.98c-0.45-0.41-0.81-0.9-1.07-1.44c-0.26-0.55-0.39-1.13-0.39-1.75
			c0-0.65,0.14-1.29,0.42-1.89s0.71-1.14,1.3-1.6c0.59-0.46,1.34-0.83,2.25-1.1c0.91-0.27,2-0.4,3.25-0.4h2.4c0-0.04,0-0.12,0-0.26
			c0-0.13,0-0.27,0-0.42s-0.01-0.28-0.01-0.4c-0.01-0.12-0.03-0.2-0.07-0.22c-0.06-0.63-0.38-1.17-0.97-1.62
			c-0.59-0.45-1.31-0.67-2.18-0.67c-0.71,0-1.35,0.12-1.91,0.35c-0.56,0.23-1.06,0.54-1.5,0.92l-2.17-2.17
			c0.75-0.64,1.6-1.16,2.56-1.55c0.95-0.39,2.07-0.58,3.36-0.58c1.06,0,2,0.14,2.82,0.43c0.82,0.29,1.51,0.69,2.08,1.21
			c0.57,0.52,1,1.13,1.3,1.82c0.3,0.69,0.45,1.44,0.45,2.25v10.11H801.55z M801.44,323.62h-2.54c-0.58,0-1.07,0.07-1.47,0.2
			c-0.4,0.14-0.74,0.31-1.01,0.53s-0.47,0.47-0.59,0.74c-0.13,0.27-0.19,0.54-0.19,0.81c0,0.54,0.19,1.01,0.56,1.4
			c0.38,0.4,0.97,0.59,1.78,0.59c1.02,0,1.85-0.34,2.5-1.03c0.64-0.68,0.97-1.61,0.97-2.79V323.62z"/>
		<path fill="#5A7CBD" d="M815.79,330.6c-0.75,0-1.42-0.12-2.01-0.35c-0.59-0.23-1.09-0.54-1.5-0.92c-0.41-0.39-0.73-0.84-0.94-1.36
			c-0.21-0.52-0.32-1.07-0.32-1.65v-8.35h-2.92v-2.97h2.92v-4.39h3.75v4.39h3.58v2.97h-3.58v7.83c0,0.58,0.16,1.03,0.48,1.34
			c0.32,0.32,0.84,0.48,1.57,0.48c0.27,0,0.55-0.03,0.85-0.09c0.3-0.06,0.58-0.13,0.85-0.23v2.97
			C817.78,330.5,816.87,330.6,815.79,330.6z"/>
		<path fill="#5A7CBD" d="M821.62,312.64V309h3.84v3.64H821.62z M821.65,330.4v-15.39h3.75v15.39H821.65z"/>
		<path fill="#5A7CBD" d="M832.94,323.73c0.17,1.19,0.62,2.14,1.36,2.87c0.73,0.73,1.67,1.09,2.83,1.09c1.31,0,2.34-0.39,3.09-1.18
			l2.2,2.18c-0.81,0.7-1.65,1.21-2.51,1.55c-0.87,0.33-1.86,0.5-2.97,0.5c-1.14,0-2.19-0.19-3.16-0.58
			c-0.97-0.39-1.82-0.93-2.53-1.63c-0.71-0.7-1.27-1.54-1.67-2.53s-0.61-2.08-0.61-3.29c0-1.19,0.18-2.28,0.53-3.26
			c0.36-0.98,0.86-1.82,1.5-2.53c0.64-0.7,1.42-1.25,2.31-1.63c0.89-0.38,1.87-0.58,2.93-0.58c1,0,1.94,0.17,2.8,0.52
			c0.87,0.35,1.62,0.87,2.25,1.56c0.64,0.69,1.14,1.56,1.5,2.6c0.37,1.04,0.55,2.24,0.55,3.61v0.75H832.94z M839.44,321.05
			c-0.15-1.04-0.5-1.88-1.04-2.51s-1.25-0.95-2.14-0.95c-0.85,0-1.56,0.31-2.15,0.94c-0.59,0.63-0.96,1.47-1.11,2.53H839.44z"/>
		<path fill="#5A7CBD" d="M856.97,330.4v-9.1c0-1.17-0.26-2.05-0.79-2.61c-0.53-0.57-1.27-0.85-2.21-0.85
			c-1.04,0-1.91,0.39-2.6,1.17c-0.69,0.78-1.04,2.01-1.04,3.68v7.71h-3.75v-15.39h3.64v2.37c0.35-0.81,0.94-1.46,1.77-1.95
			c0.83-0.49,1.85-0.74,3.07-0.74c0.83,0,1.6,0.14,2.3,0.42c0.71,0.28,1.3,0.68,1.79,1.21c0.49,0.53,0.88,1.17,1.16,1.92
			c0.28,0.75,0.42,1.6,0.42,2.54v9.62H856.97z"/>
		<path fill="#5A7CBD" d="M871.29,330.6c-0.75,0-1.42-0.12-2.01-0.35c-0.59-0.23-1.09-0.54-1.5-0.92c-0.41-0.39-0.73-0.84-0.94-1.36
			c-0.21-0.52-0.32-1.07-0.32-1.65v-8.35h-2.92v-2.97h2.92v-4.39h3.75v4.39h3.58v2.97h-3.58v7.83c0,0.58,0.16,1.03,0.48,1.34
			c0.32,0.32,0.84,0.48,1.57,0.48c0.27,0,0.55-0.03,0.85-0.09c0.3-0.06,0.58-0.13,0.85-0.23v2.97
			C873.29,330.5,872.37,330.6,871.29,330.6z"/>
		<path fill="#5A7CBD" d="M877.82,331.47h-2.46l5.86-23.54h2.46L877.82,331.47z"/>
		<path fill="#5A7CBD" d="M886.54,312.64V309h3.84v3.64H886.54z M886.57,330.4v-15.39h3.75v15.39H886.57z"/>
		<path fill="#5A7CBD" d="M905.43,330.4v-9.1c0-1.17-0.26-2.05-0.79-2.61c-0.53-0.57-1.27-0.85-2.21-0.85
			c-1.04,0-1.91,0.39-2.6,1.17s-1.04,2.01-1.04,3.68v7.71h-3.75v-15.39h3.64v2.37c0.35-0.81,0.94-1.46,1.77-1.95
			c0.83-0.49,1.85-0.74,3.07-0.74c0.83,0,1.6,0.14,2.3,0.42c0.71,0.28,1.3,0.68,1.8,1.21c0.49,0.53,0.88,1.17,1.16,1.92
			c0.28,0.75,0.42,1.6,0.42,2.54v9.62H905.43z"/>
	</g>
</g>
<g>
	<g>
		<line fill="none" stroke="#5A7CBD" stroke-width="2.5" stroke-miterlimit="10" x1="970.31" y1="569.58" x2="685.75" y2="569.58"/>
		<g>
			<polygon fill="#5A7CBD" points="966.66,557.12 988.25,569.58 966.66,582.04 			"/>
		</g>
	</g>
</g>
<g>
	<g>
		<line fill="none" stroke="#5A7CBD" stroke-width="2.5" stroke-miterlimit="10" x1="517.75" y1="569.58" x2="231.19" y2="569.58"/>
		<g>
			<polygon fill="#5A7CBD" points="234.84,557.12 213.25,569.58 234.84,582.04 			"/>
		</g>
	</g>
</g>
<g>
	<g>
		<line fill="none" stroke="#5A7CBD" stroke-width="2.5" stroke-miterlimit="10" x1="502.41" y1="390.85" x2="220.21" y2="518.5"/>
		<g>
			<polygon fill="#5A7CBD" points="218.39,505.64 203.86,525.89 228.67,528.35 			"/>
		</g>
	</g>
</g>
<g>
	<g>
		<line fill="none" stroke="#5A7CBD" stroke-width="2.5" stroke-miterlimit="10" x1="981.4" y1="518.16" x2="701.03" y2="390.96"/>
		<g>
			<polygon fill="#5A7CBD" points="983.23,505.3 997.74,525.57 972.93,528 			"/>
		</g>
	</g>
</g>
<g>
	<g>
		<line fill="none" stroke="#5A7CBD" stroke-width="2.5" stroke-miterlimit="10" x1="601.44" y1="236.92" x2="601.29" y2="184.19"/>
		<g>
			<polygon fill="#5A7CBD" points="613.77,187.8 601.24,166.25 588.84,187.87 			"/>
		</g>
	</g>
</g>
<g>
	<g>
		<line fill="none" stroke="#5A7CBD" stroke-width="2.5" stroke-miterlimit="10" x1="529.64" y1="154.18" x2="419.87" y2="262.14"/>
		<g>
			<polygon fill="#5A7CBD" points="518.3,147.85 542.43,141.6 535.78,165.62 			"/>
		</g>
	</g>
</g>
<g>
	<g>
		<line fill="none" stroke="#5A7CBD" stroke-width="2.5" stroke-miterlimit="10" x1="300.09" y1="379.94" x2="195.61" y2="482.68"/>
		<g>
			<polygon fill="#5A7CBD" points="189.47,471.24 182.82,495.26 206.95,489.01 			"/>
		</g>
	</g>
</g>
<g>
	<g>
		
			<line fill="none" stroke="#5A7CBD" stroke-width="2.5" stroke-miterlimit="10" x1="1006.04" y1="482.33" x2="901.91" y2="379.94"/>
		<g>
			<polygon fill="#5A7CBD" points="1012.18,470.89 1018.83,494.91 994.7,488.66 			"/>
		</g>
	</g>
</g>
<g>
	<g>
		<line fill="none" stroke="#5A7CBD" stroke-width="2.5" stroke-miterlimit="10" x1="782.13" y1="262.14" x2="672.61" y2="154.43"/>
		<g>
			<polygon fill="#5A7CBD" points="683.95,148.1 659.82,141.85 666.47,165.87 			"/>
		</g>
	</g>
</g>
<line fill="none" stroke="#5A7CBD" stroke-width="2.5" stroke-miterlimit="10" x1="994.88" y1="606.65" x2="647.18" y2="735.73"/>
<path fill="none" stroke="#5A7CBD" stroke-width="2.5" stroke-miterlimit="10" d="M988.25,569.58c-100.83,0-201.67,0-302.5,0"/>
<path fill="none" stroke="#5A7CBD" stroke-width="2.5" stroke-miterlimit="10" d="M517.75,569.58c-101.5,0-203,0-304.5,0"/>
<line fill="none" stroke="#5A7CBD" stroke-width="2.5" stroke-miterlimit="10" x1="556.21" y1="736.02" x2="206.67" y2="606.44"/>
<line fill="none" stroke="#5A7CBD" stroke-width="2.5" stroke-miterlimit="10" x1="1059.81" y1="468.95" x2="986.67" y2="258.33"/>
<line fill="none" stroke="#5A7CBD" stroke-width="2.5" stroke-miterlimit="10" x1="191.49" y1="277.14" x2="136.6" y2="467.7"/>
<line fill="none" stroke="#5A7CBD" stroke-width="2.5" stroke-miterlimit="10" x1="909.89" y1="183.51" x2="679.76" y2="109.13"/>
<line fill="none" stroke="#5A7CBD" stroke-width="2.5" stroke-miterlimit="10" x1="522.3" y1="107.73" x2="295.63" y2="176.57"/>
</svg>
