<svg id="Layer_1" data-name="Layer 1" xmlns="http://www.w3.org/2000/svg" viewBox="0 0 1202.5 803"><defs><style>.cls-1{fill:#93afdb;}.cls-2{fill:#e5e7eb;}.cls-10,.cls-11,.cls-2,.cls-4,.cls-6,.cls-7,.cls-8{stroke:#5a7cbd;}.cls-10,.cls-11,.cls-2,.cls-8{stroke-miterlimit:10;}.cls-10,.cls-11,.cls-2,.cls-4,.cls-8{stroke-width:3px;}.cls-3,.cls-8{fill:#5a7cbd;}.cls-11,.cls-4,.cls-5,.cls-6,.cls-7{fill:none;}.cls-6{stroke-width:2.49px;}.cls-7{stroke-width:2.49px;}.cls-9{fill:#f3f4f6;}.cls-10{fill:#f7f1a9;}</style></defs><path class="cls-1" d="M648.84,335.67c-9.79-14.78-32-26.21-53.1-12.29a61.78,61.78,0,0,0-11.39,10.07,62.53,62.53,0,0,0-4.39-15c-10.47-23-35.38-25.06-51.51-17.71-17.08,4.75-34.83,22.38-28.1,46.71a62.83,62.83,0,0,0,6.24,14.27,62.64,62.64,0,0,0-15.63-.47c-25.08,2.86-34.76,25.91-32.76,43.52-.76,17.71,10.52,40,35.74,41.15a61.9,61.9,0,0,0,15.29-1.48,61.85,61.85,0,0,0-5.14,14.45c-5,24.73,13.89,41.06,31.26,44.6,16.61,6.19,41.33,2.36,50.19-21.28a61.43,61.43,0,0,0,3.28-14.74,61.65,61.65,0,0,0,12,9.19c22,12.43,43.35-.52,52.07-15.95,11-13.88,15-38.57-4.72-54.31a61.64,61.64,0,0,0-12.84-7.59,62.12,62.12,0,0,0,12.61-8.64c18.61-17.06,12.9-41.39.92-54.46Z"/><circle class="cls-2" cx="93.5" cy="228" r="85"/><path class="cls-3" d="M80.74,231a4.83,4.83,0,0,1-.36,1.87,4.11,4.11,0,0,1-1.06,1.49,5.16,5.16,0,0,1-1.77,1,7.3,7.3,0,0,1-2.45.37H68.22V218H75.1a6.37,6.37,0,0,1,2.19.35,5.13,5.13,0,0,1,1.67,1A4.33,4.33,0,0,1,80,220.7a4,4,0,0,1,.37,1.72,4.71,4.71,0,0,1-.25,1.55,4.44,4.44,0,0,1-.72,1.32,4.13,4.13,0,0,1-1.15,1,4.34,4.34,0,0,1-1.55.55,5.58,5.58,0,0,1,1.63.43,4.05,4.05,0,0,1,2.4,3.77Zm-3.79-8a2.29,2.29,0,0,0-.6-1.62,2.51,2.51,0,0,0-1.94-.66H71.62v4.68H74.1a3.15,3.15,0,0,0,2.07-.65A2.17,2.17,0,0,0,77,223.06Zm.34,7.48a2,2,0,0,0-.77-1.65,3.27,3.27,0,0,0-2.17-.64H71.62V233h2.73a3.21,3.21,0,0,0,2.19-.67A2.27,2.27,0,0,0,77.29,230.54Z"/><path class="cls-3" d="M86.12,230.24a4,4,0,0,0,1.13,2.38,3.21,3.21,0,0,0,2.35.91,3.37,3.37,0,0,0,2.57-1L94,234.35a6.94,6.94,0,0,1-2.09,1.28,6.77,6.77,0,0,1-2.47.42,7.11,7.11,0,0,1-2.63-.48,6.44,6.44,0,0,1-2.1-1.36,6.26,6.26,0,0,1-1.39-2.1,7.27,7.27,0,0,1-.5-2.74,8.06,8.06,0,0,1,.44-2.71,6.3,6.3,0,0,1,1.25-2.1,5.66,5.66,0,0,1,1.92-1.35,6.46,6.46,0,0,1,4.76-.05,5.18,5.18,0,0,1,1.88,1.29,6.31,6.31,0,0,1,1.24,2.16,8.92,8.92,0,0,1,.46,3v.63Zm5.4-2.23a4.15,4.15,0,0,0-.86-2.09,2.21,2.21,0,0,0-1.78-.79,2.37,2.37,0,0,0-1.79.78,3.77,3.77,0,0,0-.92,2.1Z"/><path class="cls-3" d="M103.87,225.51a3.58,3.58,0,0,0-1,.12,2.58,2.58,0,0,0-1.73,1.2,4.84,4.84,0,0,0-.6,2.59v6.36H97.45V223h3v1.94A3.67,3.67,0,0,1,102,223.3a6,6,0,0,1,2.88-.57v2.83C104.57,225.53,104.23,225.51,103.87,225.51Z"/><path class="cls-3" d="M115.86,235.78v-7.56a3.1,3.1,0,0,0-.66-2.17,2.41,2.41,0,0,0-1.84-.71,2.81,2.81,0,0,0-2.16,1,4.51,4.51,0,0,0-.86,3.06v6.41h-3.12V223h3v2a3.47,3.47,0,0,1,1.47-1.62,4.91,4.91,0,0,1,2.55-.61,5.15,5.15,0,0,1,1.91.34,4.1,4.1,0,0,1,1.49,1,4.83,4.83,0,0,1,1,1.6,6.06,6.06,0,0,1,.35,2.11v8Z"/><path class="cls-4" d="M648.89,335.64c-9.8-14.78-32.06-26.22-53.13-12.3a61.94,61.94,0,0,0-11.4,10.08A62.61,62.61,0,0,0,580,318.37c-10.48-23-35.4-25.07-51.53-17.71-17.09,4.75-34.85,22.38-28.11,46.73a62.14,62.14,0,0,0,6.24,14.27,62.72,62.72,0,0,0-15.64-.47c-25.1,2.86-34.78,25.92-32.77,43.54-.76,17.72,10.52,40,35.75,41.17a62,62,0,0,0,15.3-1.48,61.72,61.72,0,0,0-5.14,14.45C499,483.62,518,500,535.34,503.49c16.62,6.2,41.35,2.37,50.21-21.28a61.4,61.4,0,0,0,3.28-14.75,61.46,61.46,0,0,0,12,9.19c22,12.44,43.38-.52,52.11-15.95,11-13.89,15-38.59-4.73-54.33a61.23,61.23,0,0,0-12.84-7.6A62.14,62.14,0,0,0,648,390.12c18.62-17.06,12.91-41.41.93-54.48Z"/><rect class="cls-5" x="453.72" y="295.22" width="212.56" height="212.56"/><path class="cls-3" d="M532.27,369a105.19,105.19,0,0,0-25.74-7.38q1.37,2.36,2.91,4.71A85.68,85.68,0,0,1,532.27,369Z"/><path class="cls-6" d="M532.27,369a105.19,105.19,0,0,0-25.74-7.38q1.37,2.36,2.91,4.71A85.68,85.68,0,0,1,532.27,369Z"/><path class="cls-3" d="M585.26,339.89c-.22-2.21-.51-4.39-.88-6.51-14.37,15.85-25.8,40.61-23,54.55.12-13.71,10.83-34.08,23.88-48Z"/><path class="cls-6" d="M585.26,339.89c-.22-2.21-.51-4.39-.88-6.51-14.37,15.85-25.8,40.61-23,54.55.12-13.71,10.83-34.08,23.88-48Z"/><path class="cls-3" d="M513,437.42c-1.39,2.33-2.68,4.68-3.81,7,17.67-3.74,37.35-13.84,46.57-24.68-9.07,8.43-26.34,15.2-42.76,17.66Z"/><path class="cls-6" d="M513,437.42c-1.39,2.33-2.68,4.68-3.81,7,17.67-3.74,37.35-13.84,46.57-24.68-9.07,8.43-26.34,15.2-42.76,17.66Z"/><path class="cls-3" d="M562.14,421c1.79,14.25,13.4,33.79,26.71,46.55.24-2.22.4-4.51.48-6.83-12.87-11.25-24.2-27.18-27.19-39.72Z"/><path class="cls-6" d="M562.14,421c1.79,14.25,13.4,33.79,26.71,46.55.24-2.22.4-4.51.48-6.83-12.87-11.25-24.2-27.18-27.19-39.72Z"/><path class="cls-3" d="M640.1,414.49c1.68-.78,3.32-1.6,4.92-2.44a123.79,123.79,0,0,0-37.94-9.89,124.92,124.92,0,0,1,33,12.33Z"/><path class="cls-7" d="M640.1,414.49c1.68-.78,3.32-1.6,4.92-2.44a123.79,123.79,0,0,0-37.94-9.89,124.92,124.92,0,0,1,33,12.33Z"/><path class="cls-3" d="M527.19,400.12a9.6,9.6,0,0,1-.71,3.86,7.86,7.86,0,0,1-1.94,2.78,8.28,8.28,0,0,1-2.9,1.68A11.44,11.44,0,0,1,518,409h-5.27V391.22H518a11.26,11.26,0,0,1,3.65.56,8.23,8.23,0,0,1,2.91,1.68,7.85,7.85,0,0,1,1.92,2.78A10.14,10.14,0,0,1,527.19,400.12Zm-3.52,0a7.45,7.45,0,0,0-.44-2.66,5.46,5.46,0,0,0-1.18-1.92,4.68,4.68,0,0,0-1.81-1.15A6.48,6.48,0,0,0,518,394h-1.82v12.22H518a6.48,6.48,0,0,0,2.27-.39,4.7,4.7,0,0,0,1.81-1.16,5.33,5.33,0,0,0,1.18-1.91A7.38,7.38,0,0,0,523.67,400.12Z"/><path class="cls-3" d="M532.54,403.46a4.1,4.1,0,0,0,1.13,2.38,3.2,3.2,0,0,0,2.35.9,3.35,3.35,0,0,0,2.57-1l1.83,1.81a7.06,7.06,0,0,1-2.09,1.28,6.81,6.81,0,0,1-2.47.41,7.07,7.07,0,0,1-2.63-.48,6.21,6.21,0,0,1-2.1-1.35,6.31,6.31,0,0,1-1.39-2.1,7.08,7.08,0,0,1-.51-2.74,7.82,7.82,0,0,1,.45-2.71,6.09,6.09,0,0,1,1.24-2.1,5.69,5.69,0,0,1,1.92-1.36,6.42,6.42,0,0,1,4.77,0,5,5,0,0,1,1.87,1.29,6.33,6.33,0,0,1,1.25,2.16,9.19,9.19,0,0,1,.45,3v.63Zm5.4-2.24a4,4,0,0,0-.86-2.08,2.22,2.22,0,0,0-1.78-.8,2.34,2.34,0,0,0-1.78.78,3.78,3.78,0,0,0-.93,2.1Z"/><path class="cls-3" d="M553.86,409l-6.39-8.5V409h-3.41V391.22h3.41v8.13l6.17-8.13h4.22l-7,8.71,7.3,9.07Z"/><path class="cls-3" d="M571.26,402.59a7.77,7.77,0,0,1-.47,2.77,5.86,5.86,0,0,1-3.29,3.44,6.83,6.83,0,0,1-4.93,0,5.88,5.88,0,0,1-3.28-3.44,8.37,8.37,0,0,1,0-5.53,6.13,6.13,0,0,1,1.31-2.09,5.91,5.91,0,0,1,2-1.33,6.7,6.7,0,0,1,4.93,0,5.85,5.85,0,0,1,2,1.33,6.13,6.13,0,0,1,1.31,2.09A7.76,7.76,0,0,1,571.26,402.59Zm-3.24,0a4.69,4.69,0,0,0-.84-3,2.7,2.7,0,0,0-4.26,0,5.65,5.65,0,0,0,0,6,2.65,2.65,0,0,0,4.24,0A4.64,4.64,0,0,0,568,402.59Z"/><path class="cls-3" d="M589.5,409V395.18L585.62,409h-4l-3.86-13.82V409h-3.4V391.22h5.35l3.89,14,3.88-14h5.36V409Z"/><path class="cls-3" d="M608.41,402.59a7.77,7.77,0,0,1-.47,2.77,5.86,5.86,0,0,1-3.29,3.44,6.83,6.83,0,0,1-4.93,0,5.88,5.88,0,0,1-3.28-3.44,8.54,8.54,0,0,1,0-5.53,6.13,6.13,0,0,1,1.31-2.09,5.91,5.91,0,0,1,2-1.33,6.7,6.7,0,0,1,4.93,0,5.85,5.85,0,0,1,2,1.33,6.13,6.13,0,0,1,1.31,2.09A7.76,7.76,0,0,1,608.41,402.59Zm-3.24,0a4.69,4.69,0,0,0-.84-3,2.7,2.7,0,0,0-4.26,0,5.65,5.65,0,0,0,0,6,2.59,2.59,0,0,0,2.12,1.06,2.62,2.62,0,0,0,2.13-1.06A4.7,4.7,0,0,0,605.17,402.59Z"/><circle class="cls-8" cx="1116" cy="382" r="85"/><path class="cls-9" d="M1064.59,375.38l-1.44-4.08h-6.84l-1.41,4.08h-3.6l6.62-17.78h3.65l6.62,17.78Zm-4.85-13.94-2.47,7.08h5Z"/><path class="cls-9" d="M1070.14,375.38V357.6h3.12v17.78Z"/><path class="cls-9" d="M1082.06,375.55a4.51,4.51,0,0,1-1.66-.29,3.83,3.83,0,0,1-1.25-.77,3,3,0,0,1-.78-1.12,3.56,3.56,0,0,1-.27-1.37v-6.94h-2.42v-2.47h2.42v-3.65h3.12v3.65h3v2.47h-3v6.51a1.51,1.51,0,0,0,.4,1.11,1.77,1.77,0,0,0,1.31.4,4.6,4.6,0,0,0,.71-.07,5.15,5.15,0,0,0,.7-.2v2.48A8.72,8.72,0,0,1,1082.06,375.55Z"/><path class="cls-9" d="M1089.29,369.84a4,4,0,0,0,1.13,2.38,3.2,3.2,0,0,0,2.35.91,3.37,3.37,0,0,0,2.57-1l1.82,1.81a6.94,6.94,0,0,1-2.09,1.28,6.77,6.77,0,0,1-2.47.42,7.11,7.11,0,0,1-2.63-.48,6.14,6.14,0,0,1-3.49-3.46,7.08,7.08,0,0,1-.5-2.74,7.82,7.82,0,0,1,.44-2.71,6.14,6.14,0,0,1,1.25-2.1,5.48,5.48,0,0,1,1.92-1.35,6.06,6.06,0,0,1,2.43-.48,6.15,6.15,0,0,1,2.33.43,5.06,5.06,0,0,1,1.87,1.29,6.17,6.17,0,0,1,1.25,2.16,8.92,8.92,0,0,1,.46,3v.63Zm5.4-2.23a4.07,4.07,0,0,0-.87-2.09,2.19,2.19,0,0,0-1.77-.79,2.36,2.36,0,0,0-1.79.78,3.7,3.7,0,0,0-.92,2.1Z"/><path class="cls-9" d="M1107,365.11a3.7,3.7,0,0,0-1,.12,2.58,2.58,0,0,0-1.72,1.2,4.84,4.84,0,0,0-.6,2.59v6.36h-3.12V362.59h3v1.94a3.67,3.67,0,0,1,1.54-1.63,6,6,0,0,1,2.88-.57v2.83C1107.74,365.13,1107.4,365.11,1107,365.11Z"/><path class="cls-9" d="M1118.71,371.81a3.5,3.5,0,0,1-.31,1.45,3.65,3.65,0,0,1-.94,1.26,4.7,4.7,0,0,1-1.58.89,7,7,0,0,1-2.28.33,6.2,6.2,0,0,1-2.58-.52,6.3,6.3,0,0,1-1.91-1.27l1.8-1.81a4.19,4.19,0,0,0,1.12.75,3.65,3.65,0,0,0,1.57.33,2.59,2.59,0,0,0,1.54-.39,1.19,1.19,0,0,0,.52-1,1.15,1.15,0,0,0-.45-1,4.59,4.59,0,0,0-1.15-.61c-.47-.18-1-.35-1.49-.53a6.58,6.58,0,0,1-1.49-.71,3.71,3.71,0,0,1-1.15-1.15,3.32,3.32,0,0,1-.46-1.85,3.45,3.45,0,0,1,.31-1.38,3.71,3.71,0,0,1,.93-1.22,4.72,4.72,0,0,1,1.51-.87,5.69,5.69,0,0,1,2-.34,6,6,0,0,1,2.52.5,6.14,6.14,0,0,1,1.85,1.27l-1.8,1.83a4.24,4.24,0,0,0-1.07-.77,3.08,3.08,0,0,0-1.43-.31,1.86,1.86,0,0,0-1.35.43,1.24,1.24,0,0,0-.45.89.93.93,0,0,0,.46.8,5.52,5.52,0,0,0,1.14.55l1.49.53a6.28,6.28,0,0,1,1.49.74,4,4,0,0,1,1.14,1.21A3.62,3.62,0,0,1,1118.71,371.81Z"/><path class="cls-9" d="M1120.56,369.84v-2.23h6.14v2.23Z"/><path class="cls-9" d="M1144.63,375.38v-2a3.3,3.3,0,0,1-1.45,1.61,4.82,4.82,0,0,1-2.53.63,5.09,5.09,0,0,1-1.92-.35,4.06,4.06,0,0,1-1.49-1,4.52,4.52,0,0,1-1-1.6,6,6,0,0,1-.35-2.11v-8H1139v7.54a3.12,3.12,0,0,0,.66,2.19,2.4,2.4,0,0,0,1.84.71,2.78,2.78,0,0,0,2.16-1,4.62,4.62,0,0,0,.86-3.08v-6.38h3.12v12.79Z"/><path class="cls-9" d="M1160.21,375.38v-7.56a3.1,3.1,0,0,0-.66-2.17,2.4,2.4,0,0,0-1.84-.71,2.81,2.81,0,0,0-2.16,1,4.51,4.51,0,0,0-.86,3.06v6.41h-3.12V362.59h3v2a3.47,3.47,0,0,1,1.47-1.62,4.91,4.91,0,0,1,2.55-.61,5.15,5.15,0,0,1,1.91.34,4.14,4.14,0,0,1,1.5,1,4.65,4.65,0,0,1,1,1.6,6.06,6.06,0,0,1,.35,2.11v8Z"/><path class="cls-9" d="M1175.71,375.38v-1.85a2.41,2.41,0,0,1-.6.84,4.64,4.64,0,0,1-.93.68,5.11,5.11,0,0,1-1.12.44,4.71,4.71,0,0,1-1.17.16,5.09,5.09,0,0,1-2.14-.47,5.4,5.4,0,0,1-1.79-1.33,7,7,0,0,1-1.24-2.1,7.87,7.87,0,0,1-.46-2.78,7.76,7.76,0,0,1,.46-2.76,6.88,6.88,0,0,1,1.24-2.08,5.43,5.43,0,0,1,1.79-1.34,5.09,5.09,0,0,1,2.14-.46,4.26,4.26,0,0,1,1.1.14,4.85,4.85,0,0,1,1.06.41,4.57,4.57,0,0,1,.93.62,2.5,2.5,0,0,1,.64.82V357.6h3.11v17.78Zm-.09-6.41a5.61,5.61,0,0,0-.24-1.71,3.91,3.91,0,0,0-.67-1.27,2.58,2.58,0,0,0-1-.78,2.61,2.61,0,0,0-1.17-.27,2.76,2.76,0,0,0-2.2,1.05,4.53,4.53,0,0,0-.88,3,5.6,5.6,0,0,0,.24,1.73,4.12,4.12,0,0,0,.66,1.27,2.77,2.77,0,0,0,3.35.8,2.64,2.64,0,0,0,1-.8,4.13,4.13,0,0,0,.67-1.27A5.6,5.6,0,0,0,1175.62,369Z"/><path class="cls-9" d="M1056.8,391.7a5.42,5.42,0,0,1-.41,2.1,4.79,4.79,0,0,1-1.2,1.68,5.72,5.72,0,0,1-1.87,1.12,6.83,6.83,0,0,1-2.4.41H1048v7.17h-3.41V386.4h6.31a6.66,6.66,0,0,1,2.41.42,5.91,5.91,0,0,1,1.88,1.14,4.82,4.82,0,0,1,1.19,1.68A5.09,5.09,0,0,1,1056.8,391.7Zm-3.45,0a2.49,2.49,0,0,0-.71-1.78,2.7,2.7,0,0,0-2-.74H1048v5h2.6a2.73,2.73,0,0,0,2-.72A2.51,2.51,0,0,0,1053.35,391.7Z"/><path class="cls-9" d="M1066.45,389a4.18,4.18,0,0,0-1.41-.24,1.82,1.82,0,0,0-1.31.39,1.47,1.47,0,0,0-.4,1.11v1.14h3v2.47h-3v10.32h-3.12V393.86h-2.42v-2.47h2.42v-1.61a3.56,3.56,0,0,1,.27-1.37,3,3,0,0,1,.78-1.12,3.89,3.89,0,0,1,1.24-.77,4.6,4.6,0,0,1,1.67-.29,9.55,9.55,0,0,1,1.26.07,8.11,8.11,0,0,1,1,.19Zm2.62,15.19V386.4h3.12v17.78Z"/><path class="cls-9" d="M1078.43,398.64a4,4,0,0,0,1.13,2.38,3.2,3.2,0,0,0,2.35.91,3.37,3.37,0,0,0,2.57-1l1.82,1.81a6.94,6.94,0,0,1-2.09,1.28,6.77,6.77,0,0,1-2.47.42,7.11,7.11,0,0,1-2.63-.48,6.14,6.14,0,0,1-3.49-3.46,7.27,7.27,0,0,1-.5-2.74,7.82,7.82,0,0,1,.44-2.71,6.3,6.3,0,0,1,1.25-2.1,5.48,5.48,0,0,1,1.92-1.35,6.46,6.46,0,0,1,4.76-.05,5.18,5.18,0,0,1,1.88,1.29,6.31,6.31,0,0,1,1.24,2.16,8.92,8.92,0,0,1,.46,3v.63Zm5.4-2.23a4.07,4.07,0,0,0-.87-2.09,2.19,2.19,0,0,0-1.77-.79,2.36,2.36,0,0,0-1.79.78,3.7,3.7,0,0,0-.92,2.1Z"/><path class="cls-9" d="M1101.28,403a5.65,5.65,0,0,1-.47,2.29,5.36,5.36,0,0,1-1.35,1.86,6.27,6.27,0,0,1-2.12,1.25,8.14,8.14,0,0,1-2.78.46,7.43,7.43,0,0,1-3.1-.57,6.52,6.52,0,0,1-2-1.28l1.78-1.78a4.51,4.51,0,0,0,1.22.79,4.59,4.59,0,0,0,2,.36,4.4,4.4,0,0,0,1.47-.24,3.51,3.51,0,0,0,1.19-.69,3.14,3.14,0,0,0,.78-1.07,3.4,3.4,0,0,0,.28-1.38v-1a3.76,3.76,0,0,1-1.48,1.45,4.44,4.44,0,0,1-2.24.59,5.11,5.11,0,0,1-2.15-.47,5.48,5.48,0,0,1-1.79-1.31,6.67,6.67,0,0,1-1.24-2,7.95,7.95,0,0,1,0-5.33,6.67,6.67,0,0,1,1.24-2,5.63,5.63,0,0,1,1.79-1.31,5.1,5.1,0,0,1,2.15-.46,4.28,4.28,0,0,1,1.24.18,5.51,5.51,0,0,1,1.11.46,4.32,4.32,0,0,1,.89.69,2.93,2.93,0,0,1,.57.83v-1.9h3Zm-3.12-5.42a4.94,4.94,0,0,0-.24-1.6,3.7,3.7,0,0,0-.66-1.21,2.92,2.92,0,0,0-1-.78,2.49,2.49,0,0,0-1.17-.28,2.58,2.58,0,0,0-1.2.28,2.79,2.79,0,0,0-1,.78,3.7,3.7,0,0,0-.66,1.21,4.94,4.94,0,0,0-.24,1.6,4.26,4.26,0,0,0,.87,2.83,2.77,2.77,0,0,0,2.2,1,2.74,2.74,0,0,0,1.17-.26,3,3,0,0,0,1-.77,3.81,3.81,0,0,0,.66-1.21A5.11,5.11,0,0,0,1098.16,397.61Z"/><path class="cls-9" d="M1107.54,398.64a4,4,0,0,0,1.13,2.38,3.21,3.21,0,0,0,2.35.91,3.37,3.37,0,0,0,2.57-1l1.82,1.81a6.94,6.94,0,0,1-2.09,1.28,6.77,6.77,0,0,1-2.47.42,7.11,7.11,0,0,1-2.63-.48,6.34,6.34,0,0,1-2.1-1.36,6.26,6.26,0,0,1-1.39-2.1,7.27,7.27,0,0,1-.5-2.74,8.06,8.06,0,0,1,.44-2.71,6.3,6.3,0,0,1,1.25-2.1,5.66,5.66,0,0,1,1.92-1.35,6.46,6.46,0,0,1,4.76-.05,5.18,5.18,0,0,1,1.88,1.29,6.31,6.31,0,0,1,1.24,2.16,8.92,8.92,0,0,1,.46,3v.63Zm5.4-2.23a4.15,4.15,0,0,0-.86-2.09,2.21,2.21,0,0,0-1.78-.79,2.37,2.37,0,0,0-1.79.78,3.7,3.7,0,0,0-.92,2.1Z"/><path class="cls-9" d="M1127.51,404.18v-7.56a3.1,3.1,0,0,0-.66-2.17,2.41,2.41,0,0,0-1.84-.71,2.81,2.81,0,0,0-2.16,1,4.56,4.56,0,0,0-.86,3.06v6.41h-3.12V386.4H1122v6.81a3.53,3.53,0,0,1,1.45-1.5,4.85,4.85,0,0,1,2.47-.58,5.24,5.24,0,0,1,1.92.34,4.19,4.19,0,0,1,1.49,1,4.81,4.81,0,0,1,1,1.6,6.06,6.06,0,0,1,.35,2.11v8Z"/><path class="cls-9" d="M1136.87,398.64A4,4,0,0,0,1138,401a3.2,3.2,0,0,0,2.35.91,3.37,3.37,0,0,0,2.57-1l1.82,1.81a6.94,6.94,0,0,1-2.09,1.28,6.77,6.77,0,0,1-2.47.42,7.11,7.11,0,0,1-2.63-.48,6.14,6.14,0,0,1-3.49-3.46,7.08,7.08,0,0,1-.5-2.74,7.82,7.82,0,0,1,.44-2.71,6.14,6.14,0,0,1,1.25-2.1,5.48,5.48,0,0,1,1.92-1.35,6.06,6.06,0,0,1,2.43-.48,6.15,6.15,0,0,1,2.33.43,5.06,5.06,0,0,1,1.87,1.29,6.17,6.17,0,0,1,1.25,2.16,8.92,8.92,0,0,1,.46,3v.63Zm5.4-2.23a4.07,4.07,0,0,0-.87-2.09,2.19,2.19,0,0,0-1.77-.79,2.36,2.36,0,0,0-1.79.78,3.7,3.7,0,0,0-.92,2.1Z"/><path class="cls-9" d="M1148.17,389.42v-3h3.19v3Zm0,14.76V391.39h3.12v12.79Z"/><path class="cls-9" d="M1170.8,404.18v-7.56c0-1.92-.7-2.88-2.12-2.88a2,2,0,0,0-.93.25,2.49,2.49,0,0,0-.81.75,4.07,4.07,0,0,0-.58,1.22,6.15,6.15,0,0,0-.21,1.69v6.53H1163v-7.56c0-1.92-.71-2.88-2.14-2.88a2,2,0,0,0-.93.25,2.52,2.52,0,0,0-.82.75,4.07,4.07,0,0,0-.58,1.22,6.15,6.15,0,0,0-.21,1.69v6.53h-3.12V391.39h3v2a3.88,3.88,0,0,1,1.35-1.67,3.84,3.84,0,0,1,2.19-.58,4.25,4.25,0,0,1,1.43.22,4.39,4.39,0,0,1,1.12.59,3.7,3.7,0,0,1,.81.82,6.24,6.24,0,0,1,.54.93,4.78,4.78,0,0,1,1.53-1.88,4,4,0,0,1,2.36-.68,4.37,4.37,0,0,1,1.79.36,3.88,3.88,0,0,1,1.36,1,4.66,4.66,0,0,1,.88,1.58,6.34,6.34,0,0,1,.31,2.07v8Z"/><path class="cls-9" d="M1180.16,398.64a4.1,4.1,0,0,0,1.13,2.38,3.21,3.21,0,0,0,2.35.91,3.36,3.36,0,0,0,2.57-1l1.83,1.81A7.06,7.06,0,0,1,1186,404a6.8,6.8,0,0,1-2.47.42,7.07,7.07,0,0,1-2.63-.48,6.24,6.24,0,0,1-2.1-1.36,6.12,6.12,0,0,1-1.39-2.1,7.08,7.08,0,0,1-.51-2.74,8.06,8.06,0,0,1,.44-2.71,6.47,6.47,0,0,1,1.25-2.1,5.66,5.66,0,0,1,1.92-1.35,6.48,6.48,0,0,1,4.77-.05,5.15,5.15,0,0,1,1.87,1.29,6.33,6.33,0,0,1,1.25,2.16,9.19,9.19,0,0,1,.45,3v.63Zm5.4-2.23a4,4,0,0,0-.86-2.09,2.21,2.21,0,0,0-1.78-.79,2.37,2.37,0,0,0-1.79.78,3.84,3.84,0,0,0-.92,2.1Z"/><circle class="cls-2" cx="715.5" cy="716.5" r="85"/><path class="cls-3" d="M679.43,724.28v-2.62l7.46-12.38h-7.27V706.5H690.9v2.64l-7.46,12.36h7.65v2.78Z"/><path class="cls-3" d="M702.54,724.28v-2a3.3,3.3,0,0,1-1.45,1.61,4.82,4.82,0,0,1-2.53.62,5.09,5.09,0,0,1-1.92-.34,4.06,4.06,0,0,1-1.49-1,4.52,4.52,0,0,1-1-1.6,6,6,0,0,1-.35-2.11v-8H697V719a3.12,3.12,0,0,0,.66,2.19,2.4,2.4,0,0,0,1.84.71,2.78,2.78,0,0,0,2.16-1,4.62,4.62,0,0,0,.86-3.08v-6.38h3.12v12.79Zm-6.48-14.81v-2.93h2.71v2.93Zm4.49,0v-2.93h2.71v2.93Z"/><path class="cls-3" d="M715.9,714a3.7,3.7,0,0,0-1,.12,2.58,2.58,0,0,0-1.72,1.2,4.84,4.84,0,0,0-.6,2.59v6.36h-3.12V711.49h3v1.94A3.67,3.67,0,0,1,714,711.8a6,6,0,0,1,2.88-.57v2.83C716.6,714,716.26,714,715.9,714Z"/><path class="cls-3" d="M719.22,709.52v-3h3.19v3Zm0,14.76V711.49h3.13v12.79Z"/><path class="cls-3" d="M731.75,724.54a6.71,6.71,0,0,1-2.51-.47,6.29,6.29,0,0,1-2-1.36,6.39,6.39,0,0,1-1.38-2.1,7.08,7.08,0,0,1-.5-2.74,7,7,0,0,1,.5-2.71,6.61,6.61,0,0,1,1.38-2.1,6.26,6.26,0,0,1,2-1.35,6.62,6.62,0,0,1,6.85,1.17l-1.89,1.9a3.26,3.26,0,0,0-1-.69,3.38,3.38,0,0,0-1.27-.25,3.09,3.09,0,0,0-1.31.29,3.13,3.13,0,0,0-1.06.83,3.88,3.88,0,0,0-.71,1.28,5,5,0,0,0-.25,1.63,5.12,5.12,0,0,0,.25,1.66,3.64,3.64,0,0,0,.71,1.27,3.39,3.39,0,0,0,1.06.83,3,3,0,0,0,1.31.3,3.2,3.2,0,0,0,1.27-.25,3.15,3.15,0,0,0,1-.71l1.89,1.9A6.45,6.45,0,0,1,731.75,724.54Z"/><path class="cls-3" d="M747.3,724.28v-7.56a3.1,3.1,0,0,0-.66-2.17,2.4,2.4,0,0,0-1.84-.71,2.81,2.81,0,0,0-2.16,1,4.56,4.56,0,0,0-.86,3.06v6.41h-3.12V706.5h3.12v6.81a3.5,3.5,0,0,1,1.44-1.5,4.87,4.87,0,0,1,2.48-.58,5.19,5.19,0,0,1,1.91.34,4.19,4.19,0,0,1,1.49,1,4.65,4.65,0,0,1,1,1.6,6.06,6.06,0,0,1,.35,2.11v8Z"/><circle class="cls-8" cx="250.5" cy="675" r="85"/><path class="cls-9" d="M225.56,668.38l-1.44-4.08h-6.84l-1.41,4.08h-3.6l6.62-17.78h3.65l6.62,17.78Zm-4.84-13.94-2.48,7.08h4.95Z"/><path class="cls-9" d="M231.11,668.38V650.6h3.12v17.78Z"/><path class="cls-9" d="M243,668.55a4.57,4.57,0,0,1-1.67-.29,3.83,3.83,0,0,1-1.25-.77,3.23,3.23,0,0,1-.78-1.12,3.55,3.55,0,0,1-.26-1.37v-6.94h-2.43v-2.47h2.43v-3.65h3.12v3.65h3v2.47h-3v6.51a1.5,1.5,0,0,0,.39,1.11,1.79,1.79,0,0,0,1.31.4,4.6,4.6,0,0,0,.71-.07,5.29,5.29,0,0,0,.71-.2v2.48A8.83,8.83,0,0,1,243,668.55Z"/><path class="cls-9" d="M250.26,662.84a4,4,0,0,0,1.13,2.38,3.21,3.21,0,0,0,2.35.91,3.37,3.37,0,0,0,2.57-1l1.82,1.81a6.94,6.94,0,0,1-2.09,1.28,6.77,6.77,0,0,1-2.47.42,7.11,7.11,0,0,1-2.63-.48,6.44,6.44,0,0,1-2.1-1.36,6.26,6.26,0,0,1-1.39-2.1A7.27,7.27,0,0,1,247,662a8.06,8.06,0,0,1,.44-2.71,6.3,6.3,0,0,1,1.25-2.1,5.66,5.66,0,0,1,1.92-1.35,6.46,6.46,0,0,1,4.76,0,5.18,5.18,0,0,1,1.88,1.29,6.31,6.31,0,0,1,1.24,2.16,8.92,8.92,0,0,1,.46,3v.63Zm5.4-2.23a4.15,4.15,0,0,0-.86-2.09,2.21,2.21,0,0,0-1.78-.79,2.37,2.37,0,0,0-1.79.78,3.77,3.77,0,0,0-.92,2.1Z"/><path class="cls-9" d="M268,658.11a3.58,3.58,0,0,0-1,.12,2.58,2.58,0,0,0-1.73,1.2,4.84,4.84,0,0,0-.6,2.59v6.36h-3.12V655.59h3v1.94a3.67,3.67,0,0,1,1.54-1.63,6,6,0,0,1,2.88-.57v2.83C268.71,658.13,268.37,658.11,268,658.11Z"/><path class="cls-9" d="M279.68,664.81a3.5,3.5,0,0,1-.31,1.45,3.75,3.75,0,0,1-.93,1.26,4.85,4.85,0,0,1-1.59.89,7,7,0,0,1-2.28.33,6.23,6.23,0,0,1-2.58-.52,6.43,6.43,0,0,1-1.91-1.27l1.8-1.81a4.36,4.36,0,0,0,1.12.75,3.68,3.68,0,0,0,1.57.33,2.57,2.57,0,0,0,1.54-.39,1.2,1.2,0,0,0,.53-1,1.16,1.16,0,0,0-.46-1,4.42,4.42,0,0,0-1.15-.61c-.47-.18-1-.36-1.49-.53a6.79,6.79,0,0,1-1.49-.71,3.71,3.71,0,0,1-1.15-1.15,3.4,3.4,0,0,1-.46-1.85,3.31,3.31,0,0,1,.32-1.38,3.55,3.55,0,0,1,.92-1.22,4.72,4.72,0,0,1,1.51-.87,5.72,5.72,0,0,1,2.05-.34,6,6,0,0,1,2.52.5,6.14,6.14,0,0,1,1.85,1.27l-1.8,1.83a4.24,4.24,0,0,0-1.07-.77,3,3,0,0,0-1.42-.31,1.88,1.88,0,0,0-1.36.43,1.23,1.23,0,0,0-.44.89.92.92,0,0,0,.45.8,6.07,6.07,0,0,0,1.14.55l1.49.53a6.1,6.1,0,0,1,1.49.74,4,4,0,0,1,1.14,1.21A3.62,3.62,0,0,1,279.68,664.81Z"/><path class="cls-9" d="M281.53,662.84v-2.23h6.15v2.23Z"/><path class="cls-9" d="M192.34,690.77a7.87,7.87,0,0,1-.47,2.78,6.79,6.79,0,0,1-1.24,2.1,5.34,5.34,0,0,1-1.8,1.33,5.15,5.15,0,0,1-2.13.47,4.37,4.37,0,0,1-1.12-.15,5.45,5.45,0,0,1-1.07-.39,4.43,4.43,0,0,1-.91-.62,3,3,0,0,1-.65-.79v6.12h-3.12V684.39h3v1.9a2.89,2.89,0,0,1,.61-.86,4,4,0,0,1,.92-.68,5.94,5.94,0,0,1,1.13-.46,4.41,4.41,0,0,1,1.18-.16,5.14,5.14,0,0,1,2.13.46,5.37,5.37,0,0,1,1.8,1.34,6.68,6.68,0,0,1,1.24,2.08A7.76,7.76,0,0,1,192.34,690.77Zm-3.24,0a4.47,4.47,0,0,0-.89-3,2.75,2.75,0,0,0-2.19-1,2.68,2.68,0,0,0-1.18.27,2.64,2.64,0,0,0-1,.78,3.72,3.72,0,0,0-.66,1.27,6.28,6.28,0,0,0,0,3.44,3.91,3.91,0,0,0,.66,1.27,2.7,2.7,0,0,0,1,.8,2.83,2.83,0,0,0,2.37,0,2.7,2.7,0,0,0,1-.8,3.91,3.91,0,0,0,.66-1.27A5.6,5.6,0,0,0,189.1,690.77Z"/><path class="cls-9" d="M203.59,693.61a3.5,3.5,0,0,1-.31,1.45,3.65,3.65,0,0,1-.94,1.26,4.7,4.7,0,0,1-1.58.89,7,7,0,0,1-2.28.33,6.23,6.23,0,0,1-2.58-.52,6.3,6.3,0,0,1-1.91-1.27l1.8-1.81a4.19,4.19,0,0,0,1.12.75,3.65,3.65,0,0,0,1.57.33,2.59,2.59,0,0,0,1.54-.39,1.19,1.19,0,0,0,.52-1,1.15,1.15,0,0,0-.45-1,4.59,4.59,0,0,0-1.15-.61c-.47-.18-1-.36-1.49-.53a6.58,6.58,0,0,1-1.49-.71,3.71,3.71,0,0,1-1.15-1.15,3.32,3.32,0,0,1-.46-1.85,3.45,3.45,0,0,1,.31-1.38,3.71,3.71,0,0,1,.93-1.22,4.72,4.72,0,0,1,1.51-.87,5.69,5.69,0,0,1,2.05-.34,6,6,0,0,1,2.52.5,6.14,6.14,0,0,1,1.85,1.27l-1.8,1.83a4.24,4.24,0,0,0-1.07-.77,3.08,3.08,0,0,0-1.43-.31,1.86,1.86,0,0,0-1.35.43,1.24,1.24,0,0,0-.45.89.93.93,0,0,0,.46.8,5.52,5.52,0,0,0,1.14.55l1.49.53a6.28,6.28,0,0,1,1.49.74,4,4,0,0,1,1.14,1.21A3.62,3.62,0,0,1,203.59,693.61Z"/><path class="cls-9" d="M211.85,699.61a3,3,0,0,1-.4.69,3.07,3.07,0,0,1-.72.72,3.92,3.92,0,0,1-1.08.57,4.48,4.48,0,0,1-1.5.22,8.21,8.21,0,0,1-1.25-.08,8.8,8.8,0,0,1-1-.2v-2.48a4,4,0,0,0,.68.18,4.44,4.44,0,0,0,.71.06,2.11,2.11,0,0,0,1.09-.21,1.14,1.14,0,0,0,.44-.5s.08-.09.15-.21.13-.25.19-.39l.18-.44c.06-.14.09-.24.11-.28l-5.07-12.87h3.44l3.26,9.53,3.43-9.53h3.41Z"/><path class="cls-9" d="M225.34,697.45a6.49,6.49,0,0,1-2.51-.48,6.18,6.18,0,0,1-2-1.36,6.09,6.09,0,0,1-1.38-2.1,7.08,7.08,0,0,1-.51-2.74,7,7,0,0,1,.51-2.71,6.29,6.29,0,0,1,1.38-2.1,6.16,6.16,0,0,1,2-1.35,6.62,6.62,0,0,1,6.85,1.17l-1.9,1.9a3.11,3.11,0,0,0-1-.69,3.38,3.38,0,0,0-1.27-.25,3.09,3.09,0,0,0-1.31.29,3.16,3.16,0,0,0-1.07.83,3.86,3.86,0,0,0-.7,1.28,5,5,0,0,0-.26,1.63,5.12,5.12,0,0,0,.26,1.66,3.63,3.63,0,0,0,.7,1.27,3.43,3.43,0,0,0,1.07.83,3,3,0,0,0,1.31.3,3.2,3.2,0,0,0,1.27-.25,3,3,0,0,0,1-.71l1.9,1.9A6.48,6.48,0,0,1,225.34,697.45Z"/><path class="cls-9" d="M240.89,697.18v-7.56a3.1,3.1,0,0,0-.66-2.17,2.4,2.4,0,0,0-1.84-.71,2.81,2.81,0,0,0-2.16,1,4.56,4.56,0,0,0-.86,3.06v6.41h-3.12V679.4h3.12v6.81a3.53,3.53,0,0,1,1.45-1.5,4.85,4.85,0,0,1,2.47-.58,5.24,5.24,0,0,1,1.92.34,4.19,4.19,0,0,1,1.49,1,4.65,4.65,0,0,1,1,1.6,6.06,6.06,0,0,1,.35,2.11v8Z"/><path class="cls-9" d="M247.87,682.42v-3h3.19v3Zm0,14.76V684.39H251v12.79Z"/><path class="cls-9" d="M262.22,697.18v-1.94a3.62,3.62,0,0,1-1.45,1.62,5.06,5.06,0,0,1-4.09.29,4.26,4.26,0,0,1-1.33-.82,3.76,3.76,0,0,1-.89-1.2,3.3,3.3,0,0,1-.32-1.45,3.7,3.7,0,0,1,.34-1.57,3.81,3.81,0,0,1,1.08-1.34,5.78,5.78,0,0,1,1.88-.91,9.77,9.77,0,0,1,2.7-.33h2V689c0-.12,0-.23,0-.34s0-.16-.06-.18a1.88,1.88,0,0,0-.81-1.34,2.91,2.91,0,0,0-1.81-.56,4.12,4.12,0,0,0-1.58.29,4.43,4.43,0,0,0-1.25.77l-1.8-1.81a8,8,0,0,1,2.12-1.29,7.46,7.46,0,0,1,2.8-.48,7,7,0,0,1,2.34.36,5.09,5.09,0,0,1,1.73,1,4.37,4.37,0,0,1,1.08,1.51,4.84,4.84,0,0,1,.37,1.87v8.4Zm-.09-5.64H260a4,4,0,0,0-1.23.17,2.78,2.78,0,0,0-.84.44,1.77,1.77,0,0,0-.49.62,1.61,1.61,0,0,0-.16.67,1.63,1.63,0,0,0,.47,1.16,2,2,0,0,0,1.48.49,2.69,2.69,0,0,0,2.07-.85,3.22,3.22,0,0,0,.81-2.31Z"/><path class="cls-9" d="M274.06,697.35a4.57,4.57,0,0,1-1.67-.29,3.83,3.83,0,0,1-1.25-.77,3.11,3.11,0,0,1-.78-1.12,3.55,3.55,0,0,1-.26-1.37v-6.94h-2.43v-2.47h2.43v-3.65h3.12v3.65h3v2.47h-3v6.51a1.5,1.5,0,0,0,.39,1.11,1.79,1.79,0,0,0,1.31.4,4.6,4.6,0,0,0,.71-.07,5.29,5.29,0,0,0,.71-.2v2.48A8.83,8.83,0,0,1,274.06,697.35Z"/><path class="cls-9" d="M285.35,686.91a3.58,3.58,0,0,0-1,.12,2.58,2.58,0,0,0-1.73,1.2,4.84,4.84,0,0,0-.6,2.59v6.36h-3.12V684.39h3v1.94a3.67,3.67,0,0,1,1.54-1.63,6,6,0,0,1,2.88-.57V687C286.05,686.93,285.71,686.91,285.35,686.91Z"/><path class="cls-9" d="M288.67,682.42v-3h3.19v3Zm0,14.76V684.39h3.12v12.79Z"/><path class="cls-9" d="M298.08,691.64a4,4,0,0,0,1.13,2.38,3.2,3.2,0,0,0,2.35.91,3.37,3.37,0,0,0,2.57-1l1.82,1.81a6.94,6.94,0,0,1-2.09,1.28,6.77,6.77,0,0,1-2.47.42,7.11,7.11,0,0,1-2.63-.48,6.34,6.34,0,0,1-2.1-1.36,6.26,6.26,0,0,1-1.39-2.1,7.08,7.08,0,0,1-.5-2.74,8.06,8.06,0,0,1,.44-2.71,6.3,6.3,0,0,1,1.25-2.1,5.57,5.57,0,0,1,1.92-1.35,6.07,6.07,0,0,1,2.44-.48,6.14,6.14,0,0,1,2.32.43,5.06,5.06,0,0,1,1.87,1.29,6.17,6.17,0,0,1,1.25,2.16,8.92,8.92,0,0,1,.46,3v.63Zm5.4-2.23a4.15,4.15,0,0,0-.86-2.09,2.21,2.21,0,0,0-1.78-.79,2.36,2.36,0,0,0-1.79.78,3.7,3.7,0,0,0-.92,2.1Z"/><path class="cls-9" d="M318.05,697.18v-7.56a3.1,3.1,0,0,0-.66-2.17,2.41,2.41,0,0,0-1.84-.71,2.81,2.81,0,0,0-2.16,1,4.56,4.56,0,0,0-.86,3.06v6.41h-3.12V684.39h3v2a3.47,3.47,0,0,1,1.47-1.62,4.91,4.91,0,0,1,2.55-.61,5.15,5.15,0,0,1,1.91.34,4.14,4.14,0,0,1,1.5,1,4.81,4.81,0,0,1,1,1.6,6.06,6.06,0,0,1,.35,2.11v8Z"/><circle class="cls-8" cx="658.5" cy="86.5" r="85"/><path class="cls-9" d="M634.12,67.4a5.25,5.25,0,0,1-.42,2.1,4.79,4.79,0,0,1-1.2,1.68,5.72,5.72,0,0,1-1.87,1.12,6.79,6.79,0,0,1-2.4.41h-2.92v7.17H621.9V62.1h6.31a6.63,6.63,0,0,1,2.41.42,5.81,5.81,0,0,1,1.88,1.14,5,5,0,0,1,1.2,1.68A5.09,5.09,0,0,1,634.12,67.4Zm-3.46,0a2.53,2.53,0,0,0-.7-1.78,2.72,2.72,0,0,0-2.05-.74h-2.6v5h2.6A2.75,2.75,0,0,0,630,69.2,2.54,2.54,0,0,0,630.66,67.4Z"/><path class="cls-9" d="M643,69.61a3.58,3.58,0,0,0-1,.12,2.58,2.58,0,0,0-1.73,1.2,4.84,4.84,0,0,0-.6,2.59v6.36h-3.12V67.09h3V69a3.67,3.67,0,0,1,1.54-1.63,6,6,0,0,1,2.88-.57v2.83C643.71,69.63,643.37,69.61,643,69.61Z"/><path class="cls-9" d="M646.33,65.12v-3h3.19v3Zm0,14.76V67.09h3.12V79.88Z"/><path class="cls-9" d="M659.87,79.88h-3.41l-5-12.79h3.44l3.26,9.53,3.43-9.53H665Z"/><path class="cls-9" d="M674.22,79.88V77.94a3.62,3.62,0,0,1-1.45,1.62,5.06,5.06,0,0,1-4.09.29,4.31,4.31,0,0,1-1.34-.82,3.73,3.73,0,0,1-.88-1.2,3.31,3.31,0,0,1-.33-1.45,3.71,3.71,0,0,1,.35-1.57,3.6,3.6,0,0,1,1.08-1.34,5.72,5.72,0,0,1,1.87-.91,9.77,9.77,0,0,1,2.7-.33h2v-.56c0-.12,0-.23,0-.34s0-.16-.06-.18a1.87,1.87,0,0,0-.8-1.34,2.91,2.91,0,0,0-1.81-.56,4.17,4.17,0,0,0-1.59.29,4.58,4.58,0,0,0-1.25.77l-1.8-1.81a8.19,8.19,0,0,1,2.13-1.29,7.41,7.41,0,0,1,2.79-.48,7,7,0,0,1,2.34.36,5,5,0,0,1,1.73,1,4.37,4.37,0,0,1,1.08,1.51,4.66,4.66,0,0,1,.37,1.87v8.4Zm-.1-5.64H672a3.9,3.9,0,0,0-1.22.17,2.56,2.56,0,0,0-.84.44,1.66,1.66,0,0,0-.49.62,1.47,1.47,0,0,0-.16.67,1.63,1.63,0,0,0,.47,1.16,1.93,1.93,0,0,0,1.47.49,2.73,2.73,0,0,0,2.08-.85,3.22,3.22,0,0,0,.8-2.31Z"/><path class="cls-9" d="M686.05,80.05a4.6,4.6,0,0,1-1.67-.29,3.89,3.89,0,0,1-1.24-.77,3,3,0,0,1-.78-1.12,3.56,3.56,0,0,1-.27-1.37V69.56h-2.42V67.09h2.42V63.44h3.12v3.65h3v2.47h-3v6.51a1.47,1.47,0,0,0,.4,1.11,1.77,1.77,0,0,0,1.31.4,4.37,4.37,0,0,0,.7-.07,4.91,4.91,0,0,0,.71-.2v2.48A8.72,8.72,0,0,1,686.05,80.05Z"/><path class="cls-9" d="M690,74.34V72.11h6.14v2.23Z"/><path class="cls-9" d="M618,108.68v-7.53h-6.55v7.53H608V90.9h3.41v7.46H618V90.9h3.36v17.78Z"/><path class="cls-9" d="M632.72,108.68v-1.94a3.62,3.62,0,0,1-1.45,1.62,5.06,5.06,0,0,1-4.09.29,4.26,4.26,0,0,1-1.33-.82,3.76,3.76,0,0,1-.89-1.2,3.3,3.3,0,0,1-.32-1.45,3.7,3.7,0,0,1,.34-1.57,3.81,3.81,0,0,1,1.08-1.34,5.78,5.78,0,0,1,1.88-.91,9.77,9.77,0,0,1,2.7-.33h2v-.56c0-.12,0-.23,0-.34s0-.16-.06-.18a1.88,1.88,0,0,0-.81-1.34,2.91,2.91,0,0,0-1.81-.56,4.12,4.12,0,0,0-1.58.29,4.43,4.43,0,0,0-1.25.77l-1.8-1.81A8,8,0,0,1,627.43,96a7.46,7.46,0,0,1,2.8-.48,7,7,0,0,1,2.34.36,5.09,5.09,0,0,1,1.73,1,4.37,4.37,0,0,1,1.08,1.51,4.84,4.84,0,0,1,.37,1.87v8.4Zm-.09-5.64h-2.11a4,4,0,0,0-1.23.17,2.78,2.78,0,0,0-.84.44,1.77,1.77,0,0,0-.49.62,1.61,1.61,0,0,0-.16.67,1.63,1.63,0,0,0,.47,1.16,2,2,0,0,0,1.48.49,2.69,2.69,0,0,0,2.07-.85,3.22,3.22,0,0,0,.81-2.31Z"/><path class="cls-9" d="M648.37,108.68v-2a3.3,3.3,0,0,1-1.45,1.61,4.82,4.82,0,0,1-2.53.63,5.09,5.09,0,0,1-1.92-.35,4.15,4.15,0,0,1-1.49-1,4.52,4.52,0,0,1-1-1.6,6,6,0,0,1-.35-2.11v-8h3.12v7.54a3.12,3.12,0,0,0,.66,2.19,2.4,2.4,0,0,0,1.84.71,2.78,2.78,0,0,0,2.16-1,4.62,4.62,0,0,0,.86-3.08V95.89h3.12v12.79Z"/><path class="cls-9" d="M663.64,105.11a3.51,3.51,0,0,1-.32,1.45,3.62,3.62,0,0,1-.93,1.26,4.85,4.85,0,0,1-1.59.89,7,7,0,0,1-2.28.33,6.34,6.34,0,0,1-4.48-1.79l1.8-1.81a4.12,4.12,0,0,0,1.11.75,3.68,3.68,0,0,0,1.57.33,2.55,2.55,0,0,0,1.54-.39,1.2,1.2,0,0,0,.53-1,1.13,1.13,0,0,0-.46-1,4.42,4.42,0,0,0-1.15-.61c-.46-.18-1-.36-1.49-.53a6.79,6.79,0,0,1-1.49-.71,3.82,3.82,0,0,1-1.15-1.15,3.4,3.4,0,0,1-.45-1.85,3.29,3.29,0,0,1,.31-1.38,3.68,3.68,0,0,1,.92-1.22,4.72,4.72,0,0,1,1.51-.87,5.74,5.74,0,0,1,2.06-.34,6,6,0,0,1,2.52.5,6.09,6.09,0,0,1,1.84,1.27l-1.8,1.83a4.37,4.37,0,0,0-1.06-.77,3.1,3.1,0,0,0-1.43-.31,1.88,1.88,0,0,0-1.36.43,1.26,1.26,0,0,0-.44.89.92.92,0,0,0,.45.8,6.07,6.07,0,0,0,1.14.55l1.49.53A6.1,6.1,0,0,1,662,102a3.78,3.78,0,0,1,1.14,1.21A3.62,3.62,0,0,1,663.64,105.11Z"/><path class="cls-9" d="M675,108.68v-7.56a3.1,3.1,0,0,0-.66-2.17,2.39,2.39,0,0,0-1.83-.71,2.78,2.78,0,0,0-2.16,1,4.51,4.51,0,0,0-.87,3.06v6.41h-3.12V90.9h3.12v6.81a3.56,3.56,0,0,1,1.44-1.5,4.87,4.87,0,0,1,2.48-.58,5.15,5.15,0,0,1,1.91.34,4.1,4.1,0,0,1,1.49,1,4.65,4.65,0,0,1,1,1.6,5.84,5.84,0,0,1,.35,2.11v8Z"/><path class="cls-9" d="M689.32,108.68v-1.94a3.64,3.64,0,0,1-1.46,1.62,5.06,5.06,0,0,1-4.09.29,4.38,4.38,0,0,1-1.33-.82,3.76,3.76,0,0,1-.89-1.2,3.45,3.45,0,0,1-.32-1.45,3.56,3.56,0,0,1,.35-1.57,3.6,3.6,0,0,1,1.08-1.34,5.62,5.62,0,0,1,1.87-.91,9.77,9.77,0,0,1,2.7-.33h2v-.56c0-.12,0-.23,0-.34s0-.16-.06-.18a1.88,1.88,0,0,0-.81-1.34,2.89,2.89,0,0,0-1.81-.56,4.12,4.12,0,0,0-1.58.29,4.43,4.43,0,0,0-1.25.77l-1.8-1.81A8,8,0,0,1,684,96a7.5,7.5,0,0,1,2.8-.48,7,7,0,0,1,2.34.36,5,5,0,0,1,1.73,1A4.37,4.37,0,0,1,692,98.41a4.66,4.66,0,0,1,.37,1.87v8.4Zm-.1-5.64h-2.11a4,4,0,0,0-1.23.17,2.78,2.78,0,0,0-.84.44,1.89,1.89,0,0,0-.49.62,1.59,1.59,0,0,0-.15.67,1.62,1.62,0,0,0,.46,1.16,2,2,0,0,0,1.48.49,2.73,2.73,0,0,0,2.08-.85,3.26,3.26,0,0,0,.8-2.31Z"/><path class="cls-9" d="M696.25,108.68V90.9h3.12v17.78Z"/><path class="cls-9" d="M708.18,108.85a4.6,4.6,0,0,1-1.67-.29,3.93,3.93,0,0,1-1.25-.77,3.23,3.23,0,0,1-.78-1.12,3.75,3.75,0,0,1-.26-1.37V98.36H701.8V95.89h2.42V92.24h3.12v3.65h3v2.47h-3v6.51a1.47,1.47,0,0,0,.4,1.11,1.76,1.76,0,0,0,1.3.4,4.49,4.49,0,0,0,.71-.07,4.91,4.91,0,0,0,.71-.2v2.48A8.72,8.72,0,0,1,708.18,108.85Z"/><circle class="cls-10" cx="464.5" cy="204" r="85"/><path class="cls-3" d="M403.6,183,398.27,177V183h-3.12V165.2h3.12v10.63l5.07-5.64h3.81l-5.76,6.22,6.15,6.57Z"/><path class="cls-3" d="M420.57,176.57a7.87,7.87,0,0,1-.47,2.78,6.08,6.08,0,0,1-1.31,2.1,5.85,5.85,0,0,1-2,1.33,6.7,6.7,0,0,1-4.93,0,5.91,5.91,0,0,1-2-1.33,6.23,6.23,0,0,1-1.31-2.1,7.87,7.87,0,0,1-.46-2.78,7.76,7.76,0,0,1,.46-2.76,6.14,6.14,0,0,1,1.31-2.08,5.94,5.94,0,0,1,2-1.34,6.83,6.83,0,0,1,4.93,0,5.88,5.88,0,0,1,2,1.34,6,6,0,0,1,1.31,2.08A7.76,7.76,0,0,1,420.57,176.57Zm-3.24,0a4.64,4.64,0,0,0-.84-3,2.69,2.69,0,0,0-4.26,0,4.58,4.58,0,0,0-.85,3,4.64,4.64,0,0,0,.85,3,2.66,2.66,0,0,0,4.25,0A4.7,4.7,0,0,0,417.33,176.57Z"/><path class="cls-3" d="M439.07,183v-7.56c0-1.92-.71-2.88-2.12-2.88a2,2,0,0,0-.93.25,2.52,2.52,0,0,0-.82.75,4.06,4.06,0,0,0-.57,1.22,6.15,6.15,0,0,0-.21,1.69V183H431.3v-7.56c0-1.92-.72-2.88-2.14-2.88a2,2,0,0,0-.94.25,2.59,2.59,0,0,0-.81.75,4.07,4.07,0,0,0-.58,1.22,6.15,6.15,0,0,0-.21,1.69V183H423.5V170.19h3v2a3.88,3.88,0,0,1,1.35-1.67,3.84,3.84,0,0,1,2.19-.58,4.29,4.29,0,0,1,1.43.22,4.39,4.39,0,0,1,1.12.59,3.7,3.7,0,0,1,.81.82,6.24,6.24,0,0,1,.54.93,4.78,4.78,0,0,1,1.53-1.88,3.94,3.94,0,0,1,2.36-.68,4.37,4.37,0,0,1,1.79.36,3.88,3.88,0,0,1,1.36,1,4.66,4.66,0,0,1,.88,1.58,6.34,6.34,0,0,1,.31,2.07v8Z"/><path class="cls-3" d="M458.58,176.57a7.87,7.87,0,0,1-.46,2.78,7,7,0,0,1-1.24,2.1,5.34,5.34,0,0,1-1.8,1.33,5.16,5.16,0,0,1-2.14.47,4.3,4.3,0,0,1-1.11-.15,5.45,5.45,0,0,1-1.07-.39,4.17,4.17,0,0,1-.91-.62,3,3,0,0,1-.65-.79v6.12h-3.12V170.19h3v1.9a3.12,3.12,0,0,1,.62-.86,4,4,0,0,1,.92-.68,5.94,5.94,0,0,1,1.13-.46,4.39,4.39,0,0,1,1.17-.16,5.15,5.15,0,0,1,2.14.46,5.37,5.37,0,0,1,1.8,1.34,6.88,6.88,0,0,1,1.24,2.08A7.76,7.76,0,0,1,458.58,176.57Zm-3.24,0a4.47,4.47,0,0,0-.88-3,2.79,2.79,0,0,0-3.38-.78,2.69,2.69,0,0,0-1,.78,3.72,3.72,0,0,0-.66,1.27,6.28,6.28,0,0,0,0,3.44,3.91,3.91,0,0,0,.66,1.27,2.75,2.75,0,0,0,1,.8,2.9,2.9,0,0,0,1.19.26,2.86,2.86,0,0,0,1.19-.26,2.67,2.67,0,0,0,1-.8,3.91,3.91,0,0,0,.66-1.27A5.6,5.6,0,0,0,455.34,176.57Z"/><path class="cls-3" d="M463.86,177.44a4.1,4.1,0,0,0,1.13,2.38,3.21,3.21,0,0,0,2.35.91,3.36,3.36,0,0,0,2.57-1l1.83,1.81a7.06,7.06,0,0,1-2.09,1.28,6.8,6.8,0,0,1-2.47.42,7.07,7.07,0,0,1-2.63-.48,6.24,6.24,0,0,1-2.1-1.36,6.12,6.12,0,0,1-1.39-2.1,7.08,7.08,0,0,1-.51-2.74,7.82,7.82,0,0,1,.45-2.71,6.28,6.28,0,0,1,1.24-2.1,5.66,5.66,0,0,1,1.92-1.35,6.48,6.48,0,0,1,4.77,0,5.15,5.15,0,0,1,1.87,1.29,6.33,6.33,0,0,1,1.25,2.16,9.19,9.19,0,0,1,.45,3v.63Zm5.4-2.23a4,4,0,0,0-.86-2.09,2.21,2.21,0,0,0-1.78-.79,2.34,2.34,0,0,0-1.78.78,3.78,3.78,0,0,0-.93,2.1Z"/><path class="cls-3" d="M480.09,183.15a4.57,4.57,0,0,1-1.67-.29,3.93,3.93,0,0,1-1.25-.77,3.23,3.23,0,0,1-.78-1.12,3.75,3.75,0,0,1-.26-1.37v-6.94H473.7v-2.47h2.43v-3.65h3.12v3.65h3v2.47h-3v6.51a1.5,1.5,0,0,0,.39,1.11,1.79,1.79,0,0,0,1.31.4,4.49,4.49,0,0,0,.71-.07,5.29,5.29,0,0,0,.71-.2v2.48A8.83,8.83,0,0,1,480.09,183.15Z"/><path class="cls-3" d="M487.31,177.44a4.1,4.1,0,0,0,1.13,2.38,3.21,3.21,0,0,0,2.35.91,3.36,3.36,0,0,0,2.57-1l1.82,1.81a6.9,6.9,0,0,1-2.08,1.28,6.82,6.82,0,0,1-2.48.42,7,7,0,0,1-2.62-.48,6.24,6.24,0,0,1-2.1-1.36,6.14,6.14,0,0,1-1.4-2.1,7.27,7.27,0,0,1-.5-2.74,8.06,8.06,0,0,1,.44-2.71,6.47,6.47,0,0,1,1.25-2.1,5.66,5.66,0,0,1,1.92-1.35,6.48,6.48,0,0,1,4.77,0,5.15,5.15,0,0,1,1.87,1.29,6.33,6.33,0,0,1,1.25,2.16,9.19,9.19,0,0,1,.45,3v.63Zm5.4-2.23a4.07,4.07,0,0,0-.86-2.09,2.21,2.21,0,0,0-1.78-.79,2.37,2.37,0,0,0-1.79.78,3.84,3.84,0,0,0-.92,2.1Z"/><path class="cls-3" d="M507.28,183v-7.56a3.1,3.1,0,0,0-.66-2.17,2.4,2.4,0,0,0-1.84-.71,2.81,2.81,0,0,0-2.16,1,4.56,4.56,0,0,0-.86,3.06V183h-3.12V170.19h3v2a3.47,3.47,0,0,1,1.47-1.62,4.91,4.91,0,0,1,2.55-.61,5.24,5.24,0,0,1,1.92.34,4.19,4.19,0,0,1,1.49,1,4.65,4.65,0,0,1,1,1.6,6.06,6.06,0,0,1,.35,2.11v8Z"/><path class="cls-3" d="M519.18,183.15a4.51,4.51,0,0,1-1.66-.29,3.83,3.83,0,0,1-1.25-.77,3,3,0,0,1-.78-1.12,3.56,3.56,0,0,1-.27-1.37v-6.94H512.8v-2.47h2.42v-3.65h3.12v3.65h3v2.47h-3v6.51a1.51,1.51,0,0,0,.4,1.11,1.77,1.77,0,0,0,1.31.4,4.6,4.6,0,0,0,.71-.07,5.15,5.15,0,0,0,.7-.2v2.48A8.72,8.72,0,0,1,519.18,183.15Z"/><path class="cls-3" d="M526.41,177.44a4,4,0,0,0,1.13,2.38,3.2,3.2,0,0,0,2.35.91,3.39,3.39,0,0,0,2.57-1l1.82,1.81a6.94,6.94,0,0,1-2.09,1.28,6.77,6.77,0,0,1-2.47.42,7.07,7.07,0,0,1-2.63-.48,6.14,6.14,0,0,1-3.49-3.46,7.08,7.08,0,0,1-.51-2.74,7.82,7.82,0,0,1,.45-2.71,6.14,6.14,0,0,1,1.25-2.1,5.48,5.48,0,0,1,1.92-1.35,6.06,6.06,0,0,1,2.43-.48,6.19,6.19,0,0,1,2.33.43,5.06,5.06,0,0,1,1.87,1.29,6.17,6.17,0,0,1,1.25,2.16,9.18,9.18,0,0,1,.46,3v.63Zm5.4-2.23a4.07,4.07,0,0,0-.87-2.09,2.19,2.19,0,0,0-1.77-.79,2.36,2.36,0,0,0-1.79.78,3.7,3.7,0,0,0-.92,2.1Z"/><path class="cls-3" d="M432.81,202.9a9.86,9.86,0,0,1-.71,3.87,7.91,7.91,0,0,1-1.94,2.77,8.41,8.41,0,0,1-2.91,1.68,11.34,11.34,0,0,1-3.61.56h-5.28V194h5.28a11.59,11.59,0,0,1,3.65.56,8.1,8.1,0,0,1,2.9,1.68,7.64,7.64,0,0,1,1.92,2.79A9.86,9.86,0,0,1,432.81,202.9Zm-3.53,0a7.46,7.46,0,0,0-.43-2.66,5.61,5.61,0,0,0-1.18-1.92,4.83,4.83,0,0,0-1.81-1.15,6.48,6.48,0,0,0-2.27-.39h-1.82V209h1.82a6.48,6.48,0,0,0,2.27-.39,4.83,4.83,0,0,0,1.81-1.15,5.61,5.61,0,0,0,1.18-1.92A7.38,7.38,0,0,0,429.28,202.9Z"/><path class="cls-3" d="M438.16,206.24a4,4,0,0,0,1.13,2.38,3.21,3.21,0,0,0,2.35.91,3.37,3.37,0,0,0,2.57-1l1.82,1.81a6.94,6.94,0,0,1-2.09,1.28,6.77,6.77,0,0,1-2.47.42,7.11,7.11,0,0,1-2.63-.48,6.44,6.44,0,0,1-2.1-1.36,6.26,6.26,0,0,1-1.39-2.1,7.27,7.27,0,0,1-.5-2.74,8.06,8.06,0,0,1,.44-2.71,6.3,6.3,0,0,1,1.25-2.1,5.66,5.66,0,0,1,1.92-1.35,6.46,6.46,0,0,1,4.76-.05,5.18,5.18,0,0,1,1.88,1.29,6.31,6.31,0,0,1,1.24,2.16,8.92,8.92,0,0,1,.46,3v.63Zm5.4-2.23a4.15,4.15,0,0,0-.86-2.09,2.21,2.21,0,0,0-1.78-.79,2.37,2.37,0,0,0-1.79.78,3.77,3.77,0,0,0-.92,2.1Z"/><path class="cls-3" d="M465.06,211.78v-7.56c0-1.92-.7-2.88-2.12-2.88a2,2,0,0,0-.93.25,2.49,2.49,0,0,0-.81.75,4.07,4.07,0,0,0-.58,1.22,6.15,6.15,0,0,0-.21,1.69v6.53h-3.12v-7.56c0-1.92-.71-2.88-2.14-2.88a2,2,0,0,0-.93.25,2.52,2.52,0,0,0-.82.75,4.07,4.07,0,0,0-.58,1.22,6.15,6.15,0,0,0-.21,1.69v6.53h-3.12V199h3v2a3.88,3.88,0,0,1,1.35-1.67,3.84,3.84,0,0,1,2.19-.58,4.25,4.25,0,0,1,1.43.22,4.39,4.39,0,0,1,1.12.59,3.7,3.7,0,0,1,.81.82,6.24,6.24,0,0,1,.54.93,4.72,4.72,0,0,1,1.54-1.88,3.89,3.89,0,0,1,2.35-.68,4.37,4.37,0,0,1,1.79.36,4,4,0,0,1,1.37,1,4.81,4.81,0,0,1,.87,1.58,6.34,6.34,0,0,1,.31,2.07v8Z"/><path class="cls-3" d="M474.42,206.24a4.1,4.1,0,0,0,1.13,2.38,3.21,3.21,0,0,0,2.35.91,3.36,3.36,0,0,0,2.57-1l1.83,1.81a7.06,7.06,0,0,1-2.09,1.28,6.8,6.8,0,0,1-2.47.42,7.07,7.07,0,0,1-2.63-.48,6.24,6.24,0,0,1-2.1-1.36,6.12,6.12,0,0,1-1.39-2.1,7.08,7.08,0,0,1-.51-2.74,7.82,7.82,0,0,1,.45-2.71,6.28,6.28,0,0,1,1.24-2.1,5.66,5.66,0,0,1,1.92-1.35,6.48,6.48,0,0,1,4.77-.05,5.15,5.15,0,0,1,1.87,1.29,6.33,6.33,0,0,1,1.25,2.16,9.19,9.19,0,0,1,.45,3v.63Zm5.4-2.23a4,4,0,0,0-.86-2.09,2.21,2.21,0,0,0-1.78-.79,2.34,2.34,0,0,0-1.78.78,3.78,3.78,0,0,0-.93,2.1Z"/><path class="cls-3" d="M494.39,211.78v-7.56a3.1,3.1,0,0,0-.66-2.17,2.39,2.39,0,0,0-1.83-.71,2.78,2.78,0,0,0-2.16,1,4.51,4.51,0,0,0-.87,3.06v6.41h-3.12V199h3v2a3.4,3.4,0,0,1,1.46-1.62,4.91,4.91,0,0,1,2.55-.61,5.24,5.24,0,0,1,1.92.34,4.19,4.19,0,0,1,1.49,1,4.65,4.65,0,0,1,1,1.6,6.06,6.06,0,0,1,.35,2.11v8Z"/><path class="cls-3" d="M500.34,211.78V209.5l5.6-8h-5.43V199h9.17v2.31l-5.59,8h5.76v2.52Z"/><path class="cls-3" d="M511.79,206.24V204h6.15v2.23Z"/><path class="cls-3" d="M405.74,240.58h-3.41l-5-12.79h3.43l3.27,9.53,3.43-9.53h3.41Z"/><path class="cls-3" d="M415.14,235a4.1,4.1,0,0,0,1.13,2.38,3.21,3.21,0,0,0,2.35.91,3.36,3.36,0,0,0,2.57-1l1.83,1.81a7.06,7.06,0,0,1-2.09,1.28,6.8,6.8,0,0,1-2.47.42,7.07,7.07,0,0,1-2.63-.48,6.24,6.24,0,0,1-2.1-1.36,6.12,6.12,0,0,1-1.39-2.1,7.08,7.08,0,0,1-.51-2.74,7.82,7.82,0,0,1,.45-2.71,6.28,6.28,0,0,1,1.24-2.1,5.66,5.66,0,0,1,1.92-1.35,6.48,6.48,0,0,1,4.77,0,5.15,5.15,0,0,1,1.87,1.29,6.33,6.33,0,0,1,1.25,2.16,9.19,9.19,0,0,1,.45,3V235Zm5.4-2.23a4,4,0,0,0-.86-2.09,2.21,2.21,0,0,0-1.78-.79,2.34,2.34,0,0,0-1.78.78,3.78,3.78,0,0,0-.93,2.1Z"/><path class="cls-3" d="M432.89,230.31a3.63,3.63,0,0,0-1,.12,2.6,2.6,0,0,0-1.73,1.2,4.84,4.84,0,0,0-.6,2.59v6.36h-3.12V227.79h3v1.94A3.6,3.6,0,0,1,431,228.1a6,6,0,0,1,2.88-.57v2.83C433.59,230.33,433.25,230.31,432.89,230.31Z"/><path class="cls-3" d="M444.57,237a3.58,3.58,0,0,1-1.25,2.71,4.8,4.8,0,0,1-1.58.89,7.08,7.08,0,0,1-2.28.33,6.39,6.39,0,0,1-4.49-1.79l1.8-1.81a4.12,4.12,0,0,0,1.11.75,3.72,3.72,0,0,0,1.58.33A2.54,2.54,0,0,0,441,238a1.2,1.2,0,0,0,.53-1,1.13,1.13,0,0,0-.46-1,4.26,4.26,0,0,0-1.15-.61c-.46-.18-1-.35-1.49-.53a6.72,6.72,0,0,1-1.48-.71,3.74,3.74,0,0,1-1.16-1.15,3.4,3.4,0,0,1-.45-1.85,3.26,3.26,0,0,1,.31-1.38,3.82,3.82,0,0,1,.92-1.22,4.77,4.77,0,0,1,1.52-.87,5.69,5.69,0,0,1,2.05-.34,6,6,0,0,1,2.52.5,6.27,6.27,0,0,1,1.85,1.27L442.7,231a4.43,4.43,0,0,0-1.07-.77,3.1,3.1,0,0,0-1.43-.31,1.88,1.88,0,0,0-1.36.43,1.26,1.26,0,0,0-.44.89.91.91,0,0,0,.46.8,5.52,5.52,0,0,0,1.14.55l1.48.53a5.93,5.93,0,0,1,1.49.74,3.78,3.78,0,0,1,1.14,1.21A3.53,3.53,0,0,1,444.57,237Z"/><path class="cls-3" d="M458.78,234.17a7.87,7.87,0,0,1-.47,2.78,6.08,6.08,0,0,1-1.31,2.1,5.85,5.85,0,0,1-2,1.33,6.7,6.7,0,0,1-4.93,0,5.91,5.91,0,0,1-2-1.33,6.08,6.08,0,0,1-1.31-2.1,7.87,7.87,0,0,1-.47-2.78,7.76,7.76,0,0,1,.47-2.76,5.92,5.92,0,0,1,3.28-3.42,6.83,6.83,0,0,1,4.93,0,5.88,5.88,0,0,1,2,1.34,6,6,0,0,1,1.31,2.08A7.76,7.76,0,0,1,458.78,234.17Zm-3.24,0a4.64,4.64,0,0,0-.84-3,2.69,2.69,0,0,0-4.26,0,4.58,4.58,0,0,0-.86,3,4.64,4.64,0,0,0,.86,3,2.65,2.65,0,0,0,4.24,0A4.64,4.64,0,0,0,455.54,234.17Z"/><path class="cls-3" d="M468.12,230.31a3.63,3.63,0,0,0-1,.12,2.6,2.6,0,0,0-1.73,1.2,4.84,4.84,0,0,0-.6,2.59v6.36H461.7V227.79h3v1.94a3.65,3.65,0,0,1,1.53-1.63,6,6,0,0,1,2.88-.57v2.83C468.82,230.33,468.48,230.31,468.12,230.31Z"/><path class="cls-3" d="M483,239.43a5.53,5.53,0,0,1-1.81,4.15,6.27,6.27,0,0,1-2.12,1.25,8.25,8.25,0,0,1-2.79.46,7.42,7.42,0,0,1-3.09-.57,6.4,6.4,0,0,1-2-1.28l1.77-1.78a4.75,4.75,0,0,0,1.23.79,4.57,4.57,0,0,0,1.94.36,4.46,4.46,0,0,0,1.48-.24,3.61,3.61,0,0,0,1.19-.69,3.15,3.15,0,0,0,1.05-2.45v-1a3.66,3.66,0,0,1-1.47,1.45,4.45,4.45,0,0,1-2.25.59A5.14,5.14,0,0,1,474,240a5.45,5.45,0,0,1-1.78-1.31,6.3,6.3,0,0,1-1.24-2,7.79,7.79,0,0,1,0-5.33,6.3,6.3,0,0,1,1.24-2A5.59,5.59,0,0,1,474,228a5.13,5.13,0,0,1,2.15-.46,4.34,4.34,0,0,1,1.25.18,5.19,5.19,0,0,1,1.1.46,3.85,3.85,0,0,1,.89.69,2.78,2.78,0,0,1,.58.83v-1.9h3ZM479.87,234a4.94,4.94,0,0,0-.24-1.6,3.7,3.7,0,0,0-.66-1.21,2.88,2.88,0,0,0-1-.78,2.53,2.53,0,0,0-1.18-.28,2.58,2.58,0,0,0-1.2.28,2.88,2.88,0,0,0-1,.78,3.7,3.7,0,0,0-.66,1.21,4.94,4.94,0,0,0-.24,1.6,4.21,4.21,0,0,0,.88,2.83,2.74,2.74,0,0,0,2.19,1,2.79,2.79,0,0,0,1.18-.26,3,3,0,0,0,1-.77,3.81,3.81,0,0,0,.66-1.21A5.11,5.11,0,0,0,479.87,234Z"/><path class="cls-3" d="M495.62,240.58v-2a3.37,3.37,0,0,1-1.46,1.61,4.8,4.8,0,0,1-2.53.63,5.17,5.17,0,0,1-1.92-.35,4.15,4.15,0,0,1-1.49-1,4.67,4.67,0,0,1-1-1.6,6,6,0,0,1-.35-2.11v-8H490v7.54a3.12,3.12,0,0,0,.66,2.19,2.41,2.41,0,0,0,1.84.71,2.78,2.78,0,0,0,2.16-1,4.62,4.62,0,0,0,.86-3.08v-6.38h3.12v12.79Z"/><path class="cls-3" d="M511.19,240.58V233a3.1,3.1,0,0,0-.66-2.17,2.39,2.39,0,0,0-1.83-.71,2.78,2.78,0,0,0-2.16,1,4.51,4.51,0,0,0-.87,3.06v6.41h-3.12V227.79h3v2a3.4,3.4,0,0,1,1.46-1.62,4.91,4.91,0,0,1,2.55-.61,5.24,5.24,0,0,1,1.92.34,4.19,4.19,0,0,1,1.49,1,4.65,4.65,0,0,1,1,1.6,6.06,6.06,0,0,1,.35,2.11v8Z"/><path class="cls-3" d="M529.72,239.43a5.65,5.65,0,0,1-.47,2.29,5.46,5.46,0,0,1-1.34,1.86,6.31,6.31,0,0,1-2.13,1.25,8.14,8.14,0,0,1-2.78.46,7.5,7.5,0,0,1-3.1-.57,6.46,6.46,0,0,1-2-1.28l1.77-1.78a4.43,4.43,0,0,0,1.23.79,4.54,4.54,0,0,0,1.94.36,4.46,4.46,0,0,0,1.48-.24,3.47,3.47,0,0,0,1.18-.69,3.14,3.14,0,0,0,.78-1.07,3.24,3.24,0,0,0,.28-1.38v-1a3.76,3.76,0,0,1-1.48,1.45,4.41,4.41,0,0,1-2.24.59,5.14,5.14,0,0,1-2.15-.47,5.59,5.59,0,0,1-1.79-1.31,6.46,6.46,0,0,1-1.23-2,7.79,7.79,0,0,1,0-5.33,6.46,6.46,0,0,1,1.23-2,5.75,5.75,0,0,1,1.79-1.31,5.13,5.13,0,0,1,2.15-.46,4.34,4.34,0,0,1,1.25.18,5.19,5.19,0,0,1,1.1.46,4.07,4.07,0,0,1,.89.69,2.78,2.78,0,0,1,.58.83v-1.9h3ZM526.6,234a4.94,4.94,0,0,0-.24-1.6,3.7,3.7,0,0,0-.66-1.21,3,3,0,0,0-1-.78,2.53,2.53,0,0,0-1.18-.28,2.58,2.58,0,0,0-1.2.28,2.88,2.88,0,0,0-1,.78,3.7,3.7,0,0,0-.66,1.21,4.94,4.94,0,0,0-.24,1.6,4.21,4.21,0,0,0,.88,2.83,2.74,2.74,0,0,0,2.19,1,2.79,2.79,0,0,0,1.18-.26,3.09,3.09,0,0,0,1-.77,3.81,3.81,0,0,0,.66-1.21A5.11,5.11,0,0,0,526.6,234Z"/><circle class="cls-10" cx="772.5" cy="263" r="85"/><path class="cls-3" d="M723.82,270.78V257l-3.88,13.82h-4L712.1,257v13.82h-3.4V253h5.35l3.89,14,3.88-14h5.36v17.78Z"/><path class="cls-3" d="M742.73,264.37a7.87,7.87,0,0,1-.47,2.78,6.08,6.08,0,0,1-1.31,2.1,5.85,5.85,0,0,1-2,1.33,6.7,6.7,0,0,1-4.93,0,5.91,5.91,0,0,1-2-1.33,6.23,6.23,0,0,1-1.31-2.1,7.87,7.87,0,0,1-.46-2.78,7.76,7.76,0,0,1,.46-2.76,6.14,6.14,0,0,1,1.31-2.08,5.94,5.94,0,0,1,2-1.34,6.83,6.83,0,0,1,4.93,0,5.88,5.88,0,0,1,2,1.34,6,6,0,0,1,1.31,2.08A7.76,7.76,0,0,1,742.73,264.37Zm-3.24,0a4.64,4.64,0,0,0-.84-3,2.69,2.69,0,0,0-4.26,0,4.58,4.58,0,0,0-.85,3,4.64,4.64,0,0,0,.85,3,2.66,2.66,0,0,0,4.25,0A4.7,4.7,0,0,0,739.49,264.37Z"/><path class="cls-3" d="M754.3,270.78v-7.56a3.1,3.1,0,0,0-.66-2.17,2.41,2.41,0,0,0-1.84-.71,2.81,2.81,0,0,0-2.16,1,4.51,4.51,0,0,0-.86,3.06v6.41h-3.12V258h3v2a3.47,3.47,0,0,1,1.47-1.62,4.91,4.91,0,0,1,2.55-.61,5.15,5.15,0,0,1,1.91.34,4,4,0,0,1,1.49,1,4.83,4.83,0,0,1,1,1.6,6.06,6.06,0,0,1,.35,2.11v8Z"/><path class="cls-3" d="M761.28,256v-3h3.19v3Zm0,14.76V258h3.12v12.79Z"/><path class="cls-3" d="M773.23,271a4.6,4.6,0,0,1-1.67-.29,3.89,3.89,0,0,1-1.24-.77,3,3,0,0,1-.78-1.12,3.56,3.56,0,0,1-.27-1.37v-6.94h-2.42V258h2.42v-3.65h3.12V258h3v2.47h-3V267a1.47,1.47,0,0,0,.4,1.11,1.77,1.77,0,0,0,1.31.4,4.37,4.37,0,0,0,.7-.07,4.91,4.91,0,0,0,.71-.2v2.48A8.72,8.72,0,0,1,773.23,271Z"/><path class="cls-3" d="M789.58,264.37a7.87,7.87,0,0,1-.47,2.78,6.08,6.08,0,0,1-1.31,2.1,5.85,5.85,0,0,1-2,1.33,6.7,6.7,0,0,1-4.93,0,5.91,5.91,0,0,1-2-1.33,6.08,6.08,0,0,1-1.31-2.1,7.87,7.87,0,0,1-.47-2.78,7.76,7.76,0,0,1,.47-2.76,5.92,5.92,0,0,1,3.28-3.42,6.83,6.83,0,0,1,4.93,0,5.88,5.88,0,0,1,2,1.34,6,6,0,0,1,1.31,2.08A7.76,7.76,0,0,1,789.58,264.37Zm-3.24,0a4.64,4.64,0,0,0-.84-3,2.69,2.69,0,0,0-4.26,0,4.58,4.58,0,0,0-.86,3,4.64,4.64,0,0,0,.86,3,2.65,2.65,0,0,0,4.24,0A4.64,4.64,0,0,0,786.34,264.37Z"/><path class="cls-3" d="M798.92,260.51a3.63,3.63,0,0,0-1,.12,2.6,2.6,0,0,0-1.73,1.2,4.84,4.84,0,0,0-.6,2.59v6.36H792.5V258h3v1.94a3.65,3.65,0,0,1,1.53-1.63,6,6,0,0,1,2.88-.57v2.83C799.62,260.53,799.28,260.51,798.92,260.51Z"/><path class="cls-3" d="M802.25,256v-3h3.19v3Zm0,14.76V258h3.12v12.79Z"/><path class="cls-3" d="M817.94,270.78v-7.56a3.1,3.1,0,0,0-.66-2.17,2.39,2.39,0,0,0-1.83-.71,2.78,2.78,0,0,0-2.16,1,4.51,4.51,0,0,0-.87,3.06v6.41H809.3V258h3v2a3.5,3.5,0,0,1,1.46-1.62,5,5,0,0,1,2.56-.61,5.19,5.19,0,0,1,1.91.34,4.1,4.1,0,0,1,1.49,1,4.65,4.65,0,0,1,1,1.6,5.84,5.84,0,0,1,.35,2.11v8Z"/><path class="cls-3" d="M836.47,269.63a5.53,5.53,0,0,1-1.81,4.15,6.27,6.27,0,0,1-2.12,1.25,8.2,8.2,0,0,1-2.79.46,7.42,7.42,0,0,1-3.09-.57,6.4,6.4,0,0,1-2-1.28l1.77-1.78a4.75,4.75,0,0,0,1.23.79,4.57,4.57,0,0,0,1.94.36,4.46,4.46,0,0,0,1.48-.24,3.61,3.61,0,0,0,1.19-.69,3.15,3.15,0,0,0,1.05-2.45v-1a3.66,3.66,0,0,1-1.47,1.45,4.45,4.45,0,0,1-2.25.59,5.14,5.14,0,0,1-2.15-.47,5.45,5.45,0,0,1-1.78-1.31,6.3,6.3,0,0,1-1.24-2,7.79,7.79,0,0,1,0-5.33,6.3,6.3,0,0,1,1.24-2,5.59,5.59,0,0,1,1.78-1.31,5.13,5.13,0,0,1,2.15-.46,4.34,4.34,0,0,1,1.25.18,5.19,5.19,0,0,1,1.1.46,3.85,3.85,0,0,1,.89.69,2.78,2.78,0,0,1,.58.83V258h3Zm-3.12-5.42a4.94,4.94,0,0,0-.24-1.6,3.7,3.7,0,0,0-.66-1.21,2.88,2.88,0,0,0-1-.78,2.53,2.53,0,0,0-1.18-.28,2.58,2.58,0,0,0-1.2.28,3,3,0,0,0-1,.78,3.7,3.7,0,0,0-.66,1.21,4.94,4.94,0,0,0-.24,1.6,4.21,4.21,0,0,0,.88,2.83,2.74,2.74,0,0,0,2.19,1,2.79,2.79,0,0,0,1.18-.26,3,3,0,0,0,1-.77,3.81,3.81,0,0,0,.66-1.21A5.11,5.11,0,0,0,833.35,264.21Z"/><circle class="cls-10" cx="488.5" cy="609" r="85"/><path class="cls-3" d="M430.11,602.38l-6.38-8.49v8.49h-3.41V584.6h3.41v8.13l6.16-8.13h4.23l-7,8.71,7.29,9.07Z"/><path class="cls-3" d="M447.51,596a7.87,7.87,0,0,1-.47,2.78,6.08,6.08,0,0,1-1.31,2.1,5.85,5.85,0,0,1-2,1.33,6.7,6.7,0,0,1-4.93,0,5.91,5.91,0,0,1-2-1.33,6.06,6.06,0,0,1-1.3-2.1,7.65,7.65,0,0,1-.47-2.78,7.54,7.54,0,0,1,.47-2.76,5.87,5.87,0,0,1,3.27-3.42,6.83,6.83,0,0,1,4.93,0,5.88,5.88,0,0,1,2,1.34,6,6,0,0,1,1.31,2.08A7.76,7.76,0,0,1,447.51,596Zm-3.24,0a4.64,4.64,0,0,0-.84-3,2.69,2.69,0,0,0-4.26,0,4.58,4.58,0,0,0-.85,3,4.64,4.64,0,0,0,.85,3,2.66,2.66,0,0,0,4.25,0A4.7,4.7,0,0,0,444.27,596Z"/><path class="cls-3" d="M466,602.38v-7.56c0-1.92-.71-2.88-2.12-2.88a2,2,0,0,0-.93.25,2.39,2.39,0,0,0-.81.75,3.84,3.84,0,0,0-.58,1.22,6.15,6.15,0,0,0-.21,1.69v6.53h-3.12v-7.56c0-1.92-.72-2.88-2.14-2.88a2,2,0,0,0-.94.25,2.59,2.59,0,0,0-.81.75,4.07,4.07,0,0,0-.58,1.22,6.15,6.15,0,0,0-.21,1.69v6.53h-3.12V589.59h3v2a3.88,3.88,0,0,1,1.35-1.67,3.84,3.84,0,0,1,2.19-.58,4.25,4.25,0,0,1,1.43.22,4.57,4.57,0,0,1,1.12.59,3.7,3.7,0,0,1,.81.82,6.24,6.24,0,0,1,.54.93,4.78,4.78,0,0,1,1.53-1.88,3.94,3.94,0,0,1,2.36-.68,4.37,4.37,0,0,1,1.79.36,3.88,3.88,0,0,1,1.36,1,4.66,4.66,0,0,1,.88,1.58,6.34,6.34,0,0,1,.31,2.07v8Z"/><path class="cls-3" d="M485.52,596a7.87,7.87,0,0,1-.46,2.78,7,7,0,0,1-1.24,2.1,5.34,5.34,0,0,1-1.8,1.33,5.16,5.16,0,0,1-2.14.47,4.3,4.3,0,0,1-1.11-.15,5.45,5.45,0,0,1-1.07-.39,4.17,4.17,0,0,1-.91-.62,3,3,0,0,1-.65-.79v6.12H473V589.59h3v1.9a3.12,3.12,0,0,1,.62-.86,4,4,0,0,1,.92-.68,5.94,5.94,0,0,1,1.13-.46,4.39,4.39,0,0,1,1.17-.16,5.15,5.15,0,0,1,2.14.46,5.37,5.37,0,0,1,1.8,1.34,6.88,6.88,0,0,1,1.24,2.08A7.76,7.76,0,0,1,485.52,596Zm-3.24,0a4.47,4.47,0,0,0-.88-3,2.79,2.79,0,0,0-3.38-.78,2.69,2.69,0,0,0-1,.78,3.72,3.72,0,0,0-.66,1.27,6.28,6.28,0,0,0,0,3.44A3.91,3.91,0,0,0,477,599a2.75,2.75,0,0,0,1,.8,2.9,2.9,0,0,0,1.19.26,2.86,2.86,0,0,0,1.19-.26,2.67,2.67,0,0,0,1-.8,3.91,3.91,0,0,0,.66-1.27A5.6,5.6,0,0,0,482.28,596Z"/><path class="cls-3" d="M490.8,596.84a4.1,4.1,0,0,0,1.13,2.38,3.21,3.21,0,0,0,2.35.91,3.36,3.36,0,0,0,2.57-1l1.83,1.81a7.06,7.06,0,0,1-2.09,1.28,6.8,6.8,0,0,1-2.47.42,7.07,7.07,0,0,1-2.63-.48,6.24,6.24,0,0,1-2.1-1.36,6.12,6.12,0,0,1-1.39-2.1,7.08,7.08,0,0,1-.51-2.74,7.82,7.82,0,0,1,.45-2.71,6.28,6.28,0,0,1,1.24-2.1,5.66,5.66,0,0,1,1.92-1.35,6.48,6.48,0,0,1,4.77,0,5.15,5.15,0,0,1,1.87,1.29,6.33,6.33,0,0,1,1.25,2.16,9.19,9.19,0,0,1,.45,3v.63Zm5.4-2.23a4,4,0,0,0-.86-2.09,2.21,2.21,0,0,0-1.78-.79,2.34,2.34,0,0,0-1.78.78,3.78,3.78,0,0,0-.93,2.1Z"/><path class="cls-3" d="M507,602.55a4.57,4.57,0,0,1-1.67-.29,3.93,3.93,0,0,1-1.25-.77,3.23,3.23,0,0,1-.78-1.12,3.75,3.75,0,0,1-.26-1.37v-6.94h-2.43v-2.47h2.43v-3.65h3.12v3.65h3v2.47h-3v6.51a1.5,1.5,0,0,0,.39,1.11,1.79,1.79,0,0,0,1.31.4,4.49,4.49,0,0,0,.71-.07,5.29,5.29,0,0,0,.71-.2v2.48A8.83,8.83,0,0,1,507,602.55Z"/><path class="cls-3" d="M514.25,596.84a4.1,4.1,0,0,0,1.13,2.38,3.21,3.21,0,0,0,2.35.91,3.36,3.36,0,0,0,2.57-1l1.82,1.81a6.9,6.9,0,0,1-2.08,1.28,6.82,6.82,0,0,1-2.48.42,7,7,0,0,1-2.62-.48,6.24,6.24,0,0,1-2.1-1.36,6.14,6.14,0,0,1-1.4-2.1,7.27,7.27,0,0,1-.5-2.74,8.06,8.06,0,0,1,.44-2.71,6.47,6.47,0,0,1,1.25-2.1,5.66,5.66,0,0,1,1.92-1.35,6.48,6.48,0,0,1,4.77,0,5.15,5.15,0,0,1,1.87,1.29,6.33,6.33,0,0,1,1.25,2.16,9.19,9.19,0,0,1,.45,3v.63Zm5.4-2.23a4.07,4.07,0,0,0-.86-2.09,2.21,2.21,0,0,0-1.78-.79,2.37,2.37,0,0,0-1.79.78,3.84,3.84,0,0,0-.92,2.1Z"/><path class="cls-3" d="M534.22,602.38v-7.56a3.1,3.1,0,0,0-.66-2.17,2.4,2.4,0,0,0-1.84-.71,2.81,2.81,0,0,0-2.16,1,4.56,4.56,0,0,0-.86,3.06v6.41h-3.12V589.59h3v2a3.47,3.47,0,0,1,1.47-1.62,4.91,4.91,0,0,1,2.55-.61,5.24,5.24,0,0,1,1.92.34,4.19,4.19,0,0,1,1.49,1,4.65,4.65,0,0,1,1,1.6,6.06,6.06,0,0,1,.35,2.11v8Z"/><path class="cls-3" d="M540.17,602.38V600.1l5.59-8h-5.42v-2.47h9.17v2.31l-5.59,8h5.76v2.52Z"/><path class="cls-3" d="M551.62,596.84v-2.23h6.14v2.23Z"/><path class="cls-3" d="M421,625.64a4,4,0,0,0,1.13,2.38,3.21,3.21,0,0,0,2.35.91,3.37,3.37,0,0,0,2.57-1l1.82,1.81a6.94,6.94,0,0,1-2.09,1.28,6.77,6.77,0,0,1-2.47.42,7.11,7.11,0,0,1-2.63-.48,6.14,6.14,0,0,1-3.49-3.46,7.27,7.27,0,0,1-.5-2.74,7.82,7.82,0,0,1,.44-2.71,6.3,6.3,0,0,1,1.25-2.1,5.48,5.48,0,0,1,1.92-1.35,6.46,6.46,0,0,1,4.76-.05,5.18,5.18,0,0,1,1.88,1.29,6.31,6.31,0,0,1,1.24,2.16,8.92,8.92,0,0,1,.46,3v.63Zm5.4-2.23a4.07,4.07,0,0,0-.87-2.09,2.19,2.19,0,0,0-1.77-.79,2.36,2.36,0,0,0-1.79.78,3.7,3.7,0,0,0-.92,2.1Z"/><path class="cls-3" d="M438.74,620.91a3.7,3.7,0,0,0-1,.12,2.58,2.58,0,0,0-1.72,1.2,4.84,4.84,0,0,0-.6,2.59v6.36h-3.12V618.39h3v1.94a3.67,3.67,0,0,1,1.54-1.63,6,6,0,0,1,2.88-.57V621C439.44,620.93,439.1,620.91,438.74,620.91Z"/><path class="cls-3" d="M455.84,631.18h-3.77l-2.18-8.06-2.16,8.06H444l-3.65-12.79h3.46l2.2,9.38,2.55-9.38h2.8l2.5,9.38,2.19-9.38h3.47Z"/><path class="cls-3" d="M464,625.64a4,4,0,0,0,1.13,2.38,3.21,3.21,0,0,0,2.35.91,3.37,3.37,0,0,0,2.57-1l1.82,1.81a6.94,6.94,0,0,1-2.09,1.28,6.77,6.77,0,0,1-2.47.42,7.11,7.11,0,0,1-2.63-.48,6.14,6.14,0,0,1-3.49-3.46,7.27,7.27,0,0,1-.5-2.74,7.82,7.82,0,0,1,.44-2.71,6.3,6.3,0,0,1,1.25-2.1,5.48,5.48,0,0,1,1.92-1.35,6.46,6.46,0,0,1,4.76-.05,5.18,5.18,0,0,1,1.88,1.29,6.31,6.31,0,0,1,1.24,2.16,8.92,8.92,0,0,1,.46,3v.63Zm5.4-2.23a4.07,4.07,0,0,0-.87-2.09,2.19,2.19,0,0,0-1.77-.79,2.36,2.36,0,0,0-1.79.78,3.7,3.7,0,0,0-.92,2.1Z"/><path class="cls-3" d="M475.25,616.42v-3h3.19v3Zm0,14.76V618.39h3.12v12.79Z"/><path class="cls-3" d="M487.2,631.35a4.51,4.51,0,0,1-1.66-.29,3.83,3.83,0,0,1-1.25-.77,3,3,0,0,1-.78-1.12,3.56,3.56,0,0,1-.27-1.37v-6.94h-2.42v-2.47h2.42v-3.65h3.12v3.65h3v2.47h-3v6.51a1.51,1.51,0,0,0,.4,1.11,1.77,1.77,0,0,0,1.31.4,4.6,4.6,0,0,0,.71-.07,5.15,5.15,0,0,0,.7-.2v2.48A8.72,8.72,0,0,1,487.2,631.35Z"/><path class="cls-3" d="M494.43,625.64a4,4,0,0,0,1.13,2.38,3.2,3.2,0,0,0,2.35.91,3.37,3.37,0,0,0,2.57-1l1.82,1.81a6.94,6.94,0,0,1-2.09,1.28,6.77,6.77,0,0,1-2.47.42,7.11,7.11,0,0,1-2.63-.48,6.14,6.14,0,0,1-3.49-3.46,7.08,7.08,0,0,1-.5-2.74,7.82,7.82,0,0,1,.44-2.71,6.3,6.3,0,0,1,1.25-2.1,5.48,5.48,0,0,1,1.92-1.35,6.06,6.06,0,0,1,2.43-.48,6.15,6.15,0,0,1,2.33.43,5.06,5.06,0,0,1,1.87,1.29,6.17,6.17,0,0,1,1.25,2.16,8.92,8.92,0,0,1,.46,3v.63Zm5.4-2.23a4.07,4.07,0,0,0-.87-2.09,2.19,2.19,0,0,0-1.77-.79,2.36,2.36,0,0,0-1.79.78,3.7,3.7,0,0,0-.92,2.1Z"/><path class="cls-3" d="M512.18,620.91a3.7,3.7,0,0,0-1,.12,2.58,2.58,0,0,0-1.72,1.2,4.84,4.84,0,0,0-.6,2.59v6.36h-3.12V618.39h3v1.94a3.67,3.67,0,0,1,1.54-1.63,6,6,0,0,1,2.88-.57V621C512.88,620.93,512.54,620.91,512.18,620.91Z"/><path class="cls-3" d="M524.24,631.18v-2a3.37,3.37,0,0,1-1.46,1.61,4.8,4.8,0,0,1-2.53.63,5.17,5.17,0,0,1-1.92-.35,4.23,4.23,0,0,1-1.49-1,4.67,4.67,0,0,1-1-1.6,6,6,0,0,1-.35-2.11v-8h3.12v7.54a3.12,3.12,0,0,0,.66,2.19,2.4,2.4,0,0,0,1.84.71,2.78,2.78,0,0,0,2.16-1,4.57,4.57,0,0,0,.86-3.08v-6.38h3.12v12.79Z"/><path class="cls-3" d="M539.81,631.18v-7.56a3.1,3.1,0,0,0-.66-2.17,2.39,2.39,0,0,0-1.83-.71,2.78,2.78,0,0,0-2.16,1,4.51,4.51,0,0,0-.87,3.06v6.41h-3.12V618.39h3v2a3.4,3.4,0,0,1,1.46-1.62,4.93,4.93,0,0,1,2.56-.61,5.22,5.22,0,0,1,1.91.34,4.19,4.19,0,0,1,1.49,1,4.65,4.65,0,0,1,1,1.6,6.06,6.06,0,0,1,.35,2.11v8Z"/><path class="cls-3" d="M558.34,630a5.65,5.65,0,0,1-.47,2.29,5.46,5.46,0,0,1-1.34,1.86,6.41,6.41,0,0,1-2.13,1.25,8.14,8.14,0,0,1-2.78.46,7.46,7.46,0,0,1-3.1-.57,6.46,6.46,0,0,1-2-1.28l1.77-1.78a4.46,4.46,0,0,0,3.17,1.15,4.46,4.46,0,0,0,1.48-.24,3.47,3.47,0,0,0,1.18-.69,3.14,3.14,0,0,0,.78-1.07,3.24,3.24,0,0,0,.28-1.38v-1a3.69,3.69,0,0,1-1.48,1.45,4.41,4.41,0,0,1-2.24.59,5.14,5.14,0,0,1-2.15-.47,5.59,5.59,0,0,1-1.79-1.31,6.46,6.46,0,0,1-1.23-2,7.79,7.79,0,0,1,0-5.33,6.46,6.46,0,0,1,1.23-2,5.75,5.75,0,0,1,1.79-1.31,5.13,5.13,0,0,1,2.15-.46,4.34,4.34,0,0,1,1.25.18,5.19,5.19,0,0,1,1.1.46,4.07,4.07,0,0,1,.89.69,2.78,2.78,0,0,1,.58.83v-1.9h3Zm-3.12-5.42A4.94,4.94,0,0,0,555,623a3.7,3.7,0,0,0-.66-1.21,2.88,2.88,0,0,0-1-.78,2.53,2.53,0,0,0-1.18-.28,2.58,2.58,0,0,0-1.2.28,2.88,2.88,0,0,0-1,.78,3.7,3.7,0,0,0-.66,1.21,4.94,4.94,0,0,0-.24,1.6,4.21,4.21,0,0,0,.88,2.83,2.74,2.74,0,0,0,2.19,1,2.79,2.79,0,0,0,1.18-.26,3,3,0,0,0,1-.77,3.81,3.81,0,0,0,.66-1.21A5.11,5.11,0,0,0,555.22,624.61Z"/><circle class="cls-10" cx="226.5" cy="421" r="85"/><path class="cls-3" d="M193.29,414.38V396.6h3.12v17.78Z"/><path class="cls-3" d="M211.79,408a7.87,7.87,0,0,1-.47,2.78,6.08,6.08,0,0,1-1.31,2.1,5.85,5.85,0,0,1-2,1.33,6.7,6.7,0,0,1-4.93,0,5.91,5.91,0,0,1-2-1.33,6.06,6.06,0,0,1-1.3-2.1,7.65,7.65,0,0,1-.47-2.78,7.54,7.54,0,0,1,.47-2.76,5.87,5.87,0,0,1,3.27-3.42,6.83,6.83,0,0,1,4.93,0,5.88,5.88,0,0,1,2,1.34,6,6,0,0,1,1.31,2.08A7.76,7.76,0,0,1,211.79,408Zm-3.24,0a4.64,4.64,0,0,0-.84-3,2.69,2.69,0,0,0-4.26,0,4.58,4.58,0,0,0-.85,3,4.64,4.64,0,0,0,.85,3,2.66,2.66,0,0,0,4.25,0A4.64,4.64,0,0,0,208.55,408Z"/><path class="cls-3" d="M223.16,414.38l-5.32-5.95v5.95h-3.12V396.6h3.12v10.63l5.06-5.64h3.82L221,407.81l6.14,6.57Z"/><path class="cls-3" d="M236,414.38v-1.94a3.68,3.68,0,0,1-1.45,1.62,5.09,5.09,0,0,1-4.1.29,4.38,4.38,0,0,1-1.33-.82,3.91,3.91,0,0,1-.89-1.2,3.45,3.45,0,0,1-.32-1.45,3.56,3.56,0,0,1,.35-1.57A3.6,3.6,0,0,1,229.3,408a5.72,5.72,0,0,1,1.87-.91,9.77,9.77,0,0,1,2.7-.33h2v-.56c0-.12,0-.23,0-.34s0-.16-.06-.18a1.88,1.88,0,0,0-.81-1.34,2.89,2.89,0,0,0-1.81-.56,4.12,4.12,0,0,0-1.58.29,4.58,4.58,0,0,0-1.25.77l-1.8-1.81a7.74,7.74,0,0,1,2.13-1.28,7.21,7.21,0,0,1,2.79-.49,7,7,0,0,1,2.34.36,5,5,0,0,1,1.73,1,4.37,4.37,0,0,1,1.08,1.51A4.66,4.66,0,0,1,239,406v8.4Zm-.1-5.64h-2.11a4,4,0,0,0-1.23.17,2.61,2.61,0,0,0-.83.44,1.8,1.8,0,0,0-.5.62,1.63,1.63,0,0,0,.32,1.83,1.93,1.93,0,0,0,1.47.49,2.73,2.73,0,0,0,2.08-.85,3.26,3.26,0,0,0,.8-2.31Z"/><path class="cls-3" d="M242.89,414.38V396.6H246v17.78Z"/><path class="cls-3" d="M252.28,408.84a4.09,4.09,0,0,0,1.12,2.38,3.24,3.24,0,0,0,2.36.91,3.34,3.34,0,0,0,2.56-1l1.83,1.81a6.94,6.94,0,0,1-2.09,1.28,6.77,6.77,0,0,1-2.47.42,7.11,7.11,0,0,1-2.63-.48,6.14,6.14,0,0,1-3.49-3.46A7.08,7.08,0,0,1,249,408a7.82,7.82,0,0,1,.44-2.71,6.14,6.14,0,0,1,1.25-2.1,5.48,5.48,0,0,1,1.92-1.35,6.06,6.06,0,0,1,2.43-.48,6.19,6.19,0,0,1,2.33.43,5.06,5.06,0,0,1,1.87,1.29,6.17,6.17,0,0,1,1.25,2.16,8.92,8.92,0,0,1,.46,3v.63Zm5.4-2.23a4.07,4.07,0,0,0-.87-2.09,2.21,2.21,0,0,0-1.77-.79,2.36,2.36,0,0,0-1.79.78,3.78,3.78,0,0,0-.93,2.1Z"/><path class="cls-3" d="M176.27,443.18l-5.91-12.93v12.93H167V425.4h4.48l5.91,12.93V425.42h3.41v17.76Z"/><path class="cls-3" d="M187.16,437.64a4.1,4.1,0,0,0,1.13,2.38,3.24,3.24,0,0,0,2.36.91,3.35,3.35,0,0,0,2.56-1l1.83,1.81A7.06,7.06,0,0,1,193,443a6.8,6.8,0,0,1-2.47.42,7.07,7.07,0,0,1-2.63-.48,6.24,6.24,0,0,1-2.1-1.36,6.12,6.12,0,0,1-1.39-2.1,7.08,7.08,0,0,1-.51-2.74,7.82,7.82,0,0,1,.45-2.71,6.28,6.28,0,0,1,1.24-2.1,5.66,5.66,0,0,1,1.92-1.35,6.48,6.48,0,0,1,4.77-.05,5.15,5.15,0,0,1,1.87,1.29,6.33,6.33,0,0,1,1.25,2.16,9.19,9.19,0,0,1,.45,3v.63Zm5.4-2.23a4,4,0,0,0-.86-2.09,2.21,2.21,0,0,0-1.78-.79,2.34,2.34,0,0,0-1.78.78,3.78,3.78,0,0,0-.93,2.1Z"/><path class="cls-3" d="M203.39,443.35a4.57,4.57,0,0,1-1.67-.29,3.93,3.93,0,0,1-1.25-.77,3.23,3.23,0,0,1-.78-1.12,3.75,3.75,0,0,1-.26-1.37v-6.94H197v-2.47h2.43v-3.65h3.12v3.65h3v2.47h-3v6.51a1.5,1.5,0,0,0,.39,1.11,1.79,1.79,0,0,0,1.31.4,4.49,4.49,0,0,0,.71-.07,5.29,5.29,0,0,0,.71-.2v2.48A8.83,8.83,0,0,1,203.39,443.35Z"/><path class="cls-3" d="M207.2,443.18V440.9l5.6-8h-5.43v-2.47h9.17v2.31l-5.59,8h5.76v2.52Z"/><path class="cls-3" d="M233.29,443.18h-3.77l-2.18-8.06-2.16,8.06h-3.77l-3.65-12.79h3.46l2.21,9.38,2.54-9.38h2.81l2.5,9.38,2.18-9.38h3.48Z"/><path class="cls-3" d="M241.4,437.64a4.1,4.1,0,0,0,1.13,2.38,3.21,3.21,0,0,0,2.35.91,3.36,3.36,0,0,0,2.57-1l1.83,1.81a7.06,7.06,0,0,1-2.09,1.28,6.8,6.8,0,0,1-2.47.42,7.07,7.07,0,0,1-2.63-.48,6.24,6.24,0,0,1-2.1-1.36,6.12,6.12,0,0,1-1.39-2.1,7.08,7.08,0,0,1-.51-2.74,7.82,7.82,0,0,1,.45-2.71,6.28,6.28,0,0,1,1.24-2.1,5.66,5.66,0,0,1,1.92-1.35,6.48,6.48,0,0,1,4.77-.05,5.15,5.15,0,0,1,1.87,1.29,6.33,6.33,0,0,1,1.25,2.16,9.19,9.19,0,0,1,.45,3v.63Zm5.4-2.23a4,4,0,0,0-.86-2.09,2.21,2.21,0,0,0-1.78-.79,2.34,2.34,0,0,0-1.78.78,3.78,3.78,0,0,0-.93,2.1Z"/><path class="cls-3" d="M259.15,432.91a3.63,3.63,0,0,0-1,.12,2.6,2.6,0,0,0-1.73,1.2,4.84,4.84,0,0,0-.6,2.59v6.36h-3.12V430.39h3v1.94a3.6,3.6,0,0,1,1.53-1.63,6,6,0,0,1,2.88-.57V433C259.85,432.93,259.51,432.91,259.15,432.91Z"/><path class="cls-3" d="M271,443.18l-5.33-5.95v5.95H262.5V425.4h3.12V436l5.06-5.64h3.82l-5.76,6.22,6.14,6.57Z"/><path class="cls-3" d="M278.8,437.64a4,4,0,0,0,1.12,2.38,3.24,3.24,0,0,0,2.36.91,3.35,3.35,0,0,0,2.56-1l1.83,1.81a6.94,6.94,0,0,1-2.09,1.28,6.77,6.77,0,0,1-2.47.42,7.07,7.07,0,0,1-2.63-.48,6.24,6.24,0,0,1-2.1-1.36,6.12,6.12,0,0,1-1.39-2.1,7.08,7.08,0,0,1-.51-2.74,7.82,7.82,0,0,1,.45-2.71,6.14,6.14,0,0,1,1.25-2.1,5.48,5.48,0,0,1,1.92-1.35,6.06,6.06,0,0,1,2.43-.48,6.19,6.19,0,0,1,2.33.43,5.15,5.15,0,0,1,1.87,1.29A6.17,6.17,0,0,1,287,434a9.18,9.18,0,0,1,.46,3v.63Zm5.4-2.23a4.07,4.07,0,0,0-.87-2.09,2.21,2.21,0,0,0-1.77-.79,2.36,2.36,0,0,0-1.79.78,3.78,3.78,0,0,0-.93,2.1Z"/><circle class="cls-10" cx="862.5" cy="540" r="85"/><path class="cls-3" d="M797.59,547.78l-6.38-8.49v8.49H787.8V530h3.41v8.13l6.17-8.13h4.22l-7,8.71,7.3,9.07Z"/><path class="cls-3" d="M815,541.37a7.87,7.87,0,0,1-.46,2.78,6.23,6.23,0,0,1-1.31,2.1,5.85,5.85,0,0,1-2,1.33,6.86,6.86,0,0,1-4.94,0,5.87,5.87,0,0,1-2-1.33,6.08,6.08,0,0,1-1.31-2.1,7.87,7.87,0,0,1-.47-2.78,7.76,7.76,0,0,1,.47-2.76,6,6,0,0,1,1.31-2.08,5.9,5.9,0,0,1,2-1.34,6.86,6.86,0,0,1,4.94,0,5.88,5.88,0,0,1,2,1.34,6.14,6.14,0,0,1,1.31,2.08A7.76,7.76,0,0,1,815,541.37Zm-3.24,0a4.69,4.69,0,0,0-.84-3,2.63,2.63,0,0,0-2.13-1,2.66,2.66,0,0,0-2.13,1,5.7,5.7,0,0,0,0,6,2.66,2.66,0,0,0,4.25,0A4.64,4.64,0,0,0,811.75,541.37Z"/><path class="cls-3" d="M829.39,541.37a7.65,7.65,0,0,1-.47,2.78,6.06,6.06,0,0,1-1.3,2.1,5.85,5.85,0,0,1-2,1.33,6.86,6.86,0,0,1-4.94,0,5.87,5.87,0,0,1-2-1.33,6.08,6.08,0,0,1-1.31-2.1,7.87,7.87,0,0,1-.47-2.78,7.76,7.76,0,0,1,.47-2.76,6,6,0,0,1,1.31-2.08,5.9,5.9,0,0,1,2-1.34,6.86,6.86,0,0,1,4.94,0,5.88,5.88,0,0,1,2,1.34,6,6,0,0,1,1.3,2.08A7.54,7.54,0,0,1,829.39,541.37Zm-3.24,0a4.69,4.69,0,0,0-.84-3,2.63,2.63,0,0,0-2.13-1,2.66,2.66,0,0,0-2.13,1,5.7,5.7,0,0,0,0,6,2.66,2.66,0,0,0,4.25,0A4.64,4.64,0,0,0,826.15,541.37Z"/><path class="cls-3" d="M838.74,537.51a3.63,3.63,0,0,0-1,.12,2.6,2.6,0,0,0-1.73,1.2,4.84,4.84,0,0,0-.6,2.59v6.36h-3.12V535h3v1.94a3.67,3.67,0,0,1,1.54-1.63,6,6,0,0,1,2.88-.57v2.83C839.44,537.53,839.1,537.51,838.74,537.51Z"/><path class="cls-3" d="M850.58,547.78v-1.85a2.18,2.18,0,0,1-.6.84,4.64,4.64,0,0,1-.93.68,4.92,4.92,0,0,1-1.12.44,4.68,4.68,0,0,1-1.16.15,5.13,5.13,0,0,1-2.15-.46,5.4,5.4,0,0,1-1.79-1.33,6.77,6.77,0,0,1-1.23-2.1,7.65,7.65,0,0,1-.47-2.78,7.54,7.54,0,0,1,.47-2.76,6.66,6.66,0,0,1,1.23-2.08,5.43,5.43,0,0,1,1.79-1.34,5.13,5.13,0,0,1,2.15-.46,4.24,4.24,0,0,1,1.09.14,4.47,4.47,0,0,1,1.07.41,4.79,4.79,0,0,1,.92.62,2.5,2.5,0,0,1,.64.82V530h3.12v17.78Zm-.09-6.41a5.61,5.61,0,0,0-.24-1.71,3.87,3.87,0,0,0-.66-1.28,2.83,2.83,0,0,0-1-.77,2.65,2.65,0,0,0-1.18-.27,2.78,2.78,0,0,0-2.2,1,4.57,4.57,0,0,0-.87,3,5.6,5.6,0,0,0,.24,1.73,3.91,3.91,0,0,0,.66,1.27,2.72,2.72,0,0,0,1,.8,2.84,2.84,0,0,0,1.2.26,2.63,2.63,0,0,0,2.15-1.06,3.91,3.91,0,0,0,.66-1.27A5.6,5.6,0,0,0,850.49,541.37Z"/><path class="cls-3" d="M857.5,533v-3h3.19v3Zm0,14.76V535h3.12v12.79Z"/><path class="cls-3" d="M873.19,547.78v-7.56a3.1,3.1,0,0,0-.66-2.17,2.39,2.39,0,0,0-1.83-.71,2.78,2.78,0,0,0-2.16,1,4.51,4.51,0,0,0-.87,3.06v6.41h-3.12V535h3v2a3.45,3.45,0,0,1,1.46-1.62,4.93,4.93,0,0,1,2.56-.61,5.19,5.19,0,0,1,1.91.34,4.19,4.19,0,0,1,1.49,1,4.65,4.65,0,0,1,1,1.6,5.84,5.84,0,0,1,.35,2.11v8Z"/><path class="cls-3" d="M887.5,547.78v-1.94a3.64,3.64,0,0,1-1.46,1.62,4.66,4.66,0,0,1-5.42-.53,3.76,3.76,0,0,1-.89-1.2,3.45,3.45,0,0,1-.32-1.45,3.56,3.56,0,0,1,.35-1.57,3.6,3.6,0,0,1,1.08-1.34,5.62,5.62,0,0,1,1.87-.91,9.77,9.77,0,0,1,2.7-.33h2v-.56c0-.12,0-.23,0-.34s0-.16-.06-.18a1.88,1.88,0,0,0-.81-1.34,2.89,2.89,0,0,0-1.81-.56,4.12,4.12,0,0,0-1.58.29,4.43,4.43,0,0,0-1.25.77l-1.8-1.81a7.69,7.69,0,0,1,2.12-1.28,7.3,7.3,0,0,1,2.8-.49,7,7,0,0,1,2.34.36,5,5,0,0,1,1.73,1,4.37,4.37,0,0,1,1.08,1.51,4.66,4.66,0,0,1,.37,1.87v8.4Zm-.1-5.64h-2.11a4,4,0,0,0-1.23.17,2.78,2.78,0,0,0-.84.44,1.89,1.89,0,0,0-.49.62,1.59,1.59,0,0,0-.15.67,1.62,1.62,0,0,0,.46,1.16,2,2,0,0,0,1.48.49,2.73,2.73,0,0,0,2.08-.85,3.26,3.26,0,0,0,.8-2.31Z"/><path class="cls-3" d="M899.33,548a4.57,4.57,0,0,1-1.67-.29,3.83,3.83,0,0,1-1.25-.77,3.23,3.23,0,0,1-.78-1.12,3.75,3.75,0,0,1-.26-1.37v-6.94h-2.43V535h2.43v-3.65h3.12V535h3v2.47h-3V544a1.51,1.51,0,0,0,.39,1.12,1.79,1.79,0,0,0,1.31.4,4.49,4.49,0,0,0,.71-.07,5.29,5.29,0,0,0,.71-.2v2.48A8.83,8.83,0,0,1,899.33,548Z"/><path class="cls-3" d="M904.18,533v-3h3.19v3Zm0,14.76V535h3.12v12.79Z"/><path class="cls-3" d="M922.7,541.37a7.87,7.87,0,0,1-.46,2.78,6.23,6.23,0,0,1-1.31,2.1,5.85,5.85,0,0,1-2,1.33,6.86,6.86,0,0,1-4.94,0,5.87,5.87,0,0,1-2-1.33,6.08,6.08,0,0,1-1.31-2.1,7.87,7.87,0,0,1-.47-2.78,7.76,7.76,0,0,1,.47-2.76,6,6,0,0,1,1.31-2.08,5.9,5.9,0,0,1,2-1.34,6.86,6.86,0,0,1,4.94,0,5.88,5.88,0,0,1,2,1.34,6.14,6.14,0,0,1,1.31,2.08A7.76,7.76,0,0,1,922.7,541.37Zm-3.24,0a4.69,4.69,0,0,0-.84-3,2.63,2.63,0,0,0-2.13-1,2.66,2.66,0,0,0-2.13,1,5.7,5.7,0,0,0,0,6,2.66,2.66,0,0,0,4.25,0A4.64,4.64,0,0,0,919.46,541.37Z"/><path class="cls-3" d="M934.27,547.78v-7.56a3.1,3.1,0,0,0-.66-2.17,2.39,2.39,0,0,0-1.83-.71,2.78,2.78,0,0,0-2.16,1,4.51,4.51,0,0,0-.87,3.06v6.41h-3.12V535h3v2a3.4,3.4,0,0,1,1.46-1.62,4.91,4.91,0,0,1,2.55-.61,5.24,5.24,0,0,1,1.92.34,4.19,4.19,0,0,1,1.49,1,4.65,4.65,0,0,1,1,1.6,6.06,6.06,0,0,1,.35,2.11v8Z"/><path class="cls-11" d="M798.39,697.64c157.29-43.59,274-128.81,308-231.19"/><path class="cls-11" d="M331.49,700.84C401,718.94,478,729,559,729q36.63,0,72.07-2.69"/><path class="cls-11" d="M36.51,291.06c-22.64,35.31-35,73.54-35,113.44,0,92.17,66,175.36,172,234.43"/><path class="cls-11" d="M742.72,98c162.5,33,290.71,108.54,345.24,203.7"/><path class="cls-11" d="M161.49,177C262.63,117.12,403.36,80,559,80q7.39,0,14.74.12"/><line class="cls-11" x1="458.3" y1="409.86" x2="311.4" y2="416.92"/><line class="cls-11" x1="513.73" y1="308.17" x2="500.83" y2="280.86"/><line class="cls-11" x1="701.78" y1="310.15" x2="653.71" y2="342.19"/><line class="cls-11" x1="784.84" y1="505.4" x2="659.23" y2="449.43"/><line class="cls-11" x1="526.27" y1="500.46" x2="516.44" y2="528.71"/></svg>