<svg id="Blume" xmlns="http://www.w3.org/2000/svg" viewBox="0 0 1076.6 750.54"><defs><style>.cls-1,.cls-4{fill:#93afdb;}.cls-1,.cls-3,.cls-5,.cls-7,.cls-8,.cls-9{stroke:#5a7cbd;}.cls-1,.cls-9{stroke-miterlimit:10;stroke-width:2.5px;}.cls-2{fill:#5a7cbd;}.cls-3,.cls-5,.cls-6,.cls-7,.cls-8,.cls-9{fill:none;}.cls-3{stroke-width:3.74px;}.cls-7{stroke-width:2.49px;}.cls-8{stroke-width:2.49px;}</style></defs><circle class="cls-1" cx="444.85" cy="49.75" r="48.5"/><path class="cls-2" d="M429.5,53.4a5.75,5.75,0,0,1-.43,2.25,5,5,0,0,1-1.28,1.81,6.28,6.28,0,0,1-2.13,1.21,9,9,0,0,1-2.94.44h-8.29V37.71h8.29a7.84,7.84,0,0,1,2.63.42,5.93,5.93,0,0,1,2,1.15A5,5,0,0,1,429.07,43a5.75,5.75,0,0,1-.3,1.86,5.16,5.16,0,0,1-2.25,2.79,5.34,5.34,0,0,1-1.87.67,6.22,6.22,0,0,1,2,.52,5,5,0,0,1,1.53,1.06,4.89,4.89,0,0,1,1,1.55A5,5,0,0,1,429.5,53.4Zm-4.56-9.59a2.81,2.81,0,0,0-.72-2,3.06,3.06,0,0,0-2.34-.79h-3.35V46.7h3a3.77,3.77,0,0,0,2.49-.79A2.6,2.6,0,0,0,424.94,43.81Zm.41,9a2.47,2.47,0,0,0-.92-2,4,4,0,0,0-2.62-.77h-3.28v5.71h3.28a3.86,3.86,0,0,0,2.63-.79A2.78,2.78,0,0,0,425.35,52.8Z"/><path class="cls-2" d="M436,52.44a5,5,0,0,0,1.36,2.87,3.84,3.84,0,0,0,2.83,1.09,4.09,4.09,0,0,0,3.09-1.18l2.2,2.17a8.47,8.47,0,0,1-2.52,1.55,8.26,8.26,0,0,1-3,.49,8.38,8.38,0,0,1-3.16-.58,7.21,7.21,0,0,1-2.53-1.63,7.62,7.62,0,0,1-1.68-2.52,8.7,8.7,0,0,1-.6-3.3,9.65,9.65,0,0,1,.53-3.26,7.68,7.68,0,0,1,1.5-2.53A6.88,6.88,0,0,1,436.33,44a7.49,7.49,0,0,1,2.94-.58,7.62,7.62,0,0,1,2.8.52,6.25,6.25,0,0,1,2.25,1.56,7.5,7.5,0,0,1,1.5,2.6,10.78,10.78,0,0,1,.55,3.61v.75Zm6.5-2.68a4.91,4.91,0,0,0-1-2.52,2.68,2.68,0,0,0-2.14-1,2.84,2.84,0,0,0-2.15.94A4.58,4.58,0,0,0,436,49.76Z"/><path class="cls-2" d="M457.33,46.75a4.25,4.25,0,0,0-1.17.15,3.09,3.09,0,0,0-2.08,1.44,5.86,5.86,0,0,0-.72,3.12v7.65H449.6V43.72h3.64v2.34a4.33,4.33,0,0,1,1.85-2,7.08,7.08,0,0,1,3.47-.7v3.41A12.07,12.07,0,0,0,457.33,46.75Z"/><path class="cls-2" d="M471.75,59.11V50A3.73,3.73,0,0,0,471,47.4a2.91,2.91,0,0,0-2.21-.85,3.33,3.33,0,0,0-2.6,1.17,5.46,5.46,0,0,0-1,3.68v7.71h-3.75V43.72H465v2.37a4.08,4.08,0,0,1,1.76-2,6,6,0,0,1,3.07-.74,6.15,6.15,0,0,1,2.3.42,4.83,4.83,0,0,1,1.8,1.22A5.77,5.77,0,0,1,475.09,47a7.2,7.2,0,0,1,.42,2.54v9.61Z"/><path class="cls-3" d="M678.22,319.1c-11.06-16.68-36.18-29.59-60-13.87A69.39,69.39,0,0,0,605.4,316.6a70.57,70.57,0,0,0-5-17c-11.82-25.94-40-28.3-58.16-20C523,285,503,304.89,510.55,332.36a70.29,70.29,0,0,0,7.05,16.11A70.32,70.32,0,0,0,500,348c-28.33,3.22-39.26,29.24-37,49.13-.86,20,11.87,45.21,40.35,46.47a69.68,69.68,0,0,0,17.27-1.68,69.69,69.69,0,0,0-5.81,16.32c-5.68,27.93,15.69,46.37,35.3,50.36,18.75,7,46.67,2.67,56.67-24a69.56,69.56,0,0,0,3.7-16.65A69.69,69.69,0,0,0,624,478.26c24.81,14,48.95-.59,58.8-18,12.45-15.68,17-43.56-5.33-61.32a69.65,69.65,0,0,0-14.5-8.58,69.9,69.9,0,0,0,14.24-9.76c21-19.26,14.56-46.73,1-61.49Z"/><path class="cls-4" d="M678.17,319.13c-11-16.67-36.16-29.57-59.93-13.86a69.71,69.71,0,0,0-12.86,11.37,70.44,70.44,0,0,0-5-17c-11.82-25.93-39.93-28.28-58.14-20C523,285,503,304.93,510.58,332.39a70.8,70.8,0,0,0,7,16.1A70.23,70.23,0,0,0,500,348c-28.31,3.22-39.23,29.23-37,49.11-.86,20,11.87,45.18,40.34,46.45a70,70,0,0,0,17.25-1.68,70.19,70.19,0,0,0-5.8,16.31c-5.68,27.92,15.68,46.35,35.28,50.34,18.75,7,46.65,2.67,56.65-24a69.87,69.87,0,0,0,3.7-16.63,70.22,70.22,0,0,0,13.51,10.37c24.8,14,48.93-.59,58.78-18,12.44-15.67,17-43.54-5.33-61.29a69.31,69.31,0,0,0-14.49-8.58,69.79,69.79,0,0,0,14.23-9.75c21-19.25,14.56-46.72,1-61.47Z"/><path class="cls-5" d="M678.17,319.13c-11-16.67-36.16-29.57-59.93-13.86a69.71,69.71,0,0,0-12.86,11.37,70.44,70.44,0,0,0-5-17c-11.82-25.93-39.93-28.28-58.14-20C523,285,503,304.93,510.58,332.39a70.8,70.8,0,0,0,7,16.1A70.23,70.23,0,0,0,500,348c-28.31,3.22-39.23,29.23-37,49.11-.86,20,11.87,45.18,40.34,46.45a70,70,0,0,0,17.25-1.68,70.19,70.19,0,0,0-5.8,16.31c-5.68,27.92,15.68,46.35,35.28,50.34,18.75,7,46.65,2.67,56.65-24a69.87,69.87,0,0,0,3.7-16.63,70.22,70.22,0,0,0,13.51,10.37c24.8,14,48.93-.59,58.78-18,12.44-15.67,17-43.54-5.33-61.29a69.31,69.31,0,0,0-14.49-8.58,69.79,69.79,0,0,0,14.23-9.75c21-19.25,14.56-46.72,1-61.47Z"/><rect class="cls-6" x="457.95" y="273.48" width="239.91" height="239.91"/><path class="cls-2" d="M546.6,356.77a118.29,118.29,0,0,0-29.05-8.32c1,1.77,2.13,3.55,3.29,5.31a96.79,96.79,0,0,1,25.76,3Z"/><path class="cls-7" d="M546.6,356.77a118.29,118.29,0,0,0-29.05-8.32c1,1.77,2.13,3.55,3.29,5.31a96.79,96.79,0,0,1,25.76,3Z"/><path class="cls-2" d="M606.41,323.9c-.25-2.5-.58-5-1-7.34-16.22,17.88-29.12,45.83-26,61.56.14-15.48,12.22-38.46,26.95-54.22Z"/><path class="cls-7" d="M606.41,323.9c-.25-2.5-.58-5-1-7.34-16.22,17.88-29.12,45.83-26,61.56.14-15.48,12.22-38.46,26.95-54.22Z"/><path class="cls-2" d="M524.84,434c-1.57,2.62-3,5.28-4.3,7.92,20-4.22,42.15-15.62,52.57-27.85-10.24,9.51-29.74,17.14-48.27,19.93Z"/><path class="cls-7" d="M524.84,434c-1.57,2.62-3,5.28-4.3,7.92,20-4.22,42.15-15.62,52.57-27.85-10.24,9.51-29.74,17.14-48.27,19.93Z"/><path class="cls-2" d="M580.31,415.39c2,16.08,15.13,38.14,30.15,52.53.28-2.5.46-5.08.54-7.7-14.52-12.7-27.31-30.68-30.69-44.83Z"/><path class="cls-7" d="M580.31,415.39c2,16.08,15.13,38.14,30.15,52.53.28-2.5.46-5.08.54-7.7-14.52-12.7-27.31-30.68-30.69-44.83Z"/><path class="cls-2" d="M668.31,408.09c1.89-.88,3.75-1.8,5.55-2.75A139.63,139.63,0,0,0,631,394.18a141,141,0,0,1,37.27,13.91Z"/><path class="cls-8" d="M668.31,408.09c1.89-.88,3.75-1.8,5.55-2.75A139.63,139.63,0,0,0,631,394.18a141,141,0,0,1,37.27,13.91Z"/><path class="cls-2" d="M537.33,392.29a11.73,11.73,0,0,1-.85,4.65,9.49,9.49,0,0,1-2.34,3.34,9.89,9.89,0,0,1-3.5,2,13.48,13.48,0,0,1-4.34.68H520v-21.4h6.35a13.79,13.79,0,0,1,4.39.68,9.53,9.53,0,0,1,3.49,2,9.29,9.29,0,0,1,2.31,3.35A12,12,0,0,1,537.33,392.29Zm-4.25,0a9.22,9.22,0,0,0-.51-3.2,6.56,6.56,0,0,0-1.43-2.31,5.86,5.86,0,0,0-2.17-1.39,7.92,7.92,0,0,0-2.74-.46h-2.18v14.7h2.18a7.92,7.92,0,0,0,2.74-.47,5.62,5.62,0,0,0,2.17-1.39,6.51,6.51,0,0,0,1.43-2.3A9.14,9.14,0,0,0,533.08,392.29Z"/><path class="cls-2" d="M543.77,396.31a4.82,4.82,0,0,0,1.36,2.86,3.82,3.82,0,0,0,2.83,1.09,4.05,4.05,0,0,0,3.09-1.18l2.19,2.17a8.23,8.23,0,0,1-2.51,1.55,8.35,8.35,0,0,1-3,.5,8.62,8.62,0,0,1-3.16-.58,7.55,7.55,0,0,1-2.52-1.63,7.47,7.47,0,0,1-1.68-2.53,8.65,8.65,0,0,1-.61-3.29,9.47,9.47,0,0,1,.54-3.27,7.22,7.22,0,0,1,1.5-2.52,6.43,6.43,0,0,1,2.31-1.63,7.26,7.26,0,0,1,2.93-.58,7.38,7.38,0,0,1,2.8.52,6,6,0,0,1,2.26,1.56,7.57,7.57,0,0,1,1.5,2.6,11,11,0,0,1,.55,3.61v.75Zm6.5-2.69a4.92,4.92,0,0,0-1-2.51,2.65,2.65,0,0,0-2.14-.95,2.85,2.85,0,0,0-2.15.93,4.51,4.51,0,0,0-1.11,2.53Z"/><path class="cls-2" d="M569.41,403l-7.68-10.23V403h-4.1v-21.4h4.1v9.79l7.42-9.79h5.09l-8.47,10.48L574.55,403Z"/><path class="cls-2" d="M590.35,395.27a9.45,9.45,0,0,1-.56,3.33,7.25,7.25,0,0,1-1.58,2.53,6.84,6.84,0,0,1-2.38,1.6,8,8,0,0,1-5.93,0,6.9,6.9,0,0,1-2.37-1.6A7.25,7.25,0,0,1,576,398.6a9.45,9.45,0,0,1-.56-3.33A9.36,9.36,0,0,1,576,392a7.3,7.3,0,0,1,1.58-2.52,7,7,0,0,1,2.37-1.6,8.13,8.13,0,0,1,5.93,0,7,7,0,0,1,2.38,1.6,7.3,7.3,0,0,1,1.58,2.52A9.36,9.36,0,0,1,590.35,395.27Zm-3.9,0a5.65,5.65,0,0,0-1-3.6,3.14,3.14,0,0,0-2.57-1.25,3.17,3.17,0,0,0-2.56,1.25,6.88,6.88,0,0,0,0,7.21,3.22,3.22,0,0,0,5.12,0A5.64,5.64,0,0,0,586.45,395.27Z"/><path class="cls-2" d="M612.3,403V386.34L607.63,403h-4.79l-4.63-16.64V403H594.1v-21.4h6.44l4.68,16.89,4.68-16.89h6.44V403Z"/><path class="cls-2" d="M635.05,395.27a9.23,9.23,0,0,1-.56,3.33,7.38,7.38,0,0,1-1.57,2.53,7,7,0,0,1-2.39,1.6,8,8,0,0,1-5.93,0,7,7,0,0,1-2.37-1.6,7.23,7.23,0,0,1-1.57-2.53,9.23,9.23,0,0,1-.57-3.33,9.14,9.14,0,0,1,.57-3.32,7.28,7.28,0,0,1,1.57-2.52,7.14,7.14,0,0,1,2.37-1.6,8.13,8.13,0,0,1,5.93,0,7.12,7.12,0,0,1,2.39,1.6,7.43,7.43,0,0,1,1.57,2.52A9.14,9.14,0,0,1,635.05,395.27Zm-3.9,0a5.59,5.59,0,0,0-1-3.6,3.25,3.25,0,0,0-5.12,0,6.82,6.82,0,0,0,0,7.21,3.21,3.21,0,0,0,5.11,0A5.64,5.64,0,0,0,631.15,395.27Z"/><circle class="cls-1" cx="969.35" cy="132.25" r="106"/><path class="cls-2" d="M907.5,124.29l-1.74-4.91h-8.23l-1.7,4.91H891.5l8-21.4h4.39l8,21.4Zm-5.84-16.78-3,8.52h5.95Z"/><path class="cls-2" d="M914.17,124.29v-21.4h3.75v21.4Z"/><path class="cls-2" d="M928.52,124.49a5.5,5.5,0,0,1-2-.35,4.92,4.92,0,0,1-1.5-.92,4,4,0,0,1-.94-1.36,4.36,4.36,0,0,1-.31-1.65v-8.34h-2.92v-3h2.92V104.5h3.75v4.39h3.58v3h-3.58v7.82A1.83,1.83,0,0,0,928,121a2.14,2.14,0,0,0,1.57.47,4.27,4.27,0,0,0,.85-.08,7,7,0,0,0,.85-.23v3A10.25,10.25,0,0,1,928.52,124.49Z"/><path class="cls-2" d="M937.21,117.62a4.94,4.94,0,0,0,1.36,2.86,3.82,3.82,0,0,0,2.83,1.09,4.05,4.05,0,0,0,3.09-1.18l2.19,2.17a7.7,7.7,0,0,1-5.48,2A8.58,8.58,0,0,1,938,124a7.5,7.5,0,0,1-2.53-1.63,7.77,7.77,0,0,1-1.68-2.53,8.65,8.65,0,0,1-.6-3.29,9.43,9.43,0,0,1,.53-3.27,7.54,7.54,0,0,1,1.5-2.52,6.77,6.77,0,0,1,2.31-1.64,7.83,7.83,0,0,1,5.74-.05,6,6,0,0,1,2.25,1.56,7.61,7.61,0,0,1,1.5,2.59,11,11,0,0,1,.55,3.61v.76Zm6.5-2.69a4.84,4.84,0,0,0-1-2.51,2.66,2.66,0,0,0-2.14-1,2.87,2.87,0,0,0-2.15.94,4.51,4.51,0,0,0-1.11,2.53Z"/><path class="cls-2" d="M958.57,111.93a4.63,4.63,0,0,0-1.17.14,3.1,3.1,0,0,0-2.08,1.45,5.82,5.82,0,0,0-.72,3.11v7.66h-3.76v-15.4h3.64v2.34a4.38,4.38,0,0,1,1.85-2,7.19,7.19,0,0,1,3.46-.69V112C959.41,112,959,111.93,958.57,111.93Z"/><path class="cls-2" d="M972.62,120a4.31,4.31,0,0,1-.38,1.75,4.38,4.38,0,0,1-1.12,1.51,5.84,5.84,0,0,1-1.91,1.07,8.33,8.33,0,0,1-2.74.4,7.48,7.48,0,0,1-3.11-.63,7.17,7.17,0,0,1-2.29-1.53l2.16-2.17a4.87,4.87,0,0,0,1.34.89,4.37,4.37,0,0,0,1.9.41,3,3,0,0,0,1.84-.48A1.39,1.39,0,0,0,969,120a1.37,1.37,0,0,0-.55-1.16,5.48,5.48,0,0,0-1.39-.74c-.55-.21-1.15-.42-1.79-.63a7.94,7.94,0,0,1-1.79-.85,4.54,4.54,0,0,1-1.38-1.38,4,4,0,0,1-.55-2.24,3.92,3.92,0,0,1,.37-1.65,4.37,4.37,0,0,1,1.12-1.47,5.56,5.56,0,0,1,1.82-1.06,7.89,7.89,0,0,1,5.5.2,7.69,7.69,0,0,1,2.22,1.53l-2.17,2.2a5,5,0,0,0-1.28-.92,3.73,3.73,0,0,0-1.72-.38,2.28,2.28,0,0,0-1.63.52,1.49,1.49,0,0,0-.53,1.07,1.1,1.1,0,0,0,.54,1,7.41,7.41,0,0,0,1.38.67l1.79.63a7.67,7.67,0,0,1,1.79.89,4.79,4.79,0,0,1,1.37,1.46A4.37,4.37,0,0,1,972.62,120Z"/><path class="cls-2" d="M974.84,117.62v-2.69h7.39v2.69Z"/><path class="cls-2" d="M1003.81,124.29v-2.37a4.05,4.05,0,0,1-1.75,1.93,5.84,5.84,0,0,1-3,.75,6.33,6.33,0,0,1-2.31-.41,5,5,0,0,1-1.79-1.22,5.63,5.63,0,0,1-1.17-1.92,7.24,7.24,0,0,1-.42-2.54v-9.62h3.76V118a3.74,3.74,0,0,0,.79,2.64,2.88,2.88,0,0,0,2.21.86,3.32,3.32,0,0,0,2.6-1.19,5.51,5.51,0,0,0,1-3.69v-7.69h3.75v15.4Z"/><path class="cls-2" d="M1022.55,124.29v-9.1a3.71,3.71,0,0,0-.8-2.61,2.86,2.86,0,0,0-2.21-.86,3.34,3.34,0,0,0-2.6,1.17,5.48,5.48,0,0,0-1,3.69v7.71h-3.76v-15.4h3.64v2.37a4.16,4.16,0,0,1,1.77-2,5.93,5.93,0,0,1,3.06-.73,6.2,6.2,0,0,1,2.31.42,4.73,4.73,0,0,1,1.79,1.21,5.77,5.77,0,0,1,1.16,1.92,7.24,7.24,0,0,1,.42,2.54v9.62Z"/><path class="cls-2" d="M1041.2,124.29v-2.23a2.77,2.77,0,0,1-.72,1,5.25,5.25,0,0,1-1.13.81,6.26,6.26,0,0,1-1.34.54,5.66,5.66,0,0,1-1.4.18A6,6,0,0,1,1034,124a6.47,6.47,0,0,1-2.16-1.6,8,8,0,0,1-1.48-2.53,10,10,0,0,1,0-6.66,8.17,8.17,0,0,1,1.48-2.51,6.61,6.61,0,0,1,2.16-1.6,6,6,0,0,1,2.58-.56,5.07,5.07,0,0,1,1.31.17,6,6,0,0,1,1.29.49,5.69,5.69,0,0,1,1.11.75,3.09,3.09,0,0,1,.77,1v-8.08h3.75v21.4Zm-.11-7.71a7,7,0,0,0-.29-2.07,4.53,4.53,0,0,0-.8-1.53,3.29,3.29,0,0,0-1.17-.94,3.24,3.24,0,0,0-1.41-.32,3.29,3.29,0,0,0-2.64,1.26,5.43,5.43,0,0,0-1.06,3.6,6.87,6.87,0,0,0,.29,2.08,4.83,4.83,0,0,0,.8,1.53,3.22,3.22,0,0,0,1.17,1,3.3,3.3,0,0,0,1.44.32,3.25,3.25,0,0,0,2.58-1.27,4.83,4.83,0,0,0,.8-1.53A6.87,6.87,0,0,0,1041.09,116.58Z"/><path class="cls-2" d="M898.13,143.92a6.25,6.25,0,0,1-.51,2.53,5.67,5.67,0,0,1-1.44,2,6.87,6.87,0,0,1-2.24,1.35,8.4,8.4,0,0,1-2.9.49h-3.51v8.63h-4.1v-21.4H891a7.92,7.92,0,0,1,2.9.51,6.84,6.84,0,0,1,2.26,1.37,6.06,6.06,0,0,1,2,4.5Zm-4.16,0a3,3,0,0,0-.85-2.14,3.27,3.27,0,0,0-2.46-.89h-3.13V147h3.13a3.26,3.26,0,0,0,2.46-.88A3,3,0,0,0,894,143.92Z"/><path class="cls-2" d="M909.73,140.66a5,5,0,0,0-1.7-.29,2.18,2.18,0,0,0-1.57.47,1.8,1.8,0,0,0-.48,1.34v1.37h3.58v3H906v12.42h-3.75V146.52h-2.92v-3h2.92v-1.94a4.35,4.35,0,0,1,.31-1.64,4,4,0,0,1,.94-1.36,4.92,4.92,0,0,1,1.5-.92,5.5,5.5,0,0,1,2-.35,11.73,11.73,0,0,1,1.52.09,7.8,7.8,0,0,1,1.22.23Zm3.15,18.28v-21.4h3.76v21.4Z"/><path class="cls-2" d="M924.14,152.27a5,5,0,0,0,1.36,2.87,3.88,3.88,0,0,0,2.83,1.09,4.06,4.06,0,0,0,3.09-1.19l2.2,2.18a8.43,8.43,0,0,1-2.52,1.54,8.25,8.25,0,0,1-3,.5,8.38,8.38,0,0,1-3.16-.58,7.33,7.33,0,0,1-4.2-4.16,8.46,8.46,0,0,1-.61-3.29,9.65,9.65,0,0,1,.53-3.26,7.44,7.44,0,0,1,1.51-2.53,6.55,6.55,0,0,1,2.31-1.63,7.23,7.23,0,0,1,2.93-.58,7.42,7.42,0,0,1,2.8.52,6.16,6.16,0,0,1,2.25,1.56,7.26,7.26,0,0,1,1.5,2.6,10.74,10.74,0,0,1,.55,3.61v.75Zm6.5-2.69a4.87,4.87,0,0,0-1-2.51,2.67,2.67,0,0,0-2.13-.95,2.84,2.84,0,0,0-2.16.94,4.62,4.62,0,0,0-1.11,2.52Z"/><path class="cls-2" d="M951.64,157.55a6.68,6.68,0,0,1-.57,2.76,6.38,6.38,0,0,1-1.61,2.24,7.63,7.63,0,0,1-2.56,1.5,9.61,9.61,0,0,1-3.35.55,9.06,9.06,0,0,1-3.72-.68,7.9,7.9,0,0,1-2.37-1.54l2.13-2.14a5.56,5.56,0,0,0,1.48.95,5.46,5.46,0,0,0,2.34.44,5.39,5.39,0,0,0,1.77-.29,4,4,0,0,0,1.43-.84,3.79,3.79,0,0,0,.94-1.28,4.08,4.08,0,0,0,.33-1.67v-1.18a4.45,4.45,0,0,1-1.77,1.75,5.34,5.34,0,0,1-2.7.71,6.08,6.08,0,0,1-2.59-.57,6.63,6.63,0,0,1-2.15-1.57,7.81,7.81,0,0,1-1.49-2.46,9.45,9.45,0,0,1,0-6.41,7.76,7.76,0,0,1,1.49-2.45,6.66,6.66,0,0,1,2.15-1.58,6.22,6.22,0,0,1,2.59-.56,5,5,0,0,1,1.5.22,6.32,6.32,0,0,1,1.33.56,5.14,5.14,0,0,1,1.07.82,3.74,3.74,0,0,1,.69,1v-2.28h3.64ZM947.88,151a5.78,5.78,0,0,0-.29-1.92,4.35,4.35,0,0,0-.79-1.46,3.74,3.74,0,0,0-1.17-.94,3.11,3.11,0,0,0-1.41-.33,3.22,3.22,0,0,0-1.45.33,3.74,3.74,0,0,0-1.17.94,4.35,4.35,0,0,0-.79,1.46,6,6,0,0,0-.29,1.92,5.13,5.13,0,0,0,1.05,3.41,3.37,3.37,0,0,0,2.65,1.24,3.24,3.24,0,0,0,1.41-.32,3.54,3.54,0,0,0,1.17-.92,4.45,4.45,0,0,0,.79-1.46A5.88,5.88,0,0,0,947.88,151Z"/><path class="cls-2" d="M959.17,152.27a5,5,0,0,0,1.36,2.87,3.88,3.88,0,0,0,2.83,1.09,4.06,4.06,0,0,0,3.09-1.19l2.2,2.18a8.43,8.43,0,0,1-2.52,1.54,8.25,8.25,0,0,1-3,.5,8.38,8.38,0,0,1-3.16-.58,7.35,7.35,0,0,1-2.53-1.63,7.67,7.67,0,0,1-1.68-2.53,8.65,8.65,0,0,1-.6-3.29,9.65,9.65,0,0,1,.53-3.26,7.58,7.58,0,0,1,1.5-2.53,6.68,6.68,0,0,1,2.32-1.63,7.23,7.23,0,0,1,2.93-.58,7.42,7.42,0,0,1,2.8.52,6.25,6.25,0,0,1,2.25,1.56,7.26,7.26,0,0,1,1.5,2.6,10.74,10.74,0,0,1,.55,3.61v.75Zm6.5-2.69a4.87,4.87,0,0,0-1-2.51,2.67,2.67,0,0,0-2.13-.95,2.84,2.84,0,0,0-2.16.94,4.62,4.62,0,0,0-1.11,2.52Z"/><path class="cls-2" d="M983.2,158.94v-9.1a3.72,3.72,0,0,0-.79-2.61,2.87,2.87,0,0,0-2.21-.85,3.33,3.33,0,0,0-2.6,1.17,5.46,5.46,0,0,0-1,3.68v7.71H972.8v-21.4h3.76v8.2a4.09,4.09,0,0,1,1.73-1.8,5.87,5.87,0,0,1,3-.71,6.15,6.15,0,0,1,2.3.42,4.81,4.81,0,0,1,1.8,1.21,5.77,5.77,0,0,1,1.16,1.92,7.24,7.24,0,0,1,.42,2.54v9.62Z"/><path class="cls-2" d="M994.46,152.27a5,5,0,0,0,1.36,2.87,3.88,3.88,0,0,0,2.83,1.09,4.06,4.06,0,0,0,3.09-1.19l2.2,2.18a8.43,8.43,0,0,1-2.52,1.54,8.29,8.29,0,0,1-3,.5,8.38,8.38,0,0,1-3.16-.58,7.35,7.35,0,0,1-2.53-1.63,7.67,7.67,0,0,1-1.68-2.53,8.65,8.65,0,0,1-.6-3.29A9.65,9.65,0,0,1,991,148a7.58,7.58,0,0,1,1.5-2.53,6.74,6.74,0,0,1,2.31-1.63,7.3,7.3,0,0,1,2.93-.58,7.43,7.43,0,0,1,2.81.52,6.25,6.25,0,0,1,2.25,1.56,7.57,7.57,0,0,1,1.5,2.6,10.74,10.74,0,0,1,.55,3.61v.75Zm6.5-2.69a4.87,4.87,0,0,0-1-2.51,2.68,2.68,0,0,0-2.14-.95,2.84,2.84,0,0,0-2.15.94,4.48,4.48,0,0,0-1.11,2.52Z"/><path class="cls-2" d="M1008.07,141.18v-3.64h3.84v3.64Zm0,17.76V143.55h3.76v15.39Z"/><path class="cls-2" d="M1035.3,158.94v-9.1c0-2.31-.86-3.46-2.56-3.46a2.3,2.3,0,0,0-1.12.3,3.06,3.06,0,0,0-1,.9,5,5,0,0,0-.69,1.47,7.38,7.38,0,0,0-.26,2v7.85h-3.75v-9.1q0-3.47-2.57-3.46a2.36,2.36,0,0,0-1.13.3,3.06,3.06,0,0,0-1,.9,4.56,4.56,0,0,0-.69,1.47,7.38,7.38,0,0,0-.26,2v7.85h-3.76V143.55h3.64V146a4.31,4.31,0,0,1,4.26-2.72,4.89,4.89,0,0,1,1.72.28,5.07,5.07,0,0,1,1.35.7,4.5,4.5,0,0,1,1,1,6.84,6.84,0,0,1,.65,1.13,5.81,5.81,0,0,1,1.85-2.27,4.82,4.82,0,0,1,2.83-.82,5.32,5.32,0,0,1,2.15.43,4.68,4.68,0,0,1,1.65,1.22,5.77,5.77,0,0,1,1.06,1.89,7.77,7.77,0,0,1,.37,2.5v9.67Z"/><path class="cls-2" d="M1046.56,152.27a4.91,4.91,0,0,0,1.36,2.87,3.86,3.86,0,0,0,2.83,1.09,4.06,4.06,0,0,0,3.09-1.19l2.19,2.18a8.57,8.57,0,0,1-8.65,1.46,7.41,7.41,0,0,1-4.2-4.16,8.65,8.65,0,0,1-.61-3.29,9.41,9.41,0,0,1,.54-3.26,7.27,7.27,0,0,1,1.5-2.53,6.74,6.74,0,0,1,2.31-1.63,7.26,7.26,0,0,1,2.93-.58,7.38,7.38,0,0,1,2.8.52,6.2,6.2,0,0,1,2.26,1.56,7.57,7.57,0,0,1,1.5,2.6,11,11,0,0,1,.55,3.61v.75Zm6.5-2.69a5,5,0,0,0-1-2.51,2.68,2.68,0,0,0-2.14-.95,2.82,2.82,0,0,0-2.15.94,4.48,4.48,0,0,0-1.11,2.52Z"/><circle class="cls-1" cx="1002.67" cy="666.87" r="60"/><path class="cls-2" d="M959.27,676.23v-3.15l9-14.9H959.5v-3.35h13.58V658l-9,14.87h9.22v3.35Z"/><path class="cls-2" d="M987.08,676.23v-2.37a4.07,4.07,0,0,1-1.75,1.94,5.81,5.81,0,0,1-3,.75,6.09,6.09,0,0,1-2.31-.42,4.94,4.94,0,0,1-1.79-1.21A5.63,5.63,0,0,1,977,673a7.29,7.29,0,0,1-.42-2.55v-9.61h3.75v9.07a3.77,3.77,0,0,0,.8,2.64,2.86,2.86,0,0,0,2.21.85,3.32,3.32,0,0,0,2.59-1.18,5.49,5.49,0,0,0,1-3.7v-7.68h3.76v15.39Zm-7.8-17.82v-3.52h3.27v3.52Zm5.4,0v-3.52H988v3.52Z"/><path class="cls-2" d="M1003.15,663.87a4.69,4.69,0,0,0-1.17.14,3.16,3.16,0,0,0-2.08,1.45,5.86,5.86,0,0,0-.72,3.12v7.65h-3.75V660.84h3.64v2.34a4.33,4.33,0,0,1,1.84-2,7.23,7.23,0,0,1,3.47-.69v3.41A12.07,12.07,0,0,0,1003.15,663.87Z"/><path class="cls-2" d="M1007.15,658.47v-3.64H1011v3.64Zm0,17.76V660.84h3.75v15.39Z"/><path class="cls-2" d="M1022.23,676.55a7.92,7.92,0,0,1-3-.58,7.6,7.6,0,0,1-2.46-1.63,7.78,7.78,0,0,1-1.66-2.53,9.24,9.24,0,0,1,0-6.55,7.67,7.67,0,0,1,1.66-2.53,7.45,7.45,0,0,1,2.46-1.63,7.74,7.74,0,0,1,3-.58,7.84,7.84,0,0,1,5.22,2l-2.28,2.28a3.83,3.83,0,0,0-1.24-.82,3.94,3.94,0,0,0-1.53-.3,3.63,3.63,0,0,0-1.57.34,3.91,3.91,0,0,0-1.29,1,4.55,4.55,0,0,0-.85,1.55,6.11,6.11,0,0,0-.3,2,6.21,6.21,0,0,0,.3,2,4.37,4.37,0,0,0,.85,1.53,3.91,3.91,0,0,0,1.29,1,3.51,3.51,0,0,0,1.57.36,3.94,3.94,0,0,0,1.53-.3,3.63,3.63,0,0,0,1.24-.86l2.28,2.29A7.83,7.83,0,0,1,1022.23,676.55Z"/><path class="cls-2" d="M1040.94,676.23v-9.1a3.72,3.72,0,0,0-.8-2.61,2.85,2.85,0,0,0-2.2-.85,3.33,3.33,0,0,0-2.6,1.17,5.39,5.39,0,0,0-1,3.68v7.71h-3.76v-21.4h3.76V663a4.17,4.17,0,0,1,1.74-1.8,5.84,5.84,0,0,1,3-.71,6.15,6.15,0,0,1,2.3.42,4.89,4.89,0,0,1,1.8,1.21,5.75,5.75,0,0,1,1.15,1.92,7.24,7.24,0,0,1,.42,2.54v9.62Z"/><circle class="cls-1" cx="107.75" cy="410.84" r="106.5"/><path class="cls-2" d="M77.75,402.88,76,398H67.78l-1.7,4.91H61.75l8-21.4h4.39l8,21.4ZM71.91,386.1l-3,8.52h6Z"/><path class="cls-2" d="M84.42,402.88v-21.4h3.75v21.4Z"/><path class="cls-2" d="M98.77,403.08a5.5,5.5,0,0,1-2-.34,4.71,4.71,0,0,1-1.5-.93,3.78,3.78,0,0,1-.94-1.36,4.32,4.32,0,0,1-.32-1.64v-8.35H91.09v-3H94V383.1h3.76v4.39h3.58v3H97.76v7.83a1.84,1.84,0,0,0,.47,1.34,2.18,2.18,0,0,0,1.58.48,4.32,4.32,0,0,0,.85-.09,5.57,5.57,0,0,0,.85-.23v3A9.86,9.86,0,0,1,98.77,403.08Z"/><path class="cls-2" d="M107.46,396.21a4.94,4.94,0,0,0,1.36,2.87,3.86,3.86,0,0,0,2.83,1.09,4.06,4.06,0,0,0,3.09-1.19l2.19,2.18a7.81,7.81,0,0,1-5.48,2,8.67,8.67,0,0,1-3.17-.58,7.4,7.4,0,0,1-2.52-1.63,7.52,7.52,0,0,1-1.68-2.53,8.65,8.65,0,0,1-.6-3.29,9.41,9.41,0,0,1,.53-3.26,7.49,7.49,0,0,1,1.5-2.53,6.74,6.74,0,0,1,2.31-1.63,7.26,7.26,0,0,1,2.93-.58,7.38,7.38,0,0,1,2.8.52,6.2,6.2,0,0,1,2.26,1.56,7.57,7.57,0,0,1,1.5,2.6,11,11,0,0,1,.55,3.61v.75Zm6.5-2.69a5,5,0,0,0-1-2.51,2.68,2.68,0,0,0-2.14-.95,2.84,2.84,0,0,0-2.15.94,4.45,4.45,0,0,0-1.11,2.52Z"/><path class="cls-2" d="M128.82,390.52a4.58,4.58,0,0,0-1.17.14,3.14,3.14,0,0,0-2.08,1.45,5.86,5.86,0,0,0-.72,3.12v7.65h-3.76V387.49h3.64v2.34a4.41,4.41,0,0,1,1.85-2,7.19,7.19,0,0,1,3.46-.69v3.41A11.73,11.73,0,0,0,128.82,390.52Z"/><path class="cls-2" d="M142.87,398.59a4.3,4.3,0,0,1-.38,1.74,4.2,4.2,0,0,1-1.13,1.51,5.52,5.52,0,0,1-1.9,1.07,8.33,8.33,0,0,1-2.74.4,7.65,7.65,0,0,1-5.41-2.15l2.17-2.18a4.89,4.89,0,0,0,1.34.9,4.37,4.37,0,0,0,1.9.4,3.08,3.08,0,0,0,1.84-.47,1.41,1.41,0,0,0,.64-1.17,1.38,1.38,0,0,0-.55-1.17,5.47,5.47,0,0,0-1.39-.73c-.55-.21-1.15-.43-1.79-.64a7.94,7.94,0,0,1-1.79-.85,4.33,4.33,0,0,1-1.38-1.38,4,4,0,0,1-.55-2.23,4,4,0,0,1,.37-1.66,4.24,4.24,0,0,1,1.12-1.47,5.79,5.79,0,0,1,1.81-1.05,7.07,7.07,0,0,1,2.47-.41,7.2,7.2,0,0,1,3,.6,7.69,7.69,0,0,1,2.22,1.53l-2.17,2.21a4.84,4.84,0,0,0-1.28-.93,3.76,3.76,0,0,0-1.72-.37,2.23,2.23,0,0,0-1.63.52,1.48,1.48,0,0,0-.54,1.06,1.12,1.12,0,0,0,.55,1,6.84,6.84,0,0,0,1.38.66l1.79.63a7.7,7.7,0,0,1,1.79.9,4.88,4.88,0,0,1,1.37,1.45A4.44,4.44,0,0,1,142.87,398.59Z"/><path class="cls-2" d="M145.09,396.21v-2.69h7.39v2.69Z"/><path class="cls-2" d="M37.76,429.82a9.25,9.25,0,0,1-.56,3.34,8,8,0,0,1-1.49,2.53,6.51,6.51,0,0,1-2.16,1.6,6.27,6.27,0,0,1-2.57.56,5.74,5.74,0,0,1-1.35-.17,6.75,6.75,0,0,1-1.28-.48,5.53,5.53,0,0,1-1.1-.73,3.51,3.51,0,0,1-.78-1v7.37H22.72V422.14h3.64v2.28a3.85,3.85,0,0,1,.73-1,4.69,4.69,0,0,1,1.12-.82,5.71,5.71,0,0,1,1.35-.55,5.09,5.09,0,0,1,1.42-.21,6.12,6.12,0,0,1,2.57.57,6.37,6.37,0,0,1,2.16,1.6,7.88,7.88,0,0,1,1.49,2.51A9.14,9.14,0,0,1,37.76,429.82Zm-3.89,0a5.4,5.4,0,0,0-1.07-3.59,3.37,3.37,0,0,0-4.06-.94,3.22,3.22,0,0,0-1.18.94,4.44,4.44,0,0,0-.8,1.53,7.53,7.53,0,0,0,0,4.14,4.63,4.63,0,0,0,.8,1.53,3.28,3.28,0,0,0,1.18,1,3.45,3.45,0,0,0,2.86,0,3.28,3.28,0,0,0,1.18-1,4.82,4.82,0,0,0,.8-1.53A6.83,6.83,0,0,0,33.87,429.82Z"/><path class="cls-2" d="M51.31,433.24a4.31,4.31,0,0,1-.38,1.75,4.38,4.38,0,0,1-1.12,1.51,5.83,5.83,0,0,1-1.91,1.06,8.32,8.32,0,0,1-2.74.41,7.66,7.66,0,0,1-5.4-2.16l2.16-2.17a5.11,5.11,0,0,0,1.34.89,4.37,4.37,0,0,0,1.9.41,3,3,0,0,0,1.84-.48,1.41,1.41,0,0,0,.64-1.17,1.35,1.35,0,0,0-.55-1.16,5.4,5.4,0,0,0-1.38-.74q-.84-.31-1.8-.63a8.39,8.39,0,0,1-1.79-.85,4.58,4.58,0,0,1-1.38-1.39,4,4,0,0,1-.55-2.23,4,4,0,0,1,.37-1.66,4.57,4.57,0,0,1,1.12-1.47,5.73,5.73,0,0,1,1.82-1.05,7,7,0,0,1,2.46-.4,7.2,7.2,0,0,1,3,.6,7.69,7.69,0,0,1,2.22,1.53L49.05,426a4.81,4.81,0,0,0-1.28-.92,3.73,3.73,0,0,0-1.72-.38,2.25,2.25,0,0,0-1.63.52,1.49,1.49,0,0,0-.53,1.07,1.1,1.1,0,0,0,.54,1,6.84,6.84,0,0,0,1.38.66c.54.21,1.14.42,1.79.64a7.67,7.67,0,0,1,1.79.89,4.79,4.79,0,0,1,1.37,1.46A4.37,4.37,0,0,1,51.31,433.24Z"/><path class="cls-2" d="M61.24,440.45a4.08,4.08,0,0,1-.47.84,4.44,4.44,0,0,1-.87.86,4.82,4.82,0,0,1-1.3.68,5.18,5.18,0,0,1-1.81.28,11.55,11.55,0,0,1-1.5-.1,9.83,9.83,0,0,1-1.21-.25v-3a7.51,7.51,0,0,0,.82.21,5.18,5.18,0,0,0,.85.08,2.52,2.52,0,0,0,1.32-.26,1.38,1.38,0,0,0,.53-.61.69.69,0,0,0,.18-.24l.23-.48c.07-.17.15-.35.21-.52s.11-.29.13-.35l-6.09-15.48h4.13l3.93,11.47,4.13-11.47h4.1Z"/><path class="cls-2" d="M77.47,437.85a7.77,7.77,0,0,1-3-.58A7.25,7.25,0,0,1,72,435.64a7.58,7.58,0,0,1-1.66-2.52,8.51,8.51,0,0,1-.61-3.3,8.38,8.38,0,0,1,.61-3.26A7.72,7.72,0,0,1,72,424a7.56,7.56,0,0,1,2.45-1.63,8,8,0,0,1,3-.58,7.86,7.86,0,0,1,5.23,2l-2.28,2.28a3.78,3.78,0,0,0-1.24-.82,3.85,3.85,0,0,0-1.54-.31,3.68,3.68,0,0,0-1.57.35,3.72,3.72,0,0,0-1.28,1,4.85,4.85,0,0,0-.86,1.55,6.15,6.15,0,0,0-.3,2,6.27,6.27,0,0,0,.3,2,4.75,4.75,0,0,0,.86,1.53,4,4,0,0,0,1.28,1,3.54,3.54,0,0,0,1.57.36,4,4,0,0,0,1.54-.3,3.56,3.56,0,0,0,1.24-.85l2.28,2.28A7.78,7.78,0,0,1,77.47,437.85Z"/><path class="cls-2" d="M96.18,437.53v-9.09a3.73,3.73,0,0,0-.79-2.62,2.91,2.91,0,0,0-2.21-.85,3.33,3.33,0,0,0-2.6,1.17,5.46,5.46,0,0,0-1,3.68v7.71H85.79v-21.4h3.75v8.21a4.2,4.2,0,0,1,1.74-1.81,5.84,5.84,0,0,1,3-.71,6.19,6.19,0,0,1,2.3.42,4.88,4.88,0,0,1,1.79,1.22,5.77,5.77,0,0,1,1.16,1.92,7.2,7.2,0,0,1,.42,2.54v9.61Z"/><path class="cls-2" d="M104.59,419.77v-3.64h3.84v3.64Zm0,17.76V422.14h3.75v15.39Z"/><path class="cls-2" d="M121.86,437.53V435.2a4.44,4.44,0,0,1-1.75,1.94,6.1,6.1,0,0,1-4.92.35,5.23,5.23,0,0,1-1.61-1,4.71,4.71,0,0,1-1.07-1.44,4.07,4.07,0,0,1-.39-1.75,4.42,4.42,0,0,1,.42-1.89,4.5,4.5,0,0,1,1.3-1.61,6.7,6.7,0,0,1,2.26-1.09,11.45,11.45,0,0,1,3.24-.41h2.4v-.67c0-.14,0-.28,0-.4s0-.2-.08-.22a2.26,2.26,0,0,0-1-1.62,3.56,3.56,0,0,0-2.18-.67,5,5,0,0,0-1.91.35,5.45,5.45,0,0,0-1.5.92l-2.17-2.17a9.46,9.46,0,0,1,2.56-1.55,8.82,8.82,0,0,1,3.36-.58,8.44,8.44,0,0,1,2.82.43,6,6,0,0,1,2.08,1.21,5.39,5.39,0,0,1,1.3,1.82,5.66,5.66,0,0,1,.45,2.26v10.1Zm-.12-6.78H119.2a4.79,4.79,0,0,0-1.47.2,3,3,0,0,0-1,.53,2.28,2.28,0,0,0-.6.74,2,2,0,0,0-.18.81,1.93,1.93,0,0,0,.56,1.4,2.39,2.39,0,0,0,1.78.59,3.26,3.26,0,0,0,2.49-1,3.9,3.9,0,0,0,1-2.79Z"/><path class="cls-2" d="M136.09,437.74a5.41,5.41,0,0,1-2-.35,4.85,4.85,0,0,1-1.51-.92,3.84,3.84,0,0,1-.93-1.36,4.18,4.18,0,0,1-.32-1.65v-8.34h-2.92v-3h2.92v-4.39h3.75v4.39h3.58v3h-3.58v7.82a1.83,1.83,0,0,0,.48,1.35,2.2,2.2,0,0,0,1.57.47,4.41,4.41,0,0,0,.86-.09,4.84,4.84,0,0,0,.85-.23v3A10.33,10.33,0,0,1,136.09,437.74Z"/><path class="cls-2" d="M149.68,425.17a4.25,4.25,0,0,0-1.17.15,3.11,3.11,0,0,0-2.08,1.44,5.86,5.86,0,0,0-.72,3.12v7.65H142V422.14h3.63v2.34a4.33,4.33,0,0,1,1.85-2,7.22,7.22,0,0,1,3.47-.7v3.41A12.07,12.07,0,0,0,149.68,425.17Z"/><path class="cls-2" d="M153.68,419.77v-3.64h3.84v3.64Zm0,17.76V422.14h3.75v15.39Z"/><path class="cls-2" d="M165,430.86a4.91,4.91,0,0,0,1.36,2.87,3.82,3.82,0,0,0,2.83,1.09,4.09,4.09,0,0,0,3.09-1.18l2.19,2.17a8.43,8.43,0,0,1-2.51,1.55,8.33,8.33,0,0,1-3,.49,8.47,8.47,0,0,1-3.17-.58,7.26,7.26,0,0,1-2.52-1.63,7.47,7.47,0,0,1-1.68-2.52,8.7,8.7,0,0,1-.6-3.3,9.41,9.41,0,0,1,.53-3.26,7.68,7.68,0,0,1,1.5-2.53,6.88,6.88,0,0,1,2.31-1.63,7.44,7.44,0,0,1,2.93-.58,7.58,7.58,0,0,1,2.8.52,6.2,6.2,0,0,1,2.26,1.56,7.66,7.66,0,0,1,1.5,2.6,11,11,0,0,1,.55,3.61v.75Zm6.5-2.68a4.92,4.92,0,0,0-1-2.51,2.66,2.66,0,0,0-2.14-1,2.86,2.86,0,0,0-2.15.94,4.51,4.51,0,0,0-1.11,2.53Z"/><path class="cls-2" d="M189,437.53v-9.09a3.73,3.73,0,0,0-.8-2.62A2.89,2.89,0,0,0,186,425a3.34,3.34,0,0,0-2.6,1.17,5.46,5.46,0,0,0-1,3.68v7.71h-3.76V422.14h3.64v2.37a4.16,4.16,0,0,1,1.77-1.95,5.94,5.94,0,0,1,3.07-.74,6.19,6.19,0,0,1,2.3.42,4.88,4.88,0,0,1,1.79,1.22,5.61,5.61,0,0,1,1.16,1.92,7.2,7.2,0,0,1,.42,2.54v9.61Z"/><circle class="cls-1" cx="492.18" cy="666.79" r="82.5"/><path class="cls-2" d="M462.84,643.81a6.25,6.25,0,0,1-.51,2.53,5.67,5.67,0,0,1-1.44,2,6.68,6.68,0,0,1-2.24,1.34,8.17,8.17,0,0,1-2.9.49h-3.51v8.64h-4.1v-21.4h7.59a7.92,7.92,0,0,1,2.9.51,6.84,6.84,0,0,1,2.26,1.37,6.06,6.06,0,0,1,1.95,4.5Zm-4.16,0a3,3,0,0,0-.85-2.14,3.25,3.25,0,0,0-2.46-.89h-3.13v6.06h3.13a3.28,3.28,0,0,0,2.46-.87A3,3,0,0,0,458.68,643.81Z"/><path class="cls-2" d="M473.54,646.47a4.58,4.58,0,0,0-1.17.14,3.14,3.14,0,0,0-2.08,1.45,5.85,5.85,0,0,0-.73,3.12v7.65h-3.75V643.44h3.64v2.34a4.3,4.3,0,0,1,1.85-2,7.19,7.19,0,0,1,3.46-.69v3.41A11.73,11.73,0,0,0,473.54,646.47Z"/><path class="cls-2" d="M477.54,641.07v-3.64h3.84v3.64Zm0,17.76V643.44h3.76v15.39Z"/><path class="cls-2" d="M493.82,658.83h-4.1l-6-15.39h4.13l3.92,11.46,4.13-11.46H500Z"/><path class="cls-2" d="M511.09,658.83v-2.34a4.39,4.39,0,0,1-1.74,2,6.12,6.12,0,0,1-4.93.35,5.2,5.2,0,0,1-1.6-1,4.59,4.59,0,0,1-1.07-1.44,4,4,0,0,1-.39-1.75,4.48,4.48,0,0,1,.42-1.89,4.37,4.37,0,0,1,1.3-1.6,6.75,6.75,0,0,1,2.25-1.1,11.6,11.6,0,0,1,3.25-.4H511v-.68c0-.14,0-.27,0-.4s0-.19-.07-.21a2.27,2.27,0,0,0-1-1.62,3.45,3.45,0,0,0-2.18-.67,4.92,4.92,0,0,0-1.9.34,5.44,5.44,0,0,0-1.51.93l-2.16-2.18a9.38,9.38,0,0,1,2.55-1.54,8.9,8.9,0,0,1,3.37-.59,8.33,8.33,0,0,1,2.81.44,5.91,5.91,0,0,1,2.08,1.21,5.29,5.29,0,0,1,1.3,1.82,5.58,5.58,0,0,1,.45,2.25v10.11ZM511,652h-2.54a4.59,4.59,0,0,0-1.48.21,3.11,3.11,0,0,0-1,.53,2,2,0,0,0-.59.74,1.8,1.8,0,0,0-.19.8,1.94,1.94,0,0,0,.57,1.4,2.31,2.31,0,0,0,1.77.6,3.31,3.31,0,0,0,2.5-1,3.91,3.91,0,0,0,1-2.79Z"/><path class="cls-2" d="M525.33,659a5.3,5.3,0,0,1-2-.35,4.52,4.52,0,0,1-1.5-.92,3.78,3.78,0,0,1-.94-1.36,4.36,4.36,0,0,1-.32-1.64v-8.35h-2.91v-3h2.91v-4.39h3.76v4.39h3.58v3h-3.58v7.83a1.84,1.84,0,0,0,.47,1.34,2.18,2.18,0,0,0,1.58.48,4.32,4.32,0,0,0,.85-.09,5.57,5.57,0,0,0,.85-.23v3A10.25,10.25,0,0,1,525.33,659Z"/><path class="cls-2" d="M530.12,652.16v-2.69h7.4v2.69Z"/><path class="cls-2" d="M443.43,693.48v-9.06h-7.88v9.06h-4.1v-21.4h4.1v9h7.88v-9h4v21.4Z"/><path class="cls-2" d="M461.16,693.48v-2.34a4.35,4.35,0,0,1-1.75,2,5.42,5.42,0,0,1-2.9.71,5.54,5.54,0,0,1-2-.36,5.06,5.06,0,0,1-1.6-1,4.75,4.75,0,0,1-1.07-1.45,4,4,0,0,1-.39-1.74,4.39,4.39,0,0,1,1.72-3.5,6.65,6.65,0,0,1,2.25-1.09,11.53,11.53,0,0,1,3.25-.41h2.4v-.67c0-.14,0-.28,0-.4s0-.2-.07-.22a2.27,2.27,0,0,0-1-1.62,3.54,3.54,0,0,0-2.18-.67,4.91,4.91,0,0,0-1.9.35,5.66,5.66,0,0,0-1.51.92l-2.16-2.17a9.41,9.41,0,0,1,2.55-1.55,8.91,8.91,0,0,1,3.37-.58,8.34,8.34,0,0,1,2.81.43,5.91,5.91,0,0,1,2.08,1.21,5.29,5.29,0,0,1,1.3,1.82,5.66,5.66,0,0,1,.45,2.26v10.1Zm-.11-6.78H458.5a4.58,4.58,0,0,0-1.47.2,3.11,3.11,0,0,0-1,.53,2.12,2.12,0,0,0-.59.74,1.85,1.85,0,0,0-.19.81,2,2,0,0,0,.56,1.4,2.39,2.39,0,0,0,1.78.59,3.3,3.3,0,0,0,2.5-1,4,4,0,0,0,1-2.79Z"/><path class="cls-2" d="M480,693.48v-2.36a4.05,4.05,0,0,1-1.75,1.93,5.81,5.81,0,0,1-3,.75,6.09,6.09,0,0,1-2.31-.42,4.94,4.94,0,0,1-1.79-1.21,5.33,5.33,0,0,1-1.17-1.92,7.24,7.24,0,0,1-.42-2.54v-9.62h3.75v9.07a3.77,3.77,0,0,0,.8,2.64,2.83,2.83,0,0,0,2.2.85,3.31,3.31,0,0,0,2.6-1.18,5.47,5.47,0,0,0,1-3.7v-7.68h3.76v15.39Z"/><path class="cls-2" d="M498.36,689.19a4.23,4.23,0,0,1-.38,1.74,4.32,4.32,0,0,1-1.13,1.52,5.67,5.67,0,0,1-1.9,1.06,8.32,8.32,0,0,1-2.74.41,7.66,7.66,0,0,1-5.4-2.16l2.16-2.18a4.89,4.89,0,0,0,1.34.9,4.37,4.37,0,0,0,1.9.4,3,3,0,0,0,1.84-.47,1.41,1.41,0,0,0,.64-1.17,1.35,1.35,0,0,0-.55-1.16,5.48,5.48,0,0,0-1.39-.74c-.55-.21-1.15-.42-1.79-.63a8.39,8.39,0,0,1-1.79-.85,4.47,4.47,0,0,1-1.38-1.39,4,4,0,0,1-.55-2.23,4,4,0,0,1,.37-1.66,4.43,4.43,0,0,1,1.12-1.47,5.79,5.79,0,0,1,1.81-1.05,7.07,7.07,0,0,1,2.47-.4,7.2,7.2,0,0,1,3,.6,7.5,7.5,0,0,1,2.22,1.53L496.1,682a4.81,4.81,0,0,0-1.28-.92,3.76,3.76,0,0,0-1.72-.38,2.25,2.25,0,0,0-1.63.52,1.48,1.48,0,0,0-.54,1.07,1.11,1.11,0,0,0,.55,1,6.84,6.84,0,0,0,1.38.66c.54.21,1.14.42,1.79.64a7.67,7.67,0,0,1,1.79.89,4.8,4.8,0,0,1,1.37,1.46A4.37,4.37,0,0,1,498.36,689.19Z"/><path class="cls-2" d="M512,693.48v-9.09a3.73,3.73,0,0,0-.79-2.62,2.91,2.91,0,0,0-2.21-.85,3.34,3.34,0,0,0-2.6,1.17,5.46,5.46,0,0,0-1,3.68v7.71h-3.75v-21.4h3.75v8.21a4.14,4.14,0,0,1,1.74-1.81,5.84,5.84,0,0,1,3-.71,6.19,6.19,0,0,1,2.3.42,4.88,4.88,0,0,1,1.79,1.22,5.67,5.67,0,0,1,1.16,1.92,7.2,7.2,0,0,1,.42,2.54v9.61Z"/><path class="cls-2" d="M529.26,693.48v-2.34a4.41,4.41,0,0,1-1.75,2,6.1,6.1,0,0,1-4.92.35,5.23,5.23,0,0,1-1.61-1,4.75,4.75,0,0,1-1.07-1.45,4,4,0,0,1-.39-1.74,4.42,4.42,0,0,1,.42-1.89,4.5,4.5,0,0,1,1.3-1.61,6.7,6.7,0,0,1,2.26-1.09,11.45,11.45,0,0,1,3.24-.41h2.4v-.67c0-.14,0-.28,0-.4s0-.2-.08-.22a2.26,2.26,0,0,0-1-1.62,3.56,3.56,0,0,0-2.18-.67A5,5,0,0,0,524,681a5.45,5.45,0,0,0-1.5.92l-2.17-2.17a9.46,9.46,0,0,1,2.56-1.55,8.82,8.82,0,0,1,3.36-.58,8.44,8.44,0,0,1,2.82.43,6,6,0,0,1,2.08,1.21,5.29,5.29,0,0,1,1.3,1.82,5.66,5.66,0,0,1,.44,2.26v10.1Zm-.12-6.78H526.6a4.5,4.5,0,0,0-1.47.2,3,3,0,0,0-1,.53,2.28,2.28,0,0,0-.6.74,2,2,0,0,0-.18.81,2,2,0,0,0,.56,1.4,2.37,2.37,0,0,0,1.78.59,3.26,3.26,0,0,0,2.49-1,3.9,3.9,0,0,0,1-2.79Z"/><path class="cls-2" d="M537.6,693.48v-21.4h3.76v21.4Z"/><path class="cls-2" d="M552,693.69a5.41,5.41,0,0,1-2-.35,4.69,4.69,0,0,1-1.5-.92,3.74,3.74,0,0,1-.94-1.36,4.18,4.18,0,0,1-.32-1.65v-8.34h-2.92v-3h2.92V673.7h3.75v4.39h3.58v3h-3.58v7.82a1.79,1.79,0,0,0,.48,1.34,2.15,2.15,0,0,0,1.57.48,4.41,4.41,0,0,0,.86-.09,4.84,4.84,0,0,0,.85-.23v3A10.33,10.33,0,0,1,552,693.69Z"/><circle class="cls-1" cx="306.85" cy="226.75" r="111.5"/><path class="cls-2" d="M233.58,201.46l-6.42-7.16v7.16h-3.75v-21.4h3.75v12.79l6.1-6.78h4.59l-6.93,7.48,7.39,7.91Z"/><path class="cls-2" d="M254,193.75a9.45,9.45,0,0,1-.56,3.33,7.16,7.16,0,0,1-1.58,2.53,6.84,6.84,0,0,1-2.38,1.6,8,8,0,0,1-5.93,0,6.9,6.9,0,0,1-2.37-1.6,7.14,7.14,0,0,1-1.57-2.53,9.23,9.23,0,0,1-.57-3.33,9.14,9.14,0,0,1,.57-3.32,7.23,7.23,0,0,1,1.57-2.51,6.92,6.92,0,0,1,2.37-1.61,8.13,8.13,0,0,1,5.93,0,6.87,6.87,0,0,1,2.38,1.61,7.25,7.25,0,0,1,1.58,2.51A9.36,9.36,0,0,1,254,193.75Zm-3.9,0a5.59,5.59,0,0,0-1-3.6,3.25,3.25,0,0,0-5.12,0,6.82,6.82,0,0,0,0,7.21,3.13,3.13,0,0,0,2.55,1.27,3.17,3.17,0,0,0,2.56-1.27A5.64,5.64,0,0,0,250.09,193.75Z"/><path class="cls-2" d="M276.26,201.46v-9.1c0-2.31-.86-3.46-2.56-3.46a2.3,2.3,0,0,0-1.12.3,3.06,3.06,0,0,0-1,.9,5,5,0,0,0-.69,1.47,7.3,7.3,0,0,0-.26,2v7.86H266.9v-9.1q0-3.47-2.57-3.46a2.33,2.33,0,0,0-1.13.3,3.06,3.06,0,0,0-1,.9,4.56,4.56,0,0,0-.69,1.47,7.3,7.3,0,0,0-.26,2v7.86h-3.75V186.07h3.63v2.39a4.65,4.65,0,0,1,1.63-2,4.58,4.58,0,0,1,2.63-.71,5.13,5.13,0,0,1,1.72.27,5.39,5.39,0,0,1,1.35.71,4.5,4.5,0,0,1,1,1,6.45,6.45,0,0,1,.65,1.13,5.81,5.81,0,0,1,1.85-2.27,4.73,4.73,0,0,1,2.83-.82,5.16,5.16,0,0,1,2.15.43,4.68,4.68,0,0,1,1.65,1.22,5.77,5.77,0,0,1,1.06,1.89,7.77,7.77,0,0,1,.37,2.5v9.67Z"/><path class="cls-2" d="M299.74,193.75a9.23,9.23,0,0,1-.57,3.33,7.93,7.93,0,0,1-1.48,2.53,6.41,6.41,0,0,1-2.17,1.6,6.12,6.12,0,0,1-2.57.57,5.2,5.2,0,0,1-1.34-.18,6.2,6.2,0,0,1-1.29-.47,5.17,5.17,0,0,1-1.1-.74,4.07,4.07,0,0,1-.78-.95v7.36h-3.75V186.07h3.64v2.28a3.74,3.74,0,0,1,.73-1,5,5,0,0,1,1.12-.82,6.7,6.7,0,0,1,1.35-.55,5.52,5.52,0,0,1,1.42-.2,6.27,6.27,0,0,1,2.57.56,6.44,6.44,0,0,1,2.17,1.61,8.05,8.05,0,0,1,1.48,2.51A9.14,9.14,0,0,1,299.74,193.75Zm-3.9,0a5.43,5.43,0,0,0-1.07-3.6,3.41,3.41,0,0,0-4.06-.94,3.44,3.44,0,0,0-1.18.94,4.63,4.63,0,0,0-.8,1.53,7,7,0,0,0-.29,2.07,6.87,6.87,0,0,0,.29,2.08,4.63,4.63,0,0,0,.8,1.53,3.25,3.25,0,0,0,1.18.95,3.36,3.36,0,0,0,2.86,0,3.25,3.25,0,0,0,1.18-.95,4.63,4.63,0,0,0,.8-1.53A6.87,6.87,0,0,0,295.84,193.75Z"/><path class="cls-2" d="M306.09,194.79a4.88,4.88,0,0,0,1.36,2.87,3.86,3.86,0,0,0,2.83,1.09,4.09,4.09,0,0,0,3.09-1.19l2.19,2.18a8.52,8.52,0,0,1-2.51,1.54,8.35,8.35,0,0,1-3,.5,8.62,8.62,0,0,1-3.16-.58,7.7,7.7,0,0,1-2.53-1.63,7.49,7.49,0,0,1-1.67-2.53,8.65,8.65,0,0,1-.61-3.29,9.41,9.41,0,0,1,.54-3.26,7.18,7.18,0,0,1,1.5-2.53,6.55,6.55,0,0,1,2.31-1.63,7.23,7.23,0,0,1,2.93-.58,7.38,7.38,0,0,1,2.8.52,6.08,6.08,0,0,1,2.25,1.56,7.43,7.43,0,0,1,1.51,2.6,11,11,0,0,1,.54,3.61v.75Zm6.5-2.69a5,5,0,0,0-1-2.51,2.69,2.69,0,0,0-2.14-1,2.81,2.81,0,0,0-2.15.94,4.45,4.45,0,0,0-1.11,2.52Z"/><path class="cls-2" d="M325.61,201.66a5.3,5.3,0,0,1-2-.35,4.62,4.62,0,0,1-1.5-.92,3.78,3.78,0,0,1-.94-1.36,4.32,4.32,0,0,1-.32-1.64V189h-2.91v-3h2.91v-4.39h3.76v4.39h3.58v3H324.6v7.83a1.8,1.8,0,0,0,.48,1.34,2.14,2.14,0,0,0,1.57.48,4.32,4.32,0,0,0,.85-.09,5.57,5.57,0,0,0,.85-.23v3A9.86,9.86,0,0,1,325.61,201.66Z"/><path class="cls-2" d="M334.3,194.79a5,5,0,0,0,1.36,2.87,3.86,3.86,0,0,0,2.83,1.09,4.06,4.06,0,0,0,3.09-1.19l2.19,2.18a7.81,7.81,0,0,1-5.48,2,8.67,8.67,0,0,1-3.17-.58,7.55,7.55,0,0,1-2.52-1.63,7.67,7.67,0,0,1-1.68-2.53,8.65,8.65,0,0,1-.6-3.29,9.41,9.41,0,0,1,.53-3.26,7.49,7.49,0,0,1,1.5-2.53,6.74,6.74,0,0,1,2.31-1.63,7.3,7.3,0,0,1,2.93-.58,7.43,7.43,0,0,1,2.81.52,6.25,6.25,0,0,1,2.25,1.56,7.57,7.57,0,0,1,1.5,2.6,10.74,10.74,0,0,1,.55,3.61v.75Zm6.5-2.69a4.87,4.87,0,0,0-1-2.51,2.68,2.68,0,0,0-2.14-1,2.84,2.84,0,0,0-2.15.94,4.45,4.45,0,0,0-1.11,2.52Z"/><path class="cls-2" d="M358.33,201.46v-9.1a3.72,3.72,0,0,0-.8-2.61,2.85,2.85,0,0,0-2.2-.85,3.33,3.33,0,0,0-2.6,1.17,5.39,5.39,0,0,0-1,3.68v7.71h-3.76V186.07h3.64v2.37a4.16,4.16,0,0,1,1.77-1.95,5.94,5.94,0,0,1,3.07-.74,6.19,6.19,0,0,1,2.3.42,4.85,4.85,0,0,1,1.79,1.21,5.61,5.61,0,0,1,1.16,1.92,7.24,7.24,0,0,1,.42,2.54v9.62Z"/><path class="cls-2" d="M372.65,201.66a5.3,5.3,0,0,1-2-.35,4.73,4.73,0,0,1-1.5-.92,3.75,3.75,0,0,1-.93-1.36,4.13,4.13,0,0,1-.32-1.64V189H365v-3h2.92v-4.39h3.75v4.39h3.58v3h-3.58v7.83a1.8,1.8,0,0,0,.48,1.34,2.15,2.15,0,0,0,1.57.48,4.24,4.24,0,0,0,.85-.09,5.7,5.7,0,0,0,.86-.23v3A10,10,0,0,1,372.65,201.66Z"/><path class="cls-2" d="M381.34,194.79a5,5,0,0,0,1.36,2.87,3.88,3.88,0,0,0,2.83,1.09,4.06,4.06,0,0,0,3.09-1.19l2.2,2.18a8.43,8.43,0,0,1-2.52,1.54,8.25,8.25,0,0,1-3,.5,8.58,8.58,0,0,1-3.16-.58,7.6,7.6,0,0,1-2.53-1.63A7.49,7.49,0,0,1,378,197a8.46,8.46,0,0,1-.61-3.29,9.65,9.65,0,0,1,.53-3.26,7.49,7.49,0,0,1,1.5-2.53,6.68,6.68,0,0,1,2.32-1.63,7.23,7.23,0,0,1,2.93-.58,7.42,7.42,0,0,1,2.8.52,6.16,6.16,0,0,1,2.25,1.56,7.26,7.26,0,0,1,1.5,2.6,10.74,10.74,0,0,1,.55,3.61v.75Zm6.5-2.69a4.87,4.87,0,0,0-1-2.51,2.67,2.67,0,0,0-2.13-1,2.84,2.84,0,0,0-2.16.94,4.59,4.59,0,0,0-1.11,2.52Z"/><path class="cls-2" d="M268.72,225.43a11.73,11.73,0,0,1-.85,4.65,9.36,9.36,0,0,1-2.34,3.33,9.91,9.91,0,0,1-3.5,2,13.48,13.48,0,0,1-4.34.67h-6.35v-21.4h6.35a13.79,13.79,0,0,1,4.39.68,9.7,9.7,0,0,1,3.49,2,9.33,9.33,0,0,1,2.31,3.34A12.05,12.05,0,0,1,268.72,225.43Zm-4.24,0a9.13,9.13,0,0,0-.52-3.2,6.56,6.56,0,0,0-1.43-2.31,5.74,5.74,0,0,0-2.17-1.39,7.92,7.92,0,0,0-2.74-.47h-2.18v14.7h2.18a7.92,7.92,0,0,0,2.74-.46,5.74,5.74,0,0,0,2.17-1.39A6.56,6.56,0,0,0,264,228.6,9,9,0,0,0,264.48,225.43Z"/><path class="cls-2" d="M275.16,229.44a4.91,4.91,0,0,0,1.36,2.87,3.82,3.82,0,0,0,2.83,1.09,4.09,4.09,0,0,0,3.09-1.18l2.19,2.17a8.57,8.57,0,0,1-8.65,1.46,7.26,7.26,0,0,1-2.52-1.63,7.47,7.47,0,0,1-1.68-2.52,8.7,8.7,0,0,1-.61-3.3,9.41,9.41,0,0,1,.54-3.26,7.52,7.52,0,0,1,1.5-2.53,6.88,6.88,0,0,1,2.31-1.63,7.44,7.44,0,0,1,2.93-.58,7.58,7.58,0,0,1,2.8.52,6.2,6.2,0,0,1,2.26,1.56,7.66,7.66,0,0,1,1.5,2.6,11,11,0,0,1,.55,3.61v.75Zm6.5-2.68a5,5,0,0,0-1-2.52,2.68,2.68,0,0,0-2.14-1,2.82,2.82,0,0,0-2.15.94,4.51,4.51,0,0,0-1.11,2.53Z"/><path class="cls-2" d="M307.53,236.11V227q0-3.47-2.55-3.47a2.33,2.33,0,0,0-1.13.3,3.28,3.28,0,0,0-1,.9,4.77,4.77,0,0,0-.69,1.47,7.38,7.38,0,0,0-.26,2v7.85h-3.75V227q0-3.47-2.57-3.47a2.3,2.3,0,0,0-1.13.3,3.19,3.19,0,0,0-1,.9,5,5,0,0,0-.7,1.47,7.38,7.38,0,0,0-.26,2v7.85h-3.75V220.72h3.64v2.4a4.67,4.67,0,0,1,1.62-2,4.61,4.61,0,0,1,2.64-.71,5.17,5.17,0,0,1,1.72.28,5.09,5.09,0,0,1,1.35.71,4.51,4.51,0,0,1,1,1,7.07,7.07,0,0,1,.65,1.12,5.78,5.78,0,0,1,1.85-2.26,4.74,4.74,0,0,1,2.83-.83,5.2,5.2,0,0,1,2.15.44,4.84,4.84,0,0,1,1.65,1.21,5.58,5.58,0,0,1,1.05,1.89,7.81,7.81,0,0,1,.38,2.5v9.67Z"/><path class="cls-2" d="M318.79,229.44a5,5,0,0,0,1.36,2.87A3.84,3.84,0,0,0,323,233.4a4.09,4.09,0,0,0,3.09-1.18l2.2,2.17a8.47,8.47,0,0,1-2.52,1.55,8.26,8.26,0,0,1-3,.49,8.38,8.38,0,0,1-3.16-.58,7.3,7.3,0,0,1-2.53-1.63,7.45,7.45,0,0,1-1.67-2.52,8.51,8.51,0,0,1-.61-3.3,9.65,9.65,0,0,1,.53-3.26,7.54,7.54,0,0,1,1.51-2.53,6.68,6.68,0,0,1,2.31-1.63,7.4,7.4,0,0,1,2.93-.58,7.62,7.62,0,0,1,2.8.52,6.16,6.16,0,0,1,2.25,1.56,7.35,7.35,0,0,1,1.5,2.6,10.78,10.78,0,0,1,.55,3.61v.75Zm6.5-2.68a4.91,4.91,0,0,0-1-2.52,2.67,2.67,0,0,0-2.13-1,2.84,2.84,0,0,0-2.16.94,4.65,4.65,0,0,0-1.11,2.53Z"/><path class="cls-2" d="M342.82,236.11V227a3.73,3.73,0,0,0-.79-2.62,2.91,2.91,0,0,0-2.21-.85,3.33,3.33,0,0,0-2.6,1.17,5.46,5.46,0,0,0-1,3.68v7.71h-3.75V220.72h3.63v2.37a4.16,4.16,0,0,1,1.77-2,5.94,5.94,0,0,1,3.07-.74,6.15,6.15,0,0,1,2.3.42A4.91,4.91,0,0,1,345,222a5.77,5.77,0,0,1,1.16,1.92,7.2,7.2,0,0,1,.42,2.54v9.61Z"/><path class="cls-2" d="M350,236.11v-2.74l6.73-9.67h-6.52v-3h11v2.78l-6.73,9.58h6.93v3Z"/><path class="cls-2" d="M363.76,229.44v-2.68h7.39v2.68Z"/><path class="cls-2" d="M236.15,270.77H232l-6-15.39h4.13l3.93,11.46,4.13-11.46h4.1Z"/><path class="cls-2" d="M247.47,264.1a4.87,4.87,0,0,0,1.35,2.86,3.84,3.84,0,0,0,2.83,1.09,4.05,4.05,0,0,0,3.09-1.18l2.2,2.17a8.56,8.56,0,0,1-2.51,1.55,8.35,8.35,0,0,1-3,.5,8.58,8.58,0,0,1-3.16-.58,7.33,7.33,0,0,1-4.2-4.16,8.46,8.46,0,0,1-.61-3.29,9.71,9.71,0,0,1,.53-3.27,7.4,7.4,0,0,1,1.51-2.52,6.43,6.43,0,0,1,2.31-1.63,7.23,7.23,0,0,1,2.93-.58,7.42,7.42,0,0,1,2.8.52,5.86,5.86,0,0,1,2.25,1.56,7.26,7.26,0,0,1,1.5,2.6,10.74,10.74,0,0,1,.55,3.61v.75Zm6.49-2.69a4.84,4.84,0,0,0-1-2.51,2.64,2.64,0,0,0-2.13-.95,2.83,2.83,0,0,0-2.15.93,4.59,4.59,0,0,0-1.12,2.53Z"/><path class="cls-2" d="M268.82,258.41a4.69,4.69,0,0,0-1.17.14,3.16,3.16,0,0,0-2.08,1.45,5.86,5.86,0,0,0-.72,3.12v7.65H261.1V255.38h3.64v2.33a4.36,4.36,0,0,1,1.84-2,7.23,7.23,0,0,1,3.47-.69v3.41A12.07,12.07,0,0,0,268.82,258.41Z"/><path class="cls-2" d="M282.87,266.48a4.27,4.27,0,0,1-1.5,3.25,5.74,5.74,0,0,1-1.91,1.07,8.29,8.29,0,0,1-2.74.4,7.44,7.44,0,0,1-3.1-.63,7.22,7.22,0,0,1-2.3-1.53l2.17-2.17a4.78,4.78,0,0,0,3.23,1.3,3,3,0,0,0,1.85-.48,1.4,1.4,0,0,0,.63-1.16,1.38,1.38,0,0,0-.55-1.17,5.55,5.55,0,0,0-1.38-.74c-.56-.21-1.16-.42-1.79-.63a7.74,7.74,0,0,1-1.79-.85,4.57,4.57,0,0,1-1.39-1.38,4.13,4.13,0,0,1-.55-2.24,4,4,0,0,1,.38-1.65,4.33,4.33,0,0,1,1.11-1.47,5.65,5.65,0,0,1,1.82-1,7,7,0,0,1,2.47-.41,7.19,7.19,0,0,1,3,.6,7.43,7.43,0,0,1,2.22,1.53l-2.16,2.2a5.28,5.28,0,0,0-1.29-.92,3.73,3.73,0,0,0-1.72-.37,2.29,2.29,0,0,0-1.63.51,1.52,1.52,0,0,0-.53,1.07,1.11,1.11,0,0,0,.55,1,6.49,6.49,0,0,0,1.37.66l1.79.63a7.67,7.67,0,0,1,1.79.89,4.68,4.68,0,0,1,1.37,1.46A4.32,4.32,0,0,1,282.87,266.48Z"/><path class="cls-2" d="M300,263.06a9.23,9.23,0,0,1-.57,3.33,7.23,7.23,0,0,1-1.57,2.53,6.94,6.94,0,0,1-2.38,1.6,8,8,0,0,1-5.94,0,7.09,7.09,0,0,1-2.37-1.6,7.38,7.38,0,0,1-1.57-2.53,9.45,9.45,0,0,1-.56-3.33,9.36,9.36,0,0,1,.56-3.32,7.43,7.43,0,0,1,1.57-2.52,7.24,7.24,0,0,1,2.37-1.6,8.16,8.16,0,0,1,5.94,0,7.08,7.08,0,0,1,2.38,1.6,7.28,7.28,0,0,1,1.57,2.52A9.14,9.14,0,0,1,300,263.06Zm-3.9,0a5.65,5.65,0,0,0-1-3.6,3.26,3.26,0,0,0-5.13,0,6.88,6.88,0,0,0,0,7.21,3.21,3.21,0,0,0,5.11,0A5.58,5.58,0,0,0,296.07,263.06Z"/><path class="cls-2" d="M311.21,258.41a4.69,4.69,0,0,0-1.17.14A3.14,3.14,0,0,0,308,260a5.76,5.76,0,0,0-.73,3.12v7.65h-3.75V255.38h3.64v2.33a4.33,4.33,0,0,1,1.85-2,7.16,7.16,0,0,1,3.46-.69v3.41A11.78,11.78,0,0,0,311.21,258.41Z"/><path class="cls-2" d="M329.1,269.38a6.74,6.74,0,0,1-.56,2.76,6.37,6.37,0,0,1-1.62,2.24,7.82,7.82,0,0,1-2.55,1.5,9.61,9.61,0,0,1-3.35.55,9.11,9.11,0,0,1-3.73-.68,7.73,7.73,0,0,1-2.36-1.55l2.13-2.13a5.82,5.82,0,0,0,1.48.95,6.19,6.19,0,0,0,4.11.15,4.32,4.32,0,0,0,1.43-.84,3.82,3.82,0,0,0,1.27-2.95V268.2a4.45,4.45,0,0,1-1.78,1.74,5.19,5.19,0,0,1-2.7.71,6.21,6.21,0,0,1-2.58-.56,6.67,6.67,0,0,1-2.15-1.57,7.93,7.93,0,0,1-1.49-2.46,9.45,9.45,0,0,1,0-6.41,7.76,7.76,0,0,1,1.49-2.45,6.55,6.55,0,0,1,2.15-1.58,6.21,6.21,0,0,1,2.58-.56,5.45,5.45,0,0,1,1.51.21,6.57,6.57,0,0,1,1.32.57,4.6,4.6,0,0,1,1.07.82,3.57,3.57,0,0,1,.7,1v-2.28h3.63Zm-3.75-6.52a6,6,0,0,0-.29-1.92,4.53,4.53,0,0,0-.79-1.46,3.6,3.6,0,0,0-1.17-.94,3.26,3.26,0,0,0-2.86,0,3.6,3.6,0,0,0-1.17.94,4.35,4.35,0,0,0-.79,1.46,5.7,5.7,0,0,0-.29,1.92,5.08,5.08,0,0,0,1.05,3.4,3.42,3.42,0,0,0,4.06.93,3.44,3.44,0,0,0,1.17-.93,4.53,4.53,0,0,0,.79-1.46A6,6,0,0,0,325.35,262.86Z"/><path class="cls-2" d="M344.29,270.77V268.4a4,4,0,0,1-1.74,1.93,5.78,5.78,0,0,1-3.05.76,6.09,6.09,0,0,1-2.31-.42,5,5,0,0,1-1.79-1.22,5.63,5.63,0,0,1-1.17-1.92,7.2,7.2,0,0,1-.42-2.54v-9.61h3.76v9.06a3.78,3.78,0,0,0,.79,2.65,2.91,2.91,0,0,0,2.21.85,3.32,3.32,0,0,0,2.6-1.19,5.51,5.51,0,0,0,1-3.69v-7.68H348v15.39Z"/><path class="cls-2" d="M363,270.77v-9.1a3.72,3.72,0,0,0-.8-2.61,2.86,2.86,0,0,0-2.21-.85,3.34,3.34,0,0,0-2.6,1.17,5.45,5.45,0,0,0-1,3.68v7.71h-3.75V255.38h3.64v2.36a4.23,4.23,0,0,1,1.76-2,6,6,0,0,1,3.07-.73,6.24,6.24,0,0,1,2.31.42,4.85,4.85,0,0,1,1.79,1.21,5.77,5.77,0,0,1,1.16,1.92,7.24,7.24,0,0,1,.42,2.54v9.62Z"/><path class="cls-2" d="M385.33,269.38a6.91,6.91,0,0,1-.56,2.76,6.63,6.63,0,0,1-1.62,2.24,7.76,7.76,0,0,1-2.56,1.5,9.57,9.57,0,0,1-3.35.55,9.06,9.06,0,0,1-3.72-.68,7.91,7.91,0,0,1-2.37-1.55l2.14-2.13a5.3,5.3,0,0,0,3.81,1.38,5.4,5.4,0,0,0,1.78-.28,4.54,4.54,0,0,0,1.43-.84,3.94,3.94,0,0,0,.93-1.29,4,4,0,0,0,.34-1.66V268.2a4.45,4.45,0,0,1-1.78,1.74,5.24,5.24,0,0,1-2.7.71,6.14,6.14,0,0,1-2.58-.56,6.82,6.82,0,0,1-2.16-1.57,7.91,7.91,0,0,1-1.48-2.46,9.3,9.3,0,0,1,0-6.41,7.74,7.74,0,0,1,1.48-2.45,6.69,6.69,0,0,1,2.16-1.58,6.14,6.14,0,0,1,2.58-.56,5.33,5.33,0,0,1,1.5.21,6.66,6.66,0,0,1,1.33.57,4.82,4.82,0,0,1,1.07.82,3.33,3.33,0,0,1,.69,1v-2.28h3.64Zm-3.75-6.52a6,6,0,0,0-.29-1.92,4.55,4.55,0,0,0-.8-1.46,3.4,3.4,0,0,0-1.17-.94,3.11,3.11,0,0,0-1.41-.33,3.25,3.25,0,0,0-1.45.33,3.6,3.6,0,0,0-1.17.94,4.53,4.53,0,0,0-.79,1.46,6,6,0,0,0-.29,1.92,5,5,0,0,0,1.06,3.4,3.31,3.31,0,0,0,2.64,1.24,3.23,3.23,0,0,0,1.41-.31,3.26,3.26,0,0,0,1.17-.93,4.55,4.55,0,0,0,.8-1.46A6,6,0,0,0,381.58,262.86Z"/><circle class="cls-1" cx="317.9" cy="523.5" r="93.5"/><path class="cls-2" d="M259.22,531.37V514.73l-4.67,16.64h-4.78l-4.64-16.64v16.64H241V510h6.44l4.68,16.89L256.83,510h6.44v21.4Z"/><path class="cls-2" d="M282,523.66a9.45,9.45,0,0,1-.56,3.33,7.25,7.25,0,0,1-1.58,2.53,6.94,6.94,0,0,1-2.38,1.6,8.13,8.13,0,0,1-5.93,0,6.9,6.9,0,0,1-2.37-1.6,7.25,7.25,0,0,1-1.58-2.53,10.18,10.18,0,0,1,0-6.66,7.35,7.35,0,0,1,1.58-2.51,6.9,6.9,0,0,1,2.37-1.6,8.13,8.13,0,0,1,5.93,0,6.94,6.94,0,0,1,2.38,1.6,7.35,7.35,0,0,1,1.58,2.51A9.41,9.41,0,0,1,282,523.66Zm-3.9,0a5.65,5.65,0,0,0-1-3.6,3.15,3.15,0,0,0-2.57-1.26,3.18,3.18,0,0,0-2.56,1.26,6.88,6.88,0,0,0,0,7.21,3.22,3.22,0,0,0,5.12,0A5.64,5.64,0,0,0,278.08,523.66Z"/><path class="cls-2" d="M295.9,531.37v-9.1a3.71,3.71,0,0,0-.8-2.61,2.85,2.85,0,0,0-2.2-.86,3.33,3.33,0,0,0-2.6,1.17,5.42,5.42,0,0,0-1,3.69v7.71H285.5V516h3.64v2.37a4.16,4.16,0,0,1,1.77-2,5.94,5.94,0,0,1,3.07-.73,6.19,6.19,0,0,1,2.3.42,4.73,4.73,0,0,1,1.79,1.21,5.61,5.61,0,0,1,1.16,1.92,7.24,7.24,0,0,1,.42,2.54v9.62Z"/><path class="cls-2" d="M304.3,513.61V510h3.84v3.64Zm0,17.76V516h3.76v15.4Z"/><path class="cls-2" d="M318.68,531.57a5.41,5.41,0,0,1-2-.35,4.85,4.85,0,0,1-1.51-.92,3.84,3.84,0,0,1-.93-1.36,4.18,4.18,0,0,1-.32-1.65V519H311v-3h2.92v-4.39h3.75V516h3.58v3h-3.58v7.82a1.83,1.83,0,0,0,.48,1.35,2.15,2.15,0,0,0,1.57.47,4.37,4.37,0,0,0,.86-.08,7.57,7.57,0,0,0,.85-.23v3A10.33,10.33,0,0,1,318.68,531.57Z"/><path class="cls-2" d="M338.35,523.66a9.45,9.45,0,0,1-.56,3.33,7.25,7.25,0,0,1-1.58,2.53,6.84,6.84,0,0,1-2.38,1.6,8.13,8.13,0,0,1-5.93,0,6.9,6.9,0,0,1-2.37-1.6A7.25,7.25,0,0,1,324,527a10.18,10.18,0,0,1,0-6.66,7.35,7.35,0,0,1,1.58-2.51,6.9,6.9,0,0,1,2.37-1.6,8.13,8.13,0,0,1,5.93,0,6.84,6.84,0,0,1,2.38,1.6,7.35,7.35,0,0,1,1.58,2.51A9.41,9.41,0,0,1,338.35,523.66Zm-3.9,0a5.65,5.65,0,0,0-1-3.6,3.15,3.15,0,0,0-2.57-1.26,3.18,3.18,0,0,0-2.56,1.26,6.88,6.88,0,0,0,0,7.21,3.22,3.22,0,0,0,5.12,0A5.64,5.64,0,0,0,334.45,523.66Z"/><path class="cls-2" d="M349.6,519a4.27,4.27,0,0,0-1.17.14,3.12,3.12,0,0,0-2.08,1.44,5.88,5.88,0,0,0-.72,3.12v7.66h-3.76V516h3.64v2.34a4.38,4.38,0,0,1,1.85-2,7.21,7.21,0,0,1,3.47-.69v3.4C350.44,519,350,519,349.6,519Z"/><path class="cls-2" d="M353.6,513.61V510h3.84v3.64Zm0,17.76V516h3.75v15.4Z"/><path class="cls-2" d="M372.48,531.37v-9.1a3.7,3.7,0,0,0-.79-2.61,2.88,2.88,0,0,0-2.21-.86,3.34,3.34,0,0,0-2.6,1.17,5.48,5.48,0,0,0-1,3.69v7.71h-3.75V516h3.64v2.37a4.08,4.08,0,0,1,1.76-2,6,6,0,0,1,3.07-.73,6.24,6.24,0,0,1,2.31.42,4.73,4.73,0,0,1,1.79,1.21,5.77,5.77,0,0,1,1.16,1.92,7.24,7.24,0,0,1,.42,2.54v9.62Z"/><path class="cls-2" d="M394.78,530a6.75,6.75,0,0,1-.57,2.76A6.57,6.57,0,0,1,392.6,535a8,8,0,0,1-2.56,1.5,9.85,9.85,0,0,1-3.35.55,9.06,9.06,0,0,1-3.72-.68,7.91,7.91,0,0,1-2.37-1.55l2.14-2.13a5.57,5.57,0,0,0,1.47,1,5.47,5.47,0,0,0,2.34.43,5.1,5.1,0,0,0,1.77-.29,4.14,4.14,0,0,0,1.43-.83,3.83,3.83,0,0,0,.94-1.29A4,4,0,0,0,391,530V528.8a4.36,4.36,0,0,1-1.77,1.74,5.24,5.24,0,0,1-2.7.71,6.22,6.22,0,0,1-2.59-.56,6.66,6.66,0,0,1-2.15-1.58,8,8,0,0,1-1.49-2.45,9.45,9.45,0,0,1,0-6.41,8.12,8.12,0,0,1,1.49-2.46,6.63,6.63,0,0,1,2.15-1.57,6.07,6.07,0,0,1,2.59-.56,5.33,5.33,0,0,1,1.5.21,6.92,6.92,0,0,1,1.33.57,4.82,4.82,0,0,1,1.07.82,3.52,3.52,0,0,1,.69,1V516h3.64ZM391,523.45a6.06,6.06,0,0,0-.28-1.92,4.61,4.61,0,0,0-.8-1.45,3.6,3.6,0,0,0-1.17-.94,3.12,3.12,0,0,0-1.41-.34,3.22,3.22,0,0,0-1.45.34,3.6,3.6,0,0,0-1.17.94,4.59,4.59,0,0,0-.79,1.45,6,6,0,0,0-.29,1.92,5.11,5.11,0,0,0,1,3.41,3.34,3.34,0,0,0,2.65,1.24,3.23,3.23,0,0,0,1.41-.31,3.57,3.57,0,0,0,1.17-.93,4.55,4.55,0,0,0,.8-1.46A6.12,6.12,0,0,0,391,523.45Z"/><circle class="cls-1" cx="874.11" cy="408.25" r="104"/><path class="cls-2" d="M803.85,400.29l-7.69-10.23v10.23h-4.1v-21.4h4.1v9.79l7.43-9.79h5.08l-8.46,10.48L809,400.29Z"/><path class="cls-2" d="M824.78,392.58a9.45,9.45,0,0,1-.56,3.33,7.38,7.38,0,0,1-1.57,2.53,7,7,0,0,1-2.39,1.6,8.13,8.13,0,0,1-5.93,0,6.9,6.9,0,0,1-2.37-1.6,7.23,7.23,0,0,1-1.57-2.53,10,10,0,0,1,0-6.66,7.33,7.33,0,0,1,1.57-2.51,7,7,0,0,1,2.37-1.6,8.13,8.13,0,0,1,5.93,0,7.12,7.12,0,0,1,2.39,1.6,7.48,7.48,0,0,1,1.57,2.51A9.41,9.41,0,0,1,824.78,392.58Zm-3.9,0a5.59,5.59,0,0,0-1-3.6,3.23,3.23,0,0,0-5.12,0,6.82,6.82,0,0,0,0,7.21,3.21,3.21,0,0,0,5.11,0A5.64,5.64,0,0,0,820.88,392.58Z"/><path class="cls-2" d="M847.05,400.29v-9.1c0-2.31-.86-3.47-2.56-3.47a2.31,2.31,0,0,0-1.12.31,3.14,3.14,0,0,0-1,.89,5.21,5.21,0,0,0-.69,1.48,7.25,7.25,0,0,0-.26,2v7.86h-3.75v-9.1q0-3.46-2.57-3.47A2.38,2.38,0,0,0,834,388a3.14,3.14,0,0,0-1,.89,4.72,4.72,0,0,0-.69,1.48,7.25,7.25,0,0,0-.26,2v7.86H828.3v-15.4h3.64v2.4a4.68,4.68,0,0,1,1.63-2,4.58,4.58,0,0,1,2.63-.7,5,5,0,0,1,3.07,1,4.29,4.29,0,0,1,1,1,6.45,6.45,0,0,1,.65,1.13,5.74,5.74,0,0,1,1.85-2.27,4.75,4.75,0,0,1,2.83-.82,5.16,5.16,0,0,1,2.15.43,4.65,4.65,0,0,1,1.65,1.21,5.77,5.77,0,0,1,1.06,1.89,7.86,7.86,0,0,1,.37,2.5v9.68Z"/><path class="cls-2" d="M870.53,392.58a9.23,9.23,0,0,1-.57,3.33,8,8,0,0,1-1.48,2.53,6.41,6.41,0,0,1-2.17,1.6,6.11,6.11,0,0,1-2.57.56,5.18,5.18,0,0,1-1.34-.17,6.2,6.2,0,0,1-1.29-.47,5.58,5.58,0,0,1-1.1-.74,4.07,4.07,0,0,1-.78-1v7.36h-3.75V384.89h3.64v2.29a3.74,3.74,0,0,1,.73-1,4.69,4.69,0,0,1,1.12-.82,6.17,6.17,0,0,1,1.35-.55,5.07,5.07,0,0,1,1.42-.2,6.11,6.11,0,0,1,2.57.56,6.55,6.55,0,0,1,2.17,1.6,8.17,8.17,0,0,1,1.48,2.51A9.19,9.19,0,0,1,870.53,392.58Zm-3.9,0a5.43,5.43,0,0,0-1.07-3.6,3.32,3.32,0,0,0-2.63-1.26,3.31,3.31,0,0,0-2.61,1.26,4.53,4.53,0,0,0-.8,1.53,7,7,0,0,0-.29,2.07,6.87,6.87,0,0,0,.29,2.08,4.83,4.83,0,0,0,.8,1.53,3.25,3.25,0,0,0,1.18.95,3.36,3.36,0,0,0,2.86,0,3.25,3.25,0,0,0,1.18-.95,4.83,4.83,0,0,0,.8-1.53A6.87,6.87,0,0,0,866.63,392.58Z"/><path class="cls-2" d="M876.88,393.62a4.82,4.82,0,0,0,1.36,2.86,3.82,3.82,0,0,0,2.83,1.09,4.08,4.08,0,0,0,3.09-1.18l2.19,2.17a8.56,8.56,0,0,1-2.51,1.55,8.35,8.35,0,0,1-3,.49,8.61,8.61,0,0,1-3.16-.57,7.7,7.7,0,0,1-2.53-1.63,7.59,7.59,0,0,1-1.67-2.53,8.46,8.46,0,0,1-.61-3.29,9.43,9.43,0,0,1,.54-3.27,7.22,7.22,0,0,1,1.5-2.52,6.58,6.58,0,0,1,2.31-1.64,7.81,7.81,0,0,1,5.73,0,5.86,5.86,0,0,1,2.25,1.56,7.47,7.47,0,0,1,1.51,2.59,11.05,11.05,0,0,1,.54,3.61v.76Zm6.5-2.69a5,5,0,0,0-1-2.51,2.67,2.67,0,0,0-2.14-1,2.84,2.84,0,0,0-2.15.94,4.51,4.51,0,0,0-1.11,2.53Z"/><path class="cls-2" d="M896.4,400.49a5.5,5.5,0,0,1-2-.35,4.92,4.92,0,0,1-1.5-.92,4,4,0,0,1-.94-1.36,4.36,4.36,0,0,1-.31-1.65v-8.34h-2.92v-3h2.92V380.5h3.75v4.39H899v3h-3.58v7.83a1.82,1.82,0,0,0,.48,1.34,2.14,2.14,0,0,0,1.57.47,4.27,4.27,0,0,0,.85-.08,7,7,0,0,0,.85-.23v3A10.25,10.25,0,0,1,896.4,400.49Z"/><path class="cls-2" d="M905.09,393.62a4.94,4.94,0,0,0,1.36,2.86,3.82,3.82,0,0,0,2.83,1.09,4.05,4.05,0,0,0,3.09-1.18l2.2,2.17a8.47,8.47,0,0,1-2.52,1.55,8.3,8.3,0,0,1-3,.49,8.58,8.58,0,0,1-3.16-.57,7.5,7.5,0,0,1-2.53-1.63,7.77,7.77,0,0,1-1.68-2.53,8.65,8.65,0,0,1-.6-3.29,9.67,9.67,0,0,1,.53-3.27,7.54,7.54,0,0,1,1.5-2.52,6.77,6.77,0,0,1,2.31-1.64,7.83,7.83,0,0,1,5.74,0,6,6,0,0,1,2.25,1.56,7.61,7.61,0,0,1,1.5,2.59,10.78,10.78,0,0,1,.55,3.61v.76Zm6.5-2.69a4.84,4.84,0,0,0-1-2.51,2.66,2.66,0,0,0-2.14-1,2.87,2.87,0,0,0-2.15.94,4.51,4.51,0,0,0-1.11,2.53Z"/><path class="cls-2" d="M929.12,400.29v-9.1a3.75,3.75,0,0,0-.79-2.61,2.89,2.89,0,0,0-2.21-.86,3.33,3.33,0,0,0-2.6,1.17,5.42,5.42,0,0,0-1,3.69v7.71h-3.76v-15.4h3.64v2.37a4.16,4.16,0,0,1,1.77-1.95,5.94,5.94,0,0,1,3.07-.73,6.19,6.19,0,0,1,2.3.42,4.73,4.73,0,0,1,1.79,1.21,5.61,5.61,0,0,1,1.16,1.92,7.24,7.24,0,0,1,.42,2.54v9.62Z"/><path class="cls-2" d="M936.28,400.29v-2.75l6.73-9.67h-6.53v-3h11v2.78l-6.72,9.58h6.93v3Z"/><path class="cls-2" d="M950.06,393.62v-2.69h7.39v2.69Z"/><path class="cls-2" d="M792.87,428.27a5,5,0,0,0,1.36,2.87,3.86,3.86,0,0,0,2.83,1.09,4.06,4.06,0,0,0,3.09-1.19l2.19,2.18a7.81,7.81,0,0,1-5.48,2,8.38,8.38,0,0,1-3.16-.58,7.35,7.35,0,0,1-2.53-1.63,7.67,7.67,0,0,1-1.68-2.53,8.65,8.65,0,0,1-.6-3.29,9.41,9.41,0,0,1,.53-3.26,7.58,7.58,0,0,1,1.5-2.53,6.74,6.74,0,0,1,2.31-1.63,7.3,7.3,0,0,1,2.93-.58,7.43,7.43,0,0,1,2.81.52,6.25,6.25,0,0,1,2.25,1.56,7.57,7.57,0,0,1,1.5,2.6,11,11,0,0,1,.55,3.61v.75Zm6.5-2.69a4.87,4.87,0,0,0-1-2.51,2.68,2.68,0,0,0-2.14-.95,2.84,2.84,0,0,0-2.15.94,4.48,4.48,0,0,0-1.11,2.52Z"/><path class="cls-2" d="M814.23,422.58a4.2,4.2,0,0,0-1.17.15,3.09,3.09,0,0,0-2.08,1.44,5.86,5.86,0,0,0-.72,3.12v7.65H806.5V419.55h3.64v2.34a4.41,4.41,0,0,1,1.85-2,7.21,7.21,0,0,1,3.47-.69v3.41A12.07,12.07,0,0,0,814.23,422.58Z"/><path class="cls-2" d="M834.8,434.94h-4.53l-2.63-9.7-2.6,9.7h-4.53l-4.39-15.39h4.16l2.65,11.29L826,419.55h3.37l3,11.29L835,419.55h4.18Z"/><path class="cls-2" d="M844.56,428.27a5,5,0,0,0,1.36,2.87,3.88,3.88,0,0,0,2.83,1.09,4.06,4.06,0,0,0,3.09-1.19l2.2,2.18a8.43,8.43,0,0,1-2.52,1.54,8.25,8.25,0,0,1-3,.5,8.38,8.38,0,0,1-3.16-.58,7.35,7.35,0,0,1-2.53-1.63,7.67,7.67,0,0,1-1.68-2.53,8.65,8.65,0,0,1-.6-3.29,9.65,9.65,0,0,1,.53-3.26,7.58,7.58,0,0,1,1.5-2.53,6.74,6.74,0,0,1,2.31-1.63,7.31,7.31,0,0,1,2.94-.58,7.42,7.42,0,0,1,2.8.52,6.25,6.25,0,0,1,2.25,1.56,7.57,7.57,0,0,1,1.5,2.6,10.74,10.74,0,0,1,.55,3.61v.75Zm6.5-2.69a4.87,4.87,0,0,0-1-2.51,2.68,2.68,0,0,0-2.14-.95,2.84,2.84,0,0,0-2.15.94,4.62,4.62,0,0,0-1.11,2.52Z"/><path class="cls-2" d="M858.17,417.18v-3.64H862v3.64Zm0,17.76V419.55H862v15.39Z"/><path class="cls-2" d="M872.55,435.14a5.5,5.5,0,0,1-2-.34,4.54,4.54,0,0,1-1.5-.93,3.62,3.62,0,0,1-.94-1.35,4.37,4.37,0,0,1-.32-1.65v-8.35h-2.91v-3h2.91v-4.39h3.76v4.39h3.58v3h-3.58v7.83a1.82,1.82,0,0,0,.47,1.34,2.18,2.18,0,0,0,1.58.48,4.32,4.32,0,0,0,.85-.09,5.57,5.57,0,0,0,.85-.23v3A10.29,10.29,0,0,1,872.55,435.14Z"/><path class="cls-2" d="M881.24,428.27a4.91,4.91,0,0,0,1.36,2.87,3.86,3.86,0,0,0,2.83,1.09,4.06,4.06,0,0,0,3.09-1.19l2.19,2.18a8.57,8.57,0,0,1-8.65,1.46,7.41,7.41,0,0,1-4.2-4.16,8.65,8.65,0,0,1-.61-3.29,9.41,9.41,0,0,1,.54-3.26,7.27,7.27,0,0,1,1.5-2.53,6.74,6.74,0,0,1,2.31-1.63,7.26,7.26,0,0,1,2.93-.58,7.38,7.38,0,0,1,2.8.52,6.2,6.2,0,0,1,2.26,1.56,7.57,7.57,0,0,1,1.5,2.6,11,11,0,0,1,.55,3.61v.75Zm6.5-2.69a5,5,0,0,0-1-2.51,2.68,2.68,0,0,0-2.14-.95,2.82,2.82,0,0,0-2.15.94,4.48,4.48,0,0,0-1.11,2.52Z"/><path class="cls-2" d="M902.6,422.58a4.15,4.15,0,0,0-1.17.15,3.09,3.09,0,0,0-2.08,1.44,5.85,5.85,0,0,0-.73,3.12v7.65h-3.75V419.55h3.64v2.34a4.35,4.35,0,0,1,1.85-2,7.16,7.16,0,0,1,3.46-.69v3.41A11.73,11.73,0,0,0,902.6,422.58Z"/><path class="cls-2" d="M917.11,434.94v-2.37a4.07,4.07,0,0,1-1.75,1.94,5.84,5.84,0,0,1-3.05.75,6.17,6.17,0,0,1-2.31-.42,5,5,0,0,1-1.79-1.21,5.63,5.63,0,0,1-1.17-1.92,7.24,7.24,0,0,1-.42-2.54v-9.62h3.76v9.07a3.77,3.77,0,0,0,.79,2.64,2.87,2.87,0,0,0,2.21.85,3.31,3.31,0,0,0,2.6-1.18,5.52,5.52,0,0,0,1-3.7v-7.68h3.75v15.39Z"/><path class="cls-2" d="M935.85,434.94v-9.1a3.72,3.72,0,0,0-.8-2.61,2.85,2.85,0,0,0-2.2-.85,3.33,3.33,0,0,0-2.6,1.17,5.41,5.41,0,0,0-1,3.68v7.71h-3.76V419.55h3.64v2.37a4.16,4.16,0,0,1,1.77-1.95,5.94,5.94,0,0,1,3.07-.74,6.19,6.19,0,0,1,2.3.42,4.85,4.85,0,0,1,1.79,1.21,5.61,5.61,0,0,1,1.16,1.92,7.25,7.25,0,0,1,.42,2.55v9.61Z"/><path class="cls-2" d="M958.14,433.56a6.83,6.83,0,0,1-.56,2.75,6.54,6.54,0,0,1-1.62,2.24,7.48,7.48,0,0,1-2.55,1.5,9.61,9.61,0,0,1-3.35.55,8.91,8.91,0,0,1-3.73-.68,7.9,7.9,0,0,1-2.37-1.54l2.14-2.14a5.41,5.41,0,0,0,1.47.95,5.52,5.52,0,0,0,2.34.44,5.4,5.4,0,0,0,1.78-.29,3.86,3.86,0,0,0,2.7-3.78v-1.19a4.47,4.47,0,0,1-1.78,1.75,5.34,5.34,0,0,1-2.7.71,6.07,6.07,0,0,1-2.58-.57,6.52,6.52,0,0,1-2.15-1.57,7.53,7.53,0,0,1-1.49-2.46,9.3,9.3,0,0,1,0-6.41,7.59,7.59,0,0,1,1.49-2.45,6.69,6.69,0,0,1,2.15-1.58,6.21,6.21,0,0,1,2.58-.56,5,5,0,0,1,1.5.22,6.11,6.11,0,0,1,1.33.56,4.89,4.89,0,0,1,1.07.82,3.33,3.33,0,0,1,.69,1v-2.28h3.64ZM954.39,427a6,6,0,0,0-.29-1.92,4.37,4.37,0,0,0-.8-1.46,3.59,3.59,0,0,0-1.16-.94,3.26,3.26,0,0,0-2.86,0,3.52,3.52,0,0,0-1.17.94,4.37,4.37,0,0,0-.8,1.46A6,6,0,0,0,947,427a5.08,5.08,0,0,0,1.06,3.41,3.39,3.39,0,0,0,4.06.92,3.4,3.4,0,0,0,1.16-.92,4.47,4.47,0,0,0,.8-1.46A6.15,6.15,0,0,0,954.39,427Z"/><circle class="cls-1" cx="715.85" cy="633.75" r="92.5"/><path class="cls-2" d="M675.89,625.79v-21.4h3.75v21.4Z"/><path class="cls-2" d="M698.15,618.08a9.45,9.45,0,0,1-.56,3.33,7.25,7.25,0,0,1-1.58,2.53,6.84,6.84,0,0,1-2.38,1.6,8.13,8.13,0,0,1-5.93,0,6.9,6.9,0,0,1-2.37-1.6,7.09,7.09,0,0,1-1.57-2.53,10,10,0,0,1,0-6.66,7.18,7.18,0,0,1,1.57-2.51,6.9,6.9,0,0,1,2.37-1.6,8.13,8.13,0,0,1,5.93,0,6.84,6.84,0,0,1,2.38,1.6,7.35,7.35,0,0,1,1.58,2.51A9.41,9.41,0,0,1,698.15,618.08Zm-3.9,0a5.59,5.59,0,0,0-1-3.6,3.23,3.23,0,0,0-5.12,0,5.54,5.54,0,0,0-1,3.6,5.6,5.6,0,0,0,1,3.61,3.16,3.16,0,0,0,2.55,1.27,3.19,3.19,0,0,0,2.56-1.27A5.66,5.66,0,0,0,694.25,618.08Z"/><path class="cls-2" d="M711.84,625.79l-6.41-7.17v7.17h-3.76v-21.4h3.76v12.79l6.09-6.79h4.59l-6.93,7.48,7.4,7.92Z"/><path class="cls-2" d="M727.23,625.79v-2.34a4.41,4.41,0,0,1-1.75,1.95,6.14,6.14,0,0,1-4.92.34,5.18,5.18,0,0,1-1.6-1,4.59,4.59,0,0,1-1.07-1.44,4,4,0,0,1-.39-1.75,4.48,4.48,0,0,1,.42-1.89,4.29,4.29,0,0,1,1.3-1.6,6.48,6.48,0,0,1,2.25-1.1,11.53,11.53,0,0,1,3.25-.41h2.4v-.67c0-.14,0-.28,0-.4s0-.2-.07-.21a2.27,2.27,0,0,0-1-1.62,3.48,3.48,0,0,0-2.18-.68,5,5,0,0,0-1.9.35,5.66,5.66,0,0,0-1.51.92l-2.16-2.17a9.31,9.31,0,0,1,2.56-1.55,9,9,0,0,1,3.36-.58,8.6,8.6,0,0,1,2.81.43,6,6,0,0,1,2.08,1.22,5.2,5.2,0,0,1,1.3,1.82,5.58,5.58,0,0,1,.45,2.25v10.11Zm-.11-6.79h-2.55a4.88,4.88,0,0,0-1.47.2,3.13,3.13,0,0,0-1,.54,2,2,0,0,0-.59.73,1.85,1.85,0,0,0-.19.81,2,2,0,0,0,.56,1.4,2.35,2.35,0,0,0,1.78.59,3.3,3.3,0,0,0,2.5-1,3.91,3.91,0,0,0,1-2.79Z"/><path class="cls-2" d="M735.58,625.79v-21.4h3.75v21.4Z"/><path class="cls-2" d="M746.87,619.12a4.82,4.82,0,0,0,1.36,2.86,3.82,3.82,0,0,0,2.83,1.09,4.07,4.07,0,0,0,3.09-1.18l2.19,2.17a7.7,7.7,0,0,1-5.49,2,8.61,8.61,0,0,1-3.16-.57,7.43,7.43,0,0,1-2.52-1.64,7.33,7.33,0,0,1-1.68-2.52,8.65,8.65,0,0,1-.61-3.29,9.43,9.43,0,0,1,.54-3.27,7.22,7.22,0,0,1,1.5-2.52,6.58,6.58,0,0,1,2.31-1.64,7.81,7.81,0,0,1,5.73,0,5.86,5.86,0,0,1,2.25,1.56,7.38,7.38,0,0,1,1.51,2.59,11,11,0,0,1,.55,3.61v.76Zm6.5-2.69a4.92,4.92,0,0,0-1-2.51,2.66,2.66,0,0,0-2.14-1,2.84,2.84,0,0,0-2.15.94,4.51,4.51,0,0,0-1.11,2.53Z"/><path class="cls-2" d="M655.41,660.44l-7.1-15.56v15.56h-4.1V639h5.4l7.1,15.57V639.07h4.1v21.37Z"/><path class="cls-2" d="M668.52,653.77a5,5,0,0,0,1.36,2.87,3.86,3.86,0,0,0,2.83,1.09,4.06,4.06,0,0,0,3.09-1.19l2.2,2.18a8.43,8.43,0,0,1-2.52,1.54,8.29,8.29,0,0,1-3,.5,8.38,8.38,0,0,1-3.16-.58,7.35,7.35,0,0,1-2.53-1.63,7.67,7.67,0,0,1-1.68-2.53,8.65,8.65,0,0,1-.6-3.29,9.41,9.41,0,0,1,.53-3.26,7.49,7.49,0,0,1,1.5-2.53,6.74,6.74,0,0,1,2.31-1.63,7.3,7.3,0,0,1,2.93-.58,7.43,7.43,0,0,1,2.81.52,6.25,6.25,0,0,1,2.25,1.56,7.57,7.57,0,0,1,1.5,2.6,10.74,10.74,0,0,1,.55,3.61v.75Zm6.5-2.69a4.87,4.87,0,0,0-1-2.51,2.68,2.68,0,0,0-2.14-1,2.84,2.84,0,0,0-2.15.94,4.55,4.55,0,0,0-1.11,2.52Z"/><path class="cls-2" d="M688,660.64a5.41,5.41,0,0,1-2-.34,4.54,4.54,0,0,1-1.5-.93,3.66,3.66,0,0,1-.94-1.36,4.1,4.1,0,0,1-.32-1.64V648h-2.92v-3h2.92v-4.39H687v4.39h3.59v3H687v7.83a1.8,1.8,0,0,0,.48,1.34,2.15,2.15,0,0,0,1.57.48,4.41,4.41,0,0,0,.86-.09,5.9,5.9,0,0,0,.85-.23v3A10.37,10.37,0,0,1,688,660.64Z"/><path class="cls-2" d="M692.64,660.44V657.7l6.73-9.68h-6.53v-3h11v2.78l-6.73,9.58h6.93v3Z"/><path class="cls-2" d="M724,660.44h-4.54l-2.62-9.7-2.6,9.7h-4.54l-4.39-15.39h4.16l2.66,11.29,3.06-11.29h3.38l3,11.29,2.63-11.29h4.19Z"/><path class="cls-2" d="M733.79,653.77a4.93,4.93,0,0,0,1.35,2.87,3.89,3.89,0,0,0,2.83,1.09,4,4,0,0,0,3.09-1.19l2.2,2.18a8.52,8.52,0,0,1-2.51,1.54,9,9,0,0,1-6.14-.08,7.33,7.33,0,0,1-4.2-4.16,8.46,8.46,0,0,1-.61-3.29,9.41,9.41,0,0,1,.54-3.26,7.18,7.18,0,0,1,1.5-2.53,6.55,6.55,0,0,1,2.31-1.63,7.23,7.23,0,0,1,2.93-.58,7.38,7.38,0,0,1,2.8.52,6.08,6.08,0,0,1,2.25,1.56,7.26,7.26,0,0,1,1.5,2.6,10.74,10.74,0,0,1,.55,3.61v.75Zm6.5-2.69a5,5,0,0,0-1-2.51,2.69,2.69,0,0,0-2.14-1,2.81,2.81,0,0,0-2.15.94,4.48,4.48,0,0,0-1.11,2.52Z"/><path class="cls-2" d="M755.14,648.08a4.69,4.69,0,0,0-1.17.14,3.16,3.16,0,0,0-2.08,1.45,5.86,5.86,0,0,0-.72,3.12v7.65h-3.75V645.05h3.64v2.34a4.38,4.38,0,0,1,1.84-2,7.23,7.23,0,0,1,3.47-.69v3.41A11.92,11.92,0,0,0,755.14,648.08Z"/><path class="cls-2" d="M769.34,660.44l-6.41-7.16v7.16h-3.76V639h3.76v12.79l6.09-6.78h4.59l-6.93,7.48,7.39,7.91Z"/><path class="cls-2" d="M778.78,653.77a4.94,4.94,0,0,0,1.36,2.87,3.86,3.86,0,0,0,2.83,1.09,4.06,4.06,0,0,0,3.09-1.19l2.19,2.18a8.57,8.57,0,0,1-8.65,1.46,7.41,7.41,0,0,1-4.2-4.16,8.65,8.65,0,0,1-.61-3.29,9.41,9.41,0,0,1,.54-3.26,7.49,7.49,0,0,1,1.5-2.53,6.74,6.74,0,0,1,2.31-1.63,7.26,7.26,0,0,1,2.93-.58,7.38,7.38,0,0,1,2.8.52,6.2,6.2,0,0,1,2.26,1.56,7.57,7.57,0,0,1,1.5,2.6,11,11,0,0,1,.55,3.61v.75Zm6.5-2.69a5,5,0,0,0-1-2.51,2.68,2.68,0,0,0-2.14-1,2.82,2.82,0,0,0-2.15.94,4.48,4.48,0,0,0-1.11,2.52Z"/><circle class="cls-1" cx="679.85" cy="156.75" r="106.5"/><path class="cls-2" d="M601.75,166.11l-7.68-10.22v10.22H590v-21.4h4.1v9.79l7.42-9.79h5.09l-8.47,10.49,8.78,10.91Z"/><path class="cls-2" d="M622.69,158.4a9.47,9.47,0,0,1-.56,3.34,7.34,7.34,0,0,1-1.58,2.53,7.08,7.08,0,0,1-2.38,1.6,8.13,8.13,0,0,1-5.93,0,7,7,0,0,1-2.37-1.6,7.34,7.34,0,0,1-1.58-2.53,9.47,9.47,0,0,1-.56-3.34,9.36,9.36,0,0,1,.56-3.32,7.25,7.25,0,0,1,1.58-2.51,6.9,6.9,0,0,1,2.37-1.6,8,8,0,0,1,5.93,0,6.94,6.94,0,0,1,2.38,1.6,7.25,7.25,0,0,1,1.58,2.51A9.36,9.36,0,0,1,622.69,158.4Zm-3.9,0a5.62,5.62,0,0,0-1-3.59,3.15,3.15,0,0,0-2.57-1.26,3.18,3.18,0,0,0-2.56,1.26,5.56,5.56,0,0,0-1,3.59,5.62,5.62,0,0,0,1,3.61,3.22,3.22,0,0,0,5.12,0A5.62,5.62,0,0,0,618.79,158.4Z"/><path class="cls-2" d="M640,158.4a9.25,9.25,0,0,1-.57,3.34,7.32,7.32,0,0,1-1.57,2.53,7.08,7.08,0,0,1-2.38,1.6,8.16,8.16,0,0,1-5.94,0,7.24,7.24,0,0,1-2.37-1.6,7.47,7.47,0,0,1-1.57-2.53,9.25,9.25,0,0,1-.56-3.34,9.14,9.14,0,0,1,.56-3.32,7.38,7.38,0,0,1,1.57-2.51,7.09,7.09,0,0,1,2.37-1.6,8,8,0,0,1,5.94,0,6.94,6.94,0,0,1,2.38,1.6,7.23,7.23,0,0,1,1.57,2.51A9.14,9.14,0,0,1,640,158.4Zm-3.9,0a5.62,5.62,0,0,0-1-3.59,3.24,3.24,0,0,0-5.13,0,5.56,5.56,0,0,0-1,3.59,5.62,5.62,0,0,0,1,3.61,3.21,3.21,0,0,0,5.11,0A5.57,5.57,0,0,0,636.12,158.4Z"/><path class="cls-2" d="M651.26,153.75a4.25,4.25,0,0,0-1.17.15,3.09,3.09,0,0,0-2.07,1.44,5.76,5.76,0,0,0-.73,3.12v7.65h-3.75V150.72h3.64v2.34a4.28,4.28,0,0,1,1.85-2,7.15,7.15,0,0,1,3.46-.7v3.41A11.78,11.78,0,0,0,651.26,153.75Z"/><path class="cls-2" d="M665.52,166.11v-2.22a3,3,0,0,1-.73,1,5.18,5.18,0,0,1-1.12.81,5.83,5.83,0,0,1-1.35.53,5.19,5.19,0,0,1-1.4.19,6.21,6.21,0,0,1-2.58-.56,6.47,6.47,0,0,1-2.15-1.6,8.18,8.18,0,0,1-1.49-2.53,9.47,9.47,0,0,1-.56-3.34,9.36,9.36,0,0,1,.56-3.32,8.07,8.07,0,0,1,1.49-2.51,6.34,6.34,0,0,1,2.15-1.6,6.07,6.07,0,0,1,2.58-.57,5.11,5.11,0,0,1,1.32.18,5.65,5.65,0,0,1,1.28.49,5.41,5.41,0,0,1,1.11.75,3,3,0,0,1,.77,1v-8.09h3.75v21.4Zm-.12-7.71a6.83,6.83,0,0,0-.29-2.06,4.6,4.6,0,0,0-.79-1.53,3.36,3.36,0,0,0-1.17-.94,3.37,3.37,0,0,0-4.06.94A5.45,5.45,0,0,0,658,158.4a6.84,6.84,0,0,0,.28,2.08,4.82,4.82,0,0,0,.8,1.53,3.42,3.42,0,0,0,1.17,1,3.45,3.45,0,0,0,2.86,0,3.42,3.42,0,0,0,1.17-1,4.81,4.81,0,0,0,.79-1.53A6.83,6.83,0,0,0,665.4,158.4Z"/><path class="cls-2" d="M673.83,148.35v-3.64h3.84v3.64Zm0,17.76V150.72h3.76v15.39Z"/><path class="cls-2" d="M692.72,166.11V157a3.73,3.73,0,0,0-.8-2.62,2.89,2.89,0,0,0-2.21-.85,3.32,3.32,0,0,0-2.59,1.17,5.41,5.41,0,0,0-1,3.68v7.71h-3.76V150.72H686v2.37a4.16,4.16,0,0,1,1.77-2,5.94,5.94,0,0,1,3.07-.74,6.19,6.19,0,0,1,2.3.42,4.88,4.88,0,0,1,1.79,1.22,5.51,5.51,0,0,1,1.16,1.92,7.2,7.2,0,0,1,.42,2.54v9.61Z"/><path class="cls-2" d="M709.93,166.11v-2.34a4.41,4.41,0,0,1-1.75,1.95,5.42,5.42,0,0,1-2.9.71,5.5,5.5,0,0,1-2-.36,5.06,5.06,0,0,1-1.6-1,4.55,4.55,0,0,1-1.07-1.44,4.07,4.07,0,0,1-.39-1.75,4.39,4.39,0,0,1,1.72-3.5,6.56,6.56,0,0,1,2.25-1.09,11.53,11.53,0,0,1,3.25-.41h2.39v-.67c0-.14,0-.28,0-.4s0-.2-.07-.22a2.27,2.27,0,0,0-1-1.62,3.54,3.54,0,0,0-2.18-.67,5,5,0,0,0-1.91.35,5.76,5.76,0,0,0-1.5.92L701,152.42a9.41,9.41,0,0,1,2.55-1.55,8.91,8.91,0,0,1,3.37-.58,8.38,8.38,0,0,1,2.81.43,6,6,0,0,1,2.08,1.21,5.29,5.29,0,0,1,1.3,1.82,5.66,5.66,0,0,1,.45,2.26v10.1Zm-.12-6.78h-2.54a4.88,4.88,0,0,0-1.47.2,3.11,3.11,0,0,0-1,.53,2.12,2.12,0,0,0-.59.74,1.85,1.85,0,0,0-.19.81,2,2,0,0,0,.56,1.4,2.39,2.39,0,0,0,1.78.59,3.3,3.3,0,0,0,2.5-1,3.94,3.94,0,0,0,1-2.79Z"/><path class="cls-2" d="M724.17,166.32a5.5,5.5,0,0,1-2-.35,4.69,4.69,0,0,1-1.5-.92,3.74,3.74,0,0,1-.94-1.36,4.37,4.37,0,0,1-.32-1.65V153.7h-2.92v-3h2.92v-4.39h3.76v4.39h3.58v3h-3.58v7.82a1.78,1.78,0,0,0,.47,1.34,2.16,2.16,0,0,0,1.58.48,4.39,4.39,0,0,0,.85-.09,4.62,4.62,0,0,0,.85-.23v3A10.31,10.31,0,0,1,724.17,166.32Z"/><path class="cls-2" d="M730,148.35v-3.64h3.84v3.64Zm0,17.76V150.72h3.75v15.39Z"/><path class="cls-2" d="M752.29,158.4a9.25,9.25,0,0,1-.56,3.34,7.32,7.32,0,0,1-1.57,2.53,7.18,7.18,0,0,1-2.38,1.6,7.89,7.89,0,0,1-3,.56,7.78,7.78,0,0,1-3-.56,7.24,7.24,0,0,1-2.37-1.6,7.32,7.32,0,0,1-1.57-2.53,9.25,9.25,0,0,1-.57-3.34,9.14,9.14,0,0,1,.57-3.32,7.23,7.23,0,0,1,1.57-2.51,7.09,7.09,0,0,1,2.37-1.6,7.59,7.59,0,0,1,3-.57,7.7,7.7,0,0,1,3,.57,7,7,0,0,1,2.38,1.6,7.23,7.23,0,0,1,1.57,2.51A9.14,9.14,0,0,1,752.29,158.4Zm-3.9,0a5.56,5.56,0,0,0-1-3.59,3.23,3.23,0,0,0-5.12,0,5.51,5.51,0,0,0-1,3.59,5.57,5.57,0,0,0,1,3.61,3.21,3.21,0,0,0,5.11,0A5.62,5.62,0,0,0,748.39,158.4Z"/><path class="cls-2" d="M766.21,166.11V157a3.73,3.73,0,0,0-.79-2.62,2.91,2.91,0,0,0-2.21-.85,3.33,3.33,0,0,0-2.6,1.17,5.46,5.46,0,0,0-1,3.68v7.71h-3.75V150.72h3.64v2.37a4.08,4.08,0,0,1,1.76-2,5.94,5.94,0,0,1,3.07-.74,6.15,6.15,0,0,1,2.3.42,4.83,4.83,0,0,1,1.8,1.22,5.67,5.67,0,0,1,1.16,1.92,7.2,7.2,0,0,1,.42,2.54v9.61Z"/><line class="cls-9" x1="886.35" y1="199.25" x2="687.35" y2="329.25"/><line class="cls-9" x1="682.35" y1="460.25" x2="952.35" y2="634.25"/><line class="cls-9" x1="543.35" y1="507.25" x2="517.35" y2="587.25"/><line class="cls-9" x1="213.35" y1="401.25" x2="462.35" y2="398.25"/><line class="cls-9" x1="460.35" y1="96.25" x2="535.35" y2="282.25"/></svg>