<svg id="Layer_1" data-name="Layer 1" fill="currentColor" xmlns="http://www.w3.org/2000/svg" viewBox="0 0 546.32 552.97"><path d="M413.21,235.39a4.93,4.93,0,0,0,0-3.16,3.23,3.23,0,0,0-.7-1.15,3,3,0,0,0-1.08-.69,4,4,0,0,0-1.36-.23H409v7.29h1.08a3.77,3.77,0,0,0,1.36-.23,2.78,2.78,0,0,0,1.08-.69A3.18,3.18,0,0,0,413.21,235.39Z"/><path d="M170.14,339.89h-1.67v2.9H170a1.79,1.79,0,0,0,1.23-.41,1.38,1.38,0,0,0,.47-1.08,1.44,1.44,0,0,0-.37-1A1.49,1.49,0,0,0,170.14,339.89Z"/><path d="M230.81,438.12h-1.67V441h1.5a1.81,1.81,0,0,0,1.23-.41,1.35,1.35,0,0,0,.46-1.07,1.34,1.34,0,0,0-1.52-1.41Z"/><polygon points="218.87 460.15 221.82 460.15 220.34 455.93 218.87 460.15"/><path d="M331.68,247.34h-1.55v3h1.55a1.61,1.61,0,0,0,1.22-.43,1.49,1.49,0,0,0,.42-1.07,1.46,1.46,0,0,0-.42-1.06A1.58,1.58,0,0,0,331.68,247.34Z"/><polygon points="258.18 460.15 261.13 460.15 259.66 455.93 258.18 460.15"/><polygon points="338.06 235.02 336.59 230.79 335.11 235.02 338.06 235.02"/><polygon points="369.09 173.63 378.69 173.63 378.69 164.03 388.3 164.03 388.3 154.43 378.69 154.43 378.69 144.83 369.09 144.83 369.09 154.43 359.49 154.43 359.49 164.03 369.09 164.03 369.09 173.63"/><polygon points="254.64 438.75 253.16 442.97 256.11 442.97 254.64 438.75"/><path d="M221.82,438.12h-1.56v3h1.56a1.64,1.64,0,0,0,1.22-.43,1.56,1.56,0,0,0,0-2.13A1.6,1.6,0,0,0,221.82,438.12Z"/><path d="M160.08,322.71h-1.66v2.9h1.49a1.82,1.82,0,0,0,1.24-.41,1.42,1.42,0,0,0,.46-1.08,1.48,1.48,0,0,0-.36-1A1.51,1.51,0,0,0,160.08,322.71Z"/><path d="M221,203.65h-1.62v2.84H221a1.9,1.9,0,0,0,1.31-.4,1.35,1.35,0,0,0,.45-1.07,1.2,1.2,0,0,0-.46-1A1.94,1.94,0,0,0,221,203.65Z"/><polygon points="142.01 266.25 151.66 266.25 151.66 256.61 161.31 256.61 161.31 246.95 151.66 246.95 151.66 237.3 142.01 237.3 142.01 246.95 132.36 246.95 132.36 256.61 142.01 256.61 142.01 266.25"/><path d="M221,199.2h-1.66V202h1.47a1.86,1.86,0,0,0,1.24-.39,1.28,1.28,0,0,0,.47-1,1.39,1.39,0,0,0-.36-1A1.52,1.52,0,0,0,221,199.2Z"/><path d="M448.4,288.17a126.72,126.72,0,0,0-26.48-15.67,127.78,127.78,0,0,0,26-17.83c38.4-35.19,26.61-85.39,1.9-112.35-20.2-30.48-66.1-54.07-109.55-25.35a127.78,127.78,0,0,0-23.5,20.78,128.69,128.69,0,0,0-9.06-31c-21.6-47.39-73-51.69-106.26-36.53-35.23,9.8-71.85,46.16-58,96.36A128.11,128.11,0,0,0,156.37,196a128.48,128.48,0,0,0-32.25-1c-51.75,5.9-71.72,53.44-67.58,89.77-1.57,36.53,21.7,82.6,73.73,84.91a127.47,127.47,0,0,0,31.54-3.07,127.7,127.7,0,0,0-10.6,29.81c-10.39,51,28.66,84.72,64.49,92C250,501.23,301,493.34,319.24,444.56A127,127,0,0,0,326,414.15a127.23,127.23,0,0,0,24.71,19C396,458.75,440.14,432,458.15,400.2,480.89,371.57,489.14,320.62,448.4,288.17ZM186,109.9c.37,1.12.37,1.1,1.66,1.33a34.75,34.75,0,0,1,3.65-3.32c1.31-.52,2.93,0,4-.66,3-3.41.83-4.19,8-4-.18-1.2-.66-2-.33-2.65a7.46,7.46,0,0,1,.66-1.66,61.7,61.7,0,0,1,9,.66c1.44-.73,2.09-2.17,4-2.65,3.91-1,9.14,4.35,10-2a5.16,5.16,0,0,1,1.33-.67v.34c.44.57.57.53.33,1a13.85,13.85,0,0,1-1.66,2.66c-.73.55-1.79.19-2.65.66s-1,1.57-1.66,2l-2.66.66-.33,1c-.25.36-.2.31-.33,1-1.77.21-4.09,1.09-4.31,3a6.6,6.6,0,0,1,.66,1.33c1.79.84,1.8,2.36,4,2.65.83-1.43,1.27-2.31,3.65-2.32a3.57,3.57,0,0,0,1,1.66l-.34,1c-2.56-.09-3.65.55-4,2.65.27.34.12.09.33.66-1.74,0-2.79-.36-4,0a16.28,16.28,0,0,0,1.66,3,24.62,24.62,0,0,1,2.66-.66c0,1.74-.18,2,1.32,2.32,1-.93,1.29-.61,1.33-2.66-.25-.35-.2-.31-.33-1l3-1.66c.65-1,0-2,1-2.65,2.08-1.53,4.35.45,7,.66.74-1.16,1.66-1.38,2-3-2.38-2.73-4.35-4.67-6-8.29h3.65a4.78,4.78,0,0,1,3-1c.92,1.19,1.88,2.65,3.66,3a3.14,3.14,0,0,1,4.31-.67c.57.88.24,2.19.66,3.32.59,1.57,2.49,3.19,3,4.65v.33l.33,3.65a4.85,4.85,0,0,0-1,.66l.33,4a10.49,10.49,0,0,0-.67,3c1.66,1,5.14,2.86,5.31,5.31-.83,1-.85,2.57-1.66,3.65-1.16,1.57-2.94.3-3.31,3,.94,1.12.08,3.85,0,6.3a45.72,45.72,0,0,1,5,3.32c1.18,1,.74,2.2,2.66,2.66.83-.9,4.72-1.76,6.3-.67,1.69.6,2,1.92,4,2.33,2.68-2.62,5.54-.27,8.63,0a7.89,7.89,0,0,1,5.31-3c1.94,1.6,4,.52,4,4.31.52.77.38,2.69.34,4a5.55,5.55,0,0,1-1.66.33,2.85,2.85,0,0,0-1.66-.33,12.09,12.09,0,0,0,.33,3.65c-2.42,1.57-2.62,4.72-3.32,8-3.08,1.08-6.19,3.86-10.29,4-1.35,0-3.43-2.16-4.64-2.65a18.94,18.94,0,0,0-6.64-1c-.65.82-1.5,1-2,2-.4.7-.1,1.14,0,2.33-2.09.49-2.68,1.94-4.31,2.65l-4,.66c-2.65,1.5-4.59,4.62-8,5.31a9.06,9.06,0,0,0-5-2.32c-.66,1.15-1.43,2.66-3,3a4.4,4.4,0,0,0-2.33-.34,3.54,3.54,0,0,0-.66,2c1,.27.91.14,1.33,1h-.67c-2.35,2.17-4.79-.13-7.63-.33-1.51,1.48-4,3.42-6.64,3.65v-2.32l-3,.66c-.26,1.81-.24,2.82-2.33,3l-.33-.33c0-1.36.19-3.1-.33-4l-1-.33c-.4-.85.57-1.32.66-1.66l-.33-3.32c1.9-.77,1.8-1.92,1.66-4.64,1.6-1.2,1.46-3.8.66-5.64,1.49-.52,1-1.65,2-2.33,1.44-1,1.87.76,2.66-1,.57-1,.07-4.17.33-5.64h1.66a2.85,2.85,0,0,1,1.66-.33l.33-3.32-1-.33c-.35-.25-.31-.2-1-.34v-1.32l-.33-.34-2.33-.33c-.21-.58-.06-.32-.33-.66.54-1.68-.56-3.33-.33-4.65.3-1.73,1.86-2.7,2-5.31-.67-.46-.69-.44-1-1.32l.34-.34a8,8,0,0,0,2.32.67,9.49,9.49,0,0,0,.33-3c-.27-.34-.12-.09-.33-.66a18.85,18.85,0,0,0-5.31-.33c-1.34-1-3.4-.41-5-.67v-1.66a7.77,7.77,0,0,0,.67-3.65c1.16-.63,2-1.06,2.32-2.65-1-.74-.63-1.14-2.32-1.33-2,1.91-6.06,2.72-9.63,2a11.08,11.08,0,0,1-.66-3c.54-.53.73-1.55,1.33-2,1.37-1,2.07-.35,2.32-2.65-.41-.71-.13-.92,0-2-4.91-3.2-8.53-2.45-13.27,0v-.67c2-2,.74-4.18-.34-6.3Zm66.29,87.66v10.59h-2.67L246,200.43v7.72h-2V197.54h2.68l3.52,7.72v-7.7Zm-11.16,5.92a2.33,2.33,0,0,1,.48,1.08l.76,3.59h-2.15l-.62-3.25a1.5,1.5,0,0,0-.44-.87,1.4,1.4,0,0,0-.93-.28h-1.53v4.4h-2V197.54h3.89a4.5,4.5,0,0,1,1.5.23,3.06,3.06,0,0,1,1.06.62,2.37,2.37,0,0,1,.63.9,2.82,2.82,0,0,1,.21,1.09,2.93,2.93,0,0,1-.13.83,2.76,2.76,0,0,1-.37.75,3,3,0,0,1-.59.59,2.55,2.55,0,0,1-.78.37A1.63,1.63,0,0,1,241.08,203.48ZM232.34,202v1.66h-3.62v2.84h3.84v1.66h-5.87V197.54h5.77v1.66h-3.74V202Zm-9,1.08a2.59,2.59,0,0,1,.76.53,2.49,2.49,0,0,1,.67,1.72,2.72,2.72,0,0,1-.22,1.11,2.37,2.37,0,0,1-.63.9,3.19,3.19,0,0,1-1.06.6,4.31,4.31,0,0,1-1.46.22h-4.1V197.54h4.1a3.87,3.87,0,0,1,1.31.21,3,3,0,0,1,1,.57,2.44,2.44,0,0,1,.63.83,2.41,2.41,0,0,1,.22,1,2.82,2.82,0,0,1-.15.92,2.42,2.42,0,0,1-.43.79,2.32,2.32,0,0,1-.68.6,2.7,2.7,0,0,1-.93.33A3.36,3.36,0,0,1,223.34,203.07ZM97,237.3h19.31V216.37h61.15V237.3h19.31v70.82H156.49V287.19H137.18v20.93H97ZM162.85,327a2.55,2.55,0,0,1,.48,1.08l.76,3.59h-2.15l-.63-3.25a1.49,1.49,0,0,0-.43-.86,1.39,1.39,0,0,0-.94-.28h-1.52v4.39h-2V321.05h3.9a4.44,4.44,0,0,1,1.49.23,3.13,3.13,0,0,1,1.06.62,2.45,2.45,0,0,1,.63.9,2.86,2.86,0,0,1,.21,1.09,2.72,2.72,0,0,1-.13.84,2.45,2.45,0,0,1-.37.74,2.6,2.6,0,0,1-1.36,1A1.6,1.6,0,0,1,162.85,327Zm-8.74-1.48v1.66h-3.63V330h3.84v1.66h-5.87V321.05h5.77v1.66h-3.74v2.8ZM138.92,330v1.66h-5.87V321.05h2V330Zm-34,12.65a2.73,2.73,0,0,1-.71,1,3.43,3.43,0,0,1-1.11.67,4.18,4.18,0,0,1-1.44.24H99.87v4.28h-2V338.23h3.76a4.1,4.1,0,0,1,1.44.25,3.69,3.69,0,0,1,1.12.68,2.85,2.85,0,0,1,.71,1,3,3,0,0,1,.25,1.23A3.07,3.07,0,0,1,104.87,342.65Zm8,4.44a3,3,0,0,1-.76,1.05,3.45,3.45,0,0,1-1.21.67,5.49,5.49,0,0,1-3.72-.16,5,5,0,0,1-1.36-.94l1.2-1.2a3.12,3.12,0,0,0,.92.63,2.94,2.94,0,0,0,1.27.26,2,2,0,0,0,.75-.13,1.59,1.59,0,0,0,.57-.33,1.52,1.52,0,0,0,.37-.5,1.38,1.38,0,0,0,.13-.6,1.06,1.06,0,0,0-.37-.85,3.71,3.71,0,0,0-.93-.52c-.38-.14-.78-.29-1.21-.43a5,5,0,0,1-1.2-.55,3,3,0,0,1-.93-.9,2.69,2.69,0,0,1-.37-1.5,3,3,0,0,1,.23-1.14,3,3,0,0,1,.71-1,3.45,3.45,0,0,1,1.16-.68,4.44,4.44,0,0,1,1.62-.26,4.57,4.57,0,0,1,3.36,1.34l-1.21,1.21a3.6,3.6,0,0,0-.87-.63,2.53,2.53,0,0,0-1.15-.26,2.22,2.22,0,0,0-.77.12,1.72,1.72,0,0,0-.55.31,1.21,1.21,0,0,0-.32.43,1.19,1.19,0,0,0-.11.47,1,1,0,0,0,.37.83,3.33,3.33,0,0,0,.94.51q.55.22,1.2.42a5.49,5.49,0,0,1,1.2.56,3,3,0,0,1,.93.92,2.76,2.76,0,0,1,.37,1.52A3.18,3.18,0,0,1,112.92,347.09Zm6.13-2.84v4.59h-2v-4.59l-3.84-6h2.51l2.35,4,2.34-4h2.52Zm6.37.89a3.47,3.47,0,0,0,.64,1.19,2.7,2.7,0,0,0,1,.75,2.84,2.84,0,0,0,1.2.26,3.42,3.42,0,0,0,1.15-.19,2.7,2.7,0,0,0,.91-.61l1.22,1.2a4.24,4.24,0,0,1-1.45.93,5.13,5.13,0,0,1-1.89.33,5.35,5.35,0,0,1-2.08-.39,4.83,4.83,0,0,1-1.61-1.11,4.89,4.89,0,0,1-1-1.72,6.56,6.56,0,0,1-.36-2.23,6.68,6.68,0,0,1,.36-2.25,4.89,4.89,0,0,1,1-1.72,4.55,4.55,0,0,1,1.61-1.11,5.35,5.35,0,0,1,2.08-.39,5.13,5.13,0,0,1,1.89.33,4.4,4.4,0,0,1,1.45.93l-1.22,1.2a2.56,2.56,0,0,0-.91-.61,3.19,3.19,0,0,0-1.15-.19,2.7,2.7,0,0,0-1.2.26,2.79,2.79,0,0,0-1,.74,3.62,3.62,0,0,0-.64,1.2,5.45,5.45,0,0,0,0,3.2Zm4.21-13.48-.86-2.43h-4.08l-.85,2.43h-2.15l4-10.61h2.17l4,10.61ZM141,348.84h-2v-4.49h-3.91v4.49h-2V338.23h2v4.46H139v-4.46h2Zm-2-26.13v-1.66h8.16v1.66H144v9h-2v-9Zm6.59,26.13h-2V338.23h2Zm9.19,0-.85-2.43h-4.08l-.85,2.43h-2.15l3.95-10.61h2.18l3.95,10.61Zm10.37-8.95H162v8.95h-2v-8.95H157v-1.66h8.16Zm-.18-9.36,1.2-1.2a3.25,3.25,0,0,0,.92.63,3,3,0,0,0,1.27.26,2.06,2.06,0,0,0,.76-.13,1.78,1.78,0,0,0,.57-.33,1.36,1.36,0,0,0,.36-.5,1.38,1.38,0,0,0,.13-.6,1,1,0,0,0-.37-.85,3.71,3.71,0,0,0-.93-.52c-.37-.14-.77-.29-1.2-.43a5.29,5.29,0,0,1-1.21-.55,3.07,3.07,0,0,1-.93-.9,2.69,2.69,0,0,1-.37-1.5,2.85,2.85,0,0,1,.24-1.14,2.8,2.8,0,0,1,.7-1,3.56,3.56,0,0,1,1.16-.68,4.44,4.44,0,0,1,1.62-.26,4.68,4.68,0,0,1,1.93.37,4.56,4.56,0,0,1,1.44,1L171,323.39a3.6,3.6,0,0,0-.87-.63,2.5,2.5,0,0,0-1.15-.26,2.26,2.26,0,0,0-.77.12,1.56,1.56,0,0,0-.54.31,1.06,1.06,0,0,0-.33.43,1.17,1.17,0,0,0-.1.47,1,1,0,0,0,.37.83,3.41,3.41,0,0,0,.93.51c.37.14.77.29,1.2.42a5.49,5.49,0,0,1,1.2.56,2.82,2.82,0,0,1,.93.92,2.74,2.74,0,0,1,.38,1.52,3.21,3.21,0,0,1-.27,1.32,2.92,2.92,0,0,1-.76,1,3.47,3.47,0,0,1-1.21.68,4.81,4.81,0,0,1-1.63.25,4.79,4.79,0,0,1-3.45-1.35ZM172,348.84l-.63-3.25a1.44,1.44,0,0,0-.44-.86,1.34,1.34,0,0,0-.93-.28h-1.53v4.39h-2V338.23h3.9a4.44,4.44,0,0,1,1.49.23,3.13,3.13,0,0,1,1.06.62,2.54,2.54,0,0,1,.63.9,2.86,2.86,0,0,1,.21,1.09,2.72,2.72,0,0,1-.5,1.58,3,3,0,0,1-.59.59,2.91,2.91,0,0,1-.77.38,1.6,1.6,0,0,1,1,.55,2.42,2.42,0,0,1,.47,1.08l.76,3.59Zm5.87,0h-2V338.23h2Zm8.4,0H180.4V338.23h5.77v1.66h-3.74v2.8h3.62v1.66h-3.62v2.83h3.84Zm4.09,0h-2V338.23H191l3.52,7.72v-7.7h2v10.59h-2.67l-3.53-7.71ZM214,464.25h-2v-4.5h-3.9v4.5h-2V453.64h2v4.45H212v-4.45h2Zm9.2,0-.85-2.44h-4.09l-.84,2.44H215.3l3.95-10.61h2.18l3.95,10.61Zm2-23.38a3,3,0,0,1-.72,1,3.41,3.41,0,0,1-1.11.66,4.09,4.09,0,0,1-1.43.24h-1.75v4.28h-2v-10.6H222a3.87,3.87,0,0,1,1.43.25,3.24,3.24,0,0,1,1.12.68,3,3,0,0,1,.72,1,3.14,3.14,0,0,1,.25,1.23A3.21,3.21,0,0,1,225.27,440.87Zm9.4,19.9a4,4,0,0,1-.3,1.59,3.33,3.33,0,0,1-.83,1.15,3.53,3.53,0,0,1-1.26.71,5.52,5.52,0,0,1-3.22,0,3.58,3.58,0,0,1-1.27-.71,3.33,3.33,0,0,1-.83-1.15,4,4,0,0,1-.3-1.59v-7.13h2v7.14a2.39,2.39,0,0,0,.15.88,1.74,1.74,0,0,0,.42.63,1.83,1.83,0,0,0,.63.38,2.28,2.28,0,0,0,.78.13,2.15,2.15,0,0,0,.77-.13,1.83,1.83,0,0,0,.63-.38,1.74,1.74,0,0,0,.42-.63,2.39,2.39,0,0,0,.15-.88v-7.14h2Zm-2-13.71-.63-3.25a1.46,1.46,0,0,0-.43-.86,1.36,1.36,0,0,0-.93-.28h-1.53v4.39h-2v-10.6H231a4.3,4.3,0,0,1,1.5.23,3.14,3.14,0,0,1,1.06.61,2.54,2.54,0,0,1,.63.9,3.1,3.1,0,0,1,.2,1.09,2.94,2.94,0,0,1-.12.84,2.47,2.47,0,0,1-.38.74,2.5,2.5,0,0,1-.58.59,2.57,2.57,0,0,1-.78.38,1.62,1.62,0,0,1,1,.55,2.55,2.55,0,0,1,.48,1.08l.76,3.59Zm10.75,15.43a2.84,2.84,0,0,1-.76,1.05,3.42,3.42,0,0,1-1.2.68,5.19,5.19,0,0,1-1.64.24,4.82,4.82,0,0,1-2.08-.41,5.29,5.29,0,0,1-1.37-.93l1.21-1.21a3.07,3.07,0,0,0,.91.63,3,3,0,0,0,1.28.26,2.27,2.27,0,0,0,.75-.12,1.8,1.8,0,0,0,.57-.34,1.41,1.41,0,0,0,.49-1.1,1,1,0,0,0-.37-.84,3.42,3.42,0,0,0-.93-.52c-.37-.15-.77-.29-1.2-.43a5.46,5.46,0,0,1-1.2-.55,2.79,2.79,0,0,1-.93-.91,2.68,2.68,0,0,1-.38-1.49,2.86,2.86,0,0,1,.24-1.15,2.81,2.81,0,0,1,.7-1,3.41,3.41,0,0,1,1.16-.69,4.72,4.72,0,0,1,1.63-.26,4.67,4.67,0,0,1,1.92.37,4.59,4.59,0,0,1,1.44,1l-1.22,1.2a3.27,3.27,0,0,0-.86-.62,2.45,2.45,0,0,0-1.16-.27,2.26,2.26,0,0,0-.77.12,2,2,0,0,0-.54.31,1.34,1.34,0,0,0-.33.43,1.17,1.17,0,0,0-.1.47,1,1,0,0,0,.37.83,3.71,3.71,0,0,0,.93.52q.56.21,1.2.42a5.76,5.76,0,0,1,1.21.55,3.17,3.17,0,0,1,.93.93,2.79,2.79,0,0,1,.37,1.51A3.18,3.18,0,0,1,243.41,462.49Zm-6.91-15.43v-10.6h2v10.6Zm3.32-10.6H242l2.73,8.17,2.72-8.17h2.15l-3.81,10.6h-2.12Zm13.52,27.79h-2v-4.5h-3.91v4.5h-2V453.64h2v4.45h3.91v-4.45h2Zm-3.74-17.19,4-10.6h2.18l4,10.6h-2.15l-.86-2.43h-4.08l-.84,2.43Zm13,17.19-.86-2.44h-4.08l-.85,2.44h-2.14l3.95-10.61h2.17l4,10.61Zm2.27-17.19h-2v-8.94h-3.08v-1.66h8.16v1.66h-3.07Zm7,17.19H266V453.64h2v8.94h3.84Zm8.2-8.95H277v8.95h-2V455.3h-3.08v-1.66H280Zm-6.55-72.79v41.86H252.57V403.44H233.26v20.93H212.34V382.51H193l49.89-49.88,49.88,49.88Zm-6.94-77.9A26.48,26.48,0,1,1,293,278.13,26.47,26.47,0,0,1,266.55,304.61Zm57.71-131L373.89,124l49.63,49.63H404.31v41.65H383.5V194.46H364.28v20.82H343.47V173.63Zm83.14,82.66H405l-2.3-8.24v8.24h-2V245.68h3.19l2.32,8.38,2.32-8.38h3.19v10.61h-2v-8.24Zm-11.21-17.18V228.5h2.68l3.52,7.72v-7.7h2v10.59h-2.68l-3.52-7.71v7.71Zm2,6.57v10.61h-2V245.68Zm11.94-6.57H407V228.5h3.14a6.92,6.92,0,0,1,2.18.34,4.59,4.59,0,0,1,2.88,2.66,6,6,0,0,1,.41,2.31,5.88,5.88,0,0,1-.42,2.31,4.6,4.6,0,0,1-1.16,1.65,4.9,4.9,0,0,1-1.73,1A6.79,6.79,0,0,1,410.1,239.11Zm4.17,6.57H420v1.66H416.3v2.8h3.63v1.66H416.3v2.83h3.84v1.66h-5.87Zm-34.53,6.12v4.49h-2V245.68h2v4.46h3.91v-4.46h2v10.61h-2V251.8Zm-3.38-16v-1.34H380v1.34Zm9.28-.18V228.5h2v7.14a2.44,2.44,0,0,0,.15.89,1.74,1.74,0,0,0,.42.63,1.94,1.94,0,0,0,.64.38,2.44,2.44,0,0,0,.77.13,2.39,2.39,0,0,0,.77-.13,2,2,0,0,0,.63-.38,1.74,1.74,0,0,0,.42-.63,2.44,2.44,0,0,0,.15-.89V228.5h2v7.13a4,4,0,0,1-.3,1.59,3.24,3.24,0,0,1-.83,1.16,3.51,3.51,0,0,1-1.26.7,5.31,5.31,0,0,1-3.22,0,3.56,3.56,0,0,1-1.27-.7,3.37,3.37,0,0,1-.83-1.16A4,4,0,0,1,385.64,235.63Zm2.56,10.05H394v1.66h-3.74v2.8h3.63v1.66h-3.63v2.83h3.84v1.66H388.2ZM364,233v1.66h-3.62v2.83h3.84v1.66h-5.87V228.5h5.77v1.66h-3.74V233Zm-4.64,15.79a4.94,4.94,0,0,1,1.06-1.72,4.54,4.54,0,0,1,1.65-1.11,5.68,5.68,0,0,1,2.15-.39,5.81,5.81,0,0,1,2,.33,4,4,0,0,1,1.51.93l-1.2,1.2a3,3,0,0,0-2.21-.8,3,3,0,0,0-1.28.26,3,3,0,0,0-1,.74,3.62,3.62,0,0,0-.67,1.19,5,5,0,0,0-.25,1.61,4.89,4.89,0,0,0,.25,1.6,3.36,3.36,0,0,0,.67,1.19,2.94,2.94,0,0,0,1,.73,3.13,3.13,0,0,0,1.27.25,3.59,3.59,0,0,0,.78-.09,3.15,3.15,0,0,0,.67-.2v-2.36h-1.95v-1.66h4v5.19a5.93,5.93,0,0,1-1.53.57,8.25,8.25,0,0,1-2,.24,5.68,5.68,0,0,1-2.15-.39,4.8,4.8,0,0,1-1.65-1.11,4.94,4.94,0,0,1-1.06-1.72A6.32,6.32,0,0,1,359,251,6.44,6.44,0,0,1,359.32,248.75Zm6.92-9.64V228.5h2.68l3.52,7.72v-7.7h2v10.59h-2.68l-3.52-7.71v7.71Zm3.53,6.57h5.77v1.66h-3.73v2.8h3.62v1.66h-3.62v2.83h3.83v1.66h-5.87Zm-20.95-15.52V228.5H357v1.66H353.9v9h-2v-9Zm2.84,15.52h5.77v1.66H353.7v2.8h3.62v1.66H353.7v2.83h3.83v1.66h-5.87Zm-10-6.57h-2.15l-.86-2.43h-4.08l-.84,2.43h-2.15l3.95-10.61h2.18Zm-6.49,11a2.88,2.88,0,0,1-.72,1,3.43,3.43,0,0,1-1.11.67,4.1,4.1,0,0,1-1.44.24h-1.74v4.28h-2V245.68h3.76a4.1,4.1,0,0,1,1.44.25,3.57,3.57,0,0,1,1.12.68,2.85,2.85,0,0,1,.71,1,3,3,0,0,1,.26,1.23A3.24,3.24,0,0,1,335.14,250.1Zm7.7-2.76H339v2.8h3.73v1.66H339v4.49h-2V245.68h5.87Zm.06-18.84h2v8.95h3.83v1.66H342.9Zm1.63,17.18h2v8.95h3.83v1.66h-5.87Zm24,167.23h-7v-1.57L366,404h-4.33V402.3h6.72v1.58l-4.45,7.37h4.57Zm9.76-3.48A4,4,0,0,1,378,411a3.24,3.24,0,0,1-.83,1.15,3.62,3.62,0,0,1-1.26.71,5.52,5.52,0,0,1-3.22,0,3.49,3.49,0,0,1-1.27-.71,3.12,3.12,0,0,1-.83-1.15,3.79,3.79,0,0,1-.3-1.59V402.3h2v7.14a2.39,2.39,0,0,0,.15.88,1.74,1.74,0,0,0,.42.63,1.69,1.69,0,0,0,.63.38,2.28,2.28,0,0,0,.78.13,2.15,2.15,0,0,0,.77-.13,1.69,1.69,0,0,0,.63-.38,1.74,1.74,0,0,0,.42-.63,2.39,2.39,0,0,0,.15-.88V402.3h2Zm-6.14-8v-1.74h1.6v1.74Zm2.66,0v-1.74h1.62v1.74Zm11.57,11.46-.63-3.25a1.49,1.49,0,0,0-.43-.87,1.36,1.36,0,0,0-.93-.28h-1.53v4.4h-2V402.3h3.89a4.3,4.3,0,0,1,1.5.23,3.21,3.21,0,0,1,1.06.61,2.54,2.54,0,0,1,.63.9,3.1,3.1,0,0,1,.2,1.09,2.94,2.94,0,0,1-.12.84,2.47,2.47,0,0,1-.38.74,2.5,2.5,0,0,1-.58.59,2.36,2.36,0,0,1-.78.38,1.62,1.62,0,0,1,1,.55,2.55,2.55,0,0,1,.48,1.08l.76,3.6Zm5.87,0h-2V402.3h2Zm4.23-3.71a3.63,3.63,0,0,0,.65,1.2,2.69,2.69,0,0,0,2.17,1,3.1,3.1,0,0,0,1.14-.19,2.6,2.6,0,0,0,.92-.61l1.21,1.2a4.17,4.17,0,0,1-1.45.94,5.08,5.08,0,0,1-1.88.32,5.32,5.32,0,0,1-2.08-.39,4.59,4.59,0,0,1-1.62-1.11,5,5,0,0,1-1-1.72,6.29,6.29,0,0,1-.37-2.23,6.38,6.38,0,0,1,.37-2.24,5.07,5.07,0,0,1,1-1.73,4.87,4.87,0,0,1,1.62-1.11,5.32,5.32,0,0,1,2.08-.39,5.08,5.08,0,0,1,1.88.33,4.63,4.63,0,0,1,1.45.93l-1.21,1.2a2.74,2.74,0,0,0-.92-.61,3.32,3.32,0,0,0-1.14-.19,2.92,2.92,0,0,0-1.21.26,2.67,2.67,0,0,0-1,.75,3.49,3.49,0,0,0-.65,1.19,5.3,5.3,0,0,0-.23,1.61A5.17,5.17,0,0,0,396.44,409.2ZM412,412.91h-2v-4.5h-3.91v4.5h-2V402.3h2v4.45H410V402.3h2Zm11.38-48.62c-.6.38-1,.93-1.69,1.28s-1.36.33-1.81.7c-.16.35-.32.7-.47,1.05-.31.27-1.05.34-1.17.76a1.84,1.84,0,0,0-.11.76c.09.09.13.27.23.35.38.33,1.22.21,1.52.7a1.58,1.58,0,0,1-.18,1.4,6.93,6.93,0,0,1-2.68,1.52c0,1.78-2.3,1.5-3.62,1.23a4.5,4.5,0,0,0-1.93.35c-.22,1.57-2.1,2.16-4,1.63-.57-.16-1.14-.5-1.75-.64l-1.16-.06c-.68,0-1.94-.18-2.4.12-.16.17-.16.42-.29.64a2.7,2.7,0,0,0-.64,1.87,1.52,1.52,0,0,1,.87,1.34c0,.06,0,0-.05.11-.45.24-.94.57-1.4.76-1,.43-2.08.52-3.1.94s-2,.93-3,1.34a18.52,18.52,0,0,0-3.91,1.69,11.54,11.54,0,0,0-1.81,1.4c-1,1.43.17,2.87,1.05,3.68a1.06,1.06,0,0,1-.35.87c-.23.18-.77.12-1.17.12a10,10,0,0,1-2.69-.47c-.13-.25-.29-.82-.64-.87-.48-.34-1.1-.05-1.57.06a5.08,5.08,0,0,1-1.81-.47c-.76-.54-.64-1.57-.64-2.86v-.87c-.22-.72-.55-.64-.94-1.06l-.17-.29h-1.4c-.19-.12-.5-.06-.7-.17a3.57,3.57,0,0,1-.76-.88c-.45-.68-.6-1.61-1.29-2l-1.28-.29c-.19-.06-.48-.25-.64-.29a3.09,3.09,0,0,0-1.52.29c-.53.17-1,.1-1.58.29s-.78.6-1.16.82h-.18c-.54.33-.81,1.11-1.46,1.34a6.2,6.2,0,0,1-4.08-.35c-.37-.24-.44-.71-.7-1l-1.11-.76a8.91,8.91,0,0,0-2.57-.23,3.5,3.5,0,0,1-1.23-.06,2.54,2.54,0,0,1-1.05-1.17v-.93a2.05,2.05,0,0,0-.64-1.4c-.25-.16-.52-.06-.64-.35a9.21,9.21,0,0,1-.12-2.69,3,3,0,0,1-.81-.64,7.49,7.49,0,0,0-.12-2.45c-.28-.63-1-1-1.11-1.81.25-.32.34-.85.76-1,.25-.16.57,0,.93-.12a6.75,6.75,0,0,0,2.28-.58,7.27,7.27,0,0,0,1.11-1.64l.17-1.28a7.89,7.89,0,0,1,1.17-1.46l.64-.23a1.7,1.7,0,0,0,.47-1.64h-.29a1.2,1.2,0,0,1-.59.06c-.33.53-1.35,1.74-2.16,1.75a8.09,8.09,0,0,0-1.05-.87c0-2.16-.83-2.46-1.92-3.45a3.54,3.54,0,0,1,.23-1.57c.14-.19.52-.26.64-.47l.35-1.58c-.25-.17-.3-.42-.7-.46a5.25,5.25,0,0,0-1.11-.18.69.69,0,0,1-.11-.41c-.35-.54-.12-1.85-.47-2.33s-1.77-.85-2-1.4a1.7,1.7,0,0,1,.06-1.34c.12-.34.45-.45.64-.7a2.89,2.89,0,0,0,.76-2.86v-.47a12.53,12.53,0,0,0-1.46-1.75c-.16-.19-.6-.57-.47-1a8.24,8.24,0,0,1,.88-1.11c.15-.12.53-.2.64-.35v-.29c-.18-.27-.2-.78-.35-1.06a3,3,0,0,1-1.34,0,1.68,1.68,0,0,0-.24-.29c0-.29-.15-.7,0-.93.16-.45.7-.69,1.11-.88l.06-.52a4.56,4.56,0,0,1-2-5.2,3.52,3.52,0,0,1,2.27-2c0-.52.56-1.85.94-2l1.05-.35c.27-.63.46-1.32.75-2a22.1,22.1,0,0,0,1.17-2.22c.16-.48.28-2.12.64-2.27s.53,0,.94,0h1.63a4.11,4.11,0,0,0,1.58.11,11.8,11.8,0,0,0,1.75-.64c.37-.24.55-.74,1-.93s1.6-.32,1.63-1.11a5.55,5.55,0,0,0-2.21.47,3,3,0,0,1-1.29-.18,4.86,4.86,0,0,1-.58-.93,3.21,3.21,0,0,1-.12-2c.38-1.05,3.07-2.52,4.2-3l1.76-.41c.51-.29.14-.85.4-1.29a4.21,4.21,0,0,1,2.05-1.45c.63-.25,1.1.28,1.51.46a14.78,14.78,0,0,1,1.7.59,6.5,6.5,0,0,1,1.11,1c.18.25.27.63.52.81.48.37,1.1.52,1.17,1.29-.07.07-.1.23-.18.29-.31.27-.86.37-1.11.7l-.93,1.81c-.1.1-.28.09-.41.18a5.5,5.5,0,0,1-1.69.93c-.08.48-.35,1.32,0,1.81.13.18.45.1.64.23a5.66,5.66,0,0,1,.76,1.58c.23.64.08,1.66.47,2.16a1,1,0,0,0,.46.11c.12-.38.48-.62.59-1,.21-.7.08-1.54.41-2.1s1-1,1.22-1.58v-1.75c0-.16.24-.4.29-.58.2-.68,0-1.64.65-1.87.37-.24,1.15-.09,1.28-.58a2.59,2.59,0,0,0-.12-1.69c-.26-.52-.86-.89-1.11-1.46,0-.22,0-.43,0-.64a2.19,2.19,0,0,1-.12-.94,4.81,4.81,0,0,1,1.92-2.86c.75-.47.85-.25,1.41.18.07.06.18,0,.23.11.62,1.1-1.21,1.48-1.34,2,.1.1.08.16.23.23.82.55,2.49-.5,2.68-.93v-1c-.24-.18-.33-.59-.58-.75s-.7-.18-1-.36a7.39,7.39,0,0,1-1.34-1.34,6.7,6.7,0,0,1,2.68-4.78c.32-.19,1.12-1,1.81-.53.48.13.62.67,1.05.82s.71-.17.88.23-.1.51,0,.88a2.42,2.42,0,0,0,.35.7c.24.23.63.21.93.41s.43.36.64.52c.47.36.16.78.41,1.29l1.28,1.1c.3.43.36,1,.65,1.41.16.25.46.46.64.7s.21.45.35.52h3.38v.06c.32.11.16.27.35.47s.44.15.59.29c.66-.16.47-.37.81-.64a3.65,3.65,0,0,1,.76-.3,12.42,12.42,0,0,0,1.81-.81c.32-.2.81-.26.88-.7a3.66,3.66,0,0,0,.17-.53c.54-1.24.83-1.78,2.69-1.75.2.27.59.54.7.88v1.4a2.84,2.84,0,0,1,.17.41c1.1,0,1.39.74,1.93,1.28a4.79,4.79,0,0,1-1,3c-.22.36-.29.78-.53,1.11s-.7.67-.87,1a22.61,22.61,0,0,0-.3,2.86,1,1,0,0,1-.29.18c-.25.15-.94-.05-1.34-.06a5.61,5.61,0,0,1-.53-2,4.77,4.77,0,0,1-1.86-.64l-.47-.53a2.75,2.75,0,0,0-1.28-.23c-.85.16-1.41-.12-1.4.93.07.6.15,1.21.23,1.81a21.12,21.12,0,0,1,1.87,1c.39.17.71.19,1.11.35s.87.47,1.28.64c1.31.56,2.92.61,3.15,2.22a8.06,8.06,0,0,1,1.17.24l1.87-.12a2.69,2.69,0,0,1,1.81,1.4l-.12.87-.23.24c-.5.27-1.44,0-1.52.7.94.64.65,1.47.35,2.45V326c.64.43.43.77,1.63.75a4.63,4.63,0,0,0,1.64.06c1.4,0,3.14-.08,3.73.76a6.23,6.23,0,0,1,.35,2.16c-.09.32-.33.73-.41,1.05l.18,2a4,4,0,0,1-.41,1.11,5.76,5.76,0,0,0-.53,3.45c.87.07,1.14,1.11,1.46,1.75.1.2.37.47.29.82a8.13,8.13,0,0,1-.52,1.22c.15.19.38,1,.52,1.11h2.34c.21.16.53.2.64.47a1.44,1.44,0,0,1,0,.87l-.35.29H415c-.1.16-.22.21-.29.41a2.2,2.2,0,0,1,.53,2.45c-.15.22-.55.31-.76.47s-.25.43-.41.58l.06.94a5.68,5.68,0,0,0,1.63.52c.33.08.67,0,.93.12l1.52,1.69c.17.37.09.85.29,1.17s.71.62.94,1a10.34,10.34,0,0,1,.46,1.29,8.6,8.6,0,0,0,.65.93c.24.39.39.77.64,1.17a14.71,14.71,0,0,1,1,1.34l.06.64c.22,1,.07,2.24.35,3.21a11,11,0,0,0,.7,1.28Z"/><path d="M238.32,199.2h-1.67v2.89h1.5a1.76,1.76,0,0,0,1.23-.41,1.35,1.35,0,0,0,.46-1.07,1.34,1.34,0,0,0-1.52-1.41Z"/><path d="M384.49,404h-1.67v2.89h1.5a1.81,1.81,0,0,0,1.23-.41,1.35,1.35,0,0,0,.46-1.07,1.46,1.46,0,0,0-.36-1A1.49,1.49,0,0,0,384.49,404Z"/><path d="M101.42,339.89H99.87v3h1.55a1.62,1.62,0,0,0,1.22-.43,1.49,1.49,0,0,0,.42-1.07,1.46,1.46,0,0,0-.42-1.06A1.59,1.59,0,0,0,101.42,339.89Z"/><polygon points="150.38 344.75 153.33 344.75 151.85 340.52 150.38 344.75"/><polygon points="125.26 327.57 128.21 327.57 126.73 323.34 125.26 327.57"/><path d="M262.4,266.73A12.14,12.14,0,1,0,278,274,12.16,12.16,0,0,0,262.4,266.73Z"/><path d="M391.43,67.27l-2-19.79L381.66,62l-8.21-4.41,16.82-31.34,8.21,4.41-7.49,14,16.88-8.92,10.19,5.47L398.4,50.42l3.31,22.37Z"/><path d="M438.88,78.5a23,23,0,0,1-5.53,5.43,16.6,16.6,0,0,1-6.17,2.59,14.64,14.64,0,0,1-6.44-.27,18.62,18.62,0,0,1-6.29-3.13A18.31,18.31,0,0,1,409.63,78a14.85,14.85,0,0,1-2.12-6.09,16.24,16.24,0,0,1,.68-6.67,25.1,25.1,0,0,1,9.14-12.29,16.36,16.36,0,0,1,6.19-2.58,15.13,15.13,0,0,1,6.45.25,18.31,18.31,0,0,1,6.33,3.12,18,18,0,0,1,4.78,5.15,14.73,14.73,0,0,1,2.11,6.1,16.42,16.42,0,0,1-.71,6.66A22.72,22.72,0,0,1,438.88,78.5Zm-7.69-5.75a17.91,17.91,0,0,0,2.36-4.09,10.7,10.7,0,0,0,.78-3.63,6.79,6.79,0,0,0-.62-3,6,6,0,0,0-1.88-2.26,6.25,6.25,0,0,0-5.91-1c-2.13.68-4.27,2.46-6.4,5.33s-3.22,5.42-3.25,7.67a6.21,6.21,0,0,0,2.65,5.36,5.89,5.89,0,0,0,2.7,1.15A6.73,6.73,0,0,0,424.7,78,10.46,10.46,0,0,0,428,76.19,18.06,18.06,0,0,0,431.19,72.75Z"/><path d="M466.69,106.06a23.11,23.11,0,0,1-6.29,4.53,16.39,16.39,0,0,1-6.5,1.62,14.56,14.56,0,0,1-6.32-1.24,19.88,19.88,0,0,1-9.73-9.85,14.69,14.69,0,0,1-1.16-6.34,16.2,16.2,0,0,1,1.68-6.49,25,25,0,0,1,10.9-10.76,16.16,16.16,0,0,1,6.5-1.61,15.23,15.23,0,0,1,6.35,1.23A19.56,19.56,0,0,1,471.85,87,14.84,14.84,0,0,1,473,93.36a16.4,16.4,0,0,1-1.7,6.47A22.9,22.9,0,0,1,466.69,106.06ZM460,99.22a18.25,18.25,0,0,0,3-3.69,10.69,10.69,0,0,0,1.32-3.47,6.63,6.63,0,0,0-.15-3.09,6.06,6.06,0,0,0-1.51-2.52,6.24,6.24,0,0,0-5.69-1.87c-2.22.35-4.6,1.77-7.14,4.29s-4,4.87-4.38,7.09a6.26,6.26,0,0,0,1.8,5.71,6.13,6.13,0,0,0,2.51,1.54,6.7,6.7,0,0,0,3.08.19,10.37,10.37,0,0,0,3.48-1.28A18,18,0,0,0,460,99.22Z"/><path d="M467.62,136.85l6.57-7.18a5,5,0,0,0,1.51-2.84,4.76,4.76,0,0,0-1.18-2.93l-1.45-2-10.65,7.88-5.54-7.49,28.6-21.15L494,112.65a15.62,15.62,0,0,1,2.51,4.82,10.91,10.91,0,0,1,.46,4.41,9.27,9.27,0,0,1-1.27,3.77,9.91,9.91,0,0,1-2.69,2.94,9,9,0,0,1-2.36,1.25,9.09,9.09,0,0,1-2.72.51,8.69,8.69,0,0,1-2.8-.35,7.87,7.87,0,0,1-2.63-1.33,5.64,5.64,0,0,1,.47,4,10.11,10.11,0,0,1-2,3.45l-7.54,8.61Zm19-15.28a3.58,3.58,0,0,0,1.41-2.41,4,4,0,0,0-.85-3l-2.21-3-5.91,4.37,2.21,3a4,4,0,0,0,2.63,1.74A3.5,3.5,0,0,0,486.65,121.57Z"/><path d="M505.38,166a20.32,20.32,0,0,1-7.35,2.46,15.35,15.35,0,0,1-6.69-.67,15.8,15.8,0,0,1-5.77-3.5,23.34,23.34,0,0,1-4.61-6.08l-5.6-10.33,31.27-17,5.6,10.34a23.54,23.54,0,0,1,2.58,7.17,15.89,15.89,0,0,1-.22,6.75,15.3,15.3,0,0,1-3.12,6A20.33,20.33,0,0,1,505.38,166Zm-4.57-8.44q4.26-2.31,5.49-5.78a8.59,8.59,0,0,0-.79-7.21l-1-1.89-18.1,9.82,1,1.89A8.6,8.6,0,0,0,493,159,10.87,10.87,0,0,0,500.81,157.58Z"/><path d="M491.33,179.23l32.93-13.45,3.52,8.62-32.93,13.45Z"/><path d="M502.54,211.49l18.68-14.36-21.06,6-2.54-9,34.23-9.68,3.25,11.5-18.7,14.32,21-5.95,2.54,9-34.18,9.67Z"/><path d="M509.86,252l6.93-3.39-1.52-12.05L507.73,235l-1.22-9.71,37,8.8L544.7,244l-33.62,17.67Zm24.22-11.66L523,238.08l.9,7.15Z"/><path d="M538.73,279.62l-28.08-.15.05-9.22,28.08.15.05-9.79,7.49,0-.16,28.8-7.49,0Z"/><path d="M510,292.36l35.4,3.49-.92,9.27-35.39-3.5Z"/><path d="M519.32,343.31a23,23,0,0,1-7.24-2.77,16.45,16.45,0,0,1-4.92-4.54,14.6,14.6,0,0,1-2.44-6,20,20,0,0,1,2.89-13.55,14.87,14.87,0,0,1,4.66-4.45,16.11,16.11,0,0,1,6.35-2.16,25.06,25.06,0,0,1,15,3.2,16.13,16.13,0,0,1,4.92,4.56,15,15,0,0,1,2.46,6,19.56,19.56,0,0,1-2.89,13.54,14.91,14.91,0,0,1-4.68,4.45,16.35,16.35,0,0,1-6.35,2.13A22.91,22.91,0,0,1,519.32,343.31Zm2-9.38a18,18,0,0,0,4.71.43,10.49,10.49,0,0,0,3.62-.79,6.74,6.74,0,0,0,2.5-1.83,6,6,0,0,0,1.27-2.65,6.22,6.22,0,0,0-1.56-5.78c-1.5-1.66-4-2.86-7.5-3.61s-6.28-.67-8.33.24a6.24,6.24,0,0,0-3.78,4.64,6.09,6.09,0,0,0,.08,2.94,6.65,6.65,0,0,0,1.54,2.68,10.37,10.37,0,0,0,3,2.21A18,18,0,0,0,521.34,333.93Z"/><path d="M494.06,360.86l23.56-.35-20.45-7.81,3.32-8.7,33.23,12.68-4.26,11.17-23.55.31L526.32,376l-3.32,8.7L489.81,372Z"/><path d="M187.84,539.59l8.47-23.32-13.47,21.51L172.49,534,176,508.88l-8.48,23.32L158.74,529l12.14-33.43,13.87,5-3.66,26,13.78-22.32,13.87,5-12.15,33.43Z"/><path d="M243.94,533.81a22.87,22.87,0,0,1-2.52,7.33,16.32,16.32,0,0,1-4.36,5.08,14.68,14.68,0,0,1-5.88,2.64,19.8,19.8,0,0,1-13.64-2.41,14.89,14.89,0,0,1-4.61-4.5,16.28,16.28,0,0,1-2.38-6.27,25.16,25.16,0,0,1,2.67-15.08,16.22,16.22,0,0,1,4.39-5.07,15,15,0,0,1,5.88-2.66,19.43,19.43,0,0,1,13.64,2.41,14.85,14.85,0,0,1,4.61,4.52,16.57,16.57,0,0,1,2.35,6.27A23,23,0,0,1,243.94,533.81Zm-9.45-1.69a17.85,17.85,0,0,0,.27-4.72,10.61,10.61,0,0,0-.92-3.59,6.78,6.78,0,0,0-1.91-2.43,6,6,0,0,0-2.69-1.18,6.22,6.22,0,0,0-5.73,1.75c-1.61,1.57-2.72,4.11-3.35,7.63s-.44,6.29.53,8.32a6.24,6.24,0,0,0,4.77,3.61,6.08,6.08,0,0,0,2.94-.18A6.79,6.79,0,0,0,231,539.7a10.19,10.19,0,0,0,2.1-3.06A17.88,17.88,0,0,0,234.49,532.12Z"/><path d="M269.47,552.67l-8.18-22.1-.56,21.88-9.31-.23.9-35.56,11.95.3,8.13,22.1.55-21.83,9.31.23L281.37,553Z"/><path d="M292.52,552.07l-3-35.44,9.28-.79,3,35.44Z"/><path d="M322.34,519.84l5,27.63-9.07,1.63-5-27.63-9.63,1.73-1.33-7.37,28.35-5.1L332,518.1Z"/><path d="M369.71,517.08a22.9,22.9,0,0,1,1.21,7.66,16.33,16.33,0,0,1-1.46,6.53,14.6,14.6,0,0,1-3.95,5.08,19.86,19.86,0,0,1-13.18,4.27,14.89,14.89,0,0,1-6.19-1.8,16.18,16.18,0,0,1-5-4.43,24.84,24.84,0,0,1-4.72-14.56,16,16,0,0,1,1.49-6.54,15,15,0,0,1,3.94-5.11,18,18,0,0,1,6.21-3.35,18.24,18.24,0,0,1,7-.92,14.9,14.9,0,0,1,6.19,1.83,16.37,16.37,0,0,1,5,4.43A23,23,0,0,1,369.71,517.08ZM360.57,520a18.12,18.12,0,0,0-2-4.3,10.65,10.65,0,0,0-2.51-2.74,6.69,6.69,0,0,0-2.82-1.25,6.09,6.09,0,0,0-2.93.22,6.25,6.25,0,0,0-4.23,4.24q-1,3.21.62,8.31c1.1,3.4,2.56,5.77,4.37,7.09a6.22,6.22,0,0,0,5.91,1,6.16,6.16,0,0,0,2.5-1.54,6.79,6.79,0,0,0,1.56-2.67,10.65,10.65,0,0,0,.42-3.69A18.11,18.11,0,0,0,360.57,520Z"/><path d="M400.89,521.85,395,514.09a5,5,0,0,0-2.53-2,4.78,4.78,0,0,0-3.09.64l-2.19,1.07L393,525.7l-8.36,4.09L369,497.85l12.8-6.27A15.85,15.85,0,0,1,387,490a11,11,0,0,1,4.42.35,9.29,9.29,0,0,1,3.48,1.93,10.07,10.07,0,0,1,2.41,3.17,9,9,0,0,1,0,8,7.86,7.86,0,0,1-1.79,2.34,5.66,5.66,0,0,1,4,.26,10,10,0,0,1,3,2.55l7.12,9Zm-11.6-21.47a3.55,3.55,0,0,0-2.11-1.82,3.92,3.92,0,0,0-3.15.28l-3.35,1.64,3.24,6.6,3.34-1.64a4,4,0,0,0,2.18-2.27A3.47,3.47,0,0,0,389.29,500.38Z"/><path d="M416.41,513.2,397.64,483l7.91-4.91,18.77,30.21Z"/><path d="M448,491.17l-20.39-11.82,13.52,17.21-7.32,5.75-22-28,9.4-7.39,20.35,11.86-13.48-17.18,7.32-5.75,21.94,27.93Z"/><path d="M483.91,455.53a24.83,24.83,0,0,1-1.43,2.72,30.5,30.5,0,0,1-2,2.89c-.76,1-1.58,1.94-2.46,2.87a21.14,21.14,0,0,1-6,4.52,15.73,15.73,0,0,1-6.57,1.66,16.39,16.39,0,0,1-6.72-1.29,22.77,22.77,0,0,1-11.11-10.54,16.37,16.37,0,0,1-1.62-6.65,16,16,0,0,1,1.29-6.66,20.77,20.77,0,0,1,4.19-6.26,20.44,20.44,0,0,1,2.6-2.31,21.88,21.88,0,0,1,2.89-1.87,16.52,16.52,0,0,1,3-1.27,10.63,10.63,0,0,1,3-.47l.19,7.61a6.68,6.68,0,0,0-3.14.94,11.75,11.75,0,0,0-2.77,2.15,9.08,9.08,0,0,0-1.93,3,8,8,0,0,0-.49,3.51,10.26,10.26,0,0,0,1.11,3.75,13.9,13.9,0,0,0,2.92,3.76,13.69,13.69,0,0,0,3.92,2.73,9.64,9.64,0,0,0,3.74.88,7.81,7.81,0,0,0,3.41-.74,9.5,9.5,0,0,0,2.9-2.11q.36-.39.84-1a5.85,5.85,0,0,0,.7-1.16l-4.07-3.87L467,455.82l-5.43-5.15,9.72-10.23,13.4,12.72A12.15,12.15,0,0,1,483.91,455.53Z"/><path d="M105.39,441.58l-3.32,19.61,11.36-12,6.76,6.4L95.7,481.42,89,475l10.9-11.49-18.63,4.16-8.39-8L94.22,456l2.71-22.45Z"/><path d="M62.38,418.43a23.06,23.06,0,0,1,6.75-3.81,16.42,16.42,0,0,1,6.63-.9,14.43,14.43,0,0,1,6.15,1.93,19.83,19.83,0,0,1,8.6,10.85,14.77,14.77,0,0,1,.46,6.43,16,16,0,0,1-2.38,6.26,25,25,0,0,1-12,9.51,16.28,16.28,0,0,1-6.64.89,15.07,15.07,0,0,1-6.17-1.92,19.48,19.48,0,0,1-8.6-10.85,14.86,14.86,0,0,1-.44-6.44,16.13,16.13,0,0,1,2.4-6.25A22.81,22.81,0,0,1,62.38,418.43ZM68.32,426A17.75,17.75,0,0,0,65,429.32a10.4,10.4,0,0,0-1.7,3.3,6.83,6.83,0,0,0-.18,3.09,6,6,0,0,0,1.23,2.67,6.25,6.25,0,0,0,5.45,2.48q3.36-.15,7.56-3.48c2.81-2.22,4.51-4.41,5.13-6.57a6.23,6.23,0,0,0-1.17-5.87A6.08,6.08,0,0,0,79,423.13a6.7,6.7,0,0,0-3-.53,10.64,10.64,0,0,0-3.61.89A18.29,18.29,0,0,0,68.32,426Z"/><path d="M58.92,376.6,37.08,388.38l24.36-7.11,5.23,9.7L47.35,407.43l21.84-11.78,4.43,8.2L42.31,420.73l-7-13,20-17-25.13,7.5-7-13L54.5,368.4Z"/><path d="M20.84,345.15a10.4,10.4,0,0,1,4.35-.54,10.76,10.76,0,0,1,4.19,1.24,12,12,0,0,1,3.54,2.88,13,13,0,0,1,2.43,4.32L37,357.76l12.52-4.33,3,8.8L18.92,373.85l-4.65-13.47a13.16,13.16,0,0,1-.76-4.92,12.1,12.1,0,0,1,1-4.47,11,11,0,0,1,2.55-3.57A10.47,10.47,0,0,1,20.84,345.15ZM23.91,354a3.59,3.59,0,0,0-2.09,1.89,4,4,0,0,0-.08,3.15L23,362.6l6.94-2.4-1.22-3.52a4,4,0,0,0-2-2.44A3.53,3.53,0,0,0,23.91,354Z"/><path d="M43.19,333.59,8.44,341.16l-4.36-20,7.32-1.59,2.37,10.93,6.48-1.41-2.31-10.6,7.32-1.6,2.3,10.6,6.34-1.37-2.47-11.31,7.32-1.59Z"/><path d="M8.48,295.63l27.94-2.83.92,9.17L9.41,304.8l1,9.74-7.45.75L0,286.64l7.45-.75Z"/><path d="M35.57,280.1,0,279.66l.25-20.49,7.49.09L7.6,270.44l6.63.08.13-10.84,7.49.09-.14,10.85,6.48.08.14-11.57,7.49.09Z"/><path d="M38.57,236.09,15.65,241.6l21.67,3.14L36,254,.78,248.86,2.49,237l22.91-5.47L3.79,228.44l1.33-9.22,35.15,5.09Z"/><path d="M41.3,220.25l-6.51-1.85L18,199.59l-3.6,12.65-7.2-2.05,6.72-23.59,6.5,1.85,16.81,18.81L41,193.92l7.2,2.05Z"/><path d="M49.81,191.9,16.92,178.36l7.8-19,6.92,2.86L27.39,172.6l6.12,2.52,4.13-10,6.93,2.85-4.14,10,6,2.47,4.4-10.7,6.92,2.85Z"/><path d="M68.87,152,59.63,149a5,5,0,0,0-3.21-.22A4.8,4.8,0,0,0,54.23,151L53,153.16l11.54,6.5L60,167.77,29,150.31l7-12.42a15.77,15.77,0,0,1,3.37-4.27,10.94,10.94,0,0,1,3.84-2.21,9.25,9.25,0,0,1,4-.39A10.21,10.21,0,0,1,51,132.27a9.53,9.53,0,0,1,2.1,1.65,9.21,9.21,0,0,1,1.58,2.28,8.68,8.68,0,0,1,.82,2.69,8,8,0,0,1-.14,3,5.58,5.58,0,0,1,3.44-2.05,10,10,0,0,1,3.95.37l10.94,3.36ZM47.15,140.92a3.57,3.57,0,0,0-2.77-.31,3.94,3.94,0,0,0-2.44,2l-1.83,3.25,6.4,3.6,1.83-3.24a4,4,0,0,0,.51-3.11A3.44,3.44,0,0,0,47.15,140.92Z"/><path d="M97.55,112.71l-7.29,9.11-21-11.22,15.62,18-7.28,9.11L44.77,121.75l6.47-8.09,21.08,11.69L56.46,107.14l6.62-8.29,21.23,11.5L68.72,91.8l6-7.53Z"/><path d="M104.64,105.76,80.44,79.69l15-14,5.1,5.49-8.2,7.61,4.51,4.86,7.95-7.39,5.09,5.49-8,7.38,4.41,4.75,8.48-7.87,5.09,5.49Z"/><path d="M124.4,88.15,102.64,60l7.36-5.7,21.76,28.14Z"/><path d="M135.08,46.41l15,23.72-7.78,4.93-15-23.72L119,56.58l-4-6.33,24.34-15.41,4,6.33Z"/><path d="M161.09,63.69l-15.46-32,18.46-8.91,3.25,6.74-10.07,4.86,2.88,6,9.77-4.71,3.25,6.74-9.76,4.71,2.81,5.84,10.42-5,3.26,6.75Z"/><path d="M201.88,46.72l-4.83-8.44A5,5,0,0,0,194.8,36a4.82,4.82,0,0,0-3.15.24l-2.31.78,4.26,12.55-8.81,3L173.35,18.85l13.5-4.58a15.79,15.79,0,0,1,5.36-.94,11.11,11.11,0,0,1,4.34.91,9.42,9.42,0,0,1,3.2,2.36,9.94,9.94,0,0,1,2,3.46,9,9,0,0,1,.46,2.63,9.13,9.13,0,0,1-.33,2.75A8.88,8.88,0,0,1,200.68,28a7.76,7.76,0,0,1-2.07,2.09,5.62,5.62,0,0,1,3.93.77,9.79,9.79,0,0,1,2.69,2.92l5.92,9.8ZM193.13,24a3.62,3.62,0,0,0-1.87-2.08,3.91,3.91,0,0,0-3.16-.12L184.57,23l2.36,7,3.53-1.19a4,4,0,0,0,2.45-2A3.51,3.51,0,0,0,193.13,24Z"/><path d="M240.79,30.63a11.51,11.51,0,0,1-2,4.61,12.73,12.73,0,0,1-4,3.46,18.32,18.32,0,0,1-5.75,2,18.06,18.06,0,0,1-6,.19,13,13,0,0,1-5-1.78,11.61,11.61,0,0,1-3.6-3.55,13.9,13.9,0,0,1-2-5.11L208.16,7.75,217.31,6l4.29,22.74a5.66,5.66,0,0,0,2.24,3.9,5.11,5.11,0,0,0,3.83.72A5.17,5.17,0,0,0,231,31.31a5.58,5.58,0,0,0,.69-4.46L227.4,4.12l9.06-1.71,4.29,22.73A14.3,14.3,0,0,1,240.79,30.63Z"/><path d="M267.67,35.93l-9.52-21.56.79,21.87-9.31.34L248.35,1,260.29.6l9.48,21.56L269,.34l9.3-.34,1.29,35.5Z"/><path d="M312.49,37.71a25,25,0,0,1-3,.51,32.19,32.19,0,0,1-3.5.17,37.37,37.37,0,0,1-3.77-.23,20.86,20.86,0,0,1-7.24-2.06,15.68,15.68,0,0,1-5.29-4.23,16.41,16.41,0,0,1-3-6.13,20.75,20.75,0,0,1-.47-7.76,20.87,20.87,0,0,1,2.15-7.46,16.58,16.58,0,0,1,4.32-5.32,15.93,15.93,0,0,1,6.09-3,20.65,20.65,0,0,1,7.52-.45,21.41,21.41,0,0,1,3.41.67,23,23,0,0,1,3.23,1.18,16.44,16.44,0,0,1,2.84,1.64,10.65,10.65,0,0,1,2.18,2.1l-5.94,4.75a6.83,6.83,0,0,0-2.65-1.93,11.7,11.7,0,0,0-3.38-.91,9,9,0,0,0-3.59.3,8,8,0,0,0-3.1,1.74,10.13,10.13,0,0,0-2.31,3.14,14,14,0,0,0-1.23,4.6,14,14,0,0,0,.19,4.78,9.57,9.57,0,0,0,1.57,3.51,7.69,7.69,0,0,0,2.64,2.27,9.69,9.69,0,0,0,3.44,1,10.15,10.15,0,0,0,1.32.05,5.62,5.62,0,0,0,1.34-.14L306.8,25,302,24.43l.83-7.44,14,1.55-2,18.36A11.37,11.37,0,0,1,312.49,37.71Z"/></svg>