<svg id="Layer_1" data-name="Layer 1" xmlns="http://www.w3.org/2000/svg" viewBox="0 0 361.59 164.09"><path d="M350.59,30.86C343,19.37,325.68,10.48,309.3,21.3a48.29,48.29,0,0,0-8.86,7.84A48.44,48.44,0,0,0,297,17.44C288.89-.42,269.52-2,257,3.67,243.7,7.37,229.9,21.07,235.13,40A48.45,48.45,0,0,0,240,51.08a48.47,48.47,0,0,0-12.16-.36c-19.5,2.22-27,20.14-25.47,33.83-.59,13.77,8.18,31.13,27.79,32A48.62,48.62,0,0,0,242,115.4a47.69,47.69,0,0,0-4,11.23c-3.91,19.23,10.8,31.93,24.31,34.68,12.91,4.81,32.13,1.84,39-16.54a48.25,48.25,0,0,0,2.55-11.47,47.81,47.81,0,0,0,9.31,7.15c17.08,9.66,33.71-.41,40.49-12.4,8.57-10.79,11.68-30-3.67-42.22a47.74,47.74,0,0,0-10-5.91,48.29,48.29,0,0,0,9.8-6.72c14.47-13.26,10-32.18.72-42.34Z" fill="none" stroke="#5a7cbe" stroke-width="1.46"/><path d="M350.56,30.88C343,19.4,325.65,10.51,309.28,21.33a48.13,48.13,0,0,0-8.84,7.83A48.35,48.35,0,0,0,297,17.47C288.89-.38,269.53-2,257,3.71,243.72,7.4,229.93,21.1,235.16,40A48,48,0,0,0,240,51.1a48.42,48.42,0,0,0-12.15-.37c-19.5,2.22-27,20.13-25.46,33.82-.59,13.76,8.17,31.12,27.78,32a48.09,48.09,0,0,0,11.88-1.16,47.85,47.85,0,0,0-4,11.23c-3.91,19.22,10.8,31.91,24.3,34.66,12.9,4.82,32.11,1.84,39-16.53a48.28,48.28,0,0,0,2.55-11.46,47.7,47.7,0,0,0,9.3,7.14c17.08,9.66,33.69-.4,40.48-12.39,8.57-10.79,11.67-30-3.67-42.21a48.15,48.15,0,0,0-10-5.9,47.89,47.89,0,0,0,9.8-6.72c14.46-13.25,10-32.16.72-42.32Z" fill="#94b0dd"/><path d="M350.56,30.88C343,19.4,325.65,10.51,309.28,21.33a48.13,48.13,0,0,0-8.84,7.83A48.35,48.35,0,0,0,297,17.47C288.89-.38,269.53-2,257,3.71,243.72,7.4,229.93,21.1,235.16,40A48,48,0,0,0,240,51.1a48.42,48.42,0,0,0-12.15-.37c-19.5,2.22-27,20.13-25.46,33.82-.59,13.76,8.17,31.12,27.78,32a48.09,48.09,0,0,0,11.88-1.16,47.85,47.85,0,0,0-4,11.23c-3.91,19.22,10.8,31.91,24.3,34.66,12.9,4.82,32.11,1.84,39-16.53a48.28,48.28,0,0,0,2.55-11.46,47.7,47.7,0,0,0,9.3,7.14c17.08,9.66,33.69-.4,40.48-12.39,8.57-10.79,11.67-30-3.67-42.21a48.15,48.15,0,0,0-10-5.9,47.89,47.89,0,0,0,9.8-6.72c14.46-13.25,10-32.16.72-42.32Z" fill="none" stroke="#5a7cbe" stroke-width="0.39"/><path d="M260,56.8a81.78,81.78,0,0,0-20-5.74c.7,1.23,1.46,2.45,2.26,3.66A66.81,66.81,0,0,1,260,56.8Z" fill="#5a7cbe"/><path d="M260,56.8a81.78,81.78,0,0,0-20-5.74c.7,1.23,1.46,2.45,2.26,3.66A66.81,66.81,0,0,1,260,56.8Z" fill="none" stroke="#5a7cbe" stroke-width="0.97"/><path d="M301.14,34.16c-.17-1.72-.39-3.41-.68-5.06-11.17,12.32-20,31.56-17.88,42.4.1-10.66,8.42-26.49,18.56-37.34Z" fill="#5a7cbe"/><path d="M301.14,34.16c-.17-1.72-.39-3.41-.68-5.06-11.17,12.32-20,31.56-17.88,42.4.1-10.66,8.42-26.49,18.56-37.34Z" fill="none" stroke="#5a7cbe" stroke-width="0.97"/><path d="M245,110q-1.64,2.72-3,5.46c13.74-2.91,29-10.76,36.2-19.18-7,6.54-20.48,11.8-33.23,13.72Z" fill="#5a7cbe"/><path d="M245,110q-1.64,2.72-3,5.46c13.74-2.91,29-10.76,36.2-19.18-7,6.54-20.48,11.8-33.23,13.72Z" fill="none" stroke="#5a7cbe" stroke-width="0.97"/><path d="M283.17,97.16c1.4,11.07,10.42,26.26,20.76,36.17.19-1.72.31-3.5.38-5.3-10-8.75-18.81-21.12-21.14-30.87Z" fill="#5a7cbe"/><path d="M283.17,97.16c1.4,11.07,10.42,26.26,20.76,36.17.19-1.72.31-3.5.38-5.3-10-8.75-18.81-21.12-21.14-30.87Z" fill="none" stroke="#5a7cbe" stroke-width="0.97"/><path d="M336.83,81.65c1.11-.52,2.21-1.06,3.26-1.62a81.82,81.82,0,0,0-25.21-6.57,82.76,82.76,0,0,1,21.95,8.19Z" fill="#5a7cbe"/><path d="M336.83,81.65c1.11-.52,2.21-1.06,3.26-1.62a81.82,81.82,0,0,0-25.21-6.57,82.76,82.76,0,0,1,21.95,8.19Z" fill="none" stroke="#5a7cbe" stroke-width="0.97"/><path d="M281.51,92a10,10,0,1,0-10-10,10,10,0,0,0,10,10Z" fill="#fbef82"/><path d="M281.51,92a10,10,0,1,0-10-10,10,10,0,0,0,10,10Z" fill="none" stroke="#ffd75d" stroke-width="1.17"/><path d="M283.07,86.34a4.57,4.57,0,1,0-5.86-2.73,4.58,4.58,0,0,0,5.86,2.73Z" fill="#382213"/><path d="M283.07,86.34a4.57,4.57,0,1,0-5.86-2.73,4.58,4.58,0,0,0,5.86,2.73Z" fill="none" stroke="#f7f1a9" stroke-width="1.96"/><path d="M11.83,66.52a1.5,1.5,0,1,0,1.29,2.71A29.69,29.69,0,0,1,26,66.31c5.56,0,8.19,2.28,8.19,6.27,0,6.13-4.7,13.12-10.62,18.68S10.34,101,4.92,101C3.63,101,3,100.38,3,99.24c0-2.5,2.07-7.48,4.92-12.62,3-5.34,6.77-10.9,10.27-14.4a1.54,1.54,0,0,0,0-2.13,1.64,1.64,0,0,0-2.21,0c-3.14,3.13-7.63,9.55-10.7,15.11C2.07,91,0,96.46,0,99.24c0,3.14,1.64,4.7,4.92,4.7,5.91,0,13.75-3.92,20.74-10.47,6.63-6.21,11.55-14.12,11.55-20.89,0-5.92-4.07-9.27-11.19-9.27a32.38,32.38,0,0,0-14.19,3.21ZM55.28,96.1a1.44,1.44,0,0,0-1.57-2.42c-3.07,2.07-5.78,3.92-8.2,5.35-2.28,1.28-4.28,2.13-6.2,2.13a4,4,0,0,1-4-2.78L40.74,95c6.77-4.13,9.12-6.48,9.12-8.91S48,82.27,45.37,82.27a12.77,12.77,0,0,0-9.13,4.57,14.51,14.51,0,0,0-4.13,9.55c0,4.42,3,7.63,7.2,7.63a15.74,15.74,0,0,0,7.56-2.5,92.86,92.86,0,0,0,8.41-5.42Zm-17-7.34a10,10,0,0,1,7.06-3.63c1,0,1.64.35,1.64,1,0,1.14-2.57,3.28-7.7,6.49L35,95.25a12.59,12.59,0,0,1,3.28-6.49Zm44.82,12.33c3.49-1.92,8.33-5,15.25-9.62A1.4,1.4,0,0,0,99,90.26a1.56,1.56,0,0,0-1.5-1.5,1.33,1.33,0,0,0-.85.29c-6.77,4.49-11.55,7.55-15,9.41-3.07,1.71-4.92,2.49-6.06,2.49-4.13,0-7.7-6.2-7.7-13.33,0-2.71.93-3.56,3.35-5.06,5.56-3.14,11-6.06,16-8.77s9.77-5.27,13.76-7.48a1.38,1.38,0,0,0,.78-1.36,1.46,1.46,0,0,0-2.21-1.21C95.6,66,91,68.45,85.9,71.16c-6.2,3.35-16,8.26-19.17,11,3.35-6.91,6.84-13.11,9.7-16.18a1.7,1.7,0,0,0,.35-1,1.46,1.46,0,0,0-1.5-1.5,1.42,1.42,0,0,0-1.14.5c-2.85,3.2-6.63,9.69-10.12,16.82-3.42,6.91-6.7,14.54-9,20.46a3.05,3.05,0,0,0-.14.78,1.5,1.5,0,0,0,1.5,1.5,1.45,1.45,0,0,0,1.42-1c1.78-4.85,4.42-11,7.27-17.11A15.3,15.3,0,0,0,65,87.34c0,9.4,4.63,16.6,10.69,16.6,1.43,0,3.71-.78,7.49-2.85ZM119.68,96a17.22,17.22,0,0,0,11.69-4.92,1.41,1.41,0,0,0-2-2A13.94,13.94,0,0,1,120,93.25a8,8,0,0,1-1.57-.14,15.11,15.11,0,0,0,.86-5.06c0-4.42-2.14-7.13-5.63-7.13a5.49,5.49,0,0,0-5.49,5.85c0,3.63,2.49,6.77,6.27,8.26-2.07,3.5-5.42,6.06-8.7,6.06-2.78,0-4.63-1.85-4.63-5.13A13,13,0,0,1,106.5,85.7a1.43,1.43,0,0,0-1.71-2.28A15.81,15.81,0,0,0,98.23,96c0,4.71,2.85,8,7.48,8,4.42,0,9-3.42,11.48-8.12a14.34,14.34,0,0,0,2.49.21ZM111,86.77a2.72,2.72,0,0,1,2.64-3c1.92,0,2.78,1.71,2.78,4.28a13,13,0,0,1-.79,4.35c-2.49-.93-4.63-2.78-4.63-5.63Zm57,15.68a189.43,189.43,0,0,1,7.91-21.74c2.78-6.63,4.85-11.91,4.85-14.69,0-1.92-1-2.56-2-2.56-1.85,0-4.35,1.57-7.06,4.49a98,98,0,0,0-7.55,9.41c-2.64,3.7-5.35,7.62-7.77,10.69-2,2.42-3.71,4.56-5.06,4.56-.86,0-.86-1-.86-2.28,0-2.71,1.14-7.13,2.21-11.55,1.14-4.7,2.28-9.41,2.28-12.33,0-2.71-1.07-3.42-2.28-3.42-1.42,0-3.49,1.42-5.77,4.28A73.92,73.92,0,0,0,141,76.43c-2.56,4.49-5.13,9.55-7.2,14.11s-3.84,8.56-4.7,10.77a1.6,1.6,0,0,0,3,1.14c.79-2.28,2.43-6.13,4.49-10.55s4.64-9.48,7.13-13.9a73.62,73.62,0,0,1,5.63-8.77,16.09,16.09,0,0,1,2.43-2.71c0,2.64-1.14,7.06-2.21,11.48-1.14,4.7-2.28,9.41-2.28,12.33,0,3.63,1.49,5.42,3.92,5.42,1.92,0,4.63-2.14,7.55-5.78,2.5-3.06,5.28-7,7.91-10.76a89.91,89.91,0,0,1,7.28-9.12A14.74,14.74,0,0,1,177.5,67c-.43,2.71-2.28,7.13-4.49,12.54a183.56,183.56,0,0,0-8.06,22.1,1.56,1.56,0,0,0,3,.86ZM196.49,96a17.23,17.23,0,0,0,11.69-4.92,1.41,1.41,0,0,0-2-2,13.94,13.94,0,0,1-9.41,4.13,8,8,0,0,1-1.57-.14,15.11,15.11,0,0,0,.86-5.06c0-4.42-2.14-7.13-5.63-7.13a5.5,5.5,0,0,0-5.49,5.85c0,3.63,2.5,6.77,6.27,8.26-2.06,3.5-5.42,6.06-8.69,6.06-2.78,0-4.64-1.85-4.64-5.13A13,13,0,0,1,183.3,85.7a1.43,1.43,0,0,0-1.71-2.28A15.81,15.81,0,0,0,175,96c0,4.71,2.85,8,7.49,8,4.42,0,9-3.42,11.47-8.12a14.46,14.46,0,0,0,2.5.21Zm-8.7-9.26a2.73,2.73,0,0,1,2.64-3c1.92,0,2.78,1.71,2.78,4.28a13,13,0,0,1-.79,4.35c-2.49-.93-4.63-2.78-4.63-5.63Z" fill="#575756"/><path d="M25,132.82h2.49a6.59,6.59,0,0,1,2.51.43,5.4,5.4,0,0,1,1.76,1.16,4.53,4.53,0,0,1,1,1.64,5.48,5.48,0,0,1,0,3.8,4.53,4.53,0,0,1-1,1.64A5.4,5.4,0,0,1,30,142.65a6.59,6.59,0,0,1-2.51.43H25V132.82Zm-1.29,11.44H27.9a7.48,7.48,0,0,0,2.36-.39,6.43,6.43,0,0,0,2.14-1.19,5.9,5.9,0,0,0,1.54-2,6.73,6.73,0,0,0,0-5.51,5.94,5.94,0,0,0-1.54-2A6.61,6.61,0,0,0,30.26,132a7.48,7.48,0,0,0-2.36-.39H23.71v12.62Zm13.76-4.81a2.2,2.2,0,0,1,.24-1,3,3,0,0,1,.64-.86,3.2,3.2,0,0,1,.93-.59,2.87,2.87,0,0,1,1.11-.23,2.66,2.66,0,0,1,2,.74,2.71,2.71,0,0,1,.71,1.94Zm6.91,1v-.54a4.77,4.77,0,0,0-.27-1.61,3.79,3.79,0,0,0-.77-1.32,3.9,3.9,0,0,0-1.26-.9,4.17,4.17,0,0,0-4.68.91,4.19,4.19,0,0,0-.89,1.39,4.58,4.58,0,0,0-.33,1.75,4.49,4.49,0,0,0,.33,1.74,4.27,4.27,0,0,0,.9,1.39,3.94,3.94,0,0,0,1.37.92,4.43,4.43,0,0,0,1.72.33,4.35,4.35,0,0,0,3.58-1.76l-.91-.75a3.36,3.36,0,0,1-1,1,3,3,0,0,1-1.63.43,2.76,2.76,0,0,1-1.16-.23,3,3,0,0,1-1-.63,3.37,3.37,0,0,1-.66-.95,3.87,3.87,0,0,1-.3-1.18Zm2.12,3.85h1.18V140A4,4,0,0,1,48,138.2a2.83,2.83,0,0,1,.74-1,1.71,1.71,0,0,1,.79-.39,4,4,0,0,1,.49-.08,1.85,1.85,0,0,1,1.66.68,3.51,3.51,0,0,1,.44,1.94v4.87h1.18v-4.44a4.66,4.66,0,0,1,.13-1.13,2.8,2.8,0,0,1,.4-1,2,2,0,0,1,.72-.69,2.18,2.18,0,0,1,1.1-.26,1.85,1.85,0,0,1,1.66.68,3.5,3.5,0,0,1,.45,1.94v4.87h1.17V139a3.49,3.49,0,0,0-.76-2.42,3.07,3.07,0,0,0-2.37-.85,3.13,3.13,0,0,0-1.62.47,2.81,2.81,0,0,0-1.13,1.26,3,3,0,0,0-.52-.87,2.52,2.52,0,0,0-.67-.53,2.59,2.59,0,0,0-.74-.25,3.86,3.86,0,0,0-.72-.08,3.41,3.41,0,0,0-1.51.38,2.79,2.79,0,0,0-1.18,1.1h0v-1.26H46.41c0,.31.05.62.07.93s0,.61,0,.92v6.49Zm15.92-4.81a2.2,2.2,0,0,1,.24-1,3.16,3.16,0,0,1,.64-.86,3.12,3.12,0,0,1,.94-.59,2.82,2.82,0,0,1,1.1-.23,2.5,2.5,0,0,1,2.71,2.68Zm6.92,1v-.54a4.77,4.77,0,0,0-.27-1.61,4,4,0,0,0-.78-1.32A3.75,3.75,0,0,0,67,136a4.19,4.19,0,0,0-1.7-.34,4.12,4.12,0,0,0-3,1.25,4.19,4.19,0,0,0-.89,1.39,4.78,4.78,0,0,0-.32,1.75,4.49,4.49,0,0,0,.33,1.74,4.27,4.27,0,0,0,.9,1.39,3.9,3.9,0,0,0,1.36.92,4.43,4.43,0,0,0,1.72.33,4.53,4.53,0,0,0,1.94-.41A4.46,4.46,0,0,0,69,142.71l-.91-.75a3.15,3.15,0,0,1-1,1,3,3,0,0,1-1.63.43,2.83,2.83,0,0,1-1.16-.23,3,3,0,0,1-.94-.63,3.33,3.33,0,0,1-1-2.13Zm2-4.49c0,.31,0,.63.06,1s0,.63,0,.85v6.51h1.17V140A3.67,3.67,0,0,1,73,138.2a2.82,2.82,0,0,1,.81-1,2,2,0,0,1,.87-.39l.5-.08a2,2,0,0,1,1.78.74,4,4,0,0,1,.48,2.13v4.62H78.6V139a3.49,3.49,0,0,0-.76-2.42,3.06,3.06,0,0,0-2.37-.85,3,3,0,0,0-.83.12,3.63,3.63,0,0,0-.79.32,3.37,3.37,0,0,0-.68.49,2.9,2.9,0,0,0-.5.62h0v-.66c0-.22,0-.45,0-.67Zm15.6,0H80.62V137h4.64l-4.89,6.41v.86h6.78v-1.07H82.08L87,136.77v-.85Zm9.33,0H95l-2.65,7h0l-2.67-7H88.21l3.38,8.34h1.32l3.39-8.34Zm2.08,3.53a2.2,2.2,0,0,1,.24-1,3,3,0,0,1,.64-.86,3.12,3.12,0,0,1,.94-.59,2.78,2.78,0,0,1,1.1-.23,2.66,2.66,0,0,1,2,.74,2.71,2.71,0,0,1,.71,1.94Zm6.91,1v-.54a4.77,4.77,0,0,0-.26-1.61,3.75,3.75,0,0,0-2-2.22,4.38,4.38,0,0,0-3.36,0,4.12,4.12,0,0,0-1.33.92,4.19,4.19,0,0,0-.89,1.39,4.58,4.58,0,0,0-.32,1.75,4.49,4.49,0,0,0,.33,1.74,4.27,4.27,0,0,0,.9,1.39,3.9,3.9,0,0,0,1.36.92,4.43,4.43,0,0,0,1.72.33,4.35,4.35,0,0,0,3.58-1.76l-.91-.75a3.25,3.25,0,0,1-1,1,3,3,0,0,1-1.63.43,2.8,2.8,0,0,1-1.16-.23,2.88,2.88,0,0,1-.94-.63,3,3,0,0,1-.66-.95,3.61,3.61,0,0,1-.31-1.18Zm2.18,3.85h1.18v-4.71a2.91,2.91,0,0,1,.15-.89,2.79,2.79,0,0,1,.47-.86,2.39,2.39,0,0,1,2-.92,2,2,0,0,1,.68.09l.23-1.16a3.25,3.25,0,0,0-.88-.11,3,3,0,0,0-1,.16,2.67,2.67,0,0,0-.77.4,2.48,2.48,0,0,0-.56.56,2.32,2.32,0,0,0-.36.65h0v-1.55H107.4c0,.6,0,1.1,0,1.48s0,.75,0,1.12v5.74ZM119,137.2a2.46,2.46,0,0,0-1.16-1.16,4,4,0,0,0-1.62-.34,4.36,4.36,0,0,0-1.14.16,3.2,3.2,0,0,0-1,.45,2.29,2.29,0,0,0-.7.78,2.41,2.41,0,0,0-.26,1.13,1.82,1.82,0,0,0,.26,1,2.31,2.31,0,0,0,.59.65,2.84,2.84,0,0,0,.71.37l.58.18,1.14.27a4,4,0,0,1,1.13.43,1,1,0,0,1,.46.9,1.19,1.19,0,0,1-.17.63,1.39,1.39,0,0,1-.44.43,1.9,1.9,0,0,1-.64.25,2.87,2.87,0,0,1-.71.08,2.34,2.34,0,0,1-1.29-.34,2.67,2.67,0,0,1-.9-.9l-1,.69a3.39,3.39,0,0,0,1.42,1.26,4.44,4.44,0,0,0,1.79.36,5.3,5.3,0,0,0,1.19-.14,3.44,3.44,0,0,0,1.05-.45,2.48,2.48,0,0,0,.73-.81,2.34,2.34,0,0,0,.27-1.16,2,2,0,0,0-.58-1.49,2.79,2.79,0,0,0-1.45-.79l-1.19-.29a4.18,4.18,0,0,1-1.23-.46.94.94,0,0,1-.41-.86,1.05,1.05,0,0,1,.15-.57,1.22,1.22,0,0,1,.4-.38,1.72,1.72,0,0,1,.56-.22,2.7,2.7,0,0,1,.62-.08,1.81,1.81,0,0,1,1.08.31,2.13,2.13,0,0,1,.72.82l1.05-.7Zm9.09,4.19a3,3,0,0,1-.63,1.05,2.83,2.83,0,0,1-1,.7,3,3,0,0,1-1.31.26,3.1,3.1,0,0,1-1.31-.26,2.88,2.88,0,0,1-1-.7,3.43,3.43,0,0,1-.62-1.05,4,4,0,0,1,0-2.6,3.21,3.21,0,0,1,.62-1,2.91,2.91,0,0,1,1-.71,3.26,3.26,0,0,1,1.31-.26,3.19,3.19,0,0,1,1.31.26,2.85,2.85,0,0,1,1,.71,2.78,2.78,0,0,1,.63,1,3.79,3.79,0,0,1,0,2.6Zm1.18-3a4.27,4.27,0,0,0-.92-1.39A4.21,4.21,0,0,0,127,136a5,5,0,0,0-3.56,0,4.21,4.21,0,0,0-1.4.92,4.27,4.27,0,0,0-.92,1.39,4.58,4.58,0,0,0-.33,1.75,4.49,4.49,0,0,0,.33,1.74,4.17,4.17,0,0,0,.92,1.39,4.06,4.06,0,0,0,1.4.92,5,5,0,0,0,3.56,0,4.06,4.06,0,0,0,1.4-.92,4.17,4.17,0,0,0,.92-1.39,4.49,4.49,0,0,0,.33-1.74,4.58,4.58,0,0,0-.33-1.75Zm2.5,5.92H133v-4.71a2.91,2.91,0,0,1,.15-.89,2.82,2.82,0,0,1,.48-.86,2.39,2.39,0,0,1,2-.92,1.92,1.92,0,0,1,.67.09l.24-1.16a3.31,3.31,0,0,0-.88-.11,3,3,0,0,0-1,.16,2.62,2.62,0,0,0-.76.4,2.48,2.48,0,0,0-.56.56,2.32,2.32,0,0,0-.36.65h0v-1.55h-1.15c0,.6,0,1.1,0,1.48s0,.75,0,1.12v5.74Zm6.8-5.52a3.26,3.26,0,0,1,1.64-1.71,2.93,2.93,0,0,1,1.22-.26,3.27,3.27,0,0,1,1.32.26,3,3,0,0,1,1.62,1.71,3.41,3.41,0,0,1,.22,1.24,3.27,3.27,0,0,1-.23,1.32,2.82,2.82,0,0,1-.68,1,3.28,3.28,0,0,1-2.25.88,2.93,2.93,0,0,1-1.22-.26,3.22,3.22,0,0,1-1-.69,3.32,3.32,0,0,1-.66-1,3.32,3.32,0,0,1,0-2.48Zm-1.33,8.12a5.3,5.3,0,0,0,1.79,1.27,5.74,5.74,0,0,0,2.22.41,5.26,5.26,0,0,0,2.28-.43,3.77,3.77,0,0,0,1.37-1.07,3.65,3.65,0,0,0,.66-1.41,6.87,6.87,0,0,0,.17-1.44v-8.27h-1.18v1.39h0a3.87,3.87,0,0,0-.77-.79,3.41,3.41,0,0,0-.83-.49,3.35,3.35,0,0,0-.84-.25,4.5,4.5,0,0,0-.79-.08,4.26,4.26,0,0,0-1.7.33,4.06,4.06,0,0,0-1.34.92,4.35,4.35,0,0,0-.88,1.37,4.55,4.55,0,0,0-.32,1.7,4.15,4.15,0,0,0,.34,1.69,4.1,4.1,0,0,0,.92,1.35,4.71,4.71,0,0,0,1.38.88,4.6,4.6,0,0,0,1.71.32,4.29,4.29,0,0,0,1.73-.36,3.26,3.26,0,0,0,1.39-1.21h0v1.5a4.75,4.75,0,0,1-.17,1.27,2.67,2.67,0,0,1-.55,1,2.6,2.6,0,0,1-1,.71,4,4,0,0,1-1.51.26,4.06,4.06,0,0,1-1.85-.42,3.68,3.68,0,0,1-1.34-1.12l-.88.93Zm18.31-2.6c0-.31,0-.64-.06-1s0-.63,0-.86v-6.5H154.3v4.28a3.67,3.67,0,0,1-.36,1.78,2.81,2.81,0,0,1-.81,1,2.24,2.24,0,0,1-.86.39,4,4,0,0,1-.5.07,2.91,2.91,0,0,1-1.1-.18,1.59,1.59,0,0,1-.69-.56,2.3,2.3,0,0,1-.37-.9,6.37,6.37,0,0,1-.1-1.23v-4.61h-1.18v5.29a3.5,3.5,0,0,0,.77,2.42,3.05,3.05,0,0,0,2.37.84,3.3,3.3,0,0,0,.82-.11,4.31,4.31,0,0,0,.8-.32,3.3,3.3,0,0,0,.67-.49,2.48,2.48,0,0,0,.5-.63h0c0,.23,0,.45,0,.67s0,.44,0,.67Zm2.53-8.34c0,.31,0,.63.06,1s0,.63,0,.85v6.51h1.17V140a3.67,3.67,0,0,1,.36-1.78,2.82,2.82,0,0,1,.81-1,2,2,0,0,1,.87-.39l.5-.08a2,2,0,0,1,1.78.74,4,4,0,0,1,.48,2.13v4.62h1.17V139a3.49,3.49,0,0,0-.76-2.42,3.06,3.06,0,0,0-2.37-.85,3,3,0,0,0-.83.12,3.63,3.63,0,0,0-.79.32,3.37,3.37,0,0,0-.68.49,2.9,2.9,0,0,0-.5.62h0v-.66c0-.22,0-.45,0-.67ZM169,138.74a3.26,3.26,0,0,1,1.64-1.71,2.93,2.93,0,0,1,1.22-.26,3.27,3.27,0,0,1,1.32.26,3,3,0,0,1,1.62,1.71A3.63,3.63,0,0,1,175,140a3.27,3.27,0,0,1-.23,1.32,2.82,2.82,0,0,1-.68,1,3.28,3.28,0,0,1-2.25.88,2.93,2.93,0,0,1-1.22-.26,3.22,3.22,0,0,1-1-.69,3.32,3.32,0,0,1-.66-1,3.32,3.32,0,0,1,0-2.48Zm-1.33,8.12a5.3,5.3,0,0,0,1.79,1.27,5.74,5.74,0,0,0,2.22.41,5.34,5.34,0,0,0,2.29-.43,3.81,3.81,0,0,0,1.36-1.07,3.65,3.65,0,0,0,.66-1.41,6.87,6.87,0,0,0,.17-1.44v-8.27H175v1.39h0a3.59,3.59,0,0,0-.76-.79,3.41,3.41,0,0,0-.83-.49,3.35,3.35,0,0,0-.84-.25,4.5,4.5,0,0,0-.79-.08,4.29,4.29,0,0,0-1.7.33,4.06,4.06,0,0,0-1.34.92,4.35,4.35,0,0,0-.88,1.37,4.55,4.55,0,0,0-.32,1.7,4.15,4.15,0,0,0,.34,1.69,4.1,4.1,0,0,0,.92,1.35,4.71,4.71,0,0,0,1.38.88,4.6,4.6,0,0,0,1.71.32,4.29,4.29,0,0,0,1.73-.36,3.24,3.24,0,0,0,1.38-1.21h0v1.5a4.75,4.75,0,0,1-.17,1.27,2.67,2.67,0,0,1-.55,1,2.6,2.6,0,0,1-1,.71,4,4,0,0,1-1.51.26,4.06,4.06,0,0,1-1.85-.42,3.68,3.68,0,0,1-1.34-1.12l-.88.93Z" fill="#575756"/><path d="M5,113.82H3.62l4.79,12.62H9.69l4.92-12.62H13.22L9.09,124.51h0L5,113.82Zm10.76,7.81a2.2,2.2,0,0,1,.24-1,3.16,3.16,0,0,1,.64-.86,3.12,3.12,0,0,1,.94-.59,2.82,2.82,0,0,1,1.1-.23,2.66,2.66,0,0,1,2,.74,2.71,2.71,0,0,1,.71,1.94Zm6.92,1v-.54a4.77,4.77,0,0,0-.27-1.61,4,4,0,0,0-.78-1.32,3.86,3.86,0,0,0-1.25-.9,4.19,4.19,0,0,0-1.7-.34,4.12,4.12,0,0,0-3,1.25,4.19,4.19,0,0,0-.89,1.39,4.78,4.78,0,0,0-.32,1.75,4.49,4.49,0,0,0,.33,1.74,4.27,4.27,0,0,0,.9,1.39,3.9,3.9,0,0,0,1.36.92,4.43,4.43,0,0,0,1.72.33,4.35,4.35,0,0,0,3.58-1.76l-.91-.75a3.15,3.15,0,0,1-1,1,3,3,0,0,1-1.63.43,2.8,2.8,0,0,1-1.16-.23,3,3,0,0,1-.94-.63,3.17,3.17,0,0,1-.66-1,3.37,3.37,0,0,1-.3-1.18Zm2.17,3.85h1.18v-4.71a2.91,2.91,0,0,1,.15-.89,2.79,2.79,0,0,1,.47-.86,2.39,2.39,0,0,1,2-.92,2,2,0,0,1,.68.09l.23-1.16a3.23,3.23,0,0,0-.87-.11,3,3,0,0,0-1,.16,2.67,2.67,0,0,0-.77.4,2.48,2.48,0,0,0-.56.56,3,3,0,0,0-.36.65h0V118.1H24.82c0,.6,0,1.1,0,1.48s0,.75,0,1.12v5.74Zm6-8.34c0,.31,0,.63.06,1s0,.63,0,.85v6.51h1.17v-4.28a3.67,3.67,0,0,1,.36-1.78,2.82,2.82,0,0,1,.81-1,2,2,0,0,1,.86-.39l.5-.08a2,2,0,0,1,1.79.74,4,4,0,0,1,.48,2.13v4.62h1.17v-5.29a3.49,3.49,0,0,0-.76-2.42,3.09,3.09,0,0,0-2.37-.85,3,3,0,0,0-.83.12,3.71,3.71,0,0,0-.8.32,3.3,3.3,0,0,0-.67.49,2.62,2.62,0,0,0-.5.62h0c0-.22,0-.44,0-.66s0-.45,0-.67Zm10.72,3.53a2.2,2.2,0,0,1,.24-1,3.16,3.16,0,0,1,.64-.86,3.12,3.12,0,0,1,.94-.59,2.82,2.82,0,0,1,1.1-.23,2.66,2.66,0,0,1,2,.74,2.71,2.71,0,0,1,.71,1.94Zm6.92,1v-.54a4.77,4.77,0,0,0-.27-1.61,4,4,0,0,0-.78-1.32,3.86,3.86,0,0,0-1.25-.9,4.19,4.19,0,0,0-1.7-.34,4.12,4.12,0,0,0-3,1.25,4.19,4.19,0,0,0-.89,1.39,4.78,4.78,0,0,0-.32,1.75,4.49,4.49,0,0,0,.33,1.74,4.27,4.27,0,0,0,.9,1.39,3.9,3.9,0,0,0,1.36.92,4.43,4.43,0,0,0,1.72.33,4.35,4.35,0,0,0,3.58-1.76l-.91-.75a3.15,3.15,0,0,1-1,1,3,3,0,0,1-1.63.43,2.8,2.8,0,0,1-1.16-.23,3.08,3.08,0,0,1-1.6-1.58,3.37,3.37,0,0,1-.3-1.18Zm6.34-4.49H52.48v-2.35H51.31v2.35H49.54v1.07h1.77v5.25a2.77,2.77,0,0,0,.19,1.13,1.84,1.84,0,0,0,.5.67,1.64,1.64,0,0,0,.67.34,2.92,2.92,0,0,0,.7.09,3.82,3.82,0,0,0,1.59-.3l-.05-1.09a2.78,2.78,0,0,1-.59.23,2.34,2.34,0,0,1-.63.09,1.93,1.93,0,0,1-.49-.06.91.91,0,0,1-.38-.22,1.06,1.06,0,0,1-.25-.46,2.56,2.56,0,0,1-.09-.75v-4.92h2.41V118.1Zm7.82,0H56.37v1.07H61l-4.88,6.41v.86h6.77v-1.07H57.83L62.71,119v-.85Zm6.59,0H66.89v-2.35H65.72v2.35H64v1.07h1.77v5.25a2.77,2.77,0,0,0,.19,1.13,1.84,1.84,0,0,0,.5.67,1.64,1.64,0,0,0,.67.34,2.94,2.94,0,0,0,.71.09,3.81,3.81,0,0,0,1.58-.3l-.05-1.09a2.78,2.78,0,0,1-.59.23,2.27,2.27,0,0,1-.62.09,1.83,1.83,0,0,1-.49-.06.94.94,0,0,1-.39-.22,1.18,1.18,0,0,1-.25-.46,2.56,2.56,0,0,1-.09-.75v-4.92H69.3V118.1Zm10.44,0h-2V116a5.53,5.53,0,0,1,.06-.84,1.94,1.94,0,0,1,.21-.68,1.13,1.13,0,0,1,.46-.46,1.82,1.82,0,0,1,.79-.16,2.38,2.38,0,0,1,.46,0,3,3,0,0,1,.45.09l.21-1.07a4.17,4.17,0,0,0-.51-.09,3.26,3.26,0,0,0-2.54.67,3.08,3.08,0,0,0-.76,2.36v2.28H74.82v1.07h1.77v7.27h1.17v-7.27h2V118.1Zm8.76,8.34c0-.31,0-.64-.06-1s0-.63,0-.86v-6.5H87.24v4.28a3.67,3.67,0,0,1-.36,1.78,2.92,2.92,0,0,1-.81,1,2.22,2.22,0,0,1-.87.39,3.75,3.75,0,0,1-.5.07,2.89,2.89,0,0,1-1.09-.18,1.68,1.68,0,0,1-.7-.56,2.3,2.3,0,0,1-.36-.9,6.31,6.31,0,0,1-.11-1.23V118.1H81.27v5.29a3.49,3.49,0,0,0,.76,2.42,3.05,3.05,0,0,0,2.37.84,3.38,3.38,0,0,0,.83-.11,4.21,4.21,0,0,0,.79-.32,3.37,3.37,0,0,0,.68-.49,2.72,2.72,0,0,0,.5-.63h0v.67c0,.22,0,.44.05.67ZM86,115.54a.81.81,0,0,0,.66.28.84.84,0,0,0,.66-.28.92.92,0,0,0,0-1.26.84.84,0,0,0-.66-.28.81.81,0,0,0-.66.28.92.92,0,0,0,0,1.26Zm-3.42,0a.81.81,0,0,0,.66.28.84.84,0,0,0,.66-.28.95.95,0,0,0,0-1.26.84.84,0,0,0-.66-.28.81.81,0,0,0-.66.28.92.92,0,0,0,0,1.26Zm8.6,10.9h1.17v-4.71a2.91,2.91,0,0,1,.15-.89A2.62,2.62,0,0,1,93,120a2.46,2.46,0,0,1,.8-.66,2.42,2.42,0,0,1,1.16-.26,1.92,1.92,0,0,1,.67.09l.24-1.16a3.31,3.31,0,0,0-.88-.11,3,3,0,0,0-1,.16,2.62,2.62,0,0,0-.76.4,2.48,2.48,0,0,0-.56.56,2.32,2.32,0,0,0-.36.65h0V118.1H91.1c0,.6,0,1.1,0,1.48s0,.75,0,1.12v5.74ZM103.09,113h-1.18v13.47h1.18v-4.39l4.33,4.39h1.82l-4.6-4.53,4.15-3.81H107l-3.94,3.76V113Zm13.84,10.6a3.27,3.27,0,0,1-.63,1.05,2.83,2.83,0,0,1-1,.7,3,3,0,0,1-1.31.26,3.1,3.1,0,0,1-1.31-.26,2.88,2.88,0,0,1-1-.7,3.43,3.43,0,0,1-.62-1.05,4,4,0,0,1,0-2.6,3.21,3.21,0,0,1,.62-1,2.91,2.91,0,0,1,1-.71A3.26,3.26,0,0,1,114,119a3.19,3.19,0,0,1,1.31.26,2.85,2.85,0,0,1,1,.71,3.06,3.06,0,0,1,.63,1,3.79,3.79,0,0,1,0,2.6Zm1.18-3a4.27,4.27,0,0,0-.92-1.39,4.21,4.21,0,0,0-1.4-.92,5,5,0,0,0-3.56,0,4.21,4.21,0,0,0-1.4.92,4.27,4.27,0,0,0-.92,1.39,4.58,4.58,0,0,0-.33,1.75,4.49,4.49,0,0,0,.33,1.74,4.17,4.17,0,0,0,.92,1.39,4.06,4.06,0,0,0,1.4.92,5,5,0,0,0,3.56,0,4.06,4.06,0,0,0,1.4-.92,4.17,4.17,0,0,0,.92-1.39,4.49,4.49,0,0,0,.33-1.74,4.58,4.58,0,0,0-.33-1.75Zm2.44,5.92h1.18v-4.28a4,4,0,0,1,.33-1.78,2.71,2.71,0,0,1,.74-1,1.71,1.71,0,0,1,.79-.39,4,4,0,0,1,.49-.08,1.85,1.85,0,0,1,1.66.68,3.51,3.51,0,0,1,.44,1.94v4.87h1.18V122a4.66,4.66,0,0,1,.13-1.13,2.8,2.8,0,0,1,.4-1,2,2,0,0,1,.72-.69,2.16,2.16,0,0,1,1.1-.26,1.85,1.85,0,0,1,1.66.68,3.51,3.51,0,0,1,.44,1.94v4.87H133v-5.29a3.45,3.45,0,0,0-.77-2.42,3.06,3.06,0,0,0-2.37-.85,3.12,3.12,0,0,0-1.61.47,2.81,2.81,0,0,0-1.13,1.26,2.85,2.85,0,0,0-.53-.87,2.48,2.48,0,0,0-.66-.53,2.59,2.59,0,0,0-.74-.25,3.86,3.86,0,0,0-.72-.08,3.41,3.41,0,0,0-1.51.38,2.81,2.81,0,0,0-1.19,1.1h0V118.1h-1.27c0,.31.05.62.07.93s0,.61,0,.92v6.49ZM143,123.57a3.27,3.27,0,0,1-.63,1.05,2.83,2.83,0,0,1-1,.7,3,3,0,0,1-1.31.26,3.34,3.34,0,0,1-2.39-1,3.42,3.42,0,0,1-.69-1.05,3.51,3.51,0,0,1,0-2.6,3.2,3.2,0,0,1,.69-1,3.3,3.3,0,0,1,1-.71,3.44,3.44,0,0,1,1.34-.26,3.19,3.19,0,0,1,1.31.26,2.85,2.85,0,0,1,1,.71,3.06,3.06,0,0,1,.63,1,3.79,3.79,0,0,1,0,2.6Zm-7.38,8h1.17v-6.52h0a3.12,3.12,0,0,0,.67.73,4.74,4.74,0,0,0,.82.5,4,4,0,0,0,.89.28,4.41,4.41,0,0,0,.86.09,4.71,4.71,0,0,0,1.79-.33,4.06,4.06,0,0,0,1.4-.92,4.17,4.17,0,0,0,.92-1.39,4.49,4.49,0,0,0,.33-1.74,4.58,4.58,0,0,0-.33-1.75,4.27,4.27,0,0,0-.92-1.39,4.21,4.21,0,0,0-1.4-.92,4.71,4.71,0,0,0-1.79-.33,4.41,4.41,0,0,0-.86.09,4,4,0,0,0-.89.29,4.74,4.74,0,0,0-.82.5,2.93,2.93,0,0,0-.67.73h0V118.1h-1.17v13.47Zm11.78-9.94a2.2,2.2,0,0,1,.24-1,3.16,3.16,0,0,1,.64-.86,3.12,3.12,0,0,1,.94-.59,2.82,2.82,0,0,1,1.1-.23,2.5,2.5,0,0,1,2.71,2.68Zm6.92,1v-.54a4.77,4.77,0,0,0-.27-1.61,4,4,0,0,0-.78-1.32,3.75,3.75,0,0,0-1.25-.9,4.19,4.19,0,0,0-1.7-.34,4.12,4.12,0,0,0-3,1.25,4.19,4.19,0,0,0-.89,1.39,4.78,4.78,0,0,0-.32,1.75,4.49,4.49,0,0,0,.33,1.74,4.27,4.27,0,0,0,.9,1.39,3.9,3.9,0,0,0,1.36.92,4.43,4.43,0,0,0,1.72.33,4.57,4.57,0,0,0,1.94-.41,4.46,4.46,0,0,0,1.64-1.35l-.91-.75a3.15,3.15,0,0,1-1,1,3,3,0,0,1-1.63.43,2.83,2.83,0,0,1-1.16-.23,3,3,0,0,1-.94-.63,3.33,3.33,0,0,1-1-2.13Zm6.34-4.49h-2.41v-2.35h-1.17v2.35h-1.77v1.07h1.77v5.25a2.77,2.77,0,0,0,.19,1.13,1.84,1.84,0,0,0,.5.67,1.64,1.64,0,0,0,.67.34,2.92,2.92,0,0,0,.7.09,3.82,3.82,0,0,0,1.59-.3l0-1.09a2.78,2.78,0,0,1-.59.23,2.34,2.34,0,0,1-.63.09,1.93,1.93,0,0,1-.49-.06,1,1,0,0,1-.38-.22,1.06,1.06,0,0,1-.25-.46,2.56,2.56,0,0,1-.09-.75v-4.92h2.41V118.1Zm2.26,3.53a2.2,2.2,0,0,1,.24-1,3,3,0,0,1,.64-.86,3.12,3.12,0,0,1,.94-.59,2.78,2.78,0,0,1,1.1-.23,2.66,2.66,0,0,1,2,.74,2.71,2.71,0,0,1,.71,1.94Zm6.91,1v-.54a4.77,4.77,0,0,0-.27-1.61,3.79,3.79,0,0,0-.77-1.32,3.9,3.9,0,0,0-1.26-.9,4.17,4.17,0,0,0-4.68.91,4.19,4.19,0,0,0-.89,1.39,4.58,4.58,0,0,0-.33,1.75A4.32,4.32,0,0,0,162,124a4,4,0,0,0,.9,1.39,3.81,3.81,0,0,0,1.36.92,4.43,4.43,0,0,0,1.72.33,4.35,4.35,0,0,0,3.58-1.76l-.91-.75a3.36,3.36,0,0,1-1,1,3,3,0,0,1-1.63.43,2.8,2.8,0,0,1-1.16-.23,3,3,0,0,1-.95-.63,3.37,3.37,0,0,1-.66-1,3.87,3.87,0,0,1-.3-1.18Zm2-4.49c0,.31,0,.63.06,1s0,.63,0,.85v6.51h1.18v-4.28a3.67,3.67,0,0,1,.36-1.78,2.71,2.71,0,0,1,.81-1,2,2,0,0,1,.86-.39l.5-.08a2,2,0,0,1,1.78.74,4,4,0,0,1,.48,2.13v4.62h1.18v-5.29a3.5,3.5,0,0,0-.77-2.42,3.06,3.06,0,0,0-2.37-.85,2.91,2.91,0,0,0-.82.12,3.71,3.71,0,0,0-.8.32,3.67,3.67,0,0,0-.68.49,2.84,2.84,0,0,0-.49.62h0c0-.22,0-.44,0-.66s0-.45,0-.67Zm14.11,0h-2.4v-2.35h-1.18v2.35h-1.76v1.07h1.76v5.25a2.76,2.76,0,0,0,.2,1.13,1.84,1.84,0,0,0,.5.67,1.58,1.58,0,0,0,.67.34,2.86,2.86,0,0,0,.7.09,3.82,3.82,0,0,0,1.59-.3l-.06-1.09a2.59,2.59,0,0,1-.59.23,2.27,2.27,0,0,1-.62.09,1.88,1.88,0,0,1-.49-.06.85.85,0,0,1-.38-.22,1.06,1.06,0,0,1-.25-.46,2.56,2.56,0,0,1-.09-.75v-4.92H186V118.1Zm2.26,3.53a2.2,2.2,0,0,1,.24-1,3.2,3.2,0,0,1,.65-.86,3.07,3.07,0,0,1,.93-.59,2.87,2.87,0,0,1,1.11-.23,2.64,2.64,0,0,1,2,.74,2.67,2.67,0,0,1,.71,1.94Zm6.92,1v-.54a4.77,4.77,0,0,0-.27-1.61,4,4,0,0,0-.78-1.32,3.75,3.75,0,0,0-1.25-.9,4.2,4.2,0,0,0-4.69.91,4.36,4.36,0,0,0-.89,1.39,4.78,4.78,0,0,0-.32,1.75,4.49,4.49,0,0,0,.33,1.74,4.27,4.27,0,0,0,.9,1.39,4,4,0,0,0,1.36.92,4.47,4.47,0,0,0,1.72.33,4.53,4.53,0,0,0,1.94-.41,4.38,4.38,0,0,0,1.64-1.35l-.9-.75a3.29,3.29,0,0,1-1,1,3,3,0,0,1-1.63.43,2.75,2.75,0,0,1-1.15-.23,2.92,2.92,0,0,1-1-.63,3.33,3.33,0,0,1-1-2.13Z" fill="#575756"/></svg>